%TF.GenerationSoftware,KiCad,Pcbnew,9.0.0*%
%TF.CreationDate,2025-05-23T22:19:31+02:00*%
%TF.ProjectId,Bojen_PCB,426f6a65-6e5f-4504-9342-2e6b69636164,V1*%
%TF.SameCoordinates,Original*%
%TF.FileFunction,Legend,Top*%
%TF.FilePolarity,Positive*%
%FSLAX46Y46*%
G04 Gerber Fmt 4.6, Leading zero omitted, Abs format (unit mm)*
G04 Created by KiCad (PCBNEW 9.0.0) date 2025-05-23 22:19:31*
%MOMM*%
%LPD*%
G01*
G04 APERTURE LIST*
%ADD10C,0.200000*%
%ADD11C,0.300000*%
%ADD12C,0.150000*%
%ADD13C,0.100000*%
%ADD14C,0.175000*%
%ADD15C,0.120000*%
%ADD16C,0.127000*%
%ADD17O,2.300000X1.600000*%
%ADD18R,2.300000X1.600000*%
G04 APERTURE END LIST*
D10*
X130449435Y-129677219D02*
X131068482Y-129677219D01*
X131068482Y-129677219D02*
X130735149Y-130058171D01*
X130735149Y-130058171D02*
X130878006Y-130058171D01*
X130878006Y-130058171D02*
X130973244Y-130105790D01*
X130973244Y-130105790D02*
X131020863Y-130153409D01*
X131020863Y-130153409D02*
X131068482Y-130248647D01*
X131068482Y-130248647D02*
X131068482Y-130486742D01*
X131068482Y-130486742D02*
X131020863Y-130581980D01*
X131020863Y-130581980D02*
X130973244Y-130629600D01*
X130973244Y-130629600D02*
X130878006Y-130677219D01*
X130878006Y-130677219D02*
X130592292Y-130677219D01*
X130592292Y-130677219D02*
X130497054Y-130629600D01*
X130497054Y-130629600D02*
X130449435Y-130581980D01*
X131497054Y-130581980D02*
X131544673Y-130629600D01*
X131544673Y-130629600D02*
X131497054Y-130677219D01*
X131497054Y-130677219D02*
X131449435Y-130629600D01*
X131449435Y-130629600D02*
X131497054Y-130581980D01*
X131497054Y-130581980D02*
X131497054Y-130677219D01*
X131878006Y-129677219D02*
X132497053Y-129677219D01*
X132497053Y-129677219D02*
X132163720Y-130058171D01*
X132163720Y-130058171D02*
X132306577Y-130058171D01*
X132306577Y-130058171D02*
X132401815Y-130105790D01*
X132401815Y-130105790D02*
X132449434Y-130153409D01*
X132449434Y-130153409D02*
X132497053Y-130248647D01*
X132497053Y-130248647D02*
X132497053Y-130486742D01*
X132497053Y-130486742D02*
X132449434Y-130581980D01*
X132449434Y-130581980D02*
X132401815Y-130629600D01*
X132401815Y-130629600D02*
X132306577Y-130677219D01*
X132306577Y-130677219D02*
X132020863Y-130677219D01*
X132020863Y-130677219D02*
X131925625Y-130629600D01*
X131925625Y-130629600D02*
X131878006Y-130581980D01*
X132782768Y-129677219D02*
X133116101Y-130677219D01*
X133116101Y-130677219D02*
X133449434Y-129677219D01*
X134544673Y-130677219D02*
X134544673Y-129677219D01*
X134544673Y-129677219D02*
X134782768Y-129677219D01*
X134782768Y-129677219D02*
X134925625Y-129724838D01*
X134925625Y-129724838D02*
X135020863Y-129820076D01*
X135020863Y-129820076D02*
X135068482Y-129915314D01*
X135068482Y-129915314D02*
X135116101Y-130105790D01*
X135116101Y-130105790D02*
X135116101Y-130248647D01*
X135116101Y-130248647D02*
X135068482Y-130439123D01*
X135068482Y-130439123D02*
X135020863Y-130534361D01*
X135020863Y-130534361D02*
X134925625Y-130629600D01*
X134925625Y-130629600D02*
X134782768Y-130677219D01*
X134782768Y-130677219D02*
X134544673Y-130677219D01*
X135544673Y-130677219D02*
X135544673Y-130010552D01*
X135544673Y-129677219D02*
X135497054Y-129724838D01*
X135497054Y-129724838D02*
X135544673Y-129772457D01*
X135544673Y-129772457D02*
X135592292Y-129724838D01*
X135592292Y-129724838D02*
X135544673Y-129677219D01*
X135544673Y-129677219D02*
X135544673Y-129772457D01*
X135973244Y-130629600D02*
X136068482Y-130677219D01*
X136068482Y-130677219D02*
X136258958Y-130677219D01*
X136258958Y-130677219D02*
X136354196Y-130629600D01*
X136354196Y-130629600D02*
X136401815Y-130534361D01*
X136401815Y-130534361D02*
X136401815Y-130486742D01*
X136401815Y-130486742D02*
X136354196Y-130391504D01*
X136354196Y-130391504D02*
X136258958Y-130343885D01*
X136258958Y-130343885D02*
X136116101Y-130343885D01*
X136116101Y-130343885D02*
X136020863Y-130296266D01*
X136020863Y-130296266D02*
X135973244Y-130201028D01*
X135973244Y-130201028D02*
X135973244Y-130153409D01*
X135973244Y-130153409D02*
X136020863Y-130058171D01*
X136020863Y-130058171D02*
X136116101Y-130010552D01*
X136116101Y-130010552D02*
X136258958Y-130010552D01*
X136258958Y-130010552D02*
X136354196Y-130058171D01*
X136830387Y-130010552D02*
X136830387Y-131010552D01*
X136830387Y-130058171D02*
X136925625Y-130010552D01*
X136925625Y-130010552D02*
X137116101Y-130010552D01*
X137116101Y-130010552D02*
X137211339Y-130058171D01*
X137211339Y-130058171D02*
X137258958Y-130105790D01*
X137258958Y-130105790D02*
X137306577Y-130201028D01*
X137306577Y-130201028D02*
X137306577Y-130486742D01*
X137306577Y-130486742D02*
X137258958Y-130581980D01*
X137258958Y-130581980D02*
X137211339Y-130629600D01*
X137211339Y-130629600D02*
X137116101Y-130677219D01*
X137116101Y-130677219D02*
X136925625Y-130677219D01*
X136925625Y-130677219D02*
X136830387Y-130629600D01*
X131020863Y-116977219D02*
X130544673Y-116977219D01*
X130544673Y-116977219D02*
X130497054Y-117453409D01*
X130497054Y-117453409D02*
X130544673Y-117405790D01*
X130544673Y-117405790D02*
X130639911Y-117358171D01*
X130639911Y-117358171D02*
X130878006Y-117358171D01*
X130878006Y-117358171D02*
X130973244Y-117405790D01*
X130973244Y-117405790D02*
X131020863Y-117453409D01*
X131020863Y-117453409D02*
X131068482Y-117548647D01*
X131068482Y-117548647D02*
X131068482Y-117786742D01*
X131068482Y-117786742D02*
X131020863Y-117881980D01*
X131020863Y-117881980D02*
X130973244Y-117929600D01*
X130973244Y-117929600D02*
X130878006Y-117977219D01*
X130878006Y-117977219D02*
X130639911Y-117977219D01*
X130639911Y-117977219D02*
X130544673Y-117929600D01*
X130544673Y-117929600D02*
X130497054Y-117881980D01*
X131354197Y-116977219D02*
X131687530Y-117977219D01*
X131687530Y-117977219D02*
X132020863Y-116977219D01*
X133116102Y-117977219D02*
X133116102Y-116977219D01*
X133116102Y-116977219D02*
X133354197Y-116977219D01*
X133354197Y-116977219D02*
X133497054Y-117024838D01*
X133497054Y-117024838D02*
X133592292Y-117120076D01*
X133592292Y-117120076D02*
X133639911Y-117215314D01*
X133639911Y-117215314D02*
X133687530Y-117405790D01*
X133687530Y-117405790D02*
X133687530Y-117548647D01*
X133687530Y-117548647D02*
X133639911Y-117739123D01*
X133639911Y-117739123D02*
X133592292Y-117834361D01*
X133592292Y-117834361D02*
X133497054Y-117929600D01*
X133497054Y-117929600D02*
X133354197Y-117977219D01*
X133354197Y-117977219D02*
X133116102Y-117977219D01*
X134116102Y-117977219D02*
X134116102Y-117310552D01*
X134116102Y-116977219D02*
X134068483Y-117024838D01*
X134068483Y-117024838D02*
X134116102Y-117072457D01*
X134116102Y-117072457D02*
X134163721Y-117024838D01*
X134163721Y-117024838D02*
X134116102Y-116977219D01*
X134116102Y-116977219D02*
X134116102Y-117072457D01*
X134544673Y-117929600D02*
X134639911Y-117977219D01*
X134639911Y-117977219D02*
X134830387Y-117977219D01*
X134830387Y-117977219D02*
X134925625Y-117929600D01*
X134925625Y-117929600D02*
X134973244Y-117834361D01*
X134973244Y-117834361D02*
X134973244Y-117786742D01*
X134973244Y-117786742D02*
X134925625Y-117691504D01*
X134925625Y-117691504D02*
X134830387Y-117643885D01*
X134830387Y-117643885D02*
X134687530Y-117643885D01*
X134687530Y-117643885D02*
X134592292Y-117596266D01*
X134592292Y-117596266D02*
X134544673Y-117501028D01*
X134544673Y-117501028D02*
X134544673Y-117453409D01*
X134544673Y-117453409D02*
X134592292Y-117358171D01*
X134592292Y-117358171D02*
X134687530Y-117310552D01*
X134687530Y-117310552D02*
X134830387Y-117310552D01*
X134830387Y-117310552D02*
X134925625Y-117358171D01*
X135401816Y-117310552D02*
X135401816Y-118310552D01*
X135401816Y-117358171D02*
X135497054Y-117310552D01*
X135497054Y-117310552D02*
X135687530Y-117310552D01*
X135687530Y-117310552D02*
X135782768Y-117358171D01*
X135782768Y-117358171D02*
X135830387Y-117405790D01*
X135830387Y-117405790D02*
X135878006Y-117501028D01*
X135878006Y-117501028D02*
X135878006Y-117786742D01*
X135878006Y-117786742D02*
X135830387Y-117881980D01*
X135830387Y-117881980D02*
X135782768Y-117929600D01*
X135782768Y-117929600D02*
X135687530Y-117977219D01*
X135687530Y-117977219D02*
X135497054Y-117977219D01*
X135497054Y-117977219D02*
X135401816Y-117929600D01*
X38872219Y-113454136D02*
X38872219Y-113930326D01*
X38872219Y-113930326D02*
X39348409Y-113977945D01*
X39348409Y-113977945D02*
X39300790Y-113930326D01*
X39300790Y-113930326D02*
X39253171Y-113835088D01*
X39253171Y-113835088D02*
X39253171Y-113596993D01*
X39253171Y-113596993D02*
X39300790Y-113501755D01*
X39300790Y-113501755D02*
X39348409Y-113454136D01*
X39348409Y-113454136D02*
X39443647Y-113406517D01*
X39443647Y-113406517D02*
X39681742Y-113406517D01*
X39681742Y-113406517D02*
X39776980Y-113454136D01*
X39776980Y-113454136D02*
X39824600Y-113501755D01*
X39824600Y-113501755D02*
X39872219Y-113596993D01*
X39872219Y-113596993D02*
X39872219Y-113835088D01*
X39872219Y-113835088D02*
X39824600Y-113930326D01*
X39824600Y-113930326D02*
X39776980Y-113977945D01*
X38872219Y-113120802D02*
X39872219Y-112787469D01*
X39872219Y-112787469D02*
X38872219Y-112454136D01*
X39872219Y-110755326D02*
X38872219Y-110755326D01*
X38872219Y-110755326D02*
X38872219Y-110517231D01*
X38872219Y-110517231D02*
X38919838Y-110374374D01*
X38919838Y-110374374D02*
X39015076Y-110279136D01*
X39015076Y-110279136D02*
X39110314Y-110231517D01*
X39110314Y-110231517D02*
X39300790Y-110183898D01*
X39300790Y-110183898D02*
X39443647Y-110183898D01*
X39443647Y-110183898D02*
X39634123Y-110231517D01*
X39634123Y-110231517D02*
X39729361Y-110279136D01*
X39729361Y-110279136D02*
X39824600Y-110374374D01*
X39824600Y-110374374D02*
X39872219Y-110517231D01*
X39872219Y-110517231D02*
X39872219Y-110755326D01*
X38919838Y-107691517D02*
X38872219Y-107786755D01*
X38872219Y-107786755D02*
X38872219Y-107929612D01*
X38872219Y-107929612D02*
X38919838Y-108072469D01*
X38919838Y-108072469D02*
X39015076Y-108167707D01*
X39015076Y-108167707D02*
X39110314Y-108215326D01*
X39110314Y-108215326D02*
X39300790Y-108262945D01*
X39300790Y-108262945D02*
X39443647Y-108262945D01*
X39443647Y-108262945D02*
X39634123Y-108215326D01*
X39634123Y-108215326D02*
X39729361Y-108167707D01*
X39729361Y-108167707D02*
X39824600Y-108072469D01*
X39824600Y-108072469D02*
X39872219Y-107929612D01*
X39872219Y-107929612D02*
X39872219Y-107834374D01*
X39872219Y-107834374D02*
X39824600Y-107691517D01*
X39824600Y-107691517D02*
X39776980Y-107643898D01*
X39776980Y-107643898D02*
X39443647Y-107643898D01*
X39443647Y-107643898D02*
X39443647Y-107834374D01*
D11*
X31842048Y-111132455D02*
X31842048Y-111846741D01*
X31842048Y-111846741D02*
X30342048Y-111846741D01*
X31056334Y-110632455D02*
X31056334Y-110132455D01*
X31842048Y-109918169D02*
X31842048Y-110632455D01*
X31842048Y-110632455D02*
X30342048Y-110632455D01*
X30342048Y-110632455D02*
X30342048Y-109918169D01*
X31842048Y-109275312D02*
X30342048Y-109275312D01*
X30342048Y-109275312D02*
X30342048Y-108918169D01*
X30342048Y-108918169D02*
X30413477Y-108703883D01*
X30413477Y-108703883D02*
X30556334Y-108561026D01*
X30556334Y-108561026D02*
X30699191Y-108489597D01*
X30699191Y-108489597D02*
X30984905Y-108418169D01*
X30984905Y-108418169D02*
X31199191Y-108418169D01*
X31199191Y-108418169D02*
X31484905Y-108489597D01*
X31484905Y-108489597D02*
X31627762Y-108561026D01*
X31627762Y-108561026D02*
X31770620Y-108703883D01*
X31770620Y-108703883D02*
X31842048Y-108918169D01*
X31842048Y-108918169D02*
X31842048Y-109275312D01*
D10*
X31887219Y-131234136D02*
X31887219Y-131710326D01*
X31887219Y-131710326D02*
X32363409Y-131757945D01*
X32363409Y-131757945D02*
X32315790Y-131710326D01*
X32315790Y-131710326D02*
X32268171Y-131615088D01*
X32268171Y-131615088D02*
X32268171Y-131376993D01*
X32268171Y-131376993D02*
X32315790Y-131281755D01*
X32315790Y-131281755D02*
X32363409Y-131234136D01*
X32363409Y-131234136D02*
X32458647Y-131186517D01*
X32458647Y-131186517D02*
X32696742Y-131186517D01*
X32696742Y-131186517D02*
X32791980Y-131234136D01*
X32791980Y-131234136D02*
X32839600Y-131281755D01*
X32839600Y-131281755D02*
X32887219Y-131376993D01*
X32887219Y-131376993D02*
X32887219Y-131615088D01*
X32887219Y-131615088D02*
X32839600Y-131710326D01*
X32839600Y-131710326D02*
X32791980Y-131757945D01*
X31887219Y-130900802D02*
X32887219Y-130567469D01*
X32887219Y-130567469D02*
X31887219Y-130234136D01*
X31934838Y-128615088D02*
X31887219Y-128710326D01*
X31887219Y-128710326D02*
X31887219Y-128853183D01*
X31887219Y-128853183D02*
X31934838Y-128996040D01*
X31934838Y-128996040D02*
X32030076Y-129091278D01*
X32030076Y-129091278D02*
X32125314Y-129138897D01*
X32125314Y-129138897D02*
X32315790Y-129186516D01*
X32315790Y-129186516D02*
X32458647Y-129186516D01*
X32458647Y-129186516D02*
X32649123Y-129138897D01*
X32649123Y-129138897D02*
X32744361Y-129091278D01*
X32744361Y-129091278D02*
X32839600Y-128996040D01*
X32839600Y-128996040D02*
X32887219Y-128853183D01*
X32887219Y-128853183D02*
X32887219Y-128757945D01*
X32887219Y-128757945D02*
X32839600Y-128615088D01*
X32839600Y-128615088D02*
X32791980Y-128567469D01*
X32791980Y-128567469D02*
X32458647Y-128567469D01*
X32458647Y-128567469D02*
X32458647Y-128757945D01*
X32887219Y-128138897D02*
X31887219Y-128138897D01*
X31887219Y-128138897D02*
X31887219Y-127757945D01*
X31887219Y-127757945D02*
X31934838Y-127662707D01*
X31934838Y-127662707D02*
X31982457Y-127615088D01*
X31982457Y-127615088D02*
X32077695Y-127567469D01*
X32077695Y-127567469D02*
X32220552Y-127567469D01*
X32220552Y-127567469D02*
X32315790Y-127615088D01*
X32315790Y-127615088D02*
X32363409Y-127662707D01*
X32363409Y-127662707D02*
X32411028Y-127757945D01*
X32411028Y-127757945D02*
X32411028Y-128138897D01*
X32839600Y-127186516D02*
X32887219Y-127043659D01*
X32887219Y-127043659D02*
X32887219Y-126805564D01*
X32887219Y-126805564D02*
X32839600Y-126710326D01*
X32839600Y-126710326D02*
X32791980Y-126662707D01*
X32791980Y-126662707D02*
X32696742Y-126615088D01*
X32696742Y-126615088D02*
X32601504Y-126615088D01*
X32601504Y-126615088D02*
X32506266Y-126662707D01*
X32506266Y-126662707D02*
X32458647Y-126710326D01*
X32458647Y-126710326D02*
X32411028Y-126805564D01*
X32411028Y-126805564D02*
X32363409Y-126996040D01*
X32363409Y-126996040D02*
X32315790Y-127091278D01*
X32315790Y-127091278D02*
X32268171Y-127138897D01*
X32268171Y-127138897D02*
X32172933Y-127186516D01*
X32172933Y-127186516D02*
X32077695Y-127186516D01*
X32077695Y-127186516D02*
X31982457Y-127138897D01*
X31982457Y-127138897D02*
X31934838Y-127091278D01*
X31934838Y-127091278D02*
X31887219Y-126996040D01*
X31887219Y-126996040D02*
X31887219Y-126757945D01*
X31887219Y-126757945D02*
X31934838Y-126615088D01*
D12*
X68453095Y-140424819D02*
X68453095Y-141234342D01*
X68453095Y-141234342D02*
X68500714Y-141329580D01*
X68500714Y-141329580D02*
X68548333Y-141377200D01*
X68548333Y-141377200D02*
X68643571Y-141424819D01*
X68643571Y-141424819D02*
X68834047Y-141424819D01*
X68834047Y-141424819D02*
X68929285Y-141377200D01*
X68929285Y-141377200D02*
X68976904Y-141329580D01*
X68976904Y-141329580D02*
X69024523Y-141234342D01*
X69024523Y-141234342D02*
X69024523Y-140424819D01*
X69453095Y-140520057D02*
X69500714Y-140472438D01*
X69500714Y-140472438D02*
X69595952Y-140424819D01*
X69595952Y-140424819D02*
X69834047Y-140424819D01*
X69834047Y-140424819D02*
X69929285Y-140472438D01*
X69929285Y-140472438D02*
X69976904Y-140520057D01*
X69976904Y-140520057D02*
X70024523Y-140615295D01*
X70024523Y-140615295D02*
X70024523Y-140710533D01*
X70024523Y-140710533D02*
X69976904Y-140853390D01*
X69976904Y-140853390D02*
X69405476Y-141424819D01*
X69405476Y-141424819D02*
X70024523Y-141424819D01*
X39497095Y-128421819D02*
X40068523Y-128421819D01*
X39782809Y-129421819D02*
X39782809Y-128421819D01*
X40306619Y-128421819D02*
X40973285Y-129421819D01*
X40973285Y-128421819D02*
X40306619Y-129421819D01*
X39140905Y-124341819D02*
X39140905Y-123341819D01*
X39140905Y-123341819D02*
X39521857Y-123341819D01*
X39521857Y-123341819D02*
X39617095Y-123389438D01*
X39617095Y-123389438D02*
X39664714Y-123437057D01*
X39664714Y-123437057D02*
X39712333Y-123532295D01*
X39712333Y-123532295D02*
X39712333Y-123675152D01*
X39712333Y-123675152D02*
X39664714Y-123770390D01*
X39664714Y-123770390D02*
X39617095Y-123818009D01*
X39617095Y-123818009D02*
X39521857Y-123865628D01*
X39521857Y-123865628D02*
X39140905Y-123865628D01*
X40140905Y-124341819D02*
X40140905Y-123341819D01*
X40140905Y-123341819D02*
X40521857Y-123341819D01*
X40521857Y-123341819D02*
X40617095Y-123389438D01*
X40617095Y-123389438D02*
X40664714Y-123437057D01*
X40664714Y-123437057D02*
X40712333Y-123532295D01*
X40712333Y-123532295D02*
X40712333Y-123675152D01*
X40712333Y-123675152D02*
X40664714Y-123770390D01*
X40664714Y-123770390D02*
X40617095Y-123818009D01*
X40617095Y-123818009D02*
X40521857Y-123865628D01*
X40521857Y-123865628D02*
X40140905Y-123865628D01*
X41093286Y-124294200D02*
X41236143Y-124341819D01*
X41236143Y-124341819D02*
X41474238Y-124341819D01*
X41474238Y-124341819D02*
X41569476Y-124294200D01*
X41569476Y-124294200D02*
X41617095Y-124246580D01*
X41617095Y-124246580D02*
X41664714Y-124151342D01*
X41664714Y-124151342D02*
X41664714Y-124056104D01*
X41664714Y-124056104D02*
X41617095Y-123960866D01*
X41617095Y-123960866D02*
X41569476Y-123913247D01*
X41569476Y-123913247D02*
X41474238Y-123865628D01*
X41474238Y-123865628D02*
X41283762Y-123818009D01*
X41283762Y-123818009D02*
X41188524Y-123770390D01*
X41188524Y-123770390D02*
X41140905Y-123722771D01*
X41140905Y-123722771D02*
X41093286Y-123627533D01*
X41093286Y-123627533D02*
X41093286Y-123532295D01*
X41093286Y-123532295D02*
X41140905Y-123437057D01*
X41140905Y-123437057D02*
X41188524Y-123389438D01*
X41188524Y-123389438D02*
X41283762Y-123341819D01*
X41283762Y-123341819D02*
X41521857Y-123341819D01*
X41521857Y-123341819D02*
X41664714Y-123389438D01*
D11*
X66350774Y-140438742D02*
X66493632Y-140510171D01*
X66493632Y-140510171D02*
X66707917Y-140510171D01*
X66707917Y-140510171D02*
X66922203Y-140438742D01*
X66922203Y-140438742D02*
X67065060Y-140295885D01*
X67065060Y-140295885D02*
X67136489Y-140153028D01*
X67136489Y-140153028D02*
X67207917Y-139867314D01*
X67207917Y-139867314D02*
X67207917Y-139653028D01*
X67207917Y-139653028D02*
X67136489Y-139367314D01*
X67136489Y-139367314D02*
X67065060Y-139224457D01*
X67065060Y-139224457D02*
X66922203Y-139081600D01*
X66922203Y-139081600D02*
X66707917Y-139010171D01*
X66707917Y-139010171D02*
X66565060Y-139010171D01*
X66565060Y-139010171D02*
X66350774Y-139081600D01*
X66350774Y-139081600D02*
X66279346Y-139153028D01*
X66279346Y-139153028D02*
X66279346Y-139653028D01*
X66279346Y-139653028D02*
X66565060Y-139653028D01*
X65636489Y-139010171D02*
X65636489Y-140510171D01*
X65636489Y-140510171D02*
X65065060Y-140510171D01*
X65065060Y-140510171D02*
X64922203Y-140438742D01*
X64922203Y-140438742D02*
X64850774Y-140367314D01*
X64850774Y-140367314D02*
X64779346Y-140224457D01*
X64779346Y-140224457D02*
X64779346Y-140010171D01*
X64779346Y-140010171D02*
X64850774Y-139867314D01*
X64850774Y-139867314D02*
X64922203Y-139795885D01*
X64922203Y-139795885D02*
X65065060Y-139724457D01*
X65065060Y-139724457D02*
X65636489Y-139724457D01*
X64207917Y-139081600D02*
X63993632Y-139010171D01*
X63993632Y-139010171D02*
X63636489Y-139010171D01*
X63636489Y-139010171D02*
X63493632Y-139081600D01*
X63493632Y-139081600D02*
X63422203Y-139153028D01*
X63422203Y-139153028D02*
X63350774Y-139295885D01*
X63350774Y-139295885D02*
X63350774Y-139438742D01*
X63350774Y-139438742D02*
X63422203Y-139581600D01*
X63422203Y-139581600D02*
X63493632Y-139653028D01*
X63493632Y-139653028D02*
X63636489Y-139724457D01*
X63636489Y-139724457D02*
X63922203Y-139795885D01*
X63922203Y-139795885D02*
X64065060Y-139867314D01*
X64065060Y-139867314D02*
X64136489Y-139938742D01*
X64136489Y-139938742D02*
X64207917Y-140081600D01*
X64207917Y-140081600D02*
X64207917Y-140224457D01*
X64207917Y-140224457D02*
X64136489Y-140367314D01*
X64136489Y-140367314D02*
X64065060Y-140438742D01*
X64065060Y-140438742D02*
X63922203Y-140510171D01*
X63922203Y-140510171D02*
X63565060Y-140510171D01*
X63565060Y-140510171D02*
X63350774Y-140438742D01*
X62707918Y-139581600D02*
X61565061Y-139581600D01*
X60850775Y-139010171D02*
X60850775Y-140510171D01*
X60850775Y-140510171D02*
X59993632Y-139010171D01*
X59993632Y-139010171D02*
X59993632Y-140510171D01*
X59279346Y-139795885D02*
X58779346Y-139795885D01*
X58565060Y-139010171D02*
X59279346Y-139010171D01*
X59279346Y-139010171D02*
X59279346Y-140510171D01*
X59279346Y-140510171D02*
X58565060Y-140510171D01*
X57636488Y-140510171D02*
X57350774Y-140510171D01*
X57350774Y-140510171D02*
X57207917Y-140438742D01*
X57207917Y-140438742D02*
X57065060Y-140295885D01*
X57065060Y-140295885D02*
X56993631Y-140010171D01*
X56993631Y-140010171D02*
X56993631Y-139510171D01*
X56993631Y-139510171D02*
X57065060Y-139224457D01*
X57065060Y-139224457D02*
X57207917Y-139081600D01*
X57207917Y-139081600D02*
X57350774Y-139010171D01*
X57350774Y-139010171D02*
X57636488Y-139010171D01*
X57636488Y-139010171D02*
X57779346Y-139081600D01*
X57779346Y-139081600D02*
X57922203Y-139224457D01*
X57922203Y-139224457D02*
X57993631Y-139510171D01*
X57993631Y-139510171D02*
X57993631Y-140010171D01*
X57993631Y-140010171D02*
X57922203Y-140295885D01*
X57922203Y-140295885D02*
X57779346Y-140438742D01*
X57779346Y-140438742D02*
X57636488Y-140510171D01*
X56136488Y-139867314D02*
X56279345Y-139938742D01*
X56279345Y-139938742D02*
X56350774Y-140010171D01*
X56350774Y-140010171D02*
X56422202Y-140153028D01*
X56422202Y-140153028D02*
X56422202Y-140224457D01*
X56422202Y-140224457D02*
X56350774Y-140367314D01*
X56350774Y-140367314D02*
X56279345Y-140438742D01*
X56279345Y-140438742D02*
X56136488Y-140510171D01*
X56136488Y-140510171D02*
X55850774Y-140510171D01*
X55850774Y-140510171D02*
X55707917Y-140438742D01*
X55707917Y-140438742D02*
X55636488Y-140367314D01*
X55636488Y-140367314D02*
X55565059Y-140224457D01*
X55565059Y-140224457D02*
X55565059Y-140153028D01*
X55565059Y-140153028D02*
X55636488Y-140010171D01*
X55636488Y-140010171D02*
X55707917Y-139938742D01*
X55707917Y-139938742D02*
X55850774Y-139867314D01*
X55850774Y-139867314D02*
X56136488Y-139867314D01*
X56136488Y-139867314D02*
X56279345Y-139795885D01*
X56279345Y-139795885D02*
X56350774Y-139724457D01*
X56350774Y-139724457D02*
X56422202Y-139581600D01*
X56422202Y-139581600D02*
X56422202Y-139295885D01*
X56422202Y-139295885D02*
X56350774Y-139153028D01*
X56350774Y-139153028D02*
X56279345Y-139081600D01*
X56279345Y-139081600D02*
X56136488Y-139010171D01*
X56136488Y-139010171D02*
X55850774Y-139010171D01*
X55850774Y-139010171D02*
X55707917Y-139081600D01*
X55707917Y-139081600D02*
X55636488Y-139153028D01*
X55636488Y-139153028D02*
X55565059Y-139295885D01*
X55565059Y-139295885D02*
X55565059Y-139581600D01*
X55565059Y-139581600D02*
X55636488Y-139724457D01*
X55636488Y-139724457D02*
X55707917Y-139795885D01*
X55707917Y-139795885D02*
X55850774Y-139867314D01*
X54922203Y-139010171D02*
X54922203Y-140510171D01*
X54922203Y-140510171D02*
X54422203Y-139438742D01*
X54422203Y-139438742D02*
X53922203Y-140510171D01*
X53922203Y-140510171D02*
X53922203Y-139010171D01*
D12*
X39417095Y-130959438D02*
X39321857Y-130911819D01*
X39321857Y-130911819D02*
X39179000Y-130911819D01*
X39179000Y-130911819D02*
X39036143Y-130959438D01*
X39036143Y-130959438D02*
X38940905Y-131054676D01*
X38940905Y-131054676D02*
X38893286Y-131149914D01*
X38893286Y-131149914D02*
X38845667Y-131340390D01*
X38845667Y-131340390D02*
X38845667Y-131483247D01*
X38845667Y-131483247D02*
X38893286Y-131673723D01*
X38893286Y-131673723D02*
X38940905Y-131768961D01*
X38940905Y-131768961D02*
X39036143Y-131864200D01*
X39036143Y-131864200D02*
X39179000Y-131911819D01*
X39179000Y-131911819D02*
X39274238Y-131911819D01*
X39274238Y-131911819D02*
X39417095Y-131864200D01*
X39417095Y-131864200D02*
X39464714Y-131816580D01*
X39464714Y-131816580D02*
X39464714Y-131483247D01*
X39464714Y-131483247D02*
X39274238Y-131483247D01*
X39893286Y-131911819D02*
X39893286Y-130911819D01*
X39893286Y-130911819D02*
X40464714Y-131911819D01*
X40464714Y-131911819D02*
X40464714Y-130911819D01*
X40940905Y-131911819D02*
X40940905Y-130911819D01*
X40940905Y-130911819D02*
X41179000Y-130911819D01*
X41179000Y-130911819D02*
X41321857Y-130959438D01*
X41321857Y-130959438D02*
X41417095Y-131054676D01*
X41417095Y-131054676D02*
X41464714Y-131149914D01*
X41464714Y-131149914D02*
X41512333Y-131340390D01*
X41512333Y-131340390D02*
X41512333Y-131483247D01*
X41512333Y-131483247D02*
X41464714Y-131673723D01*
X41464714Y-131673723D02*
X41417095Y-131768961D01*
X41417095Y-131768961D02*
X41321857Y-131864200D01*
X41321857Y-131864200D02*
X41179000Y-131911819D01*
X41179000Y-131911819D02*
X40940905Y-131911819D01*
X38845667Y-133511819D02*
X39179000Y-134511819D01*
X39179000Y-134511819D02*
X39512333Y-133511819D01*
X40417095Y-134416580D02*
X40369476Y-134464200D01*
X40369476Y-134464200D02*
X40226619Y-134511819D01*
X40226619Y-134511819D02*
X40131381Y-134511819D01*
X40131381Y-134511819D02*
X39988524Y-134464200D01*
X39988524Y-134464200D02*
X39893286Y-134368961D01*
X39893286Y-134368961D02*
X39845667Y-134273723D01*
X39845667Y-134273723D02*
X39798048Y-134083247D01*
X39798048Y-134083247D02*
X39798048Y-133940390D01*
X39798048Y-133940390D02*
X39845667Y-133749914D01*
X39845667Y-133749914D02*
X39893286Y-133654676D01*
X39893286Y-133654676D02*
X39988524Y-133559438D01*
X39988524Y-133559438D02*
X40131381Y-133511819D01*
X40131381Y-133511819D02*
X40226619Y-133511819D01*
X40226619Y-133511819D02*
X40369476Y-133559438D01*
X40369476Y-133559438D02*
X40417095Y-133607057D01*
X41417095Y-134416580D02*
X41369476Y-134464200D01*
X41369476Y-134464200D02*
X41226619Y-134511819D01*
X41226619Y-134511819D02*
X41131381Y-134511819D01*
X41131381Y-134511819D02*
X40988524Y-134464200D01*
X40988524Y-134464200D02*
X40893286Y-134368961D01*
X40893286Y-134368961D02*
X40845667Y-134273723D01*
X40845667Y-134273723D02*
X40798048Y-134083247D01*
X40798048Y-134083247D02*
X40798048Y-133940390D01*
X40798048Y-133940390D02*
X40845667Y-133749914D01*
X40845667Y-133749914D02*
X40893286Y-133654676D01*
X40893286Y-133654676D02*
X40988524Y-133559438D01*
X40988524Y-133559438D02*
X41131381Y-133511819D01*
X41131381Y-133511819D02*
X41226619Y-133511819D01*
X41226619Y-133511819D02*
X41369476Y-133559438D01*
X41369476Y-133559438D02*
X41417095Y-133607057D01*
X40212333Y-126821819D02*
X39879000Y-126345628D01*
X39640905Y-126821819D02*
X39640905Y-125821819D01*
X39640905Y-125821819D02*
X40021857Y-125821819D01*
X40021857Y-125821819D02*
X40117095Y-125869438D01*
X40117095Y-125869438D02*
X40164714Y-125917057D01*
X40164714Y-125917057D02*
X40212333Y-126012295D01*
X40212333Y-126012295D02*
X40212333Y-126155152D01*
X40212333Y-126155152D02*
X40164714Y-126250390D01*
X40164714Y-126250390D02*
X40117095Y-126298009D01*
X40117095Y-126298009D02*
X40021857Y-126345628D01*
X40021857Y-126345628D02*
X39640905Y-126345628D01*
X40545667Y-125821819D02*
X41212333Y-126821819D01*
X41212333Y-125821819D02*
X40545667Y-126821819D01*
X111579819Y-72556666D02*
X111103628Y-72889999D01*
X111579819Y-73128094D02*
X110579819Y-73128094D01*
X110579819Y-73128094D02*
X110579819Y-72747142D01*
X110579819Y-72747142D02*
X110627438Y-72651904D01*
X110627438Y-72651904D02*
X110675057Y-72604285D01*
X110675057Y-72604285D02*
X110770295Y-72556666D01*
X110770295Y-72556666D02*
X110913152Y-72556666D01*
X110913152Y-72556666D02*
X111008390Y-72604285D01*
X111008390Y-72604285D02*
X111056009Y-72651904D01*
X111056009Y-72651904D02*
X111103628Y-72747142D01*
X111103628Y-72747142D02*
X111103628Y-73128094D01*
X110675057Y-72175713D02*
X110627438Y-72128094D01*
X110627438Y-72128094D02*
X110579819Y-72032856D01*
X110579819Y-72032856D02*
X110579819Y-71794761D01*
X110579819Y-71794761D02*
X110627438Y-71699523D01*
X110627438Y-71699523D02*
X110675057Y-71651904D01*
X110675057Y-71651904D02*
X110770295Y-71604285D01*
X110770295Y-71604285D02*
X110865533Y-71604285D01*
X110865533Y-71604285D02*
X111008390Y-71651904D01*
X111008390Y-71651904D02*
X111579819Y-72223332D01*
X111579819Y-72223332D02*
X111579819Y-71604285D01*
D13*
X126653580Y-122286595D02*
X125844057Y-122286595D01*
X125844057Y-122286595D02*
X125748819Y-122334214D01*
X125748819Y-122334214D02*
X125701200Y-122381833D01*
X125701200Y-122381833D02*
X125653580Y-122477071D01*
X125653580Y-122477071D02*
X125653580Y-122667547D01*
X125653580Y-122667547D02*
X125701200Y-122762785D01*
X125701200Y-122762785D02*
X125748819Y-122810404D01*
X125748819Y-122810404D02*
X125844057Y-122858023D01*
X125844057Y-122858023D02*
X126653580Y-122858023D01*
X126653580Y-123762785D02*
X126653580Y-123572309D01*
X126653580Y-123572309D02*
X126605961Y-123477071D01*
X126605961Y-123477071D02*
X126558342Y-123429452D01*
X126558342Y-123429452D02*
X126415485Y-123334214D01*
X126415485Y-123334214D02*
X126225009Y-123286595D01*
X126225009Y-123286595D02*
X125844057Y-123286595D01*
X125844057Y-123286595D02*
X125748819Y-123334214D01*
X125748819Y-123334214D02*
X125701200Y-123381833D01*
X125701200Y-123381833D02*
X125653580Y-123477071D01*
X125653580Y-123477071D02*
X125653580Y-123667547D01*
X125653580Y-123667547D02*
X125701200Y-123762785D01*
X125701200Y-123762785D02*
X125748819Y-123810404D01*
X125748819Y-123810404D02*
X125844057Y-123858023D01*
X125844057Y-123858023D02*
X126082152Y-123858023D01*
X126082152Y-123858023D02*
X126177390Y-123810404D01*
X126177390Y-123810404D02*
X126225009Y-123762785D01*
X126225009Y-123762785D02*
X126272628Y-123667547D01*
X126272628Y-123667547D02*
X126272628Y-123477071D01*
X126272628Y-123477071D02*
X126225009Y-123381833D01*
X126225009Y-123381833D02*
X126177390Y-123334214D01*
X126177390Y-123334214D02*
X126082152Y-123286595D01*
D10*
X95763780Y-124703982D02*
X95763780Y-124132554D01*
X95763780Y-124418268D02*
X96763780Y-124418268D01*
X96763780Y-124418268D02*
X96620923Y-124323030D01*
X96620923Y-124323030D02*
X96525685Y-124227792D01*
X96525685Y-124227792D02*
X96478066Y-124132554D01*
X96763780Y-125561125D02*
X96763780Y-125370649D01*
X96763780Y-125370649D02*
X96716161Y-125275411D01*
X96716161Y-125275411D02*
X96668542Y-125227792D01*
X96668542Y-125227792D02*
X96525685Y-125132554D01*
X96525685Y-125132554D02*
X96335209Y-125084935D01*
X96335209Y-125084935D02*
X95954257Y-125084935D01*
X95954257Y-125084935D02*
X95859019Y-125132554D01*
X95859019Y-125132554D02*
X95811400Y-125180173D01*
X95811400Y-125180173D02*
X95763780Y-125275411D01*
X95763780Y-125275411D02*
X95763780Y-125465887D01*
X95763780Y-125465887D02*
X95811400Y-125561125D01*
X95811400Y-125561125D02*
X95859019Y-125608744D01*
X95859019Y-125608744D02*
X95954257Y-125656363D01*
X95954257Y-125656363D02*
X96192352Y-125656363D01*
X96192352Y-125656363D02*
X96287590Y-125608744D01*
X96287590Y-125608744D02*
X96335209Y-125561125D01*
X96335209Y-125561125D02*
X96382828Y-125465887D01*
X96382828Y-125465887D02*
X96382828Y-125275411D01*
X96382828Y-125275411D02*
X96335209Y-125180173D01*
X96335209Y-125180173D02*
X96287590Y-125132554D01*
X96287590Y-125132554D02*
X96192352Y-125084935D01*
X95859019Y-126656363D02*
X95811400Y-126608744D01*
X95811400Y-126608744D02*
X95763780Y-126465887D01*
X95763780Y-126465887D02*
X95763780Y-126370649D01*
X95763780Y-126370649D02*
X95811400Y-126227792D01*
X95811400Y-126227792D02*
X95906638Y-126132554D01*
X95906638Y-126132554D02*
X96001876Y-126084935D01*
X96001876Y-126084935D02*
X96192352Y-126037316D01*
X96192352Y-126037316D02*
X96335209Y-126037316D01*
X96335209Y-126037316D02*
X96525685Y-126084935D01*
X96525685Y-126084935D02*
X96620923Y-126132554D01*
X96620923Y-126132554D02*
X96716161Y-126227792D01*
X96716161Y-126227792D02*
X96763780Y-126370649D01*
X96763780Y-126370649D02*
X96763780Y-126465887D01*
X96763780Y-126465887D02*
X96716161Y-126608744D01*
X96716161Y-126608744D02*
X96668542Y-126656363D01*
X95763780Y-127084935D02*
X96763780Y-127084935D01*
X96287590Y-127084935D02*
X96287590Y-127656363D01*
X95763780Y-127656363D02*
X96763780Y-127656363D01*
X96144733Y-128894459D02*
X96144733Y-129656364D01*
X95763780Y-130894459D02*
X96763780Y-130894459D01*
X96763780Y-131561125D02*
X96763780Y-131751601D01*
X96763780Y-131751601D02*
X96716161Y-131846839D01*
X96716161Y-131846839D02*
X96620923Y-131942077D01*
X96620923Y-131942077D02*
X96430447Y-131989696D01*
X96430447Y-131989696D02*
X96097114Y-131989696D01*
X96097114Y-131989696D02*
X95906638Y-131942077D01*
X95906638Y-131942077D02*
X95811400Y-131846839D01*
X95811400Y-131846839D02*
X95763780Y-131751601D01*
X95763780Y-131751601D02*
X95763780Y-131561125D01*
X95763780Y-131561125D02*
X95811400Y-131465887D01*
X95811400Y-131465887D02*
X95906638Y-131370649D01*
X95906638Y-131370649D02*
X96097114Y-131323030D01*
X96097114Y-131323030D02*
X96430447Y-131323030D01*
X96430447Y-131323030D02*
X96620923Y-131370649D01*
X96620923Y-131370649D02*
X96716161Y-131465887D01*
X96716161Y-131465887D02*
X96763780Y-131561125D01*
X96287590Y-133180173D02*
X96287590Y-133513506D01*
X95763780Y-133656363D02*
X95763780Y-133180173D01*
X95763780Y-133180173D02*
X96763780Y-133180173D01*
X96763780Y-133180173D02*
X96763780Y-133656363D01*
X95763780Y-133989697D02*
X96430447Y-134513506D01*
X96430447Y-133989697D02*
X95763780Y-134513506D01*
X96430447Y-134894459D02*
X95430447Y-134894459D01*
X96382828Y-134894459D02*
X96430447Y-134989697D01*
X96430447Y-134989697D02*
X96430447Y-135180173D01*
X96430447Y-135180173D02*
X96382828Y-135275411D01*
X96382828Y-135275411D02*
X96335209Y-135323030D01*
X96335209Y-135323030D02*
X96239971Y-135370649D01*
X96239971Y-135370649D02*
X95954257Y-135370649D01*
X95954257Y-135370649D02*
X95859019Y-135323030D01*
X95859019Y-135323030D02*
X95811400Y-135275411D01*
X95811400Y-135275411D02*
X95763780Y-135180173D01*
X95763780Y-135180173D02*
X95763780Y-134989697D01*
X95763780Y-134989697D02*
X95811400Y-134894459D01*
X95763780Y-136227792D02*
X96287590Y-136227792D01*
X96287590Y-136227792D02*
X96382828Y-136180173D01*
X96382828Y-136180173D02*
X96430447Y-136084935D01*
X96430447Y-136084935D02*
X96430447Y-135894459D01*
X96430447Y-135894459D02*
X96382828Y-135799221D01*
X95811400Y-136227792D02*
X95763780Y-136132554D01*
X95763780Y-136132554D02*
X95763780Y-135894459D01*
X95763780Y-135894459D02*
X95811400Y-135799221D01*
X95811400Y-135799221D02*
X95906638Y-135751602D01*
X95906638Y-135751602D02*
X96001876Y-135751602D01*
X96001876Y-135751602D02*
X96097114Y-135799221D01*
X96097114Y-135799221D02*
X96144733Y-135894459D01*
X96144733Y-135894459D02*
X96144733Y-136132554D01*
X96144733Y-136132554D02*
X96192352Y-136227792D01*
X96430447Y-136703983D02*
X95763780Y-136703983D01*
X96335209Y-136703983D02*
X96382828Y-136751602D01*
X96382828Y-136751602D02*
X96430447Y-136846840D01*
X96430447Y-136846840D02*
X96430447Y-136989697D01*
X96430447Y-136989697D02*
X96382828Y-137084935D01*
X96382828Y-137084935D02*
X96287590Y-137132554D01*
X96287590Y-137132554D02*
X95763780Y-137132554D01*
X95763780Y-138037316D02*
X96763780Y-138037316D01*
X95811400Y-138037316D02*
X95763780Y-137942078D01*
X95763780Y-137942078D02*
X95763780Y-137751602D01*
X95763780Y-137751602D02*
X95811400Y-137656364D01*
X95811400Y-137656364D02*
X95859019Y-137608745D01*
X95859019Y-137608745D02*
X95954257Y-137561126D01*
X95954257Y-137561126D02*
X96239971Y-137561126D01*
X96239971Y-137561126D02*
X96335209Y-137608745D01*
X96335209Y-137608745D02*
X96382828Y-137656364D01*
X96382828Y-137656364D02*
X96430447Y-137751602D01*
X96430447Y-137751602D02*
X96430447Y-137942078D01*
X96430447Y-137942078D02*
X96382828Y-138037316D01*
X95811400Y-138894459D02*
X95763780Y-138799221D01*
X95763780Y-138799221D02*
X95763780Y-138608745D01*
X95763780Y-138608745D02*
X95811400Y-138513507D01*
X95811400Y-138513507D02*
X95906638Y-138465888D01*
X95906638Y-138465888D02*
X96287590Y-138465888D01*
X96287590Y-138465888D02*
X96382828Y-138513507D01*
X96382828Y-138513507D02*
X96430447Y-138608745D01*
X96430447Y-138608745D02*
X96430447Y-138799221D01*
X96430447Y-138799221D02*
X96382828Y-138894459D01*
X96382828Y-138894459D02*
X96287590Y-138942078D01*
X96287590Y-138942078D02*
X96192352Y-138942078D01*
X96192352Y-138942078D02*
X96097114Y-138465888D01*
X95763780Y-139370650D02*
X96430447Y-139370650D01*
X96239971Y-139370650D02*
X96335209Y-139418269D01*
X96335209Y-139418269D02*
X96382828Y-139465888D01*
X96382828Y-139465888D02*
X96430447Y-139561126D01*
X96430447Y-139561126D02*
X96430447Y-139656364D01*
D12*
X31575476Y-139789819D02*
X31575476Y-140504104D01*
X31575476Y-140504104D02*
X31527857Y-140646961D01*
X31527857Y-140646961D02*
X31432619Y-140742200D01*
X31432619Y-140742200D02*
X31289762Y-140789819D01*
X31289762Y-140789819D02*
X31194524Y-140789819D01*
X32575476Y-140789819D02*
X32004048Y-140789819D01*
X32289762Y-140789819D02*
X32289762Y-139789819D01*
X32289762Y-139789819D02*
X32194524Y-139932676D01*
X32194524Y-139932676D02*
X32099286Y-140027914D01*
X32099286Y-140027914D02*
X32004048Y-140075533D01*
X33194524Y-139789819D02*
X33289762Y-139789819D01*
X33289762Y-139789819D02*
X33385000Y-139837438D01*
X33385000Y-139837438D02*
X33432619Y-139885057D01*
X33432619Y-139885057D02*
X33480238Y-139980295D01*
X33480238Y-139980295D02*
X33527857Y-140170771D01*
X33527857Y-140170771D02*
X33527857Y-140408866D01*
X33527857Y-140408866D02*
X33480238Y-140599342D01*
X33480238Y-140599342D02*
X33432619Y-140694580D01*
X33432619Y-140694580D02*
X33385000Y-140742200D01*
X33385000Y-140742200D02*
X33289762Y-140789819D01*
X33289762Y-140789819D02*
X33194524Y-140789819D01*
X33194524Y-140789819D02*
X33099286Y-140742200D01*
X33099286Y-140742200D02*
X33051667Y-140694580D01*
X33051667Y-140694580D02*
X33004048Y-140599342D01*
X33004048Y-140599342D02*
X32956429Y-140408866D01*
X32956429Y-140408866D02*
X32956429Y-140170771D01*
X32956429Y-140170771D02*
X33004048Y-139980295D01*
X33004048Y-139980295D02*
X33051667Y-139885057D01*
X33051667Y-139885057D02*
X33099286Y-139837438D01*
X33099286Y-139837438D02*
X33194524Y-139789819D01*
X136404819Y-127968333D02*
X137119104Y-127968333D01*
X137119104Y-127968333D02*
X137261961Y-128015952D01*
X137261961Y-128015952D02*
X137357200Y-128111190D01*
X137357200Y-128111190D02*
X137404819Y-128254047D01*
X137404819Y-128254047D02*
X137404819Y-128349285D01*
X136404819Y-127015952D02*
X136404819Y-127492142D01*
X136404819Y-127492142D02*
X136881009Y-127539761D01*
X136881009Y-127539761D02*
X136833390Y-127492142D01*
X136833390Y-127492142D02*
X136785771Y-127396904D01*
X136785771Y-127396904D02*
X136785771Y-127158809D01*
X136785771Y-127158809D02*
X136833390Y-127063571D01*
X136833390Y-127063571D02*
X136881009Y-127015952D01*
X136881009Y-127015952D02*
X136976247Y-126968333D01*
X136976247Y-126968333D02*
X137214342Y-126968333D01*
X137214342Y-126968333D02*
X137309580Y-127015952D01*
X137309580Y-127015952D02*
X137357200Y-127063571D01*
X137357200Y-127063571D02*
X137404819Y-127158809D01*
X137404819Y-127158809D02*
X137404819Y-127396904D01*
X137404819Y-127396904D02*
X137357200Y-127492142D01*
X137357200Y-127492142D02*
X137309580Y-127539761D01*
X129224819Y-120958333D02*
X129939104Y-120958333D01*
X129939104Y-120958333D02*
X130081961Y-121005952D01*
X130081961Y-121005952D02*
X130177200Y-121101190D01*
X130177200Y-121101190D02*
X130224819Y-121244047D01*
X130224819Y-121244047D02*
X130224819Y-121339285D01*
X129558152Y-120053571D02*
X130224819Y-120053571D01*
X129177200Y-120291666D02*
X129891485Y-120529761D01*
X129891485Y-120529761D02*
X129891485Y-119910714D01*
X191590476Y-80959819D02*
X191590476Y-81674104D01*
X191590476Y-81674104D02*
X191542857Y-81816961D01*
X191542857Y-81816961D02*
X191447619Y-81912200D01*
X191447619Y-81912200D02*
X191304762Y-81959819D01*
X191304762Y-81959819D02*
X191209524Y-81959819D01*
X192590476Y-81959819D02*
X192019048Y-81959819D01*
X192304762Y-81959819D02*
X192304762Y-80959819D01*
X192304762Y-80959819D02*
X192209524Y-81102676D01*
X192209524Y-81102676D02*
X192114286Y-81197914D01*
X192114286Y-81197914D02*
X192019048Y-81245533D01*
X192923810Y-80959819D02*
X193542857Y-80959819D01*
X193542857Y-80959819D02*
X193209524Y-81340771D01*
X193209524Y-81340771D02*
X193352381Y-81340771D01*
X193352381Y-81340771D02*
X193447619Y-81388390D01*
X193447619Y-81388390D02*
X193495238Y-81436009D01*
X193495238Y-81436009D02*
X193542857Y-81531247D01*
X193542857Y-81531247D02*
X193542857Y-81769342D01*
X193542857Y-81769342D02*
X193495238Y-81864580D01*
X193495238Y-81864580D02*
X193447619Y-81912200D01*
X193447619Y-81912200D02*
X193352381Y-81959819D01*
X193352381Y-81959819D02*
X193066667Y-81959819D01*
X193066667Y-81959819D02*
X192971429Y-81912200D01*
X192971429Y-81912200D02*
X192923810Y-81864580D01*
X191595476Y-58719819D02*
X191595476Y-59434104D01*
X191595476Y-59434104D02*
X191547857Y-59576961D01*
X191547857Y-59576961D02*
X191452619Y-59672200D01*
X191452619Y-59672200D02*
X191309762Y-59719819D01*
X191309762Y-59719819D02*
X191214524Y-59719819D01*
X192595476Y-59719819D02*
X192024048Y-59719819D01*
X192309762Y-59719819D02*
X192309762Y-58719819D01*
X192309762Y-58719819D02*
X192214524Y-58862676D01*
X192214524Y-58862676D02*
X192119286Y-58957914D01*
X192119286Y-58957914D02*
X192024048Y-59005533D01*
X193547857Y-59719819D02*
X192976429Y-59719819D01*
X193262143Y-59719819D02*
X193262143Y-58719819D01*
X193262143Y-58719819D02*
X193166905Y-58862676D01*
X193166905Y-58862676D02*
X193071667Y-58957914D01*
X193071667Y-58957914D02*
X192976429Y-59005533D01*
X50633333Y-113484819D02*
X50300000Y-113008628D01*
X50061905Y-113484819D02*
X50061905Y-112484819D01*
X50061905Y-112484819D02*
X50442857Y-112484819D01*
X50442857Y-112484819D02*
X50538095Y-112532438D01*
X50538095Y-112532438D02*
X50585714Y-112580057D01*
X50585714Y-112580057D02*
X50633333Y-112675295D01*
X50633333Y-112675295D02*
X50633333Y-112818152D01*
X50633333Y-112818152D02*
X50585714Y-112913390D01*
X50585714Y-112913390D02*
X50538095Y-112961009D01*
X50538095Y-112961009D02*
X50442857Y-113008628D01*
X50442857Y-113008628D02*
X50061905Y-113008628D01*
X51490476Y-112818152D02*
X51490476Y-113484819D01*
X51252381Y-112437200D02*
X51014286Y-113151485D01*
X51014286Y-113151485D02*
X51633333Y-113151485D01*
X33634819Y-110783333D02*
X34349104Y-110783333D01*
X34349104Y-110783333D02*
X34491961Y-110830952D01*
X34491961Y-110830952D02*
X34587200Y-110926190D01*
X34587200Y-110926190D02*
X34634819Y-111069047D01*
X34634819Y-111069047D02*
X34634819Y-111164285D01*
X33634819Y-109878571D02*
X33634819Y-110069047D01*
X33634819Y-110069047D02*
X33682438Y-110164285D01*
X33682438Y-110164285D02*
X33730057Y-110211904D01*
X33730057Y-110211904D02*
X33872914Y-110307142D01*
X33872914Y-110307142D02*
X34063390Y-110354761D01*
X34063390Y-110354761D02*
X34444342Y-110354761D01*
X34444342Y-110354761D02*
X34539580Y-110307142D01*
X34539580Y-110307142D02*
X34587200Y-110259523D01*
X34587200Y-110259523D02*
X34634819Y-110164285D01*
X34634819Y-110164285D02*
X34634819Y-109973809D01*
X34634819Y-109973809D02*
X34587200Y-109878571D01*
X34587200Y-109878571D02*
X34539580Y-109830952D01*
X34539580Y-109830952D02*
X34444342Y-109783333D01*
X34444342Y-109783333D02*
X34206247Y-109783333D01*
X34206247Y-109783333D02*
X34111009Y-109830952D01*
X34111009Y-109830952D02*
X34063390Y-109878571D01*
X34063390Y-109878571D02*
X34015771Y-109973809D01*
X34015771Y-109973809D02*
X34015771Y-110164285D01*
X34015771Y-110164285D02*
X34063390Y-110259523D01*
X34063390Y-110259523D02*
X34111009Y-110307142D01*
X34111009Y-110307142D02*
X34206247Y-110354761D01*
X75444819Y-68913333D02*
X76159104Y-68913333D01*
X76159104Y-68913333D02*
X76301961Y-68960952D01*
X76301961Y-68960952D02*
X76397200Y-69056190D01*
X76397200Y-69056190D02*
X76444819Y-69199047D01*
X76444819Y-69199047D02*
X76444819Y-69294285D01*
X75873390Y-68294285D02*
X75825771Y-68389523D01*
X75825771Y-68389523D02*
X75778152Y-68437142D01*
X75778152Y-68437142D02*
X75682914Y-68484761D01*
X75682914Y-68484761D02*
X75635295Y-68484761D01*
X75635295Y-68484761D02*
X75540057Y-68437142D01*
X75540057Y-68437142D02*
X75492438Y-68389523D01*
X75492438Y-68389523D02*
X75444819Y-68294285D01*
X75444819Y-68294285D02*
X75444819Y-68103809D01*
X75444819Y-68103809D02*
X75492438Y-68008571D01*
X75492438Y-68008571D02*
X75540057Y-67960952D01*
X75540057Y-67960952D02*
X75635295Y-67913333D01*
X75635295Y-67913333D02*
X75682914Y-67913333D01*
X75682914Y-67913333D02*
X75778152Y-67960952D01*
X75778152Y-67960952D02*
X75825771Y-68008571D01*
X75825771Y-68008571D02*
X75873390Y-68103809D01*
X75873390Y-68103809D02*
X75873390Y-68294285D01*
X75873390Y-68294285D02*
X75921009Y-68389523D01*
X75921009Y-68389523D02*
X75968628Y-68437142D01*
X75968628Y-68437142D02*
X76063866Y-68484761D01*
X76063866Y-68484761D02*
X76254342Y-68484761D01*
X76254342Y-68484761D02*
X76349580Y-68437142D01*
X76349580Y-68437142D02*
X76397200Y-68389523D01*
X76397200Y-68389523D02*
X76444819Y-68294285D01*
X76444819Y-68294285D02*
X76444819Y-68103809D01*
X76444819Y-68103809D02*
X76397200Y-68008571D01*
X76397200Y-68008571D02*
X76349580Y-67960952D01*
X76349580Y-67960952D02*
X76254342Y-67913333D01*
X76254342Y-67913333D02*
X76063866Y-67913333D01*
X76063866Y-67913333D02*
X75968628Y-67960952D01*
X75968628Y-67960952D02*
X75921009Y-68008571D01*
X75921009Y-68008571D02*
X75873390Y-68103809D01*
X77984819Y-105108333D02*
X78699104Y-105108333D01*
X78699104Y-105108333D02*
X78841961Y-105155952D01*
X78841961Y-105155952D02*
X78937200Y-105251190D01*
X78937200Y-105251190D02*
X78984819Y-105394047D01*
X78984819Y-105394047D02*
X78984819Y-105489285D01*
X77984819Y-104727380D02*
X77984819Y-104108333D01*
X77984819Y-104108333D02*
X78365771Y-104441666D01*
X78365771Y-104441666D02*
X78365771Y-104298809D01*
X78365771Y-104298809D02*
X78413390Y-104203571D01*
X78413390Y-104203571D02*
X78461009Y-104155952D01*
X78461009Y-104155952D02*
X78556247Y-104108333D01*
X78556247Y-104108333D02*
X78794342Y-104108333D01*
X78794342Y-104108333D02*
X78889580Y-104155952D01*
X78889580Y-104155952D02*
X78937200Y-104203571D01*
X78937200Y-104203571D02*
X78984819Y-104298809D01*
X78984819Y-104298809D02*
X78984819Y-104584523D01*
X78984819Y-104584523D02*
X78937200Y-104679761D01*
X78937200Y-104679761D02*
X78889580Y-104727380D01*
X67778333Y-130799819D02*
X67445000Y-130323628D01*
X67206905Y-130799819D02*
X67206905Y-129799819D01*
X67206905Y-129799819D02*
X67587857Y-129799819D01*
X67587857Y-129799819D02*
X67683095Y-129847438D01*
X67683095Y-129847438D02*
X67730714Y-129895057D01*
X67730714Y-129895057D02*
X67778333Y-129990295D01*
X67778333Y-129990295D02*
X67778333Y-130133152D01*
X67778333Y-130133152D02*
X67730714Y-130228390D01*
X67730714Y-130228390D02*
X67683095Y-130276009D01*
X67683095Y-130276009D02*
X67587857Y-130323628D01*
X67587857Y-130323628D02*
X67206905Y-130323628D01*
X68111667Y-129799819D02*
X68730714Y-129799819D01*
X68730714Y-129799819D02*
X68397381Y-130180771D01*
X68397381Y-130180771D02*
X68540238Y-130180771D01*
X68540238Y-130180771D02*
X68635476Y-130228390D01*
X68635476Y-130228390D02*
X68683095Y-130276009D01*
X68683095Y-130276009D02*
X68730714Y-130371247D01*
X68730714Y-130371247D02*
X68730714Y-130609342D01*
X68730714Y-130609342D02*
X68683095Y-130704580D01*
X68683095Y-130704580D02*
X68635476Y-130752200D01*
X68635476Y-130752200D02*
X68540238Y-130799819D01*
X68540238Y-130799819D02*
X68254524Y-130799819D01*
X68254524Y-130799819D02*
X68159286Y-130752200D01*
X68159286Y-130752200D02*
X68111667Y-130704580D01*
X28249819Y-98476904D02*
X29059342Y-98476904D01*
X29059342Y-98476904D02*
X29154580Y-98429285D01*
X29154580Y-98429285D02*
X29202200Y-98381666D01*
X29202200Y-98381666D02*
X29249819Y-98286428D01*
X29249819Y-98286428D02*
X29249819Y-98095952D01*
X29249819Y-98095952D02*
X29202200Y-98000714D01*
X29202200Y-98000714D02*
X29154580Y-97953095D01*
X29154580Y-97953095D02*
X29059342Y-97905476D01*
X29059342Y-97905476D02*
X28249819Y-97905476D01*
X28249819Y-97524523D02*
X28249819Y-96857857D01*
X28249819Y-96857857D02*
X29249819Y-97286428D01*
D11*
X36549462Y-99926500D02*
X36549462Y-99426500D01*
X37335176Y-99212214D02*
X37335176Y-99926500D01*
X37335176Y-99926500D02*
X35835176Y-99926500D01*
X35835176Y-99926500D02*
X35835176Y-99212214D01*
X37263748Y-98640785D02*
X37335176Y-98426500D01*
X37335176Y-98426500D02*
X37335176Y-98069357D01*
X37335176Y-98069357D02*
X37263748Y-97926500D01*
X37263748Y-97926500D02*
X37192319Y-97855071D01*
X37192319Y-97855071D02*
X37049462Y-97783642D01*
X37049462Y-97783642D02*
X36906605Y-97783642D01*
X36906605Y-97783642D02*
X36763748Y-97855071D01*
X36763748Y-97855071D02*
X36692319Y-97926500D01*
X36692319Y-97926500D02*
X36620890Y-98069357D01*
X36620890Y-98069357D02*
X36549462Y-98355071D01*
X36549462Y-98355071D02*
X36478033Y-98497928D01*
X36478033Y-98497928D02*
X36406605Y-98569357D01*
X36406605Y-98569357D02*
X36263748Y-98640785D01*
X36263748Y-98640785D02*
X36120890Y-98640785D01*
X36120890Y-98640785D02*
X35978033Y-98569357D01*
X35978033Y-98569357D02*
X35906605Y-98497928D01*
X35906605Y-98497928D02*
X35835176Y-98355071D01*
X35835176Y-98355071D02*
X35835176Y-97997928D01*
X35835176Y-97997928D02*
X35906605Y-97783642D01*
X37335176Y-97140786D02*
X35835176Y-97140786D01*
X35835176Y-97140786D02*
X35835176Y-96569357D01*
X35835176Y-96569357D02*
X35906605Y-96426500D01*
X35906605Y-96426500D02*
X35978033Y-96355071D01*
X35978033Y-96355071D02*
X36120890Y-96283643D01*
X36120890Y-96283643D02*
X36335176Y-96283643D01*
X36335176Y-96283643D02*
X36478033Y-96355071D01*
X36478033Y-96355071D02*
X36549462Y-96426500D01*
X36549462Y-96426500D02*
X36620890Y-96569357D01*
X36620890Y-96569357D02*
X36620890Y-97140786D01*
X35835176Y-95783643D02*
X35835176Y-94855071D01*
X35835176Y-94855071D02*
X36406605Y-95355071D01*
X36406605Y-95355071D02*
X36406605Y-95140786D01*
X36406605Y-95140786D02*
X36478033Y-94997929D01*
X36478033Y-94997929D02*
X36549462Y-94926500D01*
X36549462Y-94926500D02*
X36692319Y-94855071D01*
X36692319Y-94855071D02*
X37049462Y-94855071D01*
X37049462Y-94855071D02*
X37192319Y-94926500D01*
X37192319Y-94926500D02*
X37263748Y-94997929D01*
X37263748Y-94997929D02*
X37335176Y-95140786D01*
X37335176Y-95140786D02*
X37335176Y-95569357D01*
X37335176Y-95569357D02*
X37263748Y-95712214D01*
X37263748Y-95712214D02*
X37192319Y-95783643D01*
X35978033Y-94283643D02*
X35906605Y-94212215D01*
X35906605Y-94212215D02*
X35835176Y-94069358D01*
X35835176Y-94069358D02*
X35835176Y-93712215D01*
X35835176Y-93712215D02*
X35906605Y-93569358D01*
X35906605Y-93569358D02*
X35978033Y-93497929D01*
X35978033Y-93497929D02*
X36120890Y-93426500D01*
X36120890Y-93426500D02*
X36263748Y-93426500D01*
X36263748Y-93426500D02*
X36478033Y-93497929D01*
X36478033Y-93497929D02*
X37335176Y-94355072D01*
X37335176Y-94355072D02*
X37335176Y-93426500D01*
X36763748Y-92783644D02*
X36763748Y-91640787D01*
X35835176Y-91069358D02*
X37335176Y-90712215D01*
X37335176Y-90712215D02*
X36263748Y-90426501D01*
X36263748Y-90426501D02*
X37335176Y-90140786D01*
X37335176Y-90140786D02*
X35835176Y-89783644D01*
X37335176Y-89212215D02*
X36335176Y-89212215D01*
X36620890Y-89212215D02*
X36478033Y-89140786D01*
X36478033Y-89140786D02*
X36406605Y-89069358D01*
X36406605Y-89069358D02*
X36335176Y-88926500D01*
X36335176Y-88926500D02*
X36335176Y-88783643D01*
X37335176Y-88069358D02*
X37263748Y-88212215D01*
X37263748Y-88212215D02*
X37192319Y-88283644D01*
X37192319Y-88283644D02*
X37049462Y-88355072D01*
X37049462Y-88355072D02*
X36620890Y-88355072D01*
X36620890Y-88355072D02*
X36478033Y-88283644D01*
X36478033Y-88283644D02*
X36406605Y-88212215D01*
X36406605Y-88212215D02*
X36335176Y-88069358D01*
X36335176Y-88069358D02*
X36335176Y-87855072D01*
X36335176Y-87855072D02*
X36406605Y-87712215D01*
X36406605Y-87712215D02*
X36478033Y-87640787D01*
X36478033Y-87640787D02*
X36620890Y-87569358D01*
X36620890Y-87569358D02*
X37049462Y-87569358D01*
X37049462Y-87569358D02*
X37192319Y-87640787D01*
X37192319Y-87640787D02*
X37263748Y-87712215D01*
X37263748Y-87712215D02*
X37335176Y-87855072D01*
X37335176Y-87855072D02*
X37335176Y-88069358D01*
X37335176Y-86712215D02*
X37263748Y-86855072D01*
X37263748Y-86855072D02*
X37192319Y-86926501D01*
X37192319Y-86926501D02*
X37049462Y-86997929D01*
X37049462Y-86997929D02*
X36620890Y-86997929D01*
X36620890Y-86997929D02*
X36478033Y-86926501D01*
X36478033Y-86926501D02*
X36406605Y-86855072D01*
X36406605Y-86855072D02*
X36335176Y-86712215D01*
X36335176Y-86712215D02*
X36335176Y-86497929D01*
X36335176Y-86497929D02*
X36406605Y-86355072D01*
X36406605Y-86355072D02*
X36478033Y-86283644D01*
X36478033Y-86283644D02*
X36620890Y-86212215D01*
X36620890Y-86212215D02*
X37049462Y-86212215D01*
X37049462Y-86212215D02*
X37192319Y-86283644D01*
X37192319Y-86283644D02*
X37263748Y-86355072D01*
X37263748Y-86355072D02*
X37335176Y-86497929D01*
X37335176Y-86497929D02*
X37335176Y-86712215D01*
X37335176Y-85569358D02*
X36335176Y-85569358D01*
X36478033Y-85569358D02*
X36406605Y-85497929D01*
X36406605Y-85497929D02*
X36335176Y-85355072D01*
X36335176Y-85355072D02*
X36335176Y-85140786D01*
X36335176Y-85140786D02*
X36406605Y-84997929D01*
X36406605Y-84997929D02*
X36549462Y-84926501D01*
X36549462Y-84926501D02*
X37335176Y-84926501D01*
X36549462Y-84926501D02*
X36406605Y-84855072D01*
X36406605Y-84855072D02*
X36335176Y-84712215D01*
X36335176Y-84712215D02*
X36335176Y-84497929D01*
X36335176Y-84497929D02*
X36406605Y-84355072D01*
X36406605Y-84355072D02*
X36549462Y-84283643D01*
X36549462Y-84283643D02*
X37335176Y-84283643D01*
X36763748Y-83569358D02*
X36763748Y-82426501D01*
X37335176Y-81712215D02*
X35835176Y-81712215D01*
X35835176Y-81712215D02*
X35835176Y-81355072D01*
X35835176Y-81355072D02*
X35906605Y-81140786D01*
X35906605Y-81140786D02*
X36049462Y-80997929D01*
X36049462Y-80997929D02*
X36192319Y-80926500D01*
X36192319Y-80926500D02*
X36478033Y-80855072D01*
X36478033Y-80855072D02*
X36692319Y-80855072D01*
X36692319Y-80855072D02*
X36978033Y-80926500D01*
X36978033Y-80926500D02*
X37120890Y-80997929D01*
X37120890Y-80997929D02*
X37263748Y-81140786D01*
X37263748Y-81140786D02*
X37335176Y-81355072D01*
X37335176Y-81355072D02*
X37335176Y-81712215D01*
X37263748Y-79640786D02*
X37335176Y-79783643D01*
X37335176Y-79783643D02*
X37335176Y-80069358D01*
X37335176Y-80069358D02*
X37263748Y-80212215D01*
X37263748Y-80212215D02*
X37120890Y-80283643D01*
X37120890Y-80283643D02*
X36549462Y-80283643D01*
X36549462Y-80283643D02*
X36406605Y-80212215D01*
X36406605Y-80212215D02*
X36335176Y-80069358D01*
X36335176Y-80069358D02*
X36335176Y-79783643D01*
X36335176Y-79783643D02*
X36406605Y-79640786D01*
X36406605Y-79640786D02*
X36549462Y-79569358D01*
X36549462Y-79569358D02*
X36692319Y-79569358D01*
X36692319Y-79569358D02*
X36835176Y-80283643D01*
X36335176Y-79069358D02*
X37335176Y-78712215D01*
X37335176Y-78712215D02*
X36335176Y-78355072D01*
X37335176Y-77783644D02*
X35835176Y-77783644D01*
X37335176Y-76926501D02*
X36478033Y-77569358D01*
X35835176Y-76926501D02*
X36692319Y-77783644D01*
X37335176Y-76283644D02*
X36335176Y-76283644D01*
X35835176Y-76283644D02*
X35906605Y-76355072D01*
X35906605Y-76355072D02*
X35978033Y-76283644D01*
X35978033Y-76283644D02*
X35906605Y-76212215D01*
X35906605Y-76212215D02*
X35835176Y-76283644D01*
X35835176Y-76283644D02*
X35978033Y-76283644D01*
X36335176Y-75783643D02*
X36335176Y-75212215D01*
X35835176Y-75569358D02*
X37120890Y-75569358D01*
X37120890Y-75569358D02*
X37263748Y-75497929D01*
X37263748Y-75497929D02*
X37335176Y-75355072D01*
X37335176Y-75355072D02*
X37335176Y-75212215D01*
X35835176Y-74926500D02*
X37335176Y-74426500D01*
X37335176Y-74426500D02*
X35835176Y-73926500D01*
X37335176Y-72640786D02*
X37335176Y-73497929D01*
X37335176Y-73069358D02*
X35835176Y-73069358D01*
X35835176Y-73069358D02*
X36049462Y-73212215D01*
X36049462Y-73212215D02*
X36192319Y-73355072D01*
X36192319Y-73355072D02*
X36263748Y-73497929D01*
D13*
X175513904Y-89823580D02*
X175513904Y-89014057D01*
X175513904Y-89014057D02*
X175466285Y-88918819D01*
X175466285Y-88918819D02*
X175418666Y-88871200D01*
X175418666Y-88871200D02*
X175323428Y-88823580D01*
X175323428Y-88823580D02*
X175132952Y-88823580D01*
X175132952Y-88823580D02*
X175037714Y-88871200D01*
X175037714Y-88871200D02*
X174990095Y-88918819D01*
X174990095Y-88918819D02*
X174942476Y-89014057D01*
X174942476Y-89014057D02*
X174942476Y-89823580D01*
X174418666Y-88823580D02*
X174228190Y-88823580D01*
X174228190Y-88823580D02*
X174132952Y-88871200D01*
X174132952Y-88871200D02*
X174085333Y-88918819D01*
X174085333Y-88918819D02*
X173990095Y-89061676D01*
X173990095Y-89061676D02*
X173942476Y-89252152D01*
X173942476Y-89252152D02*
X173942476Y-89633104D01*
X173942476Y-89633104D02*
X173990095Y-89728342D01*
X173990095Y-89728342D02*
X174037714Y-89775961D01*
X174037714Y-89775961D02*
X174132952Y-89823580D01*
X174132952Y-89823580D02*
X174323428Y-89823580D01*
X174323428Y-89823580D02*
X174418666Y-89775961D01*
X174418666Y-89775961D02*
X174466285Y-89728342D01*
X174466285Y-89728342D02*
X174513904Y-89633104D01*
X174513904Y-89633104D02*
X174513904Y-89395009D01*
X174513904Y-89395009D02*
X174466285Y-89299771D01*
X174466285Y-89299771D02*
X174418666Y-89252152D01*
X174418666Y-89252152D02*
X174323428Y-89204533D01*
X174323428Y-89204533D02*
X174132952Y-89204533D01*
X174132952Y-89204533D02*
X174037714Y-89252152D01*
X174037714Y-89252152D02*
X173990095Y-89299771D01*
X173990095Y-89299771D02*
X173942476Y-89395009D01*
X129283734Y-71660295D02*
X128807544Y-71660295D01*
X129378972Y-71374580D02*
X129045639Y-72374580D01*
X129045639Y-72374580D02*
X128712306Y-71374580D01*
D10*
X163603183Y-76443780D02*
X163031755Y-76443780D01*
X163317469Y-75443780D02*
X163317469Y-76443780D01*
X162269850Y-76110447D02*
X162269850Y-75443780D01*
X162698421Y-76110447D02*
X162698421Y-75586638D01*
X162698421Y-75586638D02*
X162650802Y-75491400D01*
X162650802Y-75491400D02*
X162555564Y-75443780D01*
X162555564Y-75443780D02*
X162412707Y-75443780D01*
X162412707Y-75443780D02*
X162317469Y-75491400D01*
X162317469Y-75491400D02*
X162269850Y-75539019D01*
X161793659Y-75443780D02*
X161793659Y-76110447D01*
X161793659Y-75919971D02*
X161746040Y-76015209D01*
X161746040Y-76015209D02*
X161698421Y-76062828D01*
X161698421Y-76062828D02*
X161603183Y-76110447D01*
X161603183Y-76110447D02*
X161507945Y-76110447D01*
X161174611Y-75443780D02*
X161174611Y-76443780D01*
X161174611Y-76062828D02*
X161079373Y-76110447D01*
X161079373Y-76110447D02*
X160888897Y-76110447D01*
X160888897Y-76110447D02*
X160793659Y-76062828D01*
X160793659Y-76062828D02*
X160746040Y-76015209D01*
X160746040Y-76015209D02*
X160698421Y-75919971D01*
X160698421Y-75919971D02*
X160698421Y-75634257D01*
X160698421Y-75634257D02*
X160746040Y-75539019D01*
X160746040Y-75539019D02*
X160793659Y-75491400D01*
X160793659Y-75491400D02*
X160888897Y-75443780D01*
X160888897Y-75443780D02*
X161079373Y-75443780D01*
X161079373Y-75443780D02*
X161174611Y-75491400D01*
X160269849Y-75443780D02*
X160269849Y-76110447D01*
X160269849Y-76443780D02*
X160317468Y-76396161D01*
X160317468Y-76396161D02*
X160269849Y-76348542D01*
X160269849Y-76348542D02*
X160222230Y-76396161D01*
X160222230Y-76396161D02*
X160269849Y-76443780D01*
X160269849Y-76443780D02*
X160269849Y-76348542D01*
X159365088Y-75443780D02*
X159365088Y-76443780D01*
X159365088Y-75491400D02*
X159460326Y-75443780D01*
X159460326Y-75443780D02*
X159650802Y-75443780D01*
X159650802Y-75443780D02*
X159746040Y-75491400D01*
X159746040Y-75491400D02*
X159793659Y-75539019D01*
X159793659Y-75539019D02*
X159841278Y-75634257D01*
X159841278Y-75634257D02*
X159841278Y-75919971D01*
X159841278Y-75919971D02*
X159793659Y-76015209D01*
X159793659Y-76015209D02*
X159746040Y-76062828D01*
X159746040Y-76062828D02*
X159650802Y-76110447D01*
X159650802Y-76110447D02*
X159460326Y-76110447D01*
X159460326Y-76110447D02*
X159365088Y-76062828D01*
X158888897Y-75443780D02*
X158888897Y-76110447D01*
X158888897Y-76443780D02*
X158936516Y-76396161D01*
X158936516Y-76396161D02*
X158888897Y-76348542D01*
X158888897Y-76348542D02*
X158841278Y-76396161D01*
X158841278Y-76396161D02*
X158888897Y-76443780D01*
X158888897Y-76443780D02*
X158888897Y-76348542D01*
X158555564Y-76110447D02*
X158174612Y-76110447D01*
X158412707Y-76443780D02*
X158412707Y-75586638D01*
X158412707Y-75586638D02*
X158365088Y-75491400D01*
X158365088Y-75491400D02*
X158269850Y-75443780D01*
X158269850Y-75443780D02*
X158174612Y-75443780D01*
X157936516Y-76110447D02*
X157698421Y-75443780D01*
X157460326Y-76110447D02*
X157698421Y-75443780D01*
X157698421Y-75443780D02*
X157793659Y-75205685D01*
X157793659Y-75205685D02*
X157841278Y-75158066D01*
X157841278Y-75158066D02*
X157936516Y-75110447D01*
X156365087Y-75491400D02*
X156222230Y-75443780D01*
X156222230Y-75443780D02*
X155984135Y-75443780D01*
X155984135Y-75443780D02*
X155888897Y-75491400D01*
X155888897Y-75491400D02*
X155841278Y-75539019D01*
X155841278Y-75539019D02*
X155793659Y-75634257D01*
X155793659Y-75634257D02*
X155793659Y-75729495D01*
X155793659Y-75729495D02*
X155841278Y-75824733D01*
X155841278Y-75824733D02*
X155888897Y-75872352D01*
X155888897Y-75872352D02*
X155984135Y-75919971D01*
X155984135Y-75919971D02*
X156174611Y-75967590D01*
X156174611Y-75967590D02*
X156269849Y-76015209D01*
X156269849Y-76015209D02*
X156317468Y-76062828D01*
X156317468Y-76062828D02*
X156365087Y-76158066D01*
X156365087Y-76158066D02*
X156365087Y-76253304D01*
X156365087Y-76253304D02*
X156317468Y-76348542D01*
X156317468Y-76348542D02*
X156269849Y-76396161D01*
X156269849Y-76396161D02*
X156174611Y-76443780D01*
X156174611Y-76443780D02*
X155936516Y-76443780D01*
X155936516Y-76443780D02*
X155793659Y-76396161D01*
X154984135Y-75491400D02*
X155079373Y-75443780D01*
X155079373Y-75443780D02*
X155269849Y-75443780D01*
X155269849Y-75443780D02*
X155365087Y-75491400D01*
X155365087Y-75491400D02*
X155412706Y-75586638D01*
X155412706Y-75586638D02*
X155412706Y-75967590D01*
X155412706Y-75967590D02*
X155365087Y-76062828D01*
X155365087Y-76062828D02*
X155269849Y-76110447D01*
X155269849Y-76110447D02*
X155079373Y-76110447D01*
X155079373Y-76110447D02*
X154984135Y-76062828D01*
X154984135Y-76062828D02*
X154936516Y-75967590D01*
X154936516Y-75967590D02*
X154936516Y-75872352D01*
X154936516Y-75872352D02*
X155412706Y-75777114D01*
X154507944Y-76110447D02*
X154507944Y-75443780D01*
X154507944Y-76015209D02*
X154460325Y-76062828D01*
X154460325Y-76062828D02*
X154365087Y-76110447D01*
X154365087Y-76110447D02*
X154222230Y-76110447D01*
X154222230Y-76110447D02*
X154126992Y-76062828D01*
X154126992Y-76062828D02*
X154079373Y-75967590D01*
X154079373Y-75967590D02*
X154079373Y-75443780D01*
X153650801Y-75491400D02*
X153555563Y-75443780D01*
X153555563Y-75443780D02*
X153365087Y-75443780D01*
X153365087Y-75443780D02*
X153269849Y-75491400D01*
X153269849Y-75491400D02*
X153222230Y-75586638D01*
X153222230Y-75586638D02*
X153222230Y-75634257D01*
X153222230Y-75634257D02*
X153269849Y-75729495D01*
X153269849Y-75729495D02*
X153365087Y-75777114D01*
X153365087Y-75777114D02*
X153507944Y-75777114D01*
X153507944Y-75777114D02*
X153603182Y-75824733D01*
X153603182Y-75824733D02*
X153650801Y-75919971D01*
X153650801Y-75919971D02*
X153650801Y-75967590D01*
X153650801Y-75967590D02*
X153603182Y-76062828D01*
X153603182Y-76062828D02*
X153507944Y-76110447D01*
X153507944Y-76110447D02*
X153365087Y-76110447D01*
X153365087Y-76110447D02*
X153269849Y-76062828D01*
X152650801Y-75443780D02*
X152746039Y-75491400D01*
X152746039Y-75491400D02*
X152793658Y-75539019D01*
X152793658Y-75539019D02*
X152841277Y-75634257D01*
X152841277Y-75634257D02*
X152841277Y-75919971D01*
X152841277Y-75919971D02*
X152793658Y-76015209D01*
X152793658Y-76015209D02*
X152746039Y-76062828D01*
X152746039Y-76062828D02*
X152650801Y-76110447D01*
X152650801Y-76110447D02*
X152507944Y-76110447D01*
X152507944Y-76110447D02*
X152412706Y-76062828D01*
X152412706Y-76062828D02*
X152365087Y-76015209D01*
X152365087Y-76015209D02*
X152317468Y-75919971D01*
X152317468Y-75919971D02*
X152317468Y-75634257D01*
X152317468Y-75634257D02*
X152365087Y-75539019D01*
X152365087Y-75539019D02*
X152412706Y-75491400D01*
X152412706Y-75491400D02*
X152507944Y-75443780D01*
X152507944Y-75443780D02*
X152650801Y-75443780D01*
X151888896Y-75443780D02*
X151888896Y-76110447D01*
X151888896Y-75919971D02*
X151841277Y-76015209D01*
X151841277Y-76015209D02*
X151793658Y-76062828D01*
X151793658Y-76062828D02*
X151698420Y-76110447D01*
X151698420Y-76110447D02*
X151603182Y-76110447D01*
D14*
X173881100Y-72530511D02*
X173843004Y-72644797D01*
X173843004Y-72644797D02*
X173843004Y-72835273D01*
X173843004Y-72835273D02*
X173881100Y-72911464D01*
X173881100Y-72911464D02*
X173919195Y-72949559D01*
X173919195Y-72949559D02*
X173995385Y-72987654D01*
X173995385Y-72987654D02*
X174071576Y-72987654D01*
X174071576Y-72987654D02*
X174147766Y-72949559D01*
X174147766Y-72949559D02*
X174185861Y-72911464D01*
X174185861Y-72911464D02*
X174223957Y-72835273D01*
X174223957Y-72835273D02*
X174262052Y-72682892D01*
X174262052Y-72682892D02*
X174300147Y-72606702D01*
X174300147Y-72606702D02*
X174338242Y-72568607D01*
X174338242Y-72568607D02*
X174414433Y-72530511D01*
X174414433Y-72530511D02*
X174490623Y-72530511D01*
X174490623Y-72530511D02*
X174566814Y-72568607D01*
X174566814Y-72568607D02*
X174604909Y-72606702D01*
X174604909Y-72606702D02*
X174643004Y-72682892D01*
X174643004Y-72682892D02*
X174643004Y-72873369D01*
X174643004Y-72873369D02*
X174604909Y-72987654D01*
X173881100Y-73635274D02*
X173843004Y-73559083D01*
X173843004Y-73559083D02*
X173843004Y-73406702D01*
X173843004Y-73406702D02*
X173881100Y-73330512D01*
X173881100Y-73330512D02*
X173957290Y-73292416D01*
X173957290Y-73292416D02*
X174262052Y-73292416D01*
X174262052Y-73292416D02*
X174338242Y-73330512D01*
X174338242Y-73330512D02*
X174376338Y-73406702D01*
X174376338Y-73406702D02*
X174376338Y-73559083D01*
X174376338Y-73559083D02*
X174338242Y-73635274D01*
X174338242Y-73635274D02*
X174262052Y-73673369D01*
X174262052Y-73673369D02*
X174185861Y-73673369D01*
X174185861Y-73673369D02*
X174109671Y-73292416D01*
X174376338Y-74016226D02*
X173843004Y-74016226D01*
X174300147Y-74016226D02*
X174338242Y-74054321D01*
X174338242Y-74054321D02*
X174376338Y-74130511D01*
X174376338Y-74130511D02*
X174376338Y-74244797D01*
X174376338Y-74244797D02*
X174338242Y-74320988D01*
X174338242Y-74320988D02*
X174262052Y-74359083D01*
X174262052Y-74359083D02*
X173843004Y-74359083D01*
X173881100Y-74701940D02*
X173843004Y-74778131D01*
X173843004Y-74778131D02*
X173843004Y-74930512D01*
X173843004Y-74930512D02*
X173881100Y-75006702D01*
X173881100Y-75006702D02*
X173957290Y-75044798D01*
X173957290Y-75044798D02*
X173995385Y-75044798D01*
X173995385Y-75044798D02*
X174071576Y-75006702D01*
X174071576Y-75006702D02*
X174109671Y-74930512D01*
X174109671Y-74930512D02*
X174109671Y-74816226D01*
X174109671Y-74816226D02*
X174147766Y-74740036D01*
X174147766Y-74740036D02*
X174223957Y-74701940D01*
X174223957Y-74701940D02*
X174262052Y-74701940D01*
X174262052Y-74701940D02*
X174338242Y-74740036D01*
X174338242Y-74740036D02*
X174376338Y-74816226D01*
X174376338Y-74816226D02*
X174376338Y-74930512D01*
X174376338Y-74930512D02*
X174338242Y-75006702D01*
X173843004Y-75501940D02*
X173881100Y-75425750D01*
X173881100Y-75425750D02*
X173919195Y-75387655D01*
X173919195Y-75387655D02*
X173995385Y-75349559D01*
X173995385Y-75349559D02*
X174223957Y-75349559D01*
X174223957Y-75349559D02*
X174300147Y-75387655D01*
X174300147Y-75387655D02*
X174338242Y-75425750D01*
X174338242Y-75425750D02*
X174376338Y-75501940D01*
X174376338Y-75501940D02*
X174376338Y-75616226D01*
X174376338Y-75616226D02*
X174338242Y-75692417D01*
X174338242Y-75692417D02*
X174300147Y-75730512D01*
X174300147Y-75730512D02*
X174223957Y-75768607D01*
X174223957Y-75768607D02*
X173995385Y-75768607D01*
X173995385Y-75768607D02*
X173919195Y-75730512D01*
X173919195Y-75730512D02*
X173881100Y-75692417D01*
X173881100Y-75692417D02*
X173843004Y-75616226D01*
X173843004Y-75616226D02*
X173843004Y-75501940D01*
X173843004Y-76111465D02*
X174376338Y-76111465D01*
X174223957Y-76111465D02*
X174300147Y-76149560D01*
X174300147Y-76149560D02*
X174338242Y-76187655D01*
X174338242Y-76187655D02*
X174376338Y-76263846D01*
X174376338Y-76263846D02*
X174376338Y-76340036D01*
D13*
X130394972Y-74914580D02*
X130061639Y-73914580D01*
X130061639Y-73914580D02*
X129728306Y-74914580D01*
X128823544Y-74009819D02*
X128871163Y-73962200D01*
X128871163Y-73962200D02*
X129014020Y-73914580D01*
X129014020Y-73914580D02*
X129109258Y-73914580D01*
X129109258Y-73914580D02*
X129252115Y-73962200D01*
X129252115Y-73962200D02*
X129347353Y-74057438D01*
X129347353Y-74057438D02*
X129394972Y-74152676D01*
X129394972Y-74152676D02*
X129442591Y-74343152D01*
X129442591Y-74343152D02*
X129442591Y-74486009D01*
X129442591Y-74486009D02*
X129394972Y-74676485D01*
X129394972Y-74676485D02*
X129347353Y-74771723D01*
X129347353Y-74771723D02*
X129252115Y-74866961D01*
X129252115Y-74866961D02*
X129109258Y-74914580D01*
X129109258Y-74914580D02*
X129014020Y-74914580D01*
X129014020Y-74914580D02*
X128871163Y-74866961D01*
X128871163Y-74866961D02*
X128823544Y-74819342D01*
X127823544Y-74009819D02*
X127871163Y-73962200D01*
X127871163Y-73962200D02*
X128014020Y-73914580D01*
X128014020Y-73914580D02*
X128109258Y-73914580D01*
X128109258Y-73914580D02*
X128252115Y-73962200D01*
X128252115Y-73962200D02*
X128347353Y-74057438D01*
X128347353Y-74057438D02*
X128394972Y-74152676D01*
X128394972Y-74152676D02*
X128442591Y-74343152D01*
X128442591Y-74343152D02*
X128442591Y-74486009D01*
X128442591Y-74486009D02*
X128394972Y-74676485D01*
X128394972Y-74676485D02*
X128347353Y-74771723D01*
X128347353Y-74771723D02*
X128252115Y-74866961D01*
X128252115Y-74866961D02*
X128109258Y-74914580D01*
X128109258Y-74914580D02*
X128014020Y-74914580D01*
X128014020Y-74914580D02*
X127871163Y-74866961D01*
X127871163Y-74866961D02*
X127823544Y-74819342D01*
D14*
X141370995Y-75259392D02*
X140570995Y-75259392D01*
X140570995Y-75259392D02*
X141142423Y-74992726D01*
X141142423Y-74992726D02*
X140570995Y-74726059D01*
X140570995Y-74726059D02*
X141370995Y-74726059D01*
X141294804Y-73887963D02*
X141332900Y-73926059D01*
X141332900Y-73926059D02*
X141370995Y-74040344D01*
X141370995Y-74040344D02*
X141370995Y-74116535D01*
X141370995Y-74116535D02*
X141332900Y-74230821D01*
X141332900Y-74230821D02*
X141256709Y-74307011D01*
X141256709Y-74307011D02*
X141180519Y-74345106D01*
X141180519Y-74345106D02*
X141028138Y-74383202D01*
X141028138Y-74383202D02*
X140913852Y-74383202D01*
X140913852Y-74383202D02*
X140761471Y-74345106D01*
X140761471Y-74345106D02*
X140685280Y-74307011D01*
X140685280Y-74307011D02*
X140609090Y-74230821D01*
X140609090Y-74230821D02*
X140570995Y-74116535D01*
X140570995Y-74116535D02*
X140570995Y-74040344D01*
X140570995Y-74040344D02*
X140609090Y-73926059D01*
X140609090Y-73926059D02*
X140647185Y-73887963D01*
X140570995Y-73545106D02*
X141218614Y-73545106D01*
X141218614Y-73545106D02*
X141294804Y-73507011D01*
X141294804Y-73507011D02*
X141332900Y-73468916D01*
X141332900Y-73468916D02*
X141370995Y-73392725D01*
X141370995Y-73392725D02*
X141370995Y-73240344D01*
X141370995Y-73240344D02*
X141332900Y-73164154D01*
X141332900Y-73164154D02*
X141294804Y-73126059D01*
X141294804Y-73126059D02*
X141218614Y-73087963D01*
X141218614Y-73087963D02*
X140570995Y-73087963D01*
D13*
X129982306Y-77406961D02*
X130077544Y-77454580D01*
X130077544Y-77454580D02*
X130220401Y-77454580D01*
X130220401Y-77454580D02*
X130363258Y-77406961D01*
X130363258Y-77406961D02*
X130458496Y-77311723D01*
X130458496Y-77311723D02*
X130506115Y-77216485D01*
X130506115Y-77216485D02*
X130553734Y-77026009D01*
X130553734Y-77026009D02*
X130553734Y-76883152D01*
X130553734Y-76883152D02*
X130506115Y-76692676D01*
X130506115Y-76692676D02*
X130458496Y-76597438D01*
X130458496Y-76597438D02*
X130363258Y-76502200D01*
X130363258Y-76502200D02*
X130220401Y-76454580D01*
X130220401Y-76454580D02*
X130125163Y-76454580D01*
X130125163Y-76454580D02*
X129982306Y-76502200D01*
X129982306Y-76502200D02*
X129934687Y-76549819D01*
X129934687Y-76549819D02*
X129934687Y-76883152D01*
X129934687Y-76883152D02*
X130125163Y-76883152D01*
X129506115Y-76454580D02*
X129506115Y-77454580D01*
X129506115Y-77454580D02*
X128934687Y-76454580D01*
X128934687Y-76454580D02*
X128934687Y-77454580D01*
X128458496Y-76454580D02*
X128458496Y-77454580D01*
X128458496Y-77454580D02*
X128220401Y-77454580D01*
X128220401Y-77454580D02*
X128077544Y-77406961D01*
X128077544Y-77406961D02*
X127982306Y-77311723D01*
X127982306Y-77311723D02*
X127934687Y-77216485D01*
X127934687Y-77216485D02*
X127887068Y-77026009D01*
X127887068Y-77026009D02*
X127887068Y-76883152D01*
X127887068Y-76883152D02*
X127934687Y-76692676D01*
X127934687Y-76692676D02*
X127982306Y-76597438D01*
X127982306Y-76597438D02*
X128077544Y-76502200D01*
X128077544Y-76502200D02*
X128220401Y-76454580D01*
X128220401Y-76454580D02*
X128458496Y-76454580D01*
D12*
X106499819Y-72556666D02*
X106023628Y-72889999D01*
X106499819Y-73128094D02*
X105499819Y-73128094D01*
X105499819Y-73128094D02*
X105499819Y-72747142D01*
X105499819Y-72747142D02*
X105547438Y-72651904D01*
X105547438Y-72651904D02*
X105595057Y-72604285D01*
X105595057Y-72604285D02*
X105690295Y-72556666D01*
X105690295Y-72556666D02*
X105833152Y-72556666D01*
X105833152Y-72556666D02*
X105928390Y-72604285D01*
X105928390Y-72604285D02*
X105976009Y-72651904D01*
X105976009Y-72651904D02*
X106023628Y-72747142D01*
X106023628Y-72747142D02*
X106023628Y-73128094D01*
X106499819Y-71604285D02*
X106499819Y-72175713D01*
X106499819Y-71889999D02*
X105499819Y-71889999D01*
X105499819Y-71889999D02*
X105642676Y-71985237D01*
X105642676Y-71985237D02*
X105737914Y-72080475D01*
X105737914Y-72080475D02*
X105785533Y-72175713D01*
X108489761Y-64685057D02*
X108394523Y-64637438D01*
X108394523Y-64637438D02*
X108299285Y-64542200D01*
X108299285Y-64542200D02*
X108156428Y-64399342D01*
X108156428Y-64399342D02*
X108061190Y-64351723D01*
X108061190Y-64351723D02*
X107965952Y-64351723D01*
X108013571Y-64589819D02*
X107918333Y-64542200D01*
X107918333Y-64542200D02*
X107823095Y-64446961D01*
X107823095Y-64446961D02*
X107775476Y-64256485D01*
X107775476Y-64256485D02*
X107775476Y-63923152D01*
X107775476Y-63923152D02*
X107823095Y-63732676D01*
X107823095Y-63732676D02*
X107918333Y-63637438D01*
X107918333Y-63637438D02*
X108013571Y-63589819D01*
X108013571Y-63589819D02*
X108204047Y-63589819D01*
X108204047Y-63589819D02*
X108299285Y-63637438D01*
X108299285Y-63637438D02*
X108394523Y-63732676D01*
X108394523Y-63732676D02*
X108442142Y-63923152D01*
X108442142Y-63923152D02*
X108442142Y-64256485D01*
X108442142Y-64256485D02*
X108394523Y-64446961D01*
X108394523Y-64446961D02*
X108299285Y-64542200D01*
X108299285Y-64542200D02*
X108204047Y-64589819D01*
X108204047Y-64589819D02*
X108013571Y-64589819D01*
X109394523Y-64589819D02*
X108823095Y-64589819D01*
X109108809Y-64589819D02*
X109108809Y-63589819D01*
X109108809Y-63589819D02*
X109013571Y-63732676D01*
X109013571Y-63732676D02*
X108918333Y-63827914D01*
X108918333Y-63827914D02*
X108823095Y-63875533D01*
D13*
X94885972Y-100328880D02*
X94552639Y-99328880D01*
X94552639Y-99328880D02*
X94219306Y-100328880D01*
X93314544Y-99424119D02*
X93362163Y-99376500D01*
X93362163Y-99376500D02*
X93505020Y-99328880D01*
X93505020Y-99328880D02*
X93600258Y-99328880D01*
X93600258Y-99328880D02*
X93743115Y-99376500D01*
X93743115Y-99376500D02*
X93838353Y-99471738D01*
X93838353Y-99471738D02*
X93885972Y-99566976D01*
X93885972Y-99566976D02*
X93933591Y-99757452D01*
X93933591Y-99757452D02*
X93933591Y-99900309D01*
X93933591Y-99900309D02*
X93885972Y-100090785D01*
X93885972Y-100090785D02*
X93838353Y-100186023D01*
X93838353Y-100186023D02*
X93743115Y-100281261D01*
X93743115Y-100281261D02*
X93600258Y-100328880D01*
X93600258Y-100328880D02*
X93505020Y-100328880D01*
X93505020Y-100328880D02*
X93362163Y-100281261D01*
X93362163Y-100281261D02*
X93314544Y-100233642D01*
X92314544Y-99424119D02*
X92362163Y-99376500D01*
X92362163Y-99376500D02*
X92505020Y-99328880D01*
X92505020Y-99328880D02*
X92600258Y-99328880D01*
X92600258Y-99328880D02*
X92743115Y-99376500D01*
X92743115Y-99376500D02*
X92838353Y-99471738D01*
X92838353Y-99471738D02*
X92885972Y-99566976D01*
X92885972Y-99566976D02*
X92933591Y-99757452D01*
X92933591Y-99757452D02*
X92933591Y-99900309D01*
X92933591Y-99900309D02*
X92885972Y-100090785D01*
X92885972Y-100090785D02*
X92838353Y-100186023D01*
X92838353Y-100186023D02*
X92743115Y-100281261D01*
X92743115Y-100281261D02*
X92600258Y-100328880D01*
X92600258Y-100328880D02*
X92505020Y-100328880D01*
X92505020Y-100328880D02*
X92362163Y-100281261D01*
X92362163Y-100281261D02*
X92314544Y-100233642D01*
X94473306Y-102821261D02*
X94568544Y-102868880D01*
X94568544Y-102868880D02*
X94711401Y-102868880D01*
X94711401Y-102868880D02*
X94854258Y-102821261D01*
X94854258Y-102821261D02*
X94949496Y-102726023D01*
X94949496Y-102726023D02*
X94997115Y-102630785D01*
X94997115Y-102630785D02*
X95044734Y-102440309D01*
X95044734Y-102440309D02*
X95044734Y-102297452D01*
X95044734Y-102297452D02*
X94997115Y-102106976D01*
X94997115Y-102106976D02*
X94949496Y-102011738D01*
X94949496Y-102011738D02*
X94854258Y-101916500D01*
X94854258Y-101916500D02*
X94711401Y-101868880D01*
X94711401Y-101868880D02*
X94616163Y-101868880D01*
X94616163Y-101868880D02*
X94473306Y-101916500D01*
X94473306Y-101916500D02*
X94425687Y-101964119D01*
X94425687Y-101964119D02*
X94425687Y-102297452D01*
X94425687Y-102297452D02*
X94616163Y-102297452D01*
X93997115Y-101868880D02*
X93997115Y-102868880D01*
X93997115Y-102868880D02*
X93425687Y-101868880D01*
X93425687Y-101868880D02*
X93425687Y-102868880D01*
X92949496Y-101868880D02*
X92949496Y-102868880D01*
X92949496Y-102868880D02*
X92711401Y-102868880D01*
X92711401Y-102868880D02*
X92568544Y-102821261D01*
X92568544Y-102821261D02*
X92473306Y-102726023D01*
X92473306Y-102726023D02*
X92425687Y-102630785D01*
X92425687Y-102630785D02*
X92378068Y-102440309D01*
X92378068Y-102440309D02*
X92378068Y-102297452D01*
X92378068Y-102297452D02*
X92425687Y-102106976D01*
X92425687Y-102106976D02*
X92473306Y-102011738D01*
X92473306Y-102011738D02*
X92568544Y-101916500D01*
X92568544Y-101916500D02*
X92711401Y-101868880D01*
X92711401Y-101868880D02*
X92949496Y-101868880D01*
D11*
X120574489Y-99398471D02*
X120574489Y-100898471D01*
X120574489Y-100898471D02*
X120217346Y-100898471D01*
X120217346Y-100898471D02*
X120003060Y-100827042D01*
X120003060Y-100827042D02*
X119860203Y-100684185D01*
X119860203Y-100684185D02*
X119788774Y-100541328D01*
X119788774Y-100541328D02*
X119717346Y-100255614D01*
X119717346Y-100255614D02*
X119717346Y-100041328D01*
X119717346Y-100041328D02*
X119788774Y-99755614D01*
X119788774Y-99755614D02*
X119860203Y-99612757D01*
X119860203Y-99612757D02*
X120003060Y-99469900D01*
X120003060Y-99469900D02*
X120217346Y-99398471D01*
X120217346Y-99398471D02*
X120574489Y-99398471D01*
X118788774Y-100898471D02*
X118503060Y-100898471D01*
X118503060Y-100898471D02*
X118360203Y-100827042D01*
X118360203Y-100827042D02*
X118217346Y-100684185D01*
X118217346Y-100684185D02*
X118145917Y-100398471D01*
X118145917Y-100398471D02*
X118145917Y-99898471D01*
X118145917Y-99898471D02*
X118217346Y-99612757D01*
X118217346Y-99612757D02*
X118360203Y-99469900D01*
X118360203Y-99469900D02*
X118503060Y-99398471D01*
X118503060Y-99398471D02*
X118788774Y-99398471D01*
X118788774Y-99398471D02*
X118931632Y-99469900D01*
X118931632Y-99469900D02*
X119074489Y-99612757D01*
X119074489Y-99612757D02*
X119145917Y-99898471D01*
X119145917Y-99898471D02*
X119145917Y-100398471D01*
X119145917Y-100398471D02*
X119074489Y-100684185D01*
X119074489Y-100684185D02*
X118931632Y-100827042D01*
X118931632Y-100827042D02*
X118788774Y-100898471D01*
X116431631Y-99469900D02*
X116217346Y-99398471D01*
X116217346Y-99398471D02*
X115860203Y-99398471D01*
X115860203Y-99398471D02*
X115717346Y-99469900D01*
X115717346Y-99469900D02*
X115645917Y-99541328D01*
X115645917Y-99541328D02*
X115574488Y-99684185D01*
X115574488Y-99684185D02*
X115574488Y-99827042D01*
X115574488Y-99827042D02*
X115645917Y-99969900D01*
X115645917Y-99969900D02*
X115717346Y-100041328D01*
X115717346Y-100041328D02*
X115860203Y-100112757D01*
X115860203Y-100112757D02*
X116145917Y-100184185D01*
X116145917Y-100184185D02*
X116288774Y-100255614D01*
X116288774Y-100255614D02*
X116360203Y-100327042D01*
X116360203Y-100327042D02*
X116431631Y-100469900D01*
X116431631Y-100469900D02*
X116431631Y-100612757D01*
X116431631Y-100612757D02*
X116360203Y-100755614D01*
X116360203Y-100755614D02*
X116288774Y-100827042D01*
X116288774Y-100827042D02*
X116145917Y-100898471D01*
X116145917Y-100898471D02*
X115788774Y-100898471D01*
X115788774Y-100898471D02*
X115574488Y-100827042D01*
X114360203Y-99469900D02*
X114503060Y-99398471D01*
X114503060Y-99398471D02*
X114788775Y-99398471D01*
X114788775Y-99398471D02*
X114931632Y-99469900D01*
X114931632Y-99469900D02*
X115003060Y-99612757D01*
X115003060Y-99612757D02*
X115003060Y-100184185D01*
X115003060Y-100184185D02*
X114931632Y-100327042D01*
X114931632Y-100327042D02*
X114788775Y-100398471D01*
X114788775Y-100398471D02*
X114503060Y-100398471D01*
X114503060Y-100398471D02*
X114360203Y-100327042D01*
X114360203Y-100327042D02*
X114288775Y-100184185D01*
X114288775Y-100184185D02*
X114288775Y-100041328D01*
X114288775Y-100041328D02*
X115003060Y-99898471D01*
X113645918Y-100398471D02*
X113645918Y-99398471D01*
X113645918Y-100255614D02*
X113574489Y-100327042D01*
X113574489Y-100327042D02*
X113431632Y-100398471D01*
X113431632Y-100398471D02*
X113217346Y-100398471D01*
X113217346Y-100398471D02*
X113074489Y-100327042D01*
X113074489Y-100327042D02*
X113003061Y-100184185D01*
X113003061Y-100184185D02*
X113003061Y-99398471D01*
X112360203Y-99469900D02*
X112217346Y-99398471D01*
X112217346Y-99398471D02*
X111931632Y-99398471D01*
X111931632Y-99398471D02*
X111788775Y-99469900D01*
X111788775Y-99469900D02*
X111717346Y-99612757D01*
X111717346Y-99612757D02*
X111717346Y-99684185D01*
X111717346Y-99684185D02*
X111788775Y-99827042D01*
X111788775Y-99827042D02*
X111931632Y-99898471D01*
X111931632Y-99898471D02*
X112145918Y-99898471D01*
X112145918Y-99898471D02*
X112288775Y-99969900D01*
X112288775Y-99969900D02*
X112360203Y-100112757D01*
X112360203Y-100112757D02*
X112360203Y-100184185D01*
X112360203Y-100184185D02*
X112288775Y-100327042D01*
X112288775Y-100327042D02*
X112145918Y-100398471D01*
X112145918Y-100398471D02*
X111931632Y-100398471D01*
X111931632Y-100398471D02*
X111788775Y-100327042D01*
X110860203Y-99398471D02*
X111003060Y-99469900D01*
X111003060Y-99469900D02*
X111074489Y-99541328D01*
X111074489Y-99541328D02*
X111145917Y-99684185D01*
X111145917Y-99684185D02*
X111145917Y-100112757D01*
X111145917Y-100112757D02*
X111074489Y-100255614D01*
X111074489Y-100255614D02*
X111003060Y-100327042D01*
X111003060Y-100327042D02*
X110860203Y-100398471D01*
X110860203Y-100398471D02*
X110645917Y-100398471D01*
X110645917Y-100398471D02*
X110503060Y-100327042D01*
X110503060Y-100327042D02*
X110431632Y-100255614D01*
X110431632Y-100255614D02*
X110360203Y-100112757D01*
X110360203Y-100112757D02*
X110360203Y-99684185D01*
X110360203Y-99684185D02*
X110431632Y-99541328D01*
X110431632Y-99541328D02*
X110503060Y-99469900D01*
X110503060Y-99469900D02*
X110645917Y-99398471D01*
X110645917Y-99398471D02*
X110860203Y-99398471D01*
X109717346Y-99398471D02*
X109717346Y-100398471D01*
X109717346Y-100112757D02*
X109645917Y-100255614D01*
X109645917Y-100255614D02*
X109574489Y-100327042D01*
X109574489Y-100327042D02*
X109431631Y-100398471D01*
X109431631Y-100398471D02*
X109288774Y-100398471D01*
D14*
X132704100Y-97944811D02*
X132666004Y-98059097D01*
X132666004Y-98059097D02*
X132666004Y-98249573D01*
X132666004Y-98249573D02*
X132704100Y-98325764D01*
X132704100Y-98325764D02*
X132742195Y-98363859D01*
X132742195Y-98363859D02*
X132818385Y-98401954D01*
X132818385Y-98401954D02*
X132894576Y-98401954D01*
X132894576Y-98401954D02*
X132970766Y-98363859D01*
X132970766Y-98363859D02*
X133008861Y-98325764D01*
X133008861Y-98325764D02*
X133046957Y-98249573D01*
X133046957Y-98249573D02*
X133085052Y-98097192D01*
X133085052Y-98097192D02*
X133123147Y-98021002D01*
X133123147Y-98021002D02*
X133161242Y-97982907D01*
X133161242Y-97982907D02*
X133237433Y-97944811D01*
X133237433Y-97944811D02*
X133313623Y-97944811D01*
X133313623Y-97944811D02*
X133389814Y-97982907D01*
X133389814Y-97982907D02*
X133427909Y-98021002D01*
X133427909Y-98021002D02*
X133466004Y-98097192D01*
X133466004Y-98097192D02*
X133466004Y-98287669D01*
X133466004Y-98287669D02*
X133427909Y-98401954D01*
X132704100Y-99049574D02*
X132666004Y-98973383D01*
X132666004Y-98973383D02*
X132666004Y-98821002D01*
X132666004Y-98821002D02*
X132704100Y-98744812D01*
X132704100Y-98744812D02*
X132780290Y-98706716D01*
X132780290Y-98706716D02*
X133085052Y-98706716D01*
X133085052Y-98706716D02*
X133161242Y-98744812D01*
X133161242Y-98744812D02*
X133199338Y-98821002D01*
X133199338Y-98821002D02*
X133199338Y-98973383D01*
X133199338Y-98973383D02*
X133161242Y-99049574D01*
X133161242Y-99049574D02*
X133085052Y-99087669D01*
X133085052Y-99087669D02*
X133008861Y-99087669D01*
X133008861Y-99087669D02*
X132932671Y-98706716D01*
X133199338Y-99430526D02*
X132666004Y-99430526D01*
X133123147Y-99430526D02*
X133161242Y-99468621D01*
X133161242Y-99468621D02*
X133199338Y-99544811D01*
X133199338Y-99544811D02*
X133199338Y-99659097D01*
X133199338Y-99659097D02*
X133161242Y-99735288D01*
X133161242Y-99735288D02*
X133085052Y-99773383D01*
X133085052Y-99773383D02*
X132666004Y-99773383D01*
X132704100Y-100116240D02*
X132666004Y-100192431D01*
X132666004Y-100192431D02*
X132666004Y-100344812D01*
X132666004Y-100344812D02*
X132704100Y-100421002D01*
X132704100Y-100421002D02*
X132780290Y-100459098D01*
X132780290Y-100459098D02*
X132818385Y-100459098D01*
X132818385Y-100459098D02*
X132894576Y-100421002D01*
X132894576Y-100421002D02*
X132932671Y-100344812D01*
X132932671Y-100344812D02*
X132932671Y-100230526D01*
X132932671Y-100230526D02*
X132970766Y-100154336D01*
X132970766Y-100154336D02*
X133046957Y-100116240D01*
X133046957Y-100116240D02*
X133085052Y-100116240D01*
X133085052Y-100116240D02*
X133161242Y-100154336D01*
X133161242Y-100154336D02*
X133199338Y-100230526D01*
X133199338Y-100230526D02*
X133199338Y-100344812D01*
X133199338Y-100344812D02*
X133161242Y-100421002D01*
X132666004Y-100916240D02*
X132704100Y-100840050D01*
X132704100Y-100840050D02*
X132742195Y-100801955D01*
X132742195Y-100801955D02*
X132818385Y-100763859D01*
X132818385Y-100763859D02*
X133046957Y-100763859D01*
X133046957Y-100763859D02*
X133123147Y-100801955D01*
X133123147Y-100801955D02*
X133161242Y-100840050D01*
X133161242Y-100840050D02*
X133199338Y-100916240D01*
X133199338Y-100916240D02*
X133199338Y-101030526D01*
X133199338Y-101030526D02*
X133161242Y-101106717D01*
X133161242Y-101106717D02*
X133123147Y-101144812D01*
X133123147Y-101144812D02*
X133046957Y-101182907D01*
X133046957Y-101182907D02*
X132818385Y-101182907D01*
X132818385Y-101182907D02*
X132742195Y-101144812D01*
X132742195Y-101144812D02*
X132704100Y-101106717D01*
X132704100Y-101106717D02*
X132666004Y-101030526D01*
X132666004Y-101030526D02*
X132666004Y-100916240D01*
X132666004Y-101525765D02*
X133199338Y-101525765D01*
X133046957Y-101525765D02*
X133123147Y-101563860D01*
X133123147Y-101563860D02*
X133161242Y-101601955D01*
X133161242Y-101601955D02*
X133199338Y-101678146D01*
X133199338Y-101678146D02*
X133199338Y-101754336D01*
X100193995Y-100673692D02*
X99393995Y-100673692D01*
X99393995Y-100673692D02*
X99965423Y-100407026D01*
X99965423Y-100407026D02*
X99393995Y-100140359D01*
X99393995Y-100140359D02*
X100193995Y-100140359D01*
X100117804Y-99302263D02*
X100155900Y-99340359D01*
X100155900Y-99340359D02*
X100193995Y-99454644D01*
X100193995Y-99454644D02*
X100193995Y-99530835D01*
X100193995Y-99530835D02*
X100155900Y-99645121D01*
X100155900Y-99645121D02*
X100079709Y-99721311D01*
X100079709Y-99721311D02*
X100003519Y-99759406D01*
X100003519Y-99759406D02*
X99851138Y-99797502D01*
X99851138Y-99797502D02*
X99736852Y-99797502D01*
X99736852Y-99797502D02*
X99584471Y-99759406D01*
X99584471Y-99759406D02*
X99508280Y-99721311D01*
X99508280Y-99721311D02*
X99432090Y-99645121D01*
X99432090Y-99645121D02*
X99393995Y-99530835D01*
X99393995Y-99530835D02*
X99393995Y-99454644D01*
X99393995Y-99454644D02*
X99432090Y-99340359D01*
X99432090Y-99340359D02*
X99470185Y-99302263D01*
X99393995Y-98959406D02*
X100041614Y-98959406D01*
X100041614Y-98959406D02*
X100117804Y-98921311D01*
X100117804Y-98921311D02*
X100155900Y-98883216D01*
X100155900Y-98883216D02*
X100193995Y-98807025D01*
X100193995Y-98807025D02*
X100193995Y-98654644D01*
X100193995Y-98654644D02*
X100155900Y-98578454D01*
X100155900Y-98578454D02*
X100117804Y-98540359D01*
X100117804Y-98540359D02*
X100041614Y-98502263D01*
X100041614Y-98502263D02*
X99393995Y-98502263D01*
D13*
X93774734Y-97074595D02*
X93298544Y-97074595D01*
X93869972Y-96788880D02*
X93536639Y-97788880D01*
X93536639Y-97788880D02*
X93203306Y-96788880D01*
X197611904Y-140877580D02*
X197611904Y-140068057D01*
X197611904Y-140068057D02*
X197564285Y-139972819D01*
X197564285Y-139972819D02*
X197516666Y-139925200D01*
X197516666Y-139925200D02*
X197421428Y-139877580D01*
X197421428Y-139877580D02*
X197230952Y-139877580D01*
X197230952Y-139877580D02*
X197135714Y-139925200D01*
X197135714Y-139925200D02*
X197088095Y-139972819D01*
X197088095Y-139972819D02*
X197040476Y-140068057D01*
X197040476Y-140068057D02*
X197040476Y-140877580D01*
X196040476Y-139877580D02*
X196611904Y-139877580D01*
X196326190Y-139877580D02*
X196326190Y-140877580D01*
X196326190Y-140877580D02*
X196421428Y-140734723D01*
X196421428Y-140734723D02*
X196516666Y-140639485D01*
X196516666Y-140639485D02*
X196611904Y-140591866D01*
D10*
X146743945Y-130228400D02*
X146601088Y-130180780D01*
X146601088Y-130180780D02*
X146362993Y-130180780D01*
X146362993Y-130180780D02*
X146267755Y-130228400D01*
X146267755Y-130228400D02*
X146220136Y-130276019D01*
X146220136Y-130276019D02*
X146172517Y-130371257D01*
X146172517Y-130371257D02*
X146172517Y-130466495D01*
X146172517Y-130466495D02*
X146220136Y-130561733D01*
X146220136Y-130561733D02*
X146267755Y-130609352D01*
X146267755Y-130609352D02*
X146362993Y-130656971D01*
X146362993Y-130656971D02*
X146553469Y-130704590D01*
X146553469Y-130704590D02*
X146648707Y-130752209D01*
X146648707Y-130752209D02*
X146696326Y-130799828D01*
X146696326Y-130799828D02*
X146743945Y-130895066D01*
X146743945Y-130895066D02*
X146743945Y-130990304D01*
X146743945Y-130990304D02*
X146696326Y-131085542D01*
X146696326Y-131085542D02*
X146648707Y-131133161D01*
X146648707Y-131133161D02*
X146553469Y-131180780D01*
X146553469Y-131180780D02*
X146315374Y-131180780D01*
X146315374Y-131180780D02*
X146172517Y-131133161D01*
X145172517Y-130276019D02*
X145220136Y-130228400D01*
X145220136Y-130228400D02*
X145362993Y-130180780D01*
X145362993Y-130180780D02*
X145458231Y-130180780D01*
X145458231Y-130180780D02*
X145601088Y-130228400D01*
X145601088Y-130228400D02*
X145696326Y-130323638D01*
X145696326Y-130323638D02*
X145743945Y-130418876D01*
X145743945Y-130418876D02*
X145791564Y-130609352D01*
X145791564Y-130609352D02*
X145791564Y-130752209D01*
X145791564Y-130752209D02*
X145743945Y-130942685D01*
X145743945Y-130942685D02*
X145696326Y-131037923D01*
X145696326Y-131037923D02*
X145601088Y-131133161D01*
X145601088Y-131133161D02*
X145458231Y-131180780D01*
X145458231Y-131180780D02*
X145362993Y-131180780D01*
X145362993Y-131180780D02*
X145220136Y-131133161D01*
X145220136Y-131133161D02*
X145172517Y-131085542D01*
X144743945Y-130180780D02*
X144743945Y-131180780D01*
X144172517Y-130180780D02*
X144601088Y-130752209D01*
X144172517Y-131180780D02*
X144743945Y-130609352D01*
X146839183Y-115940780D02*
X146505850Y-114940780D01*
X146505850Y-114940780D02*
X146172517Y-115940780D01*
X145267755Y-115036019D02*
X145315374Y-114988400D01*
X145315374Y-114988400D02*
X145458231Y-114940780D01*
X145458231Y-114940780D02*
X145553469Y-114940780D01*
X145553469Y-114940780D02*
X145696326Y-114988400D01*
X145696326Y-114988400D02*
X145791564Y-115083638D01*
X145791564Y-115083638D02*
X145839183Y-115178876D01*
X145839183Y-115178876D02*
X145886802Y-115369352D01*
X145886802Y-115369352D02*
X145886802Y-115512209D01*
X145886802Y-115512209D02*
X145839183Y-115702685D01*
X145839183Y-115702685D02*
X145791564Y-115797923D01*
X145791564Y-115797923D02*
X145696326Y-115893161D01*
X145696326Y-115893161D02*
X145553469Y-115940780D01*
X145553469Y-115940780D02*
X145458231Y-115940780D01*
X145458231Y-115940780D02*
X145315374Y-115893161D01*
X145315374Y-115893161D02*
X145267755Y-115845542D01*
X144267755Y-115036019D02*
X144315374Y-114988400D01*
X144315374Y-114988400D02*
X144458231Y-114940780D01*
X144458231Y-114940780D02*
X144553469Y-114940780D01*
X144553469Y-114940780D02*
X144696326Y-114988400D01*
X144696326Y-114988400D02*
X144791564Y-115083638D01*
X144791564Y-115083638D02*
X144839183Y-115178876D01*
X144839183Y-115178876D02*
X144886802Y-115369352D01*
X144886802Y-115369352D02*
X144886802Y-115512209D01*
X144886802Y-115512209D02*
X144839183Y-115702685D01*
X144839183Y-115702685D02*
X144791564Y-115797923D01*
X144791564Y-115797923D02*
X144696326Y-115893161D01*
X144696326Y-115893161D02*
X144553469Y-115940780D01*
X144553469Y-115940780D02*
X144458231Y-115940780D01*
X144458231Y-115940780D02*
X144315374Y-115893161D01*
X144315374Y-115893161D02*
X144267755Y-115845542D01*
X145362898Y-120116019D02*
X145410517Y-120068400D01*
X145410517Y-120068400D02*
X145553374Y-120020780D01*
X145553374Y-120020780D02*
X145648612Y-120020780D01*
X145648612Y-120020780D02*
X145791469Y-120068400D01*
X145791469Y-120068400D02*
X145886707Y-120163638D01*
X145886707Y-120163638D02*
X145934326Y-120258876D01*
X145934326Y-120258876D02*
X145981945Y-120449352D01*
X145981945Y-120449352D02*
X145981945Y-120592209D01*
X145981945Y-120592209D02*
X145934326Y-120782685D01*
X145934326Y-120782685D02*
X145886707Y-120877923D01*
X145886707Y-120877923D02*
X145791469Y-120973161D01*
X145791469Y-120973161D02*
X145648612Y-121020780D01*
X145648612Y-121020780D02*
X145553374Y-121020780D01*
X145553374Y-121020780D02*
X145410517Y-120973161D01*
X145410517Y-120973161D02*
X145362898Y-120925542D01*
X144981945Y-120068400D02*
X144839088Y-120020780D01*
X144839088Y-120020780D02*
X144600993Y-120020780D01*
X144600993Y-120020780D02*
X144505755Y-120068400D01*
X144505755Y-120068400D02*
X144458136Y-120116019D01*
X144458136Y-120116019D02*
X144410517Y-120211257D01*
X144410517Y-120211257D02*
X144410517Y-120306495D01*
X144410517Y-120306495D02*
X144458136Y-120401733D01*
X144458136Y-120401733D02*
X144505755Y-120449352D01*
X144505755Y-120449352D02*
X144600993Y-120496971D01*
X144600993Y-120496971D02*
X144791469Y-120544590D01*
X144791469Y-120544590D02*
X144886707Y-120592209D01*
X144886707Y-120592209D02*
X144934326Y-120639828D01*
X144934326Y-120639828D02*
X144981945Y-120735066D01*
X144981945Y-120735066D02*
X144981945Y-120830304D01*
X144981945Y-120830304D02*
X144934326Y-120925542D01*
X144934326Y-120925542D02*
X144886707Y-120973161D01*
X144886707Y-120973161D02*
X144791469Y-121020780D01*
X144791469Y-121020780D02*
X144553374Y-121020780D01*
X144553374Y-121020780D02*
X144410517Y-120973161D01*
X193733945Y-127942400D02*
X193591088Y-127894780D01*
X193591088Y-127894780D02*
X193352993Y-127894780D01*
X193352993Y-127894780D02*
X193257755Y-127942400D01*
X193257755Y-127942400D02*
X193210136Y-127990019D01*
X193210136Y-127990019D02*
X193162517Y-128085257D01*
X193162517Y-128085257D02*
X193162517Y-128180495D01*
X193162517Y-128180495D02*
X193210136Y-128275733D01*
X193210136Y-128275733D02*
X193257755Y-128323352D01*
X193257755Y-128323352D02*
X193352993Y-128370971D01*
X193352993Y-128370971D02*
X193543469Y-128418590D01*
X193543469Y-128418590D02*
X193638707Y-128466209D01*
X193638707Y-128466209D02*
X193686326Y-128513828D01*
X193686326Y-128513828D02*
X193733945Y-128609066D01*
X193733945Y-128609066D02*
X193733945Y-128704304D01*
X193733945Y-128704304D02*
X193686326Y-128799542D01*
X193686326Y-128799542D02*
X193638707Y-128847161D01*
X193638707Y-128847161D02*
X193543469Y-128894780D01*
X193543469Y-128894780D02*
X193305374Y-128894780D01*
X193305374Y-128894780D02*
X193162517Y-128847161D01*
X192733945Y-127894780D02*
X192733945Y-128894780D01*
X192733945Y-128894780D02*
X192495850Y-128894780D01*
X192495850Y-128894780D02*
X192352993Y-128847161D01*
X192352993Y-128847161D02*
X192257755Y-128751923D01*
X192257755Y-128751923D02*
X192210136Y-128656685D01*
X192210136Y-128656685D02*
X192162517Y-128466209D01*
X192162517Y-128466209D02*
X192162517Y-128323352D01*
X192162517Y-128323352D02*
X192210136Y-128132876D01*
X192210136Y-128132876D02*
X192257755Y-128037638D01*
X192257755Y-128037638D02*
X192352993Y-127942400D01*
X192352993Y-127942400D02*
X192495850Y-127894780D01*
X192495850Y-127894780D02*
X192733945Y-127894780D01*
X191972041Y-127799542D02*
X191210136Y-127799542D01*
X191019659Y-127942400D02*
X190876802Y-127894780D01*
X190876802Y-127894780D02*
X190638707Y-127894780D01*
X190638707Y-127894780D02*
X190543469Y-127942400D01*
X190543469Y-127942400D02*
X190495850Y-127990019D01*
X190495850Y-127990019D02*
X190448231Y-128085257D01*
X190448231Y-128085257D02*
X190448231Y-128180495D01*
X190448231Y-128180495D02*
X190495850Y-128275733D01*
X190495850Y-128275733D02*
X190543469Y-128323352D01*
X190543469Y-128323352D02*
X190638707Y-128370971D01*
X190638707Y-128370971D02*
X190829183Y-128418590D01*
X190829183Y-128418590D02*
X190924421Y-128466209D01*
X190924421Y-128466209D02*
X190972040Y-128513828D01*
X190972040Y-128513828D02*
X191019659Y-128609066D01*
X191019659Y-128609066D02*
X191019659Y-128704304D01*
X191019659Y-128704304D02*
X190972040Y-128799542D01*
X190972040Y-128799542D02*
X190924421Y-128847161D01*
X190924421Y-128847161D02*
X190829183Y-128894780D01*
X190829183Y-128894780D02*
X190591088Y-128894780D01*
X190591088Y-128894780D02*
X190448231Y-128847161D01*
X189448231Y-127990019D02*
X189495850Y-127942400D01*
X189495850Y-127942400D02*
X189638707Y-127894780D01*
X189638707Y-127894780D02*
X189733945Y-127894780D01*
X189733945Y-127894780D02*
X189876802Y-127942400D01*
X189876802Y-127942400D02*
X189972040Y-128037638D01*
X189972040Y-128037638D02*
X190019659Y-128132876D01*
X190019659Y-128132876D02*
X190067278Y-128323352D01*
X190067278Y-128323352D02*
X190067278Y-128466209D01*
X190067278Y-128466209D02*
X190019659Y-128656685D01*
X190019659Y-128656685D02*
X189972040Y-128751923D01*
X189972040Y-128751923D02*
X189876802Y-128847161D01*
X189876802Y-128847161D02*
X189733945Y-128894780D01*
X189733945Y-128894780D02*
X189638707Y-128894780D01*
X189638707Y-128894780D02*
X189495850Y-128847161D01*
X189495850Y-128847161D02*
X189448231Y-128799542D01*
X189019659Y-127894780D02*
X189019659Y-128894780D01*
X188448231Y-127894780D02*
X188876802Y-128466209D01*
X188448231Y-128894780D02*
X189019659Y-128323352D01*
X145966136Y-132720780D02*
X146442326Y-132720780D01*
X146442326Y-132720780D02*
X146442326Y-133720780D01*
X145632802Y-133244590D02*
X145299469Y-133244590D01*
X145156612Y-132720780D02*
X145632802Y-132720780D01*
X145632802Y-132720780D02*
X145632802Y-133720780D01*
X145632802Y-133720780D02*
X145156612Y-133720780D01*
X144728040Y-132720780D02*
X144728040Y-133720780D01*
X144728040Y-133720780D02*
X144489945Y-133720780D01*
X144489945Y-133720780D02*
X144347088Y-133673161D01*
X144347088Y-133673161D02*
X144251850Y-133577923D01*
X144251850Y-133577923D02*
X144204231Y-133482685D01*
X144204231Y-133482685D02*
X144156612Y-133292209D01*
X144156612Y-133292209D02*
X144156612Y-133149352D01*
X144156612Y-133149352D02*
X144204231Y-132958876D01*
X144204231Y-132958876D02*
X144251850Y-132863638D01*
X144251850Y-132863638D02*
X144347088Y-132768400D01*
X144347088Y-132768400D02*
X144489945Y-132720780D01*
X144489945Y-132720780D02*
X144728040Y-132720780D01*
D11*
X185349774Y-137867171D02*
X186206917Y-137867171D01*
X185778346Y-137867171D02*
X185778346Y-139367171D01*
X185778346Y-139367171D02*
X185921203Y-139152885D01*
X185921203Y-139152885D02*
X186064060Y-139010028D01*
X186064060Y-139010028D02*
X186206917Y-138938600D01*
X184706918Y-138010028D02*
X184635489Y-137938600D01*
X184635489Y-137938600D02*
X184706918Y-137867171D01*
X184706918Y-137867171D02*
X184778346Y-137938600D01*
X184778346Y-137938600D02*
X184706918Y-138010028D01*
X184706918Y-138010028D02*
X184706918Y-137867171D01*
X183778346Y-138724314D02*
X183921203Y-138795742D01*
X183921203Y-138795742D02*
X183992632Y-138867171D01*
X183992632Y-138867171D02*
X184064060Y-139010028D01*
X184064060Y-139010028D02*
X184064060Y-139081457D01*
X184064060Y-139081457D02*
X183992632Y-139224314D01*
X183992632Y-139224314D02*
X183921203Y-139295742D01*
X183921203Y-139295742D02*
X183778346Y-139367171D01*
X183778346Y-139367171D02*
X183492632Y-139367171D01*
X183492632Y-139367171D02*
X183349775Y-139295742D01*
X183349775Y-139295742D02*
X183278346Y-139224314D01*
X183278346Y-139224314D02*
X183206917Y-139081457D01*
X183206917Y-139081457D02*
X183206917Y-139010028D01*
X183206917Y-139010028D02*
X183278346Y-138867171D01*
X183278346Y-138867171D02*
X183349775Y-138795742D01*
X183349775Y-138795742D02*
X183492632Y-138724314D01*
X183492632Y-138724314D02*
X183778346Y-138724314D01*
X183778346Y-138724314D02*
X183921203Y-138652885D01*
X183921203Y-138652885D02*
X183992632Y-138581457D01*
X183992632Y-138581457D02*
X184064060Y-138438600D01*
X184064060Y-138438600D02*
X184064060Y-138152885D01*
X184064060Y-138152885D02*
X183992632Y-138010028D01*
X183992632Y-138010028D02*
X183921203Y-137938600D01*
X183921203Y-137938600D02*
X183778346Y-137867171D01*
X183778346Y-137867171D02*
X183492632Y-137867171D01*
X183492632Y-137867171D02*
X183349775Y-137938600D01*
X183349775Y-137938600D02*
X183278346Y-138010028D01*
X183278346Y-138010028D02*
X183206917Y-138152885D01*
X183206917Y-138152885D02*
X183206917Y-138438600D01*
X183206917Y-138438600D02*
X183278346Y-138581457D01*
X183278346Y-138581457D02*
X183349775Y-138652885D01*
X183349775Y-138652885D02*
X183492632Y-138724314D01*
X181564061Y-139367171D02*
X180564061Y-139367171D01*
X180564061Y-139367171D02*
X181564061Y-137867171D01*
X181564061Y-137867171D02*
X180564061Y-137867171D01*
X179778347Y-137867171D02*
X179921204Y-137938600D01*
X179921204Y-137938600D02*
X179992633Y-138010028D01*
X179992633Y-138010028D02*
X180064061Y-138152885D01*
X180064061Y-138152885D02*
X180064061Y-138581457D01*
X180064061Y-138581457D02*
X179992633Y-138724314D01*
X179992633Y-138724314D02*
X179921204Y-138795742D01*
X179921204Y-138795742D02*
X179778347Y-138867171D01*
X179778347Y-138867171D02*
X179564061Y-138867171D01*
X179564061Y-138867171D02*
X179421204Y-138795742D01*
X179421204Y-138795742D02*
X179349776Y-138724314D01*
X179349776Y-138724314D02*
X179278347Y-138581457D01*
X179278347Y-138581457D02*
X179278347Y-138152885D01*
X179278347Y-138152885D02*
X179349776Y-138010028D01*
X179349776Y-138010028D02*
X179421204Y-137938600D01*
X179421204Y-137938600D02*
X179564061Y-137867171D01*
X179564061Y-137867171D02*
X179778347Y-137867171D01*
X178421204Y-137867171D02*
X178564061Y-137938600D01*
X178564061Y-137938600D02*
X178635490Y-138081457D01*
X178635490Y-138081457D02*
X178635490Y-139367171D01*
X177635490Y-137867171D02*
X177778347Y-137938600D01*
X177778347Y-137938600D02*
X177849776Y-138081457D01*
X177849776Y-138081457D02*
X177849776Y-139367171D01*
X176135490Y-139367171D02*
X175278348Y-139367171D01*
X175706919Y-137867171D02*
X175706919Y-139367171D01*
X174278348Y-138652885D02*
X174778348Y-138652885D01*
X174778348Y-137867171D02*
X174778348Y-139367171D01*
X174778348Y-139367171D02*
X174064062Y-139367171D01*
X173706919Y-139367171D02*
X172849777Y-139367171D01*
X173278348Y-137867171D02*
X173278348Y-139367171D01*
X171278348Y-137938600D02*
X171064063Y-137867171D01*
X171064063Y-137867171D02*
X170706920Y-137867171D01*
X170706920Y-137867171D02*
X170564063Y-137938600D01*
X170564063Y-137938600D02*
X170492634Y-138010028D01*
X170492634Y-138010028D02*
X170421205Y-138152885D01*
X170421205Y-138152885D02*
X170421205Y-138295742D01*
X170421205Y-138295742D02*
X170492634Y-138438600D01*
X170492634Y-138438600D02*
X170564063Y-138510028D01*
X170564063Y-138510028D02*
X170706920Y-138581457D01*
X170706920Y-138581457D02*
X170992634Y-138652885D01*
X170992634Y-138652885D02*
X171135491Y-138724314D01*
X171135491Y-138724314D02*
X171206920Y-138795742D01*
X171206920Y-138795742D02*
X171278348Y-138938600D01*
X171278348Y-138938600D02*
X171278348Y-139081457D01*
X171278348Y-139081457D02*
X171206920Y-139224314D01*
X171206920Y-139224314D02*
X171135491Y-139295742D01*
X171135491Y-139295742D02*
X170992634Y-139367171D01*
X170992634Y-139367171D02*
X170635491Y-139367171D01*
X170635491Y-139367171D02*
X170421205Y-139295742D01*
X169135492Y-137938600D02*
X169278349Y-137867171D01*
X169278349Y-137867171D02*
X169564063Y-137867171D01*
X169564063Y-137867171D02*
X169706920Y-137938600D01*
X169706920Y-137938600D02*
X169778349Y-138010028D01*
X169778349Y-138010028D02*
X169849777Y-138152885D01*
X169849777Y-138152885D02*
X169849777Y-138581457D01*
X169849777Y-138581457D02*
X169778349Y-138724314D01*
X169778349Y-138724314D02*
X169706920Y-138795742D01*
X169706920Y-138795742D02*
X169564063Y-138867171D01*
X169564063Y-138867171D02*
X169278349Y-138867171D01*
X169278349Y-138867171D02*
X169135492Y-138795742D01*
X168492635Y-137867171D02*
X168492635Y-138867171D01*
X168492635Y-138581457D02*
X168421206Y-138724314D01*
X168421206Y-138724314D02*
X168349778Y-138795742D01*
X168349778Y-138795742D02*
X168206920Y-138867171D01*
X168206920Y-138867171D02*
X168064063Y-138867171D01*
X166992635Y-137938600D02*
X167135492Y-137867171D01*
X167135492Y-137867171D02*
X167421207Y-137867171D01*
X167421207Y-137867171D02*
X167564064Y-137938600D01*
X167564064Y-137938600D02*
X167635492Y-138081457D01*
X167635492Y-138081457D02*
X167635492Y-138652885D01*
X167635492Y-138652885D02*
X167564064Y-138795742D01*
X167564064Y-138795742D02*
X167421207Y-138867171D01*
X167421207Y-138867171D02*
X167135492Y-138867171D01*
X167135492Y-138867171D02*
X166992635Y-138795742D01*
X166992635Y-138795742D02*
X166921207Y-138652885D01*
X166921207Y-138652885D02*
X166921207Y-138510028D01*
X166921207Y-138510028D02*
X167635492Y-138367171D01*
X165706921Y-137938600D02*
X165849778Y-137867171D01*
X165849778Y-137867171D02*
X166135493Y-137867171D01*
X166135493Y-137867171D02*
X166278350Y-137938600D01*
X166278350Y-137938600D02*
X166349778Y-138081457D01*
X166349778Y-138081457D02*
X166349778Y-138652885D01*
X166349778Y-138652885D02*
X166278350Y-138795742D01*
X166278350Y-138795742D02*
X166135493Y-138867171D01*
X166135493Y-138867171D02*
X165849778Y-138867171D01*
X165849778Y-138867171D02*
X165706921Y-138795742D01*
X165706921Y-138795742D02*
X165635493Y-138652885D01*
X165635493Y-138652885D02*
X165635493Y-138510028D01*
X165635493Y-138510028D02*
X166349778Y-138367171D01*
X164992636Y-138867171D02*
X164992636Y-137867171D01*
X164992636Y-138724314D02*
X164921207Y-138795742D01*
X164921207Y-138795742D02*
X164778350Y-138867171D01*
X164778350Y-138867171D02*
X164564064Y-138867171D01*
X164564064Y-138867171D02*
X164421207Y-138795742D01*
X164421207Y-138795742D02*
X164349779Y-138652885D01*
X164349779Y-138652885D02*
X164349779Y-137867171D01*
X162564064Y-137938600D02*
X162349779Y-137867171D01*
X162349779Y-137867171D02*
X161992636Y-137867171D01*
X161992636Y-137867171D02*
X161849779Y-137938600D01*
X161849779Y-137938600D02*
X161778350Y-138010028D01*
X161778350Y-138010028D02*
X161706921Y-138152885D01*
X161706921Y-138152885D02*
X161706921Y-138295742D01*
X161706921Y-138295742D02*
X161778350Y-138438600D01*
X161778350Y-138438600D02*
X161849779Y-138510028D01*
X161849779Y-138510028D02*
X161992636Y-138581457D01*
X161992636Y-138581457D02*
X162278350Y-138652885D01*
X162278350Y-138652885D02*
X162421207Y-138724314D01*
X162421207Y-138724314D02*
X162492636Y-138795742D01*
X162492636Y-138795742D02*
X162564064Y-138938600D01*
X162564064Y-138938600D02*
X162564064Y-139081457D01*
X162564064Y-139081457D02*
X162492636Y-139224314D01*
X162492636Y-139224314D02*
X162421207Y-139295742D01*
X162421207Y-139295742D02*
X162278350Y-139367171D01*
X162278350Y-139367171D02*
X161921207Y-139367171D01*
X161921207Y-139367171D02*
X161706921Y-139295742D01*
X161278350Y-139367171D02*
X160421208Y-139367171D01*
X160849779Y-137867171D02*
X160849779Y-139367171D01*
X160064065Y-139367171D02*
X159064065Y-139367171D01*
X159064065Y-139367171D02*
X159706922Y-137867171D01*
X158635494Y-139367171D02*
X157635494Y-139367171D01*
X157635494Y-139367171D02*
X158278351Y-137867171D01*
X157206923Y-139367171D02*
X156278351Y-139367171D01*
X156278351Y-139367171D02*
X156778351Y-138795742D01*
X156778351Y-138795742D02*
X156564066Y-138795742D01*
X156564066Y-138795742D02*
X156421209Y-138724314D01*
X156421209Y-138724314D02*
X156349780Y-138652885D01*
X156349780Y-138652885D02*
X156278351Y-138510028D01*
X156278351Y-138510028D02*
X156278351Y-138152885D01*
X156278351Y-138152885D02*
X156349780Y-138010028D01*
X156349780Y-138010028D02*
X156421209Y-137938600D01*
X156421209Y-137938600D02*
X156564066Y-137867171D01*
X156564066Y-137867171D02*
X156992637Y-137867171D01*
X156992637Y-137867171D02*
X157135494Y-137938600D01*
X157135494Y-137938600D02*
X157206923Y-138010028D01*
X154921209Y-139367171D02*
X155635495Y-139367171D01*
X155635495Y-139367171D02*
X155706923Y-138652885D01*
X155706923Y-138652885D02*
X155635495Y-138724314D01*
X155635495Y-138724314D02*
X155492638Y-138795742D01*
X155492638Y-138795742D02*
X155135495Y-138795742D01*
X155135495Y-138795742D02*
X154992638Y-138724314D01*
X154992638Y-138724314D02*
X154921209Y-138652885D01*
X154921209Y-138652885D02*
X154849780Y-138510028D01*
X154849780Y-138510028D02*
X154849780Y-138152885D01*
X154849780Y-138152885D02*
X154921209Y-138010028D01*
X154921209Y-138010028D02*
X154992638Y-137938600D01*
X154992638Y-137938600D02*
X155135495Y-137867171D01*
X155135495Y-137867171D02*
X155492638Y-137867171D01*
X155492638Y-137867171D02*
X155635495Y-137938600D01*
X155635495Y-137938600D02*
X155706923Y-138010028D01*
D10*
X145870898Y-122560780D02*
X146204231Y-123036971D01*
X146442326Y-122560780D02*
X146442326Y-123560780D01*
X146442326Y-123560780D02*
X146061374Y-123560780D01*
X146061374Y-123560780D02*
X145966136Y-123513161D01*
X145966136Y-123513161D02*
X145918517Y-123465542D01*
X145918517Y-123465542D02*
X145870898Y-123370304D01*
X145870898Y-123370304D02*
X145870898Y-123227447D01*
X145870898Y-123227447D02*
X145918517Y-123132209D01*
X145918517Y-123132209D02*
X145966136Y-123084590D01*
X145966136Y-123084590D02*
X146061374Y-123036971D01*
X146061374Y-123036971D02*
X146442326Y-123036971D01*
X145489945Y-122608400D02*
X145347088Y-122560780D01*
X145347088Y-122560780D02*
X145108993Y-122560780D01*
X145108993Y-122560780D02*
X145013755Y-122608400D01*
X145013755Y-122608400D02*
X144966136Y-122656019D01*
X144966136Y-122656019D02*
X144918517Y-122751257D01*
X144918517Y-122751257D02*
X144918517Y-122846495D01*
X144918517Y-122846495D02*
X144966136Y-122941733D01*
X144966136Y-122941733D02*
X145013755Y-122989352D01*
X145013755Y-122989352D02*
X145108993Y-123036971D01*
X145108993Y-123036971D02*
X145299469Y-123084590D01*
X145299469Y-123084590D02*
X145394707Y-123132209D01*
X145394707Y-123132209D02*
X145442326Y-123179828D01*
X145442326Y-123179828D02*
X145489945Y-123275066D01*
X145489945Y-123275066D02*
X145489945Y-123370304D01*
X145489945Y-123370304D02*
X145442326Y-123465542D01*
X145442326Y-123465542D02*
X145394707Y-123513161D01*
X145394707Y-123513161D02*
X145299469Y-123560780D01*
X145299469Y-123560780D02*
X145061374Y-123560780D01*
X145061374Y-123560780D02*
X144918517Y-123513161D01*
X144632802Y-123560780D02*
X144061374Y-123560780D01*
X144347088Y-122560780D02*
X144347088Y-123560780D01*
X150299945Y-125386495D02*
X149823755Y-125386495D01*
X150395183Y-125100780D02*
X150061850Y-126100780D01*
X150061850Y-126100780D02*
X149728517Y-125100780D01*
X149204707Y-126100780D02*
X149109469Y-126100780D01*
X149109469Y-126100780D02*
X149014231Y-126053161D01*
X149014231Y-126053161D02*
X148966612Y-126005542D01*
X148966612Y-126005542D02*
X148918993Y-125910304D01*
X148918993Y-125910304D02*
X148871374Y-125719828D01*
X148871374Y-125719828D02*
X148871374Y-125481733D01*
X148871374Y-125481733D02*
X148918993Y-125291257D01*
X148918993Y-125291257D02*
X148966612Y-125196019D01*
X148966612Y-125196019D02*
X149014231Y-125148400D01*
X149014231Y-125148400D02*
X149109469Y-125100780D01*
X149109469Y-125100780D02*
X149204707Y-125100780D01*
X149204707Y-125100780D02*
X149299945Y-125148400D01*
X149299945Y-125148400D02*
X149347564Y-125196019D01*
X149347564Y-125196019D02*
X149395183Y-125291257D01*
X149395183Y-125291257D02*
X149442802Y-125481733D01*
X149442802Y-125481733D02*
X149442802Y-125719828D01*
X149442802Y-125719828D02*
X149395183Y-125910304D01*
X149395183Y-125910304D02*
X149347564Y-126005542D01*
X149347564Y-126005542D02*
X149299945Y-126053161D01*
X149299945Y-126053161D02*
X149204707Y-126100780D01*
X146966612Y-126148400D02*
X147823754Y-124862685D01*
X145871373Y-125100780D02*
X145871373Y-126100780D01*
X145871373Y-126100780D02*
X145633278Y-126100780D01*
X145633278Y-126100780D02*
X145490421Y-126053161D01*
X145490421Y-126053161D02*
X145395183Y-125957923D01*
X145395183Y-125957923D02*
X145347564Y-125862685D01*
X145347564Y-125862685D02*
X145299945Y-125672209D01*
X145299945Y-125672209D02*
X145299945Y-125529352D01*
X145299945Y-125529352D02*
X145347564Y-125338876D01*
X145347564Y-125338876D02*
X145395183Y-125243638D01*
X145395183Y-125243638D02*
X145490421Y-125148400D01*
X145490421Y-125148400D02*
X145633278Y-125100780D01*
X145633278Y-125100780D02*
X145871373Y-125100780D01*
X144299945Y-125196019D02*
X144347564Y-125148400D01*
X144347564Y-125148400D02*
X144490421Y-125100780D01*
X144490421Y-125100780D02*
X144585659Y-125100780D01*
X144585659Y-125100780D02*
X144728516Y-125148400D01*
X144728516Y-125148400D02*
X144823754Y-125243638D01*
X144823754Y-125243638D02*
X144871373Y-125338876D01*
X144871373Y-125338876D02*
X144918992Y-125529352D01*
X144918992Y-125529352D02*
X144918992Y-125672209D01*
X144918992Y-125672209D02*
X144871373Y-125862685D01*
X144871373Y-125862685D02*
X144823754Y-125957923D01*
X144823754Y-125957923D02*
X144728516Y-126053161D01*
X144728516Y-126053161D02*
X144585659Y-126100780D01*
X144585659Y-126100780D02*
X144490421Y-126100780D01*
X144490421Y-126100780D02*
X144347564Y-126053161D01*
X144347564Y-126053161D02*
X144299945Y-126005542D01*
X193987945Y-122862400D02*
X193845088Y-122814780D01*
X193845088Y-122814780D02*
X193606993Y-122814780D01*
X193606993Y-122814780D02*
X193511755Y-122862400D01*
X193511755Y-122862400D02*
X193464136Y-122910019D01*
X193464136Y-122910019D02*
X193416517Y-123005257D01*
X193416517Y-123005257D02*
X193416517Y-123100495D01*
X193416517Y-123100495D02*
X193464136Y-123195733D01*
X193464136Y-123195733D02*
X193511755Y-123243352D01*
X193511755Y-123243352D02*
X193606993Y-123290971D01*
X193606993Y-123290971D02*
X193797469Y-123338590D01*
X193797469Y-123338590D02*
X193892707Y-123386209D01*
X193892707Y-123386209D02*
X193940326Y-123433828D01*
X193940326Y-123433828D02*
X193987945Y-123529066D01*
X193987945Y-123529066D02*
X193987945Y-123624304D01*
X193987945Y-123624304D02*
X193940326Y-123719542D01*
X193940326Y-123719542D02*
X193892707Y-123767161D01*
X193892707Y-123767161D02*
X193797469Y-123814780D01*
X193797469Y-123814780D02*
X193559374Y-123814780D01*
X193559374Y-123814780D02*
X193416517Y-123767161D01*
X192987945Y-122814780D02*
X192987945Y-123814780D01*
X192987945Y-123814780D02*
X192749850Y-123814780D01*
X192749850Y-123814780D02*
X192606993Y-123767161D01*
X192606993Y-123767161D02*
X192511755Y-123671923D01*
X192511755Y-123671923D02*
X192464136Y-123576685D01*
X192464136Y-123576685D02*
X192416517Y-123386209D01*
X192416517Y-123386209D02*
X192416517Y-123243352D01*
X192416517Y-123243352D02*
X192464136Y-123052876D01*
X192464136Y-123052876D02*
X192511755Y-122957638D01*
X192511755Y-122957638D02*
X192606993Y-122862400D01*
X192606993Y-122862400D02*
X192749850Y-122814780D01*
X192749850Y-122814780D02*
X192987945Y-122814780D01*
X192226041Y-122719542D02*
X191464136Y-122719542D01*
X191226040Y-122814780D02*
X191226040Y-123814780D01*
X191226040Y-123814780D02*
X190892707Y-123100495D01*
X190892707Y-123100495D02*
X190559374Y-123814780D01*
X190559374Y-123814780D02*
X190559374Y-122814780D01*
X189892707Y-123814780D02*
X189702231Y-123814780D01*
X189702231Y-123814780D02*
X189606993Y-123767161D01*
X189606993Y-123767161D02*
X189511755Y-123671923D01*
X189511755Y-123671923D02*
X189464136Y-123481447D01*
X189464136Y-123481447D02*
X189464136Y-123148114D01*
X189464136Y-123148114D02*
X189511755Y-122957638D01*
X189511755Y-122957638D02*
X189606993Y-122862400D01*
X189606993Y-122862400D02*
X189702231Y-122814780D01*
X189702231Y-122814780D02*
X189892707Y-122814780D01*
X189892707Y-122814780D02*
X189987945Y-122862400D01*
X189987945Y-122862400D02*
X190083183Y-122957638D01*
X190083183Y-122957638D02*
X190130802Y-123148114D01*
X190130802Y-123148114D02*
X190130802Y-123481447D01*
X190130802Y-123481447D02*
X190083183Y-123671923D01*
X190083183Y-123671923D02*
X189987945Y-123767161D01*
X189987945Y-123767161D02*
X189892707Y-123814780D01*
X189083183Y-122862400D02*
X188940326Y-122814780D01*
X188940326Y-122814780D02*
X188702231Y-122814780D01*
X188702231Y-122814780D02*
X188606993Y-122862400D01*
X188606993Y-122862400D02*
X188559374Y-122910019D01*
X188559374Y-122910019D02*
X188511755Y-123005257D01*
X188511755Y-123005257D02*
X188511755Y-123100495D01*
X188511755Y-123100495D02*
X188559374Y-123195733D01*
X188559374Y-123195733D02*
X188606993Y-123243352D01*
X188606993Y-123243352D02*
X188702231Y-123290971D01*
X188702231Y-123290971D02*
X188892707Y-123338590D01*
X188892707Y-123338590D02*
X188987945Y-123386209D01*
X188987945Y-123386209D02*
X189035564Y-123433828D01*
X189035564Y-123433828D02*
X189083183Y-123529066D01*
X189083183Y-123529066D02*
X189083183Y-123624304D01*
X189083183Y-123624304D02*
X189035564Y-123719542D01*
X189035564Y-123719542D02*
X188987945Y-123767161D01*
X188987945Y-123767161D02*
X188892707Y-123814780D01*
X188892707Y-123814780D02*
X188654612Y-123814780D01*
X188654612Y-123814780D02*
X188511755Y-123767161D01*
X188083183Y-122814780D02*
X188083183Y-123814780D01*
X152839945Y-127688400D02*
X152697088Y-127640780D01*
X152697088Y-127640780D02*
X152458993Y-127640780D01*
X152458993Y-127640780D02*
X152363755Y-127688400D01*
X152363755Y-127688400D02*
X152316136Y-127736019D01*
X152316136Y-127736019D02*
X152268517Y-127831257D01*
X152268517Y-127831257D02*
X152268517Y-127926495D01*
X152268517Y-127926495D02*
X152316136Y-128021733D01*
X152316136Y-128021733D02*
X152363755Y-128069352D01*
X152363755Y-128069352D02*
X152458993Y-128116971D01*
X152458993Y-128116971D02*
X152649469Y-128164590D01*
X152649469Y-128164590D02*
X152744707Y-128212209D01*
X152744707Y-128212209D02*
X152792326Y-128259828D01*
X152792326Y-128259828D02*
X152839945Y-128355066D01*
X152839945Y-128355066D02*
X152839945Y-128450304D01*
X152839945Y-128450304D02*
X152792326Y-128545542D01*
X152792326Y-128545542D02*
X152744707Y-128593161D01*
X152744707Y-128593161D02*
X152649469Y-128640780D01*
X152649469Y-128640780D02*
X152411374Y-128640780D01*
X152411374Y-128640780D02*
X152268517Y-128593161D01*
X151839945Y-127640780D02*
X151839945Y-128640780D01*
X151839945Y-128640780D02*
X151601850Y-128640780D01*
X151601850Y-128640780D02*
X151458993Y-128593161D01*
X151458993Y-128593161D02*
X151363755Y-128497923D01*
X151363755Y-128497923D02*
X151316136Y-128402685D01*
X151316136Y-128402685D02*
X151268517Y-128212209D01*
X151268517Y-128212209D02*
X151268517Y-128069352D01*
X151268517Y-128069352D02*
X151316136Y-127878876D01*
X151316136Y-127878876D02*
X151363755Y-127783638D01*
X151363755Y-127783638D02*
X151458993Y-127688400D01*
X151458993Y-127688400D02*
X151601850Y-127640780D01*
X151601850Y-127640780D02*
X151839945Y-127640780D01*
X150887564Y-127926495D02*
X150411374Y-127926495D01*
X150982802Y-127640780D02*
X150649469Y-128640780D01*
X150649469Y-128640780D02*
X150316136Y-127640780D01*
X148506612Y-128688400D02*
X149363754Y-127402685D01*
X147411373Y-127640780D02*
X147411373Y-128640780D01*
X147411373Y-128640780D02*
X147078040Y-127926495D01*
X147078040Y-127926495D02*
X146744707Y-128640780D01*
X146744707Y-128640780D02*
X146744707Y-127640780D01*
X146078040Y-128640780D02*
X145887564Y-128640780D01*
X145887564Y-128640780D02*
X145792326Y-128593161D01*
X145792326Y-128593161D02*
X145697088Y-128497923D01*
X145697088Y-128497923D02*
X145649469Y-128307447D01*
X145649469Y-128307447D02*
X145649469Y-127974114D01*
X145649469Y-127974114D02*
X145697088Y-127783638D01*
X145697088Y-127783638D02*
X145792326Y-127688400D01*
X145792326Y-127688400D02*
X145887564Y-127640780D01*
X145887564Y-127640780D02*
X146078040Y-127640780D01*
X146078040Y-127640780D02*
X146173278Y-127688400D01*
X146173278Y-127688400D02*
X146268516Y-127783638D01*
X146268516Y-127783638D02*
X146316135Y-127974114D01*
X146316135Y-127974114D02*
X146316135Y-128307447D01*
X146316135Y-128307447D02*
X146268516Y-128497923D01*
X146268516Y-128497923D02*
X146173278Y-128593161D01*
X146173278Y-128593161D02*
X146078040Y-128640780D01*
X145268516Y-127688400D02*
X145125659Y-127640780D01*
X145125659Y-127640780D02*
X144887564Y-127640780D01*
X144887564Y-127640780D02*
X144792326Y-127688400D01*
X144792326Y-127688400D02*
X144744707Y-127736019D01*
X144744707Y-127736019D02*
X144697088Y-127831257D01*
X144697088Y-127831257D02*
X144697088Y-127926495D01*
X144697088Y-127926495D02*
X144744707Y-128021733D01*
X144744707Y-128021733D02*
X144792326Y-128069352D01*
X144792326Y-128069352D02*
X144887564Y-128116971D01*
X144887564Y-128116971D02*
X145078040Y-128164590D01*
X145078040Y-128164590D02*
X145173278Y-128212209D01*
X145173278Y-128212209D02*
X145220897Y-128259828D01*
X145220897Y-128259828D02*
X145268516Y-128355066D01*
X145268516Y-128355066D02*
X145268516Y-128450304D01*
X145268516Y-128450304D02*
X145220897Y-128545542D01*
X145220897Y-128545542D02*
X145173278Y-128593161D01*
X145173278Y-128593161D02*
X145078040Y-128640780D01*
X145078040Y-128640780D02*
X144839945Y-128640780D01*
X144839945Y-128640780D02*
X144697088Y-128593161D01*
X144268516Y-127640780D02*
X144268516Y-128640780D01*
X193987945Y-120068400D02*
X193845088Y-120020780D01*
X193845088Y-120020780D02*
X193606993Y-120020780D01*
X193606993Y-120020780D02*
X193511755Y-120068400D01*
X193511755Y-120068400D02*
X193464136Y-120116019D01*
X193464136Y-120116019D02*
X193416517Y-120211257D01*
X193416517Y-120211257D02*
X193416517Y-120306495D01*
X193416517Y-120306495D02*
X193464136Y-120401733D01*
X193464136Y-120401733D02*
X193511755Y-120449352D01*
X193511755Y-120449352D02*
X193606993Y-120496971D01*
X193606993Y-120496971D02*
X193797469Y-120544590D01*
X193797469Y-120544590D02*
X193892707Y-120592209D01*
X193892707Y-120592209D02*
X193940326Y-120639828D01*
X193940326Y-120639828D02*
X193987945Y-120735066D01*
X193987945Y-120735066D02*
X193987945Y-120830304D01*
X193987945Y-120830304D02*
X193940326Y-120925542D01*
X193940326Y-120925542D02*
X193892707Y-120973161D01*
X193892707Y-120973161D02*
X193797469Y-121020780D01*
X193797469Y-121020780D02*
X193559374Y-121020780D01*
X193559374Y-121020780D02*
X193416517Y-120973161D01*
X192987945Y-120020780D02*
X192987945Y-121020780D01*
X192987945Y-121020780D02*
X192749850Y-121020780D01*
X192749850Y-121020780D02*
X192606993Y-120973161D01*
X192606993Y-120973161D02*
X192511755Y-120877923D01*
X192511755Y-120877923D02*
X192464136Y-120782685D01*
X192464136Y-120782685D02*
X192416517Y-120592209D01*
X192416517Y-120592209D02*
X192416517Y-120449352D01*
X192416517Y-120449352D02*
X192464136Y-120258876D01*
X192464136Y-120258876D02*
X192511755Y-120163638D01*
X192511755Y-120163638D02*
X192606993Y-120068400D01*
X192606993Y-120068400D02*
X192749850Y-120020780D01*
X192749850Y-120020780D02*
X192987945Y-120020780D01*
X192226041Y-119925542D02*
X191464136Y-119925542D01*
X190654612Y-120116019D02*
X190702231Y-120068400D01*
X190702231Y-120068400D02*
X190845088Y-120020780D01*
X190845088Y-120020780D02*
X190940326Y-120020780D01*
X190940326Y-120020780D02*
X191083183Y-120068400D01*
X191083183Y-120068400D02*
X191178421Y-120163638D01*
X191178421Y-120163638D02*
X191226040Y-120258876D01*
X191226040Y-120258876D02*
X191273659Y-120449352D01*
X191273659Y-120449352D02*
X191273659Y-120592209D01*
X191273659Y-120592209D02*
X191226040Y-120782685D01*
X191226040Y-120782685D02*
X191178421Y-120877923D01*
X191178421Y-120877923D02*
X191083183Y-120973161D01*
X191083183Y-120973161D02*
X190940326Y-121020780D01*
X190940326Y-121020780D02*
X190845088Y-121020780D01*
X190845088Y-121020780D02*
X190702231Y-120973161D01*
X190702231Y-120973161D02*
X190654612Y-120925542D01*
X190273659Y-120068400D02*
X190130802Y-120020780D01*
X190130802Y-120020780D02*
X189892707Y-120020780D01*
X189892707Y-120020780D02*
X189797469Y-120068400D01*
X189797469Y-120068400D02*
X189749850Y-120116019D01*
X189749850Y-120116019D02*
X189702231Y-120211257D01*
X189702231Y-120211257D02*
X189702231Y-120306495D01*
X189702231Y-120306495D02*
X189749850Y-120401733D01*
X189749850Y-120401733D02*
X189797469Y-120449352D01*
X189797469Y-120449352D02*
X189892707Y-120496971D01*
X189892707Y-120496971D02*
X190083183Y-120544590D01*
X190083183Y-120544590D02*
X190178421Y-120592209D01*
X190178421Y-120592209D02*
X190226040Y-120639828D01*
X190226040Y-120639828D02*
X190273659Y-120735066D01*
X190273659Y-120735066D02*
X190273659Y-120830304D01*
X190273659Y-120830304D02*
X190226040Y-120925542D01*
X190226040Y-120925542D02*
X190178421Y-120973161D01*
X190178421Y-120973161D02*
X190083183Y-121020780D01*
X190083183Y-121020780D02*
X189845088Y-121020780D01*
X189845088Y-121020780D02*
X189702231Y-120973161D01*
X146426517Y-118433161D02*
X146521755Y-118480780D01*
X146521755Y-118480780D02*
X146664612Y-118480780D01*
X146664612Y-118480780D02*
X146807469Y-118433161D01*
X146807469Y-118433161D02*
X146902707Y-118337923D01*
X146902707Y-118337923D02*
X146950326Y-118242685D01*
X146950326Y-118242685D02*
X146997945Y-118052209D01*
X146997945Y-118052209D02*
X146997945Y-117909352D01*
X146997945Y-117909352D02*
X146950326Y-117718876D01*
X146950326Y-117718876D02*
X146902707Y-117623638D01*
X146902707Y-117623638D02*
X146807469Y-117528400D01*
X146807469Y-117528400D02*
X146664612Y-117480780D01*
X146664612Y-117480780D02*
X146569374Y-117480780D01*
X146569374Y-117480780D02*
X146426517Y-117528400D01*
X146426517Y-117528400D02*
X146378898Y-117576019D01*
X146378898Y-117576019D02*
X146378898Y-117909352D01*
X146378898Y-117909352D02*
X146569374Y-117909352D01*
X145950326Y-117480780D02*
X145950326Y-118480780D01*
X145950326Y-118480780D02*
X145378898Y-117480780D01*
X145378898Y-117480780D02*
X145378898Y-118480780D01*
X144902707Y-117480780D02*
X144902707Y-118480780D01*
X144902707Y-118480780D02*
X144664612Y-118480780D01*
X144664612Y-118480780D02*
X144521755Y-118433161D01*
X144521755Y-118433161D02*
X144426517Y-118337923D01*
X144426517Y-118337923D02*
X144378898Y-118242685D01*
X144378898Y-118242685D02*
X144331279Y-118052209D01*
X144331279Y-118052209D02*
X144331279Y-117909352D01*
X144331279Y-117909352D02*
X144378898Y-117718876D01*
X144378898Y-117718876D02*
X144426517Y-117623638D01*
X144426517Y-117623638D02*
X144521755Y-117528400D01*
X144521755Y-117528400D02*
X144664612Y-117480780D01*
X144664612Y-117480780D02*
X144902707Y-117480780D01*
X193733945Y-125402400D02*
X193591088Y-125354780D01*
X193591088Y-125354780D02*
X193352993Y-125354780D01*
X193352993Y-125354780D02*
X193257755Y-125402400D01*
X193257755Y-125402400D02*
X193210136Y-125450019D01*
X193210136Y-125450019D02*
X193162517Y-125545257D01*
X193162517Y-125545257D02*
X193162517Y-125640495D01*
X193162517Y-125640495D02*
X193210136Y-125735733D01*
X193210136Y-125735733D02*
X193257755Y-125783352D01*
X193257755Y-125783352D02*
X193352993Y-125830971D01*
X193352993Y-125830971D02*
X193543469Y-125878590D01*
X193543469Y-125878590D02*
X193638707Y-125926209D01*
X193638707Y-125926209D02*
X193686326Y-125973828D01*
X193686326Y-125973828D02*
X193733945Y-126069066D01*
X193733945Y-126069066D02*
X193733945Y-126164304D01*
X193733945Y-126164304D02*
X193686326Y-126259542D01*
X193686326Y-126259542D02*
X193638707Y-126307161D01*
X193638707Y-126307161D02*
X193543469Y-126354780D01*
X193543469Y-126354780D02*
X193305374Y-126354780D01*
X193305374Y-126354780D02*
X193162517Y-126307161D01*
X192733945Y-125354780D02*
X192733945Y-126354780D01*
X192733945Y-126354780D02*
X192495850Y-126354780D01*
X192495850Y-126354780D02*
X192352993Y-126307161D01*
X192352993Y-126307161D02*
X192257755Y-126211923D01*
X192257755Y-126211923D02*
X192210136Y-126116685D01*
X192210136Y-126116685D02*
X192162517Y-125926209D01*
X192162517Y-125926209D02*
X192162517Y-125783352D01*
X192162517Y-125783352D02*
X192210136Y-125592876D01*
X192210136Y-125592876D02*
X192257755Y-125497638D01*
X192257755Y-125497638D02*
X192352993Y-125402400D01*
X192352993Y-125402400D02*
X192495850Y-125354780D01*
X192495850Y-125354780D02*
X192733945Y-125354780D01*
X191972041Y-125259542D02*
X191210136Y-125259542D01*
X190972040Y-125354780D02*
X190972040Y-126354780D01*
X190972040Y-126354780D02*
X190638707Y-125640495D01*
X190638707Y-125640495D02*
X190305374Y-126354780D01*
X190305374Y-126354780D02*
X190305374Y-125354780D01*
X189829183Y-125354780D02*
X189829183Y-126354780D01*
X189400612Y-125402400D02*
X189257755Y-125354780D01*
X189257755Y-125354780D02*
X189019660Y-125354780D01*
X189019660Y-125354780D02*
X188924422Y-125402400D01*
X188924422Y-125402400D02*
X188876803Y-125450019D01*
X188876803Y-125450019D02*
X188829184Y-125545257D01*
X188829184Y-125545257D02*
X188829184Y-125640495D01*
X188829184Y-125640495D02*
X188876803Y-125735733D01*
X188876803Y-125735733D02*
X188924422Y-125783352D01*
X188924422Y-125783352D02*
X189019660Y-125830971D01*
X189019660Y-125830971D02*
X189210136Y-125878590D01*
X189210136Y-125878590D02*
X189305374Y-125926209D01*
X189305374Y-125926209D02*
X189352993Y-125973828D01*
X189352993Y-125973828D02*
X189400612Y-126069066D01*
X189400612Y-126069066D02*
X189400612Y-126164304D01*
X189400612Y-126164304D02*
X189352993Y-126259542D01*
X189352993Y-126259542D02*
X189305374Y-126307161D01*
X189305374Y-126307161D02*
X189210136Y-126354780D01*
X189210136Y-126354780D02*
X188972041Y-126354780D01*
X188972041Y-126354780D02*
X188829184Y-126307161D01*
X188210136Y-126354780D02*
X188019660Y-126354780D01*
X188019660Y-126354780D02*
X187924422Y-126307161D01*
X187924422Y-126307161D02*
X187829184Y-126211923D01*
X187829184Y-126211923D02*
X187781565Y-126021447D01*
X187781565Y-126021447D02*
X187781565Y-125688114D01*
X187781565Y-125688114D02*
X187829184Y-125497638D01*
X187829184Y-125497638D02*
X187924422Y-125402400D01*
X187924422Y-125402400D02*
X188019660Y-125354780D01*
X188019660Y-125354780D02*
X188210136Y-125354780D01*
X188210136Y-125354780D02*
X188305374Y-125402400D01*
X188305374Y-125402400D02*
X188400612Y-125497638D01*
X188400612Y-125497638D02*
X188448231Y-125688114D01*
X188448231Y-125688114D02*
X188448231Y-126021447D01*
X188448231Y-126021447D02*
X188400612Y-126211923D01*
X188400612Y-126211923D02*
X188305374Y-126307161D01*
X188305374Y-126307161D02*
X188210136Y-126354780D01*
D12*
%TO.C,U2*%
X35179000Y-116967000D02*
X35179000Y-141967000D01*
X35179000Y-141967000D02*
X70179000Y-141967000D01*
X70179000Y-116967000D02*
X35179000Y-116967000D01*
X70179000Y-141967000D02*
X70179000Y-116967000D01*
D15*
%TO.C,R2*%
X112495000Y-69120000D02*
X112165000Y-69120000D01*
X109755000Y-69120000D02*
X110085000Y-69120000D01*
X112495000Y-75660000D02*
X112495000Y-69120000D01*
X112165000Y-75660000D02*
X112495000Y-75660000D01*
X110085000Y-75660000D02*
X109755000Y-75660000D01*
X109755000Y-75660000D02*
X109755000Y-69120000D01*
%TO.C,U6*%
D13*
X125095000Y-121270500D02*
X92075000Y-121270500D01*
X92075000Y-141590500D01*
X125095000Y-141590500D01*
X125095000Y-121270500D01*
X120015000Y-128890500D02*
X112395000Y-128890500D01*
X112395000Y-133970500D01*
X120015000Y-133970500D01*
X120015000Y-128890500D01*
D15*
%TO.C,J10*%
X31055000Y-133925000D02*
X32385000Y-133925000D01*
X31055000Y-135255000D02*
X31055000Y-133925000D01*
X31055000Y-136525000D02*
X31055000Y-139125000D01*
X31055000Y-136525000D02*
X33715000Y-136525000D01*
X31055000Y-139125000D02*
X33715000Y-139125000D01*
X33715000Y-136525000D02*
X33715000Y-139125000D01*
%TO.C,J5*%
X135950000Y-126305000D02*
X135950000Y-127635000D01*
X134620000Y-126305000D02*
X135950000Y-126305000D01*
X133350000Y-126305000D02*
X130750000Y-126305000D01*
X133350000Y-126305000D02*
X133350000Y-128965000D01*
X130750000Y-126305000D02*
X130750000Y-128965000D01*
X133350000Y-128965000D02*
X130750000Y-128965000D01*
%TO.C,J4*%
X130770000Y-121955000D02*
X130770000Y-120625000D01*
X132100000Y-121955000D02*
X130770000Y-121955000D01*
X133370000Y-121955000D02*
X135970000Y-121955000D01*
X133370000Y-121955000D02*
X133370000Y-119295000D01*
X135970000Y-121955000D02*
X135970000Y-119295000D01*
X133370000Y-119295000D02*
X135970000Y-119295000D01*
%TO.C,J13*%
X189800000Y-82505000D02*
X191130000Y-82505000D01*
X189800000Y-83835000D02*
X189800000Y-82505000D01*
X189800000Y-85105000D02*
X189800000Y-102945000D01*
X189800000Y-85105000D02*
X192400000Y-85105000D01*
X189800000Y-102945000D02*
X195000000Y-102945000D01*
X192400000Y-82505000D02*
X195000000Y-82505000D01*
X192400000Y-85105000D02*
X192400000Y-82505000D01*
X195000000Y-82505000D02*
X195000000Y-102945000D01*
%TO.C,J11*%
X189805000Y-60265000D02*
X191135000Y-60265000D01*
X189805000Y-61595000D02*
X189805000Y-60265000D01*
X189805000Y-62865000D02*
X189805000Y-80705000D01*
X189805000Y-62865000D02*
X192405000Y-62865000D01*
X189805000Y-80705000D02*
X195005000Y-80705000D01*
X192405000Y-60265000D02*
X195005000Y-60265000D01*
X192405000Y-62865000D02*
X192405000Y-60265000D01*
X195005000Y-60265000D02*
X195005000Y-80705000D01*
%TO.C,R4*%
X54070000Y-114400000D02*
X54070000Y-114070000D01*
X54070000Y-111660000D02*
X54070000Y-111990000D01*
X47530000Y-114400000D02*
X54070000Y-114400000D01*
X47530000Y-114070000D02*
X47530000Y-114400000D01*
X47530000Y-111990000D02*
X47530000Y-111660000D01*
X47530000Y-111660000D02*
X54070000Y-111660000D01*
%TO.C,J6*%
X38835000Y-105100000D02*
X37585000Y-105100000D01*
X38545000Y-105390000D02*
X32575000Y-105390000D01*
X32575000Y-105390000D02*
X32575000Y-115510000D01*
X38535000Y-105400000D02*
X37785000Y-105400000D01*
X37785000Y-105400000D02*
X37785000Y-107200000D01*
X36285000Y-105400000D02*
X36285000Y-106150000D01*
X36285000Y-106150000D02*
X33335000Y-106150000D01*
X33335000Y-106150000D02*
X33335000Y-110450000D01*
X38835000Y-106350000D02*
X38835000Y-105100000D01*
X38535000Y-107200000D02*
X38535000Y-105400000D01*
X37785000Y-107200000D02*
X38535000Y-107200000D01*
X38535000Y-108700000D02*
X37785000Y-108700000D01*
X37785000Y-108700000D02*
X37785000Y-112200000D01*
X38535000Y-112200000D02*
X38535000Y-108700000D01*
X37785000Y-112200000D02*
X38535000Y-112200000D01*
X38535000Y-113700000D02*
X37785000Y-113700000D01*
X37785000Y-113700000D02*
X37785000Y-115500000D01*
X36285000Y-114750000D02*
X33335000Y-114750000D01*
X33335000Y-114750000D02*
X33335000Y-110450000D01*
X38535000Y-115500000D02*
X38535000Y-113700000D01*
X37785000Y-115500000D02*
X38535000Y-115500000D01*
X36285000Y-115500000D02*
X36285000Y-114750000D01*
X38545000Y-115510000D02*
X38545000Y-105390000D01*
X32575000Y-115510000D02*
X38545000Y-115510000D01*
%TO.C,J8*%
X74990000Y-65980000D02*
X74990000Y-67310000D01*
X73660000Y-65980000D02*
X74990000Y-65980000D01*
X72390000Y-65980000D02*
X44390000Y-65980000D01*
X72390000Y-65980000D02*
X72390000Y-68580000D01*
X44390000Y-65980000D02*
X44390000Y-71180000D01*
X74990000Y-68580000D02*
X74990000Y-71180000D01*
X72390000Y-68580000D02*
X74990000Y-68580000D01*
X74990000Y-71180000D02*
X44390000Y-71180000D01*
%TO.C,J3*%
X77530000Y-102175000D02*
X77530000Y-103505000D01*
X76200000Y-102175000D02*
X77530000Y-102175000D01*
X74930000Y-102175000D02*
X44390000Y-102175000D01*
X74930000Y-102175000D02*
X74930000Y-104775000D01*
X44390000Y-102175000D02*
X44390000Y-107375000D01*
X77530000Y-104775000D02*
X77530000Y-107375000D01*
X74930000Y-104775000D02*
X77530000Y-104775000D01*
X77530000Y-107375000D02*
X44390000Y-107375000D01*
%TO.C,R3*%
X64675000Y-131345000D02*
X71215000Y-131345000D01*
X64675000Y-131675000D02*
X64675000Y-131345000D01*
X64675000Y-133755000D02*
X64675000Y-134085000D01*
X64675000Y-134085000D02*
X71215000Y-134085000D01*
X71215000Y-131345000D02*
X71215000Y-131675000D01*
X71215000Y-134085000D02*
X71215000Y-133755000D01*
D16*
%TO.C,U7*%
X30680000Y-100640000D02*
X30680000Y-89571000D01*
X30680000Y-100640000D02*
X30680000Y-72130000D01*
X81630000Y-100640000D02*
X30680000Y-100640000D01*
X81630000Y-100640000D02*
X30680000Y-100640000D01*
X81630000Y-100640000D02*
X81630000Y-95270000D01*
X81630000Y-95270000D02*
X81630000Y-77580000D01*
X30680000Y-89571000D02*
X30680000Y-82860000D01*
X30680000Y-82860000D02*
X30680000Y-72130000D01*
X81630000Y-77580000D02*
X81630000Y-72130000D01*
X30680000Y-72130000D02*
X81630000Y-72130000D01*
X30680000Y-72130000D02*
X81630000Y-72130000D01*
X81630000Y-72130000D02*
X81630000Y-100640000D01*
D10*
X40740000Y-101210000D02*
G75*
G02*
X40540000Y-101210000I-100000J0D01*
G01*
X40540000Y-101210000D02*
G75*
G02*
X40740000Y-101210000I100000J0D01*
G01*
D15*
%TO.C,U9*%
X120868000Y-78423000D02*
X120868000Y-79673000D01*
X120868000Y-79673000D02*
X122118000Y-79673000D01*
X121158000Y-69263000D02*
X121158000Y-79383000D01*
X121158000Y-79383000D02*
X127128000Y-79383000D01*
X121168000Y-69273000D02*
X121168000Y-71073000D01*
X121168000Y-71073000D02*
X121918000Y-71073000D01*
X121168000Y-72573000D02*
X121168000Y-76073000D01*
X121168000Y-76073000D02*
X121918000Y-76073000D01*
X121168000Y-77573000D02*
X121168000Y-79373000D01*
X121168000Y-79373000D02*
X121918000Y-79373000D01*
X121918000Y-69273000D02*
X121168000Y-69273000D01*
X121918000Y-71073000D02*
X121918000Y-69273000D01*
X121918000Y-72573000D02*
X121168000Y-72573000D01*
X121918000Y-76073000D02*
X121918000Y-72573000D01*
X121918000Y-77573000D02*
X121168000Y-77573000D01*
X121918000Y-79373000D02*
X121918000Y-77573000D01*
X123418000Y-69273000D02*
X123418000Y-70023000D01*
X123418000Y-70023000D02*
X126368000Y-70023000D01*
X123418000Y-78623000D02*
X126368000Y-78623000D01*
X123418000Y-79373000D02*
X123418000Y-78623000D01*
X126368000Y-70023000D02*
X126368000Y-74323000D01*
X126368000Y-78623000D02*
X126368000Y-74323000D01*
X127128000Y-69263000D02*
X121158000Y-69263000D01*
X127128000Y-79383000D02*
X127128000Y-69263000D01*
D10*
X138544203Y-84947891D02*
X141846203Y-84947891D01*
X141829332Y-60337920D02*
X141829332Y-63639920D01*
X141829332Y-63639920D02*
X138527332Y-63639920D01*
X141846203Y-84947891D02*
X141846203Y-88249891D01*
X173111510Y-84961758D02*
X176413510Y-84961758D01*
X173111510Y-88263758D02*
X173111510Y-84961758D01*
X173158093Y-63620010D02*
X173158093Y-60318010D01*
X176460093Y-63620010D02*
X173158093Y-63620010D01*
D13*
X138430000Y-79629000D02*
X138410000Y-79629000D01*
X138010000Y-79629000D02*
X137990000Y-79629000D01*
X137590000Y-79629000D02*
X137570000Y-79629000D01*
X137170000Y-79629000D02*
X137150000Y-79629000D01*
X136750000Y-79629000D02*
X136730000Y-79629000D01*
X136330000Y-79629000D02*
X136310000Y-79629000D01*
X135910000Y-79629000D02*
X135890000Y-79629000D01*
X135490000Y-79629000D02*
X135470000Y-79629000D01*
X135070000Y-79629000D02*
X135050000Y-79629000D01*
X134650000Y-79629000D02*
X134630000Y-79629000D01*
X134230000Y-79629000D02*
X134210000Y-79629000D01*
X133810000Y-79629000D02*
X133790000Y-79629000D01*
X133390000Y-79629000D02*
X133370000Y-79629000D01*
X132970000Y-79629000D02*
X132950000Y-79629000D01*
X132550000Y-79629000D02*
X132530000Y-79629000D01*
X132130000Y-79629000D02*
X132110000Y-79629000D01*
X131710000Y-79629000D02*
X131690000Y-79629000D01*
X131290000Y-79629000D02*
X131270000Y-79629000D01*
X130870000Y-79629000D02*
X130850000Y-79629000D01*
X130450000Y-79629000D02*
X130430000Y-79629000D01*
X130030000Y-79629000D02*
X130010000Y-79629000D01*
X129610000Y-79629000D02*
X129590000Y-79629000D01*
X129190000Y-79629000D02*
X129170000Y-79629000D01*
X128770000Y-79629000D02*
X128750000Y-79629000D01*
X128350000Y-79629000D02*
X128330000Y-79629000D01*
X127930000Y-79629000D02*
X127910000Y-79629000D01*
X127510000Y-79629000D02*
X127490000Y-79629000D01*
X127090000Y-79629000D02*
X127070000Y-79629000D01*
X126670000Y-79629000D02*
X126650000Y-79629000D01*
X126250000Y-79629000D02*
X126230000Y-79629000D01*
X125830000Y-79629000D02*
X125810000Y-79629000D01*
X125410000Y-79629000D02*
X125390000Y-79629000D01*
X124990000Y-79629000D02*
X124970000Y-79629000D01*
X124570000Y-79629000D02*
X124550000Y-79629000D01*
X124150000Y-79629000D02*
X124130000Y-79629000D01*
X123730000Y-79629000D02*
X123710000Y-79629000D01*
X123310000Y-79629000D02*
X123290000Y-79629000D01*
X122890000Y-79629000D02*
X122870000Y-79629000D01*
X122470000Y-79629000D02*
X122450000Y-79629000D01*
X122050000Y-79629000D02*
X122030000Y-79629000D01*
X121630000Y-79629000D02*
X121610000Y-79629000D01*
X121210000Y-79629000D02*
X121190000Y-79629000D01*
X120872147Y-79629000D02*
X120872147Y-79609000D01*
X120872147Y-79209000D02*
X120872147Y-79189000D01*
X120872147Y-78789000D02*
X120872147Y-78769000D01*
X120872147Y-78369000D02*
X120872147Y-78349000D01*
X120872147Y-77949000D02*
X120872147Y-77929000D01*
X120872147Y-77529000D02*
X120872147Y-77509000D01*
X120872147Y-77109000D02*
X120872147Y-77089000D01*
X120872147Y-76689000D02*
X120872147Y-76669000D01*
X120872147Y-76269000D02*
X120872147Y-76249000D01*
X120872147Y-75849000D02*
X120872147Y-75829000D01*
X120872147Y-75429000D02*
X120872147Y-75409000D01*
X120872147Y-75009000D02*
X120872147Y-74989000D01*
X120872147Y-74589000D02*
X120872147Y-74569000D01*
X120872147Y-74169000D02*
X120872147Y-74149000D01*
X120872147Y-73749000D02*
X120872147Y-73729000D01*
X120872147Y-73329000D02*
X120872147Y-73309000D01*
X120872147Y-72909000D02*
X120872147Y-72889000D01*
X120872147Y-72489000D02*
X120872147Y-72469000D01*
X120872147Y-72069000D02*
X120872147Y-72049000D01*
X120872147Y-71649000D02*
X120872147Y-71629000D01*
X120872147Y-71229000D02*
X120872147Y-71209000D01*
X120872147Y-70809000D02*
X120872147Y-70789000D01*
X120872147Y-70389000D02*
X120872147Y-70369000D01*
X120872147Y-69969000D02*
X120872147Y-69949000D01*
X120872147Y-69549000D02*
X120872147Y-69529000D01*
X120872147Y-69129000D02*
X120872147Y-69109000D01*
X120872147Y-68917000D02*
X120892147Y-68917000D01*
X121292147Y-68917000D02*
X121312147Y-68917000D01*
X121712147Y-68917000D02*
X121732147Y-68917000D01*
X122132147Y-68917000D02*
X122152147Y-68917000D01*
X122552147Y-68917000D02*
X122572147Y-68917000D01*
X122972147Y-68917000D02*
X122992147Y-68917000D01*
X123392147Y-68917000D02*
X123412147Y-68917000D01*
X123812147Y-68917000D02*
X123832147Y-68917000D01*
X124232147Y-68917000D02*
X124252147Y-68917000D01*
X124652147Y-68917000D02*
X124672147Y-68917000D01*
X125072147Y-68917000D02*
X125092147Y-68917000D01*
X125492147Y-68917000D02*
X125512147Y-68917000D01*
X125912147Y-68917000D02*
X125932147Y-68917000D01*
X126332147Y-68917000D02*
X126352147Y-68917000D01*
X126752147Y-68917000D02*
X126772147Y-68917000D01*
X127172147Y-68917000D02*
X127192147Y-68917000D01*
X127592147Y-68917000D02*
X127612147Y-68917000D01*
X128012147Y-68917000D02*
X128032147Y-68917000D01*
X128432147Y-68917000D02*
X128452147Y-68917000D01*
X128852147Y-68917000D02*
X128872147Y-68917000D01*
X129272147Y-68917000D02*
X129292147Y-68917000D01*
X129692147Y-68917000D02*
X129712147Y-68917000D01*
X130112147Y-68917000D02*
X130132147Y-68917000D01*
X130532147Y-68917000D02*
X130552147Y-68917000D01*
X130952147Y-68917000D02*
X130972147Y-68917000D01*
X131372147Y-68917000D02*
X131392147Y-68917000D01*
X131792147Y-68917000D02*
X131812147Y-68917000D01*
X132212147Y-68917000D02*
X132232147Y-68917000D01*
X132632147Y-68917000D02*
X132652147Y-68917000D01*
X133052147Y-68917000D02*
X133072147Y-68917000D01*
X133472147Y-68917000D02*
X133492147Y-68917000D01*
X133892147Y-68917000D02*
X133912147Y-68917000D01*
X134312147Y-68917000D02*
X134332147Y-68917000D01*
X134732147Y-68917000D02*
X134752147Y-68917000D01*
X135152147Y-68917000D02*
X135172147Y-68917000D01*
X135572147Y-68917000D02*
X135592147Y-68917000D01*
X135992147Y-68917000D02*
X136012147Y-68917000D01*
X136412147Y-68917000D02*
X136432147Y-68917000D01*
X136832147Y-68917000D02*
X136852147Y-68917000D01*
X137252147Y-68917000D02*
X137272147Y-68917000D01*
X137672147Y-68917000D02*
X137692147Y-68917000D01*
X138092147Y-68917000D02*
X138112147Y-68917000D01*
X138430000Y-68917000D02*
X138430000Y-68937000D01*
X138430000Y-69337000D02*
X138430000Y-69357000D01*
X138430000Y-69757000D02*
X138430000Y-69777000D01*
X138430000Y-70177000D02*
X138430000Y-70197000D01*
X138430000Y-70597000D02*
X138430000Y-70617000D01*
X138430000Y-71017000D02*
X138430000Y-71037000D01*
X138430000Y-71437000D02*
X138430000Y-71457000D01*
X138430000Y-71857000D02*
X138430000Y-71877000D01*
X138430000Y-72277000D02*
X138430000Y-72297000D01*
X138430000Y-72697000D02*
X138430000Y-72717000D01*
X138430000Y-73117000D02*
X138430000Y-73137000D01*
X138430000Y-73537000D02*
X138430000Y-73557000D01*
X138430000Y-73957000D02*
X138430000Y-73977000D01*
X138430000Y-74377000D02*
X138430000Y-74397000D01*
X138430000Y-74797000D02*
X138430000Y-74817000D01*
X138430000Y-75217000D02*
X138430000Y-75237000D01*
X138430000Y-75637000D02*
X138430000Y-75657000D01*
X138430000Y-76057000D02*
X138430000Y-76077000D01*
X138430000Y-76477000D02*
X138430000Y-76497000D01*
X138430000Y-76897000D02*
X138430000Y-76917000D01*
X138430000Y-77317000D02*
X138430000Y-77337000D01*
X138430000Y-77737000D02*
X138430000Y-77757000D01*
X138430000Y-78157000D02*
X138430000Y-78177000D01*
X138430000Y-78577000D02*
X138430000Y-78597000D01*
X138430000Y-78997000D02*
X138430000Y-79017000D01*
X138430000Y-79417000D02*
X138430000Y-79437000D01*
X142240000Y-76835000D02*
X139700000Y-76835000D01*
X139700000Y-71755000D01*
X142240000Y-71755000D01*
X142240000Y-76835000D01*
X175260000Y-76835000D02*
X172720000Y-76835000D01*
X172720000Y-71755000D01*
X175260000Y-71755000D01*
X175260000Y-76835000D01*
D10*
X176480000Y-88295000D02*
X138480000Y-88295000D01*
X138480000Y-60295000D01*
X176480000Y-60295000D01*
X176480000Y-88295000D01*
D15*
%TO.C,R1*%
X107415000Y-69120000D02*
X107415000Y-75660000D01*
X107085000Y-69120000D02*
X107415000Y-69120000D01*
X105005000Y-69120000D02*
X104675000Y-69120000D01*
X104675000Y-69120000D02*
X104675000Y-75660000D01*
X107415000Y-75660000D02*
X107085000Y-75660000D01*
X104675000Y-75660000D02*
X105005000Y-75660000D01*
%TO.C,Q1*%
X113705000Y-64865000D02*
X113705000Y-60224000D01*
X113705000Y-64865000D02*
X103465000Y-64865000D01*
X113705000Y-63355000D02*
X103465000Y-63355000D01*
X113705000Y-60224000D02*
X103465000Y-60224000D01*
X110435000Y-64865000D02*
X110435000Y-63355000D01*
X106734000Y-64865000D02*
X106734000Y-63355000D01*
X103465000Y-64865000D02*
X103465000Y-60224000D01*
%TO.C,U11*%
X85359000Y-103837300D02*
X85359000Y-105087300D01*
X85359000Y-105087300D02*
X86609000Y-105087300D01*
X85649000Y-94677300D02*
X85649000Y-104797300D01*
X85649000Y-104797300D02*
X91619000Y-104797300D01*
X85659000Y-94687300D02*
X85659000Y-96487300D01*
X85659000Y-96487300D02*
X86409000Y-96487300D01*
X85659000Y-97987300D02*
X85659000Y-101487300D01*
X85659000Y-101487300D02*
X86409000Y-101487300D01*
X85659000Y-102987300D02*
X85659000Y-104787300D01*
X85659000Y-104787300D02*
X86409000Y-104787300D01*
X86409000Y-94687300D02*
X85659000Y-94687300D01*
X86409000Y-96487300D02*
X86409000Y-94687300D01*
X86409000Y-97987300D02*
X85659000Y-97987300D01*
X86409000Y-101487300D02*
X86409000Y-97987300D01*
X86409000Y-102987300D02*
X85659000Y-102987300D01*
X86409000Y-104787300D02*
X86409000Y-102987300D01*
X87909000Y-94687300D02*
X87909000Y-95437300D01*
X87909000Y-95437300D02*
X90859000Y-95437300D01*
X87909000Y-104037300D02*
X90859000Y-104037300D01*
X87909000Y-104787300D02*
X87909000Y-104037300D01*
X90859000Y-95437300D02*
X90859000Y-99737300D01*
X90859000Y-104037300D02*
X90859000Y-99737300D01*
X91619000Y-94677300D02*
X85649000Y-94677300D01*
X91619000Y-104797300D02*
X91619000Y-94677300D01*
D13*
X95307736Y-105087300D02*
X95287736Y-105087300D01*
X94887736Y-105087300D02*
X94867736Y-105087300D01*
X94467736Y-105087300D02*
X94447736Y-105087300D01*
X94047736Y-105087300D02*
X94027736Y-105087300D01*
X93627736Y-105087300D02*
X93607736Y-105087300D01*
X93207736Y-105087300D02*
X93187736Y-105087300D01*
X92787736Y-105087300D02*
X92767736Y-105087300D01*
X92367736Y-105087300D02*
X92347736Y-105087300D01*
X91947736Y-105087300D02*
X91927736Y-105087300D01*
X91527736Y-105087300D02*
X91507736Y-105087300D01*
X91107736Y-105087300D02*
X91087736Y-105087300D01*
X90687736Y-105087300D02*
X90667736Y-105087300D01*
X90267736Y-105087300D02*
X90247736Y-105087300D01*
X89847736Y-105087300D02*
X89827736Y-105087300D01*
X89427736Y-105087300D02*
X89407736Y-105087300D01*
X89007736Y-105087300D02*
X88987736Y-105087300D01*
X88587736Y-105087300D02*
X88567736Y-105087300D01*
X88167736Y-105087300D02*
X88147736Y-105087300D01*
X87747736Y-105087300D02*
X87727736Y-105087300D01*
X87327736Y-105087300D02*
X87307736Y-105087300D01*
X86907736Y-105087300D02*
X86887736Y-105087300D01*
X86487736Y-105087300D02*
X86467736Y-105087300D01*
X86067736Y-105087300D02*
X86047736Y-105087300D01*
X85647736Y-105087300D02*
X85627736Y-105087300D01*
X85279000Y-105087300D02*
X85279000Y-105067300D01*
X85279000Y-104667300D02*
X85279000Y-104647300D01*
X85279000Y-104247300D02*
X85279000Y-104227300D01*
X85279000Y-103827300D02*
X85279000Y-103807300D01*
X85279000Y-103407300D02*
X85279000Y-103387300D01*
X85279000Y-102987300D02*
X85279000Y-102967300D01*
X85279000Y-102567300D02*
X85279000Y-102547300D01*
X85279000Y-102147300D02*
X85279000Y-102127300D01*
X85279000Y-101727300D02*
X85279000Y-101707300D01*
X85279000Y-101307300D02*
X85279000Y-101287300D01*
X85279000Y-100887300D02*
X85279000Y-100867300D01*
X85279000Y-100467300D02*
X85279000Y-100447300D01*
X85279000Y-100047300D02*
X85279000Y-100027300D01*
X85279000Y-99627300D02*
X85279000Y-99607300D01*
X85279000Y-99207300D02*
X85279000Y-99187300D01*
X85279000Y-98787300D02*
X85279000Y-98767300D01*
X85279000Y-98367300D02*
X85279000Y-98347300D01*
X85279000Y-97947300D02*
X85279000Y-97927300D01*
X85279000Y-97527300D02*
X85279000Y-97507300D01*
X85279000Y-97107300D02*
X85279000Y-97087300D01*
X85279000Y-96687300D02*
X85279000Y-96667300D01*
X85279000Y-96267300D02*
X85279000Y-96247300D01*
X85279000Y-95847300D02*
X85279000Y-95827300D01*
X85279000Y-95427300D02*
X85279000Y-95407300D01*
X85279000Y-95007300D02*
X85279000Y-94987300D01*
X85279000Y-94587300D02*
X85279000Y-94567300D01*
X85279000Y-94375300D02*
X85299000Y-94375300D01*
X85699000Y-94375300D02*
X85719000Y-94375300D01*
X86119000Y-94375300D02*
X86139000Y-94375300D01*
X86539000Y-94375300D02*
X86559000Y-94375300D01*
X86959000Y-94375300D02*
X86979000Y-94375300D01*
X87379000Y-94375300D02*
X87399000Y-94375300D01*
X87799000Y-94375300D02*
X87819000Y-94375300D01*
X88219000Y-94375300D02*
X88239000Y-94375300D01*
X88639000Y-94375300D02*
X88659000Y-94375300D01*
X89059000Y-94375300D02*
X89079000Y-94375300D01*
X89479000Y-94375300D02*
X89499000Y-94375300D01*
X89899000Y-94375300D02*
X89919000Y-94375300D01*
X90319000Y-94375300D02*
X90339000Y-94375300D01*
X90739000Y-94375300D02*
X90759000Y-94375300D01*
X91159000Y-94375300D02*
X91179000Y-94375300D01*
X91579000Y-94375300D02*
X91599000Y-94375300D01*
X91999000Y-94375300D02*
X92019000Y-94375300D01*
X92419000Y-94375300D02*
X92439000Y-94375300D01*
X92839000Y-94375300D02*
X92859000Y-94375300D01*
X93259000Y-94375300D02*
X93279000Y-94375300D01*
X93679000Y-94375300D02*
X93699000Y-94375300D01*
X94099000Y-94375300D02*
X94119000Y-94375300D01*
X94519000Y-94375300D02*
X94539000Y-94375300D01*
X94939000Y-94375300D02*
X94959000Y-94375300D01*
X95307736Y-94375300D02*
X95307736Y-94395300D01*
X95307736Y-94795300D02*
X95307736Y-94815300D01*
X95307736Y-95215300D02*
X95307736Y-95235300D01*
X95307736Y-95635300D02*
X95307736Y-95655300D01*
X95307736Y-96055300D02*
X95307736Y-96075300D01*
X95307736Y-96475300D02*
X95307736Y-96495300D01*
X95307736Y-96895300D02*
X95307736Y-96915300D01*
X95307736Y-97315300D02*
X95307736Y-97335300D01*
X95307736Y-97735300D02*
X95307736Y-97755300D01*
X95307736Y-98155300D02*
X95307736Y-98175300D01*
X95307736Y-98575300D02*
X95307736Y-98595300D01*
X95307736Y-98995300D02*
X95307736Y-99015300D01*
X95307736Y-99415300D02*
X95307736Y-99435300D01*
X95307736Y-99835300D02*
X95307736Y-99855300D01*
X95307736Y-100255300D02*
X95307736Y-100275300D01*
X95307736Y-100675300D02*
X95307736Y-100695300D01*
X95307736Y-101095300D02*
X95307736Y-101115300D01*
X95307736Y-101515300D02*
X95307736Y-101535300D01*
X95307736Y-101935300D02*
X95307736Y-101955300D01*
X95307736Y-102355300D02*
X95307736Y-102375300D01*
X95307736Y-102775300D02*
X95307736Y-102795300D01*
X95307736Y-103195300D02*
X95307736Y-103215300D01*
X95307736Y-103615300D02*
X95307736Y-103635300D01*
X95307736Y-104035300D02*
X95307736Y-104055300D01*
X95307736Y-104455300D02*
X95307736Y-104475300D01*
X95307736Y-104875300D02*
X95307736Y-104895300D01*
X101063000Y-102249300D02*
X98523000Y-102249300D01*
X98523000Y-97169300D01*
X101063000Y-97169300D01*
X101063000Y-102249300D01*
X134083000Y-102249300D02*
X131543000Y-102249300D01*
X131543000Y-97169300D01*
X134083000Y-97169300D01*
X134083000Y-102249300D01*
X137557000Y-115707300D02*
X95557000Y-115707300D01*
X95557000Y-83707300D01*
X137557000Y-83707300D01*
X137557000Y-115707300D01*
%TO.C,U1*%
X198164000Y-141460000D02*
X140164000Y-141460000D01*
X140164000Y-107460000D01*
X198164000Y-107460000D01*
X198164000Y-141460000D01*
%TD*%
D17*
%TO.C,U2*%
X37378999Y-123946802D03*
X37379000Y-126487000D03*
X37379000Y-129027000D03*
X37379000Y-134107000D03*
D18*
X37379000Y-131567000D03*
%TD*%
M02*
