%TF.GenerationSoftware,KiCad,Pcbnew,9.0.0*%
%TF.CreationDate,2025-05-23T22:19:31+02:00*%
%TF.ProjectId,Bojen_PCB,426f6a65-6e5f-4504-9342-2e6b69636164,V1*%
%TF.SameCoordinates,Original*%
%TF.FileFunction,Legend,Bot*%
%TF.FilePolarity,Positive*%
%FSLAX46Y46*%
G04 Gerber Fmt 4.6, Leading zero omitted, Abs format (unit mm)*
G04 Created by KiCad (PCBNEW 9.0.0) date 2025-05-23 22:19:31*
%MOMM*%
%LPD*%
G01*
G04 APERTURE LIST*
%ADD10C,0.200000*%
%ADD11C,0.300000*%
%ADD12C,0.100000*%
%ADD13C,0.175000*%
%ADD14C,0.150000*%
%ADD15C,0.160000*%
%ADD16C,0.120000*%
G04 APERTURE END LIST*
D10*
X83347275Y-133084673D02*
X82347275Y-133084673D01*
X82347275Y-133084673D02*
X82347275Y-133465625D01*
X82347275Y-133465625D02*
X82394894Y-133560863D01*
X82394894Y-133560863D02*
X82442513Y-133608482D01*
X82442513Y-133608482D02*
X82537751Y-133656101D01*
X82537751Y-133656101D02*
X82680608Y-133656101D01*
X82680608Y-133656101D02*
X82775846Y-133608482D01*
X82775846Y-133608482D02*
X82823465Y-133560863D01*
X82823465Y-133560863D02*
X82871084Y-133465625D01*
X82871084Y-133465625D02*
X82871084Y-133084673D01*
X82347275Y-133989435D02*
X83347275Y-134227530D01*
X83347275Y-134227530D02*
X82632989Y-134418006D01*
X82632989Y-134418006D02*
X83347275Y-134608482D01*
X83347275Y-134608482D02*
X82347275Y-134846578D01*
X83347275Y-135798958D02*
X82871084Y-135465625D01*
X83347275Y-135227530D02*
X82347275Y-135227530D01*
X82347275Y-135227530D02*
X82347275Y-135608482D01*
X82347275Y-135608482D02*
X82394894Y-135703720D01*
X82394894Y-135703720D02*
X82442513Y-135751339D01*
X82442513Y-135751339D02*
X82537751Y-135798958D01*
X82537751Y-135798958D02*
X82680608Y-135798958D01*
X82680608Y-135798958D02*
X82775846Y-135751339D01*
X82775846Y-135751339D02*
X82823465Y-135703720D01*
X82823465Y-135703720D02*
X82871084Y-135608482D01*
X82871084Y-135608482D02*
X82871084Y-135227530D01*
X82347275Y-136846578D02*
X82347275Y-137418006D01*
X83347275Y-137132292D02*
X82347275Y-137132292D01*
X83347275Y-137751340D02*
X82680608Y-137751340D01*
X82347275Y-137751340D02*
X82394894Y-137703721D01*
X82394894Y-137703721D02*
X82442513Y-137751340D01*
X82442513Y-137751340D02*
X82394894Y-137798959D01*
X82394894Y-137798959D02*
X82347275Y-137751340D01*
X82347275Y-137751340D02*
X82442513Y-137751340D01*
X83347275Y-138227530D02*
X82680608Y-138227530D01*
X82775846Y-138227530D02*
X82728227Y-138275149D01*
X82728227Y-138275149D02*
X82680608Y-138370387D01*
X82680608Y-138370387D02*
X82680608Y-138513244D01*
X82680608Y-138513244D02*
X82728227Y-138608482D01*
X82728227Y-138608482D02*
X82823465Y-138656101D01*
X82823465Y-138656101D02*
X83347275Y-138656101D01*
X82823465Y-138656101D02*
X82728227Y-138703720D01*
X82728227Y-138703720D02*
X82680608Y-138798958D01*
X82680608Y-138798958D02*
X82680608Y-138941815D01*
X82680608Y-138941815D02*
X82728227Y-139037054D01*
X82728227Y-139037054D02*
X82823465Y-139084673D01*
X82823465Y-139084673D02*
X83347275Y-139084673D01*
X83299656Y-139941815D02*
X83347275Y-139846577D01*
X83347275Y-139846577D02*
X83347275Y-139656101D01*
X83347275Y-139656101D02*
X83299656Y-139560863D01*
X83299656Y-139560863D02*
X83204417Y-139513244D01*
X83204417Y-139513244D02*
X82823465Y-139513244D01*
X82823465Y-139513244D02*
X82728227Y-139560863D01*
X82728227Y-139560863D02*
X82680608Y-139656101D01*
X82680608Y-139656101D02*
X82680608Y-139846577D01*
X82680608Y-139846577D02*
X82728227Y-139941815D01*
X82728227Y-139941815D02*
X82823465Y-139989434D01*
X82823465Y-139989434D02*
X82918703Y-139989434D01*
X82918703Y-139989434D02*
X83013941Y-139513244D01*
X83347275Y-140418006D02*
X82680608Y-140418006D01*
X82871084Y-140418006D02*
X82775846Y-140465625D01*
X82775846Y-140465625D02*
X82728227Y-140513244D01*
X82728227Y-140513244D02*
X82680608Y-140608482D01*
X82680608Y-140608482D02*
X82680608Y-140703720D01*
X84909600Y-133037054D02*
X84957219Y-133179911D01*
X84957219Y-133179911D02*
X84957219Y-133418006D01*
X84957219Y-133418006D02*
X84909600Y-133513244D01*
X84909600Y-133513244D02*
X84861980Y-133560863D01*
X84861980Y-133560863D02*
X84766742Y-133608482D01*
X84766742Y-133608482D02*
X84671504Y-133608482D01*
X84671504Y-133608482D02*
X84576266Y-133560863D01*
X84576266Y-133560863D02*
X84528647Y-133513244D01*
X84528647Y-133513244D02*
X84481028Y-133418006D01*
X84481028Y-133418006D02*
X84433409Y-133227530D01*
X84433409Y-133227530D02*
X84385790Y-133132292D01*
X84385790Y-133132292D02*
X84338171Y-133084673D01*
X84338171Y-133084673D02*
X84242933Y-133037054D01*
X84242933Y-133037054D02*
X84147695Y-133037054D01*
X84147695Y-133037054D02*
X84052457Y-133084673D01*
X84052457Y-133084673D02*
X84004838Y-133132292D01*
X84004838Y-133132292D02*
X83957219Y-133227530D01*
X83957219Y-133227530D02*
X83957219Y-133465625D01*
X83957219Y-133465625D02*
X84004838Y-133608482D01*
X84957219Y-134037054D02*
X83957219Y-134037054D01*
X84576266Y-134132292D02*
X84957219Y-134418006D01*
X84290552Y-134418006D02*
X84671504Y-134037054D01*
X84957219Y-134846578D02*
X84290552Y-134846578D01*
X83957219Y-134846578D02*
X84004838Y-134798959D01*
X84004838Y-134798959D02*
X84052457Y-134846578D01*
X84052457Y-134846578D02*
X84004838Y-134894197D01*
X84004838Y-134894197D02*
X83957219Y-134846578D01*
X83957219Y-134846578D02*
X84052457Y-134846578D01*
X84290552Y-135322768D02*
X85290552Y-135322768D01*
X84338171Y-135322768D02*
X84290552Y-135418006D01*
X84290552Y-135418006D02*
X84290552Y-135608482D01*
X84290552Y-135608482D02*
X84338171Y-135703720D01*
X84338171Y-135703720D02*
X84385790Y-135751339D01*
X84385790Y-135751339D02*
X84481028Y-135798958D01*
X84481028Y-135798958D02*
X84766742Y-135798958D01*
X84766742Y-135798958D02*
X84861980Y-135751339D01*
X84861980Y-135751339D02*
X84909600Y-135703720D01*
X84909600Y-135703720D02*
X84957219Y-135608482D01*
X84957219Y-135608482D02*
X84957219Y-135418006D01*
X84957219Y-135418006D02*
X84909600Y-135322768D01*
X142234219Y-97895673D02*
X141234219Y-97895673D01*
X141234219Y-97895673D02*
X141948504Y-98229006D01*
X141948504Y-98229006D02*
X141234219Y-98562339D01*
X141234219Y-98562339D02*
X142234219Y-98562339D01*
X142138980Y-99609958D02*
X142186600Y-99562339D01*
X142186600Y-99562339D02*
X142234219Y-99419482D01*
X142234219Y-99419482D02*
X142234219Y-99324244D01*
X142234219Y-99324244D02*
X142186600Y-99181387D01*
X142186600Y-99181387D02*
X142091361Y-99086149D01*
X142091361Y-99086149D02*
X141996123Y-99038530D01*
X141996123Y-99038530D02*
X141805647Y-98990911D01*
X141805647Y-98990911D02*
X141662790Y-98990911D01*
X141662790Y-98990911D02*
X141472314Y-99038530D01*
X141472314Y-99038530D02*
X141377076Y-99086149D01*
X141377076Y-99086149D02*
X141281838Y-99181387D01*
X141281838Y-99181387D02*
X141234219Y-99324244D01*
X141234219Y-99324244D02*
X141234219Y-99419482D01*
X141234219Y-99419482D02*
X141281838Y-99562339D01*
X141281838Y-99562339D02*
X141329457Y-99609958D01*
X141234219Y-100038530D02*
X142043742Y-100038530D01*
X142043742Y-100038530D02*
X142138980Y-100086149D01*
X142138980Y-100086149D02*
X142186600Y-100133768D01*
X142186600Y-100133768D02*
X142234219Y-100229006D01*
X142234219Y-100229006D02*
X142234219Y-100419482D01*
X142234219Y-100419482D02*
X142186600Y-100514720D01*
X142186600Y-100514720D02*
X142138980Y-100562339D01*
X142138980Y-100562339D02*
X142043742Y-100609958D01*
X142043742Y-100609958D02*
X141234219Y-100609958D01*
D11*
X158536774Y-98112828D02*
X157679632Y-98112828D01*
X158108203Y-99612828D02*
X158108203Y-98112828D01*
X157179632Y-98827114D02*
X156679632Y-98827114D01*
X156465346Y-99612828D02*
X157179632Y-99612828D01*
X157179632Y-99612828D02*
X157179632Y-98112828D01*
X157179632Y-98112828D02*
X156465346Y-98112828D01*
X155822489Y-99612828D02*
X155822489Y-98112828D01*
X155822489Y-98112828D02*
X155322489Y-99184257D01*
X155322489Y-99184257D02*
X154822489Y-98112828D01*
X154822489Y-98112828D02*
X154822489Y-99612828D01*
X154108203Y-99612828D02*
X154108203Y-98112828D01*
X154108203Y-98112828D02*
X153536774Y-98112828D01*
X153536774Y-98112828D02*
X153393917Y-98184257D01*
X153393917Y-98184257D02*
X153322488Y-98255685D01*
X153322488Y-98255685D02*
X153251060Y-98398542D01*
X153251060Y-98398542D02*
X153251060Y-98612828D01*
X153251060Y-98612828D02*
X153322488Y-98755685D01*
X153322488Y-98755685D02*
X153393917Y-98827114D01*
X153393917Y-98827114D02*
X153536774Y-98898542D01*
X153536774Y-98898542D02*
X154108203Y-98898542D01*
X151536774Y-99541400D02*
X151322489Y-99612828D01*
X151322489Y-99612828D02*
X150965346Y-99612828D01*
X150965346Y-99612828D02*
X150822489Y-99541400D01*
X150822489Y-99541400D02*
X150751060Y-99469971D01*
X150751060Y-99469971D02*
X150679631Y-99327114D01*
X150679631Y-99327114D02*
X150679631Y-99184257D01*
X150679631Y-99184257D02*
X150751060Y-99041400D01*
X150751060Y-99041400D02*
X150822489Y-98969971D01*
X150822489Y-98969971D02*
X150965346Y-98898542D01*
X150965346Y-98898542D02*
X151251060Y-98827114D01*
X151251060Y-98827114D02*
X151393917Y-98755685D01*
X151393917Y-98755685D02*
X151465346Y-98684257D01*
X151465346Y-98684257D02*
X151536774Y-98541400D01*
X151536774Y-98541400D02*
X151536774Y-98398542D01*
X151536774Y-98398542D02*
X151465346Y-98255685D01*
X151465346Y-98255685D02*
X151393917Y-98184257D01*
X151393917Y-98184257D02*
X151251060Y-98112828D01*
X151251060Y-98112828D02*
X150893917Y-98112828D01*
X150893917Y-98112828D02*
X150679631Y-98184257D01*
X149465346Y-99541400D02*
X149608203Y-99612828D01*
X149608203Y-99612828D02*
X149893918Y-99612828D01*
X149893918Y-99612828D02*
X150036775Y-99541400D01*
X150036775Y-99541400D02*
X150108203Y-99398542D01*
X150108203Y-99398542D02*
X150108203Y-98827114D01*
X150108203Y-98827114D02*
X150036775Y-98684257D01*
X150036775Y-98684257D02*
X149893918Y-98612828D01*
X149893918Y-98612828D02*
X149608203Y-98612828D01*
X149608203Y-98612828D02*
X149465346Y-98684257D01*
X149465346Y-98684257D02*
X149393918Y-98827114D01*
X149393918Y-98827114D02*
X149393918Y-98969971D01*
X149393918Y-98969971D02*
X150108203Y-99112828D01*
X148751061Y-98612828D02*
X148751061Y-99612828D01*
X148751061Y-98755685D02*
X148679632Y-98684257D01*
X148679632Y-98684257D02*
X148536775Y-98612828D01*
X148536775Y-98612828D02*
X148322489Y-98612828D01*
X148322489Y-98612828D02*
X148179632Y-98684257D01*
X148179632Y-98684257D02*
X148108204Y-98827114D01*
X148108204Y-98827114D02*
X148108204Y-99612828D01*
X147465346Y-99541400D02*
X147322489Y-99612828D01*
X147322489Y-99612828D02*
X147036775Y-99612828D01*
X147036775Y-99612828D02*
X146893918Y-99541400D01*
X146893918Y-99541400D02*
X146822489Y-99398542D01*
X146822489Y-99398542D02*
X146822489Y-99327114D01*
X146822489Y-99327114D02*
X146893918Y-99184257D01*
X146893918Y-99184257D02*
X147036775Y-99112828D01*
X147036775Y-99112828D02*
X147251061Y-99112828D01*
X147251061Y-99112828D02*
X147393918Y-99041400D01*
X147393918Y-99041400D02*
X147465346Y-98898542D01*
X147465346Y-98898542D02*
X147465346Y-98827114D01*
X147465346Y-98827114D02*
X147393918Y-98684257D01*
X147393918Y-98684257D02*
X147251061Y-98612828D01*
X147251061Y-98612828D02*
X147036775Y-98612828D01*
X147036775Y-98612828D02*
X146893918Y-98684257D01*
X145965346Y-99612828D02*
X146108203Y-99541400D01*
X146108203Y-99541400D02*
X146179632Y-99469971D01*
X146179632Y-99469971D02*
X146251060Y-99327114D01*
X146251060Y-99327114D02*
X146251060Y-98898542D01*
X146251060Y-98898542D02*
X146179632Y-98755685D01*
X146179632Y-98755685D02*
X146108203Y-98684257D01*
X146108203Y-98684257D02*
X145965346Y-98612828D01*
X145965346Y-98612828D02*
X145751060Y-98612828D01*
X145751060Y-98612828D02*
X145608203Y-98684257D01*
X145608203Y-98684257D02*
X145536775Y-98755685D01*
X145536775Y-98755685D02*
X145465346Y-98898542D01*
X145465346Y-98898542D02*
X145465346Y-99327114D01*
X145465346Y-99327114D02*
X145536775Y-99469971D01*
X145536775Y-99469971D02*
X145608203Y-99541400D01*
X145608203Y-99541400D02*
X145751060Y-99612828D01*
X145751060Y-99612828D02*
X145965346Y-99612828D01*
X144822489Y-99612828D02*
X144822489Y-98612828D01*
X144822489Y-98898542D02*
X144751060Y-98755685D01*
X144751060Y-98755685D02*
X144679632Y-98684257D01*
X144679632Y-98684257D02*
X144536774Y-98612828D01*
X144536774Y-98612828D02*
X144393917Y-98612828D01*
D10*
X167658695Y-94292054D02*
X166858695Y-94292054D01*
X166858695Y-94292054D02*
X166858695Y-94482530D01*
X166858695Y-94482530D02*
X166896790Y-94596816D01*
X166896790Y-94596816D02*
X166972980Y-94673006D01*
X166972980Y-94673006D02*
X167049171Y-94711101D01*
X167049171Y-94711101D02*
X167201552Y-94749197D01*
X167201552Y-94749197D02*
X167315838Y-94749197D01*
X167315838Y-94749197D02*
X167468219Y-94711101D01*
X167468219Y-94711101D02*
X167544409Y-94673006D01*
X167544409Y-94673006D02*
X167620600Y-94596816D01*
X167620600Y-94596816D02*
X167658695Y-94482530D01*
X167658695Y-94482530D02*
X167658695Y-94292054D01*
X166896790Y-103601101D02*
X166858695Y-103524911D01*
X166858695Y-103524911D02*
X166858695Y-103410625D01*
X166858695Y-103410625D02*
X166896790Y-103296339D01*
X166896790Y-103296339D02*
X166972980Y-103220149D01*
X166972980Y-103220149D02*
X167049171Y-103182054D01*
X167049171Y-103182054D02*
X167201552Y-103143958D01*
X167201552Y-103143958D02*
X167315838Y-103143958D01*
X167315838Y-103143958D02*
X167468219Y-103182054D01*
X167468219Y-103182054D02*
X167544409Y-103220149D01*
X167544409Y-103220149D02*
X167620600Y-103296339D01*
X167620600Y-103296339D02*
X167658695Y-103410625D01*
X167658695Y-103410625D02*
X167658695Y-103486816D01*
X167658695Y-103486816D02*
X167620600Y-103601101D01*
X167620600Y-103601101D02*
X167582504Y-103639197D01*
X167582504Y-103639197D02*
X167315838Y-103639197D01*
X167315838Y-103639197D02*
X167315838Y-103486816D01*
X167658695Y-103982054D02*
X166858695Y-103982054D01*
X166858695Y-103982054D02*
X167658695Y-104439197D01*
X167658695Y-104439197D02*
X166858695Y-104439197D01*
X167658695Y-104820149D02*
X166858695Y-104820149D01*
X166858695Y-104820149D02*
X166858695Y-105010625D01*
X166858695Y-105010625D02*
X166896790Y-105124911D01*
X166896790Y-105124911D02*
X166972980Y-105201101D01*
X166972980Y-105201101D02*
X167049171Y-105239196D01*
X167049171Y-105239196D02*
X167201552Y-105277292D01*
X167201552Y-105277292D02*
X167315838Y-105277292D01*
X167315838Y-105277292D02*
X167468219Y-105239196D01*
X167468219Y-105239196D02*
X167544409Y-105201101D01*
X167544409Y-105201101D02*
X167620600Y-105124911D01*
X167620600Y-105124911D02*
X167658695Y-105010625D01*
X167658695Y-105010625D02*
X167658695Y-104820149D01*
D12*
X130713115Y-101968419D02*
X130713115Y-100968419D01*
X130713115Y-100968419D02*
X130475020Y-100968419D01*
X130475020Y-100968419D02*
X130332163Y-101016038D01*
X130332163Y-101016038D02*
X130236925Y-101111276D01*
X130236925Y-101111276D02*
X130189306Y-101206514D01*
X130189306Y-101206514D02*
X130141687Y-101396990D01*
X130141687Y-101396990D02*
X130141687Y-101539847D01*
X130141687Y-101539847D02*
X130189306Y-101730323D01*
X130189306Y-101730323D02*
X130236925Y-101825561D01*
X130236925Y-101825561D02*
X130332163Y-101920800D01*
X130332163Y-101920800D02*
X130475020Y-101968419D01*
X130475020Y-101968419D02*
X130713115Y-101968419D01*
X131871972Y-98428419D02*
X131538639Y-99428419D01*
X131538639Y-99428419D02*
X131205306Y-98428419D01*
X130300544Y-99333180D02*
X130348163Y-99380800D01*
X130348163Y-99380800D02*
X130491020Y-99428419D01*
X130491020Y-99428419D02*
X130586258Y-99428419D01*
X130586258Y-99428419D02*
X130729115Y-99380800D01*
X130729115Y-99380800D02*
X130824353Y-99285561D01*
X130824353Y-99285561D02*
X130871972Y-99190323D01*
X130871972Y-99190323D02*
X130919591Y-98999847D01*
X130919591Y-98999847D02*
X130919591Y-98856990D01*
X130919591Y-98856990D02*
X130871972Y-98666514D01*
X130871972Y-98666514D02*
X130824353Y-98571276D01*
X130824353Y-98571276D02*
X130729115Y-98476038D01*
X130729115Y-98476038D02*
X130586258Y-98428419D01*
X130586258Y-98428419D02*
X130491020Y-98428419D01*
X130491020Y-98428419D02*
X130348163Y-98476038D01*
X130348163Y-98476038D02*
X130300544Y-98523657D01*
X129300544Y-99333180D02*
X129348163Y-99380800D01*
X129348163Y-99380800D02*
X129491020Y-99428419D01*
X129491020Y-99428419D02*
X129586258Y-99428419D01*
X129586258Y-99428419D02*
X129729115Y-99380800D01*
X129729115Y-99380800D02*
X129824353Y-99285561D01*
X129824353Y-99285561D02*
X129871972Y-99190323D01*
X129871972Y-99190323D02*
X129919591Y-98999847D01*
X129919591Y-98999847D02*
X129919591Y-98856990D01*
X129919591Y-98856990D02*
X129871972Y-98666514D01*
X129871972Y-98666514D02*
X129824353Y-98571276D01*
X129824353Y-98571276D02*
X129729115Y-98476038D01*
X129729115Y-98476038D02*
X129586258Y-98428419D01*
X129586258Y-98428419D02*
X129491020Y-98428419D01*
X129491020Y-98428419D02*
X129348163Y-98476038D01*
X129348163Y-98476038D02*
X129300544Y-98523657D01*
X131459306Y-95936038D02*
X131554544Y-95888419D01*
X131554544Y-95888419D02*
X131697401Y-95888419D01*
X131697401Y-95888419D02*
X131840258Y-95936038D01*
X131840258Y-95936038D02*
X131935496Y-96031276D01*
X131935496Y-96031276D02*
X131983115Y-96126514D01*
X131983115Y-96126514D02*
X132030734Y-96316990D01*
X132030734Y-96316990D02*
X132030734Y-96459847D01*
X132030734Y-96459847D02*
X131983115Y-96650323D01*
X131983115Y-96650323D02*
X131935496Y-96745561D01*
X131935496Y-96745561D02*
X131840258Y-96840800D01*
X131840258Y-96840800D02*
X131697401Y-96888419D01*
X131697401Y-96888419D02*
X131602163Y-96888419D01*
X131602163Y-96888419D02*
X131459306Y-96840800D01*
X131459306Y-96840800D02*
X131411687Y-96793180D01*
X131411687Y-96793180D02*
X131411687Y-96459847D01*
X131411687Y-96459847D02*
X131602163Y-96459847D01*
X130983115Y-96888419D02*
X130983115Y-95888419D01*
X130983115Y-95888419D02*
X130411687Y-96888419D01*
X130411687Y-96888419D02*
X130411687Y-95888419D01*
X129935496Y-96888419D02*
X129935496Y-95888419D01*
X129935496Y-95888419D02*
X129697401Y-95888419D01*
X129697401Y-95888419D02*
X129554544Y-95936038D01*
X129554544Y-95936038D02*
X129459306Y-96031276D01*
X129459306Y-96031276D02*
X129411687Y-96126514D01*
X129411687Y-96126514D02*
X129364068Y-96316990D01*
X129364068Y-96316990D02*
X129364068Y-96459847D01*
X129364068Y-96459847D02*
X129411687Y-96650323D01*
X129411687Y-96650323D02*
X129459306Y-96745561D01*
X129459306Y-96745561D02*
X129554544Y-96840800D01*
X129554544Y-96840800D02*
X129697401Y-96888419D01*
X129697401Y-96888419D02*
X129935496Y-96888419D01*
D10*
X166858695Y-98495768D02*
X167658695Y-98762435D01*
X167658695Y-98762435D02*
X166858695Y-99029101D01*
X167582504Y-99752911D02*
X167620600Y-99714815D01*
X167620600Y-99714815D02*
X167658695Y-99600530D01*
X167658695Y-99600530D02*
X167658695Y-99524339D01*
X167658695Y-99524339D02*
X167620600Y-99410053D01*
X167620600Y-99410053D02*
X167544409Y-99333863D01*
X167544409Y-99333863D02*
X167468219Y-99295768D01*
X167468219Y-99295768D02*
X167315838Y-99257672D01*
X167315838Y-99257672D02*
X167201552Y-99257672D01*
X167201552Y-99257672D02*
X167049171Y-99295768D01*
X167049171Y-99295768D02*
X166972980Y-99333863D01*
X166972980Y-99333863D02*
X166896790Y-99410053D01*
X166896790Y-99410053D02*
X166858695Y-99524339D01*
X166858695Y-99524339D02*
X166858695Y-99600530D01*
X166858695Y-99600530D02*
X166896790Y-99714815D01*
X166896790Y-99714815D02*
X166934885Y-99752911D01*
X167582504Y-100552911D02*
X167620600Y-100514815D01*
X167620600Y-100514815D02*
X167658695Y-100400530D01*
X167658695Y-100400530D02*
X167658695Y-100324339D01*
X167658695Y-100324339D02*
X167620600Y-100210053D01*
X167620600Y-100210053D02*
X167544409Y-100133863D01*
X167544409Y-100133863D02*
X167468219Y-100095768D01*
X167468219Y-100095768D02*
X167315838Y-100057672D01*
X167315838Y-100057672D02*
X167201552Y-100057672D01*
X167201552Y-100057672D02*
X167049171Y-100095768D01*
X167049171Y-100095768D02*
X166972980Y-100133863D01*
X166972980Y-100133863D02*
X166896790Y-100210053D01*
X166896790Y-100210053D02*
X166858695Y-100324339D01*
X166858695Y-100324339D02*
X166858695Y-100400530D01*
X166858695Y-100400530D02*
X166896790Y-100514815D01*
X166896790Y-100514815D02*
X166934885Y-100552911D01*
X164425400Y-101864850D02*
X164368257Y-101693422D01*
X164368257Y-101693422D02*
X164368257Y-101407707D01*
X164368257Y-101407707D02*
X164425400Y-101293422D01*
X164425400Y-101293422D02*
X164482542Y-101236279D01*
X164482542Y-101236279D02*
X164596828Y-101179136D01*
X164596828Y-101179136D02*
X164711114Y-101179136D01*
X164711114Y-101179136D02*
X164825400Y-101236279D01*
X164825400Y-101236279D02*
X164882542Y-101293422D01*
X164882542Y-101293422D02*
X164939685Y-101407707D01*
X164939685Y-101407707D02*
X164996828Y-101636279D01*
X164996828Y-101636279D02*
X165053971Y-101750564D01*
X165053971Y-101750564D02*
X165111114Y-101807707D01*
X165111114Y-101807707D02*
X165225400Y-101864850D01*
X165225400Y-101864850D02*
X165339685Y-101864850D01*
X165339685Y-101864850D02*
X165453971Y-101807707D01*
X165453971Y-101807707D02*
X165511114Y-101750564D01*
X165511114Y-101750564D02*
X165568257Y-101636279D01*
X165568257Y-101636279D02*
X165568257Y-101350564D01*
X165568257Y-101350564D02*
X165511114Y-101179136D01*
X164425400Y-100207707D02*
X164368257Y-100321993D01*
X164368257Y-100321993D02*
X164368257Y-100550565D01*
X164368257Y-100550565D02*
X164425400Y-100664850D01*
X164425400Y-100664850D02*
X164539685Y-100721993D01*
X164539685Y-100721993D02*
X164996828Y-100721993D01*
X164996828Y-100721993D02*
X165111114Y-100664850D01*
X165111114Y-100664850D02*
X165168257Y-100550565D01*
X165168257Y-100550565D02*
X165168257Y-100321993D01*
X165168257Y-100321993D02*
X165111114Y-100207707D01*
X165111114Y-100207707D02*
X164996828Y-100150565D01*
X164996828Y-100150565D02*
X164882542Y-100150565D01*
X164882542Y-100150565D02*
X164768257Y-100721993D01*
X165168257Y-99636279D02*
X164368257Y-99636279D01*
X165053971Y-99636279D02*
X165111114Y-99579136D01*
X165111114Y-99579136D02*
X165168257Y-99464851D01*
X165168257Y-99464851D02*
X165168257Y-99293422D01*
X165168257Y-99293422D02*
X165111114Y-99179136D01*
X165111114Y-99179136D02*
X164996828Y-99121994D01*
X164996828Y-99121994D02*
X164368257Y-99121994D01*
X164425400Y-98607708D02*
X164368257Y-98493422D01*
X164368257Y-98493422D02*
X164368257Y-98264851D01*
X164368257Y-98264851D02*
X164425400Y-98150565D01*
X164425400Y-98150565D02*
X164539685Y-98093422D01*
X164539685Y-98093422D02*
X164596828Y-98093422D01*
X164596828Y-98093422D02*
X164711114Y-98150565D01*
X164711114Y-98150565D02*
X164768257Y-98264851D01*
X164768257Y-98264851D02*
X164768257Y-98436280D01*
X164768257Y-98436280D02*
X164825400Y-98550565D01*
X164825400Y-98550565D02*
X164939685Y-98607708D01*
X164939685Y-98607708D02*
X164996828Y-98607708D01*
X164996828Y-98607708D02*
X165111114Y-98550565D01*
X165111114Y-98550565D02*
X165168257Y-98436280D01*
X165168257Y-98436280D02*
X165168257Y-98264851D01*
X165168257Y-98264851D02*
X165111114Y-98150565D01*
X164368257Y-97407708D02*
X164425400Y-97521993D01*
X164425400Y-97521993D02*
X164482542Y-97579136D01*
X164482542Y-97579136D02*
X164596828Y-97636279D01*
X164596828Y-97636279D02*
X164939685Y-97636279D01*
X164939685Y-97636279D02*
X165053971Y-97579136D01*
X165053971Y-97579136D02*
X165111114Y-97521993D01*
X165111114Y-97521993D02*
X165168257Y-97407708D01*
X165168257Y-97407708D02*
X165168257Y-97236279D01*
X165168257Y-97236279D02*
X165111114Y-97121993D01*
X165111114Y-97121993D02*
X165053971Y-97064851D01*
X165053971Y-97064851D02*
X164939685Y-97007708D01*
X164939685Y-97007708D02*
X164596828Y-97007708D01*
X164596828Y-97007708D02*
X164482542Y-97064851D01*
X164482542Y-97064851D02*
X164425400Y-97121993D01*
X164425400Y-97121993D02*
X164368257Y-97236279D01*
X164368257Y-97236279D02*
X164368257Y-97407708D01*
X164368257Y-96493422D02*
X165168257Y-96493422D01*
X164939685Y-96493422D02*
X165053971Y-96436279D01*
X165053971Y-96436279D02*
X165111114Y-96379137D01*
X165111114Y-96379137D02*
X165168257Y-96264851D01*
X165168257Y-96264851D02*
X165168257Y-96150565D01*
D13*
X100166795Y-123705207D02*
X99366795Y-123705207D01*
X99366795Y-123705207D02*
X99938223Y-123971873D01*
X99938223Y-123971873D02*
X99366795Y-124238540D01*
X99366795Y-124238540D02*
X100166795Y-124238540D01*
X100090604Y-125076636D02*
X100128700Y-125038540D01*
X100128700Y-125038540D02*
X100166795Y-124924255D01*
X100166795Y-124924255D02*
X100166795Y-124848064D01*
X100166795Y-124848064D02*
X100128700Y-124733778D01*
X100128700Y-124733778D02*
X100052509Y-124657588D01*
X100052509Y-124657588D02*
X99976319Y-124619493D01*
X99976319Y-124619493D02*
X99823938Y-124581397D01*
X99823938Y-124581397D02*
X99709652Y-124581397D01*
X99709652Y-124581397D02*
X99557271Y-124619493D01*
X99557271Y-124619493D02*
X99481080Y-124657588D01*
X99481080Y-124657588D02*
X99404890Y-124733778D01*
X99404890Y-124733778D02*
X99366795Y-124848064D01*
X99366795Y-124848064D02*
X99366795Y-124924255D01*
X99366795Y-124924255D02*
X99404890Y-125038540D01*
X99404890Y-125038540D02*
X99442985Y-125076636D01*
X99366795Y-125419493D02*
X100014414Y-125419493D01*
X100014414Y-125419493D02*
X100090604Y-125457588D01*
X100090604Y-125457588D02*
X100128700Y-125495683D01*
X100128700Y-125495683D02*
X100166795Y-125571874D01*
X100166795Y-125571874D02*
X100166795Y-125724255D01*
X100166795Y-125724255D02*
X100128700Y-125800445D01*
X100128700Y-125800445D02*
X100090604Y-125838540D01*
X100090604Y-125838540D02*
X100014414Y-125876636D01*
X100014414Y-125876636D02*
X99366795Y-125876636D01*
D11*
X120095489Y-125530828D02*
X120095489Y-124030828D01*
X120095489Y-124030828D02*
X119524060Y-124030828D01*
X119524060Y-124030828D02*
X119381203Y-124102257D01*
X119381203Y-124102257D02*
X119309774Y-124173685D01*
X119309774Y-124173685D02*
X119238346Y-124316542D01*
X119238346Y-124316542D02*
X119238346Y-124530828D01*
X119238346Y-124530828D02*
X119309774Y-124673685D01*
X119309774Y-124673685D02*
X119381203Y-124745114D01*
X119381203Y-124745114D02*
X119524060Y-124816542D01*
X119524060Y-124816542D02*
X120095489Y-124816542D01*
X118595489Y-125530828D02*
X118595489Y-124030828D01*
X118595489Y-124745114D02*
X117738346Y-124745114D01*
X117738346Y-125530828D02*
X117738346Y-124030828D01*
X115952631Y-125459400D02*
X115738346Y-125530828D01*
X115738346Y-125530828D02*
X115381203Y-125530828D01*
X115381203Y-125530828D02*
X115238346Y-125459400D01*
X115238346Y-125459400D02*
X115166917Y-125387971D01*
X115166917Y-125387971D02*
X115095488Y-125245114D01*
X115095488Y-125245114D02*
X115095488Y-125102257D01*
X115095488Y-125102257D02*
X115166917Y-124959400D01*
X115166917Y-124959400D02*
X115238346Y-124887971D01*
X115238346Y-124887971D02*
X115381203Y-124816542D01*
X115381203Y-124816542D02*
X115666917Y-124745114D01*
X115666917Y-124745114D02*
X115809774Y-124673685D01*
X115809774Y-124673685D02*
X115881203Y-124602257D01*
X115881203Y-124602257D02*
X115952631Y-124459400D01*
X115952631Y-124459400D02*
X115952631Y-124316542D01*
X115952631Y-124316542D02*
X115881203Y-124173685D01*
X115881203Y-124173685D02*
X115809774Y-124102257D01*
X115809774Y-124102257D02*
X115666917Y-124030828D01*
X115666917Y-124030828D02*
X115309774Y-124030828D01*
X115309774Y-124030828D02*
X115095488Y-124102257D01*
X113881203Y-125459400D02*
X114024060Y-125530828D01*
X114024060Y-125530828D02*
X114309775Y-125530828D01*
X114309775Y-125530828D02*
X114452632Y-125459400D01*
X114452632Y-125459400D02*
X114524060Y-125316542D01*
X114524060Y-125316542D02*
X114524060Y-124745114D01*
X114524060Y-124745114D02*
X114452632Y-124602257D01*
X114452632Y-124602257D02*
X114309775Y-124530828D01*
X114309775Y-124530828D02*
X114024060Y-124530828D01*
X114024060Y-124530828D02*
X113881203Y-124602257D01*
X113881203Y-124602257D02*
X113809775Y-124745114D01*
X113809775Y-124745114D02*
X113809775Y-124887971D01*
X113809775Y-124887971D02*
X114524060Y-125030828D01*
X113166918Y-124530828D02*
X113166918Y-125530828D01*
X113166918Y-124673685D02*
X113095489Y-124602257D01*
X113095489Y-124602257D02*
X112952632Y-124530828D01*
X112952632Y-124530828D02*
X112738346Y-124530828D01*
X112738346Y-124530828D02*
X112595489Y-124602257D01*
X112595489Y-124602257D02*
X112524061Y-124745114D01*
X112524061Y-124745114D02*
X112524061Y-125530828D01*
X111881203Y-125459400D02*
X111738346Y-125530828D01*
X111738346Y-125530828D02*
X111452632Y-125530828D01*
X111452632Y-125530828D02*
X111309775Y-125459400D01*
X111309775Y-125459400D02*
X111238346Y-125316542D01*
X111238346Y-125316542D02*
X111238346Y-125245114D01*
X111238346Y-125245114D02*
X111309775Y-125102257D01*
X111309775Y-125102257D02*
X111452632Y-125030828D01*
X111452632Y-125030828D02*
X111666918Y-125030828D01*
X111666918Y-125030828D02*
X111809775Y-124959400D01*
X111809775Y-124959400D02*
X111881203Y-124816542D01*
X111881203Y-124816542D02*
X111881203Y-124745114D01*
X111881203Y-124745114D02*
X111809775Y-124602257D01*
X111809775Y-124602257D02*
X111666918Y-124530828D01*
X111666918Y-124530828D02*
X111452632Y-124530828D01*
X111452632Y-124530828D02*
X111309775Y-124602257D01*
X110381203Y-125530828D02*
X110524060Y-125459400D01*
X110524060Y-125459400D02*
X110595489Y-125387971D01*
X110595489Y-125387971D02*
X110666917Y-125245114D01*
X110666917Y-125245114D02*
X110666917Y-124816542D01*
X110666917Y-124816542D02*
X110595489Y-124673685D01*
X110595489Y-124673685D02*
X110524060Y-124602257D01*
X110524060Y-124602257D02*
X110381203Y-124530828D01*
X110381203Y-124530828D02*
X110166917Y-124530828D01*
X110166917Y-124530828D02*
X110024060Y-124602257D01*
X110024060Y-124602257D02*
X109952632Y-124673685D01*
X109952632Y-124673685D02*
X109881203Y-124816542D01*
X109881203Y-124816542D02*
X109881203Y-125245114D01*
X109881203Y-125245114D02*
X109952632Y-125387971D01*
X109952632Y-125387971D02*
X110024060Y-125459400D01*
X110024060Y-125459400D02*
X110166917Y-125530828D01*
X110166917Y-125530828D02*
X110381203Y-125530828D01*
X109238346Y-125530828D02*
X109238346Y-124530828D01*
X109238346Y-124816542D02*
X109166917Y-124673685D01*
X109166917Y-124673685D02*
X109095489Y-124602257D01*
X109095489Y-124602257D02*
X108952631Y-124530828D01*
X108952631Y-124530828D02*
X108809774Y-124530828D01*
D12*
X89095534Y-127304304D02*
X88619344Y-127304304D01*
X89190772Y-127590019D02*
X88857439Y-126590019D01*
X88857439Y-126590019D02*
X88524106Y-127590019D01*
X90206772Y-124050019D02*
X89873439Y-125050019D01*
X89873439Y-125050019D02*
X89540106Y-124050019D01*
X88635344Y-124954780D02*
X88682963Y-125002400D01*
X88682963Y-125002400D02*
X88825820Y-125050019D01*
X88825820Y-125050019D02*
X88921058Y-125050019D01*
X88921058Y-125050019D02*
X89063915Y-125002400D01*
X89063915Y-125002400D02*
X89159153Y-124907161D01*
X89159153Y-124907161D02*
X89206772Y-124811923D01*
X89206772Y-124811923D02*
X89254391Y-124621447D01*
X89254391Y-124621447D02*
X89254391Y-124478590D01*
X89254391Y-124478590D02*
X89206772Y-124288114D01*
X89206772Y-124288114D02*
X89159153Y-124192876D01*
X89159153Y-124192876D02*
X89063915Y-124097638D01*
X89063915Y-124097638D02*
X88921058Y-124050019D01*
X88921058Y-124050019D02*
X88825820Y-124050019D01*
X88825820Y-124050019D02*
X88682963Y-124097638D01*
X88682963Y-124097638D02*
X88635344Y-124145257D01*
X87635344Y-124954780D02*
X87682963Y-125002400D01*
X87682963Y-125002400D02*
X87825820Y-125050019D01*
X87825820Y-125050019D02*
X87921058Y-125050019D01*
X87921058Y-125050019D02*
X88063915Y-125002400D01*
X88063915Y-125002400D02*
X88159153Y-124907161D01*
X88159153Y-124907161D02*
X88206772Y-124811923D01*
X88206772Y-124811923D02*
X88254391Y-124621447D01*
X88254391Y-124621447D02*
X88254391Y-124478590D01*
X88254391Y-124478590D02*
X88206772Y-124288114D01*
X88206772Y-124288114D02*
X88159153Y-124192876D01*
X88159153Y-124192876D02*
X88063915Y-124097638D01*
X88063915Y-124097638D02*
X87921058Y-124050019D01*
X87921058Y-124050019D02*
X87825820Y-124050019D01*
X87825820Y-124050019D02*
X87682963Y-124097638D01*
X87682963Y-124097638D02*
X87635344Y-124145257D01*
X89794106Y-121557638D02*
X89889344Y-121510019D01*
X89889344Y-121510019D02*
X90032201Y-121510019D01*
X90032201Y-121510019D02*
X90175058Y-121557638D01*
X90175058Y-121557638D02*
X90270296Y-121652876D01*
X90270296Y-121652876D02*
X90317915Y-121748114D01*
X90317915Y-121748114D02*
X90365534Y-121938590D01*
X90365534Y-121938590D02*
X90365534Y-122081447D01*
X90365534Y-122081447D02*
X90317915Y-122271923D01*
X90317915Y-122271923D02*
X90270296Y-122367161D01*
X90270296Y-122367161D02*
X90175058Y-122462400D01*
X90175058Y-122462400D02*
X90032201Y-122510019D01*
X90032201Y-122510019D02*
X89936963Y-122510019D01*
X89936963Y-122510019D02*
X89794106Y-122462400D01*
X89794106Y-122462400D02*
X89746487Y-122414780D01*
X89746487Y-122414780D02*
X89746487Y-122081447D01*
X89746487Y-122081447D02*
X89936963Y-122081447D01*
X89317915Y-122510019D02*
X89317915Y-121510019D01*
X89317915Y-121510019D02*
X88746487Y-122510019D01*
X88746487Y-122510019D02*
X88746487Y-121510019D01*
X88270296Y-122510019D02*
X88270296Y-121510019D01*
X88270296Y-121510019D02*
X88032201Y-121510019D01*
X88032201Y-121510019D02*
X87889344Y-121557638D01*
X87889344Y-121557638D02*
X87794106Y-121652876D01*
X87794106Y-121652876D02*
X87746487Y-121748114D01*
X87746487Y-121748114D02*
X87698868Y-121938590D01*
X87698868Y-121938590D02*
X87698868Y-122081447D01*
X87698868Y-122081447D02*
X87746487Y-122271923D01*
X87746487Y-122271923D02*
X87794106Y-122367161D01*
X87794106Y-122367161D02*
X87889344Y-122462400D01*
X87889344Y-122462400D02*
X88032201Y-122510019D01*
X88032201Y-122510019D02*
X88270296Y-122510019D01*
D13*
X132676900Y-126434088D02*
X132638804Y-126319802D01*
X132638804Y-126319802D02*
X132638804Y-126129326D01*
X132638804Y-126129326D02*
X132676900Y-126053135D01*
X132676900Y-126053135D02*
X132714995Y-126015040D01*
X132714995Y-126015040D02*
X132791185Y-125976945D01*
X132791185Y-125976945D02*
X132867376Y-125976945D01*
X132867376Y-125976945D02*
X132943566Y-126015040D01*
X132943566Y-126015040D02*
X132981661Y-126053135D01*
X132981661Y-126053135D02*
X133019757Y-126129326D01*
X133019757Y-126129326D02*
X133057852Y-126281707D01*
X133057852Y-126281707D02*
X133095947Y-126357897D01*
X133095947Y-126357897D02*
X133134042Y-126395992D01*
X133134042Y-126395992D02*
X133210233Y-126434088D01*
X133210233Y-126434088D02*
X133286423Y-126434088D01*
X133286423Y-126434088D02*
X133362614Y-126395992D01*
X133362614Y-126395992D02*
X133400709Y-126357897D01*
X133400709Y-126357897D02*
X133438804Y-126281707D01*
X133438804Y-126281707D02*
X133438804Y-126091230D01*
X133438804Y-126091230D02*
X133400709Y-125976945D01*
X132676900Y-125329325D02*
X132638804Y-125405516D01*
X132638804Y-125405516D02*
X132638804Y-125557897D01*
X132638804Y-125557897D02*
X132676900Y-125634087D01*
X132676900Y-125634087D02*
X132753090Y-125672183D01*
X132753090Y-125672183D02*
X133057852Y-125672183D01*
X133057852Y-125672183D02*
X133134042Y-125634087D01*
X133134042Y-125634087D02*
X133172138Y-125557897D01*
X133172138Y-125557897D02*
X133172138Y-125405516D01*
X133172138Y-125405516D02*
X133134042Y-125329325D01*
X133134042Y-125329325D02*
X133057852Y-125291230D01*
X133057852Y-125291230D02*
X132981661Y-125291230D01*
X132981661Y-125291230D02*
X132905471Y-125672183D01*
X133172138Y-124948373D02*
X132638804Y-124948373D01*
X133095947Y-124948373D02*
X133134042Y-124910278D01*
X133134042Y-124910278D02*
X133172138Y-124834088D01*
X133172138Y-124834088D02*
X133172138Y-124719802D01*
X133172138Y-124719802D02*
X133134042Y-124643611D01*
X133134042Y-124643611D02*
X133057852Y-124605516D01*
X133057852Y-124605516D02*
X132638804Y-124605516D01*
X132676900Y-124262659D02*
X132638804Y-124186468D01*
X132638804Y-124186468D02*
X132638804Y-124034087D01*
X132638804Y-124034087D02*
X132676900Y-123957897D01*
X132676900Y-123957897D02*
X132753090Y-123919801D01*
X132753090Y-123919801D02*
X132791185Y-123919801D01*
X132791185Y-123919801D02*
X132867376Y-123957897D01*
X132867376Y-123957897D02*
X132905471Y-124034087D01*
X132905471Y-124034087D02*
X132905471Y-124148373D01*
X132905471Y-124148373D02*
X132943566Y-124224563D01*
X132943566Y-124224563D02*
X133019757Y-124262659D01*
X133019757Y-124262659D02*
X133057852Y-124262659D01*
X133057852Y-124262659D02*
X133134042Y-124224563D01*
X133134042Y-124224563D02*
X133172138Y-124148373D01*
X133172138Y-124148373D02*
X133172138Y-124034087D01*
X133172138Y-124034087D02*
X133134042Y-123957897D01*
X132638804Y-123462659D02*
X132676900Y-123538849D01*
X132676900Y-123538849D02*
X132714995Y-123576944D01*
X132714995Y-123576944D02*
X132791185Y-123615040D01*
X132791185Y-123615040D02*
X133019757Y-123615040D01*
X133019757Y-123615040D02*
X133095947Y-123576944D01*
X133095947Y-123576944D02*
X133134042Y-123538849D01*
X133134042Y-123538849D02*
X133172138Y-123462659D01*
X133172138Y-123462659D02*
X133172138Y-123348373D01*
X133172138Y-123348373D02*
X133134042Y-123272182D01*
X133134042Y-123272182D02*
X133095947Y-123234087D01*
X133095947Y-123234087D02*
X133019757Y-123195992D01*
X133019757Y-123195992D02*
X132791185Y-123195992D01*
X132791185Y-123195992D02*
X132714995Y-123234087D01*
X132714995Y-123234087D02*
X132676900Y-123272182D01*
X132676900Y-123272182D02*
X132638804Y-123348373D01*
X132638804Y-123348373D02*
X132638804Y-123462659D01*
X132638804Y-122853134D02*
X133172138Y-122853134D01*
X133019757Y-122853134D02*
X133095947Y-122815039D01*
X133095947Y-122815039D02*
X133134042Y-122776944D01*
X133134042Y-122776944D02*
X133172138Y-122700753D01*
X133172138Y-122700753D02*
X133172138Y-122624563D01*
D14*
X80343333Y-139584819D02*
X80343333Y-140299104D01*
X80343333Y-140299104D02*
X80390952Y-140441961D01*
X80390952Y-140441961D02*
X80486190Y-140537200D01*
X80486190Y-140537200D02*
X80629047Y-140584819D01*
X80629047Y-140584819D02*
X80724285Y-140584819D01*
X79819523Y-140584819D02*
X79629047Y-140584819D01*
X79629047Y-140584819D02*
X79533809Y-140537200D01*
X79533809Y-140537200D02*
X79486190Y-140489580D01*
X79486190Y-140489580D02*
X79390952Y-140346723D01*
X79390952Y-140346723D02*
X79343333Y-140156247D01*
X79343333Y-140156247D02*
X79343333Y-139775295D01*
X79343333Y-139775295D02*
X79390952Y-139680057D01*
X79390952Y-139680057D02*
X79438571Y-139632438D01*
X79438571Y-139632438D02*
X79533809Y-139584819D01*
X79533809Y-139584819D02*
X79724285Y-139584819D01*
X79724285Y-139584819D02*
X79819523Y-139632438D01*
X79819523Y-139632438D02*
X79867142Y-139680057D01*
X79867142Y-139680057D02*
X79914761Y-139775295D01*
X79914761Y-139775295D02*
X79914761Y-140013390D01*
X79914761Y-140013390D02*
X79867142Y-140108628D01*
X79867142Y-140108628D02*
X79819523Y-140156247D01*
X79819523Y-140156247D02*
X79724285Y-140203866D01*
X79724285Y-140203866D02*
X79533809Y-140203866D01*
X79533809Y-140203866D02*
X79438571Y-140156247D01*
X79438571Y-140156247D02*
X79390952Y-140108628D01*
X79390952Y-140108628D02*
X79343333Y-140013390D01*
X186229523Y-103384819D02*
X186229523Y-104099104D01*
X186229523Y-104099104D02*
X186277142Y-104241961D01*
X186277142Y-104241961D02*
X186372380Y-104337200D01*
X186372380Y-104337200D02*
X186515237Y-104384819D01*
X186515237Y-104384819D02*
X186610475Y-104384819D01*
X185229523Y-104384819D02*
X185800951Y-104384819D01*
X185515237Y-104384819D02*
X185515237Y-103384819D01*
X185515237Y-103384819D02*
X185610475Y-103527676D01*
X185610475Y-103527676D02*
X185705713Y-103622914D01*
X185705713Y-103622914D02*
X185800951Y-103670533D01*
X184372380Y-103718152D02*
X184372380Y-104384819D01*
X184610475Y-103337200D02*
X184848570Y-104051485D01*
X184848570Y-104051485D02*
X184229523Y-104051485D01*
X181149523Y-132594819D02*
X181149523Y-133309104D01*
X181149523Y-133309104D02*
X181197142Y-133451961D01*
X181197142Y-133451961D02*
X181292380Y-133547200D01*
X181292380Y-133547200D02*
X181435237Y-133594819D01*
X181435237Y-133594819D02*
X181530475Y-133594819D01*
X180149523Y-133594819D02*
X180720951Y-133594819D01*
X180435237Y-133594819D02*
X180435237Y-132594819D01*
X180435237Y-132594819D02*
X180530475Y-132737676D01*
X180530475Y-132737676D02*
X180625713Y-132832914D01*
X180625713Y-132832914D02*
X180720951Y-132880533D01*
X179673332Y-133594819D02*
X179482856Y-133594819D01*
X179482856Y-133594819D02*
X179387618Y-133547200D01*
X179387618Y-133547200D02*
X179339999Y-133499580D01*
X179339999Y-133499580D02*
X179244761Y-133356723D01*
X179244761Y-133356723D02*
X179197142Y-133166247D01*
X179197142Y-133166247D02*
X179197142Y-132785295D01*
X179197142Y-132785295D02*
X179244761Y-132690057D01*
X179244761Y-132690057D02*
X179292380Y-132642438D01*
X179292380Y-132642438D02*
X179387618Y-132594819D01*
X179387618Y-132594819D02*
X179578094Y-132594819D01*
X179578094Y-132594819D02*
X179673332Y-132642438D01*
X179673332Y-132642438D02*
X179720951Y-132690057D01*
X179720951Y-132690057D02*
X179768570Y-132785295D01*
X179768570Y-132785295D02*
X179768570Y-133023390D01*
X179768570Y-133023390D02*
X179720951Y-133118628D01*
X179720951Y-133118628D02*
X179673332Y-133166247D01*
X179673332Y-133166247D02*
X179578094Y-133213866D01*
X179578094Y-133213866D02*
X179387618Y-133213866D01*
X179387618Y-133213866D02*
X179292380Y-133166247D01*
X179292380Y-133166247D02*
X179244761Y-133118628D01*
X179244761Y-133118628D02*
X179197142Y-133023390D01*
X173949523Y-132594819D02*
X173949523Y-133309104D01*
X173949523Y-133309104D02*
X173997142Y-133451961D01*
X173997142Y-133451961D02*
X174092380Y-133547200D01*
X174092380Y-133547200D02*
X174235237Y-133594819D01*
X174235237Y-133594819D02*
X174330475Y-133594819D01*
X172949523Y-133594819D02*
X173520951Y-133594819D01*
X173235237Y-133594819D02*
X173235237Y-132594819D01*
X173235237Y-132594819D02*
X173330475Y-132737676D01*
X173330475Y-132737676D02*
X173425713Y-132832914D01*
X173425713Y-132832914D02*
X173520951Y-132880533D01*
X172378094Y-133023390D02*
X172473332Y-132975771D01*
X172473332Y-132975771D02*
X172520951Y-132928152D01*
X172520951Y-132928152D02*
X172568570Y-132832914D01*
X172568570Y-132832914D02*
X172568570Y-132785295D01*
X172568570Y-132785295D02*
X172520951Y-132690057D01*
X172520951Y-132690057D02*
X172473332Y-132642438D01*
X172473332Y-132642438D02*
X172378094Y-132594819D01*
X172378094Y-132594819D02*
X172187618Y-132594819D01*
X172187618Y-132594819D02*
X172092380Y-132642438D01*
X172092380Y-132642438D02*
X172044761Y-132690057D01*
X172044761Y-132690057D02*
X171997142Y-132785295D01*
X171997142Y-132785295D02*
X171997142Y-132832914D01*
X171997142Y-132832914D02*
X172044761Y-132928152D01*
X172044761Y-132928152D02*
X172092380Y-132975771D01*
X172092380Y-132975771D02*
X172187618Y-133023390D01*
X172187618Y-133023390D02*
X172378094Y-133023390D01*
X172378094Y-133023390D02*
X172473332Y-133071009D01*
X172473332Y-133071009D02*
X172520951Y-133118628D01*
X172520951Y-133118628D02*
X172568570Y-133213866D01*
X172568570Y-133213866D02*
X172568570Y-133404342D01*
X172568570Y-133404342D02*
X172520951Y-133499580D01*
X172520951Y-133499580D02*
X172473332Y-133547200D01*
X172473332Y-133547200D02*
X172378094Y-133594819D01*
X172378094Y-133594819D02*
X172187618Y-133594819D01*
X172187618Y-133594819D02*
X172092380Y-133547200D01*
X172092380Y-133547200D02*
X172044761Y-133499580D01*
X172044761Y-133499580D02*
X171997142Y-133404342D01*
X171997142Y-133404342D02*
X171997142Y-133213866D01*
X171997142Y-133213866D02*
X172044761Y-133118628D01*
X172044761Y-133118628D02*
X172092380Y-133071009D01*
X172092380Y-133071009D02*
X172187618Y-133023390D01*
X166749523Y-132594819D02*
X166749523Y-133309104D01*
X166749523Y-133309104D02*
X166797142Y-133451961D01*
X166797142Y-133451961D02*
X166892380Y-133547200D01*
X166892380Y-133547200D02*
X167035237Y-133594819D01*
X167035237Y-133594819D02*
X167130475Y-133594819D01*
X165749523Y-133594819D02*
X166320951Y-133594819D01*
X166035237Y-133594819D02*
X166035237Y-132594819D01*
X166035237Y-132594819D02*
X166130475Y-132737676D01*
X166130475Y-132737676D02*
X166225713Y-132832914D01*
X166225713Y-132832914D02*
X166320951Y-132880533D01*
X165416189Y-132594819D02*
X164749523Y-132594819D01*
X164749523Y-132594819D02*
X165178094Y-133594819D01*
X159549523Y-132594819D02*
X159549523Y-133309104D01*
X159549523Y-133309104D02*
X159597142Y-133451961D01*
X159597142Y-133451961D02*
X159692380Y-133547200D01*
X159692380Y-133547200D02*
X159835237Y-133594819D01*
X159835237Y-133594819D02*
X159930475Y-133594819D01*
X158549523Y-133594819D02*
X159120951Y-133594819D01*
X158835237Y-133594819D02*
X158835237Y-132594819D01*
X158835237Y-132594819D02*
X158930475Y-132737676D01*
X158930475Y-132737676D02*
X159025713Y-132832914D01*
X159025713Y-132832914D02*
X159120951Y-132880533D01*
X157692380Y-132594819D02*
X157882856Y-132594819D01*
X157882856Y-132594819D02*
X157978094Y-132642438D01*
X157978094Y-132642438D02*
X158025713Y-132690057D01*
X158025713Y-132690057D02*
X158120951Y-132832914D01*
X158120951Y-132832914D02*
X158168570Y-133023390D01*
X158168570Y-133023390D02*
X158168570Y-133404342D01*
X158168570Y-133404342D02*
X158120951Y-133499580D01*
X158120951Y-133499580D02*
X158073332Y-133547200D01*
X158073332Y-133547200D02*
X157978094Y-133594819D01*
X157978094Y-133594819D02*
X157787618Y-133594819D01*
X157787618Y-133594819D02*
X157692380Y-133547200D01*
X157692380Y-133547200D02*
X157644761Y-133499580D01*
X157644761Y-133499580D02*
X157597142Y-133404342D01*
X157597142Y-133404342D02*
X157597142Y-133166247D01*
X157597142Y-133166247D02*
X157644761Y-133071009D01*
X157644761Y-133071009D02*
X157692380Y-133023390D01*
X157692380Y-133023390D02*
X157787618Y-132975771D01*
X157787618Y-132975771D02*
X157978094Y-132975771D01*
X157978094Y-132975771D02*
X158073332Y-133023390D01*
X158073332Y-133023390D02*
X158120951Y-133071009D01*
X158120951Y-133071009D02*
X158168570Y-133166247D01*
X186229523Y-81159819D02*
X186229523Y-81874104D01*
X186229523Y-81874104D02*
X186277142Y-82016961D01*
X186277142Y-82016961D02*
X186372380Y-82112200D01*
X186372380Y-82112200D02*
X186515237Y-82159819D01*
X186515237Y-82159819D02*
X186610475Y-82159819D01*
X185229523Y-82159819D02*
X185800951Y-82159819D01*
X185515237Y-82159819D02*
X185515237Y-81159819D01*
X185515237Y-81159819D02*
X185610475Y-81302676D01*
X185610475Y-81302676D02*
X185705713Y-81397914D01*
X185705713Y-81397914D02*
X185800951Y-81445533D01*
X184324761Y-81159819D02*
X184800951Y-81159819D01*
X184800951Y-81159819D02*
X184848570Y-81636009D01*
X184848570Y-81636009D02*
X184800951Y-81588390D01*
X184800951Y-81588390D02*
X184705713Y-81540771D01*
X184705713Y-81540771D02*
X184467618Y-81540771D01*
X184467618Y-81540771D02*
X184372380Y-81588390D01*
X184372380Y-81588390D02*
X184324761Y-81636009D01*
X184324761Y-81636009D02*
X184277142Y-81731247D01*
X184277142Y-81731247D02*
X184277142Y-81969342D01*
X184277142Y-81969342D02*
X184324761Y-82064580D01*
X184324761Y-82064580D02*
X184372380Y-82112200D01*
X184372380Y-82112200D02*
X184467618Y-82159819D01*
X184467618Y-82159819D02*
X184705713Y-82159819D01*
X184705713Y-82159819D02*
X184800951Y-82112200D01*
X184800951Y-82112200D02*
X184848570Y-82064580D01*
X38564819Y-63186666D02*
X39279104Y-63186666D01*
X39279104Y-63186666D02*
X39421961Y-63139047D01*
X39421961Y-63139047D02*
X39517200Y-63043809D01*
X39517200Y-63043809D02*
X39564819Y-62900952D01*
X39564819Y-62900952D02*
X39564819Y-62805714D01*
X39564819Y-64186666D02*
X39564819Y-63615238D01*
X39564819Y-63900952D02*
X38564819Y-63900952D01*
X38564819Y-63900952D02*
X38707676Y-63805714D01*
X38707676Y-63805714D02*
X38802914Y-63710476D01*
X38802914Y-63710476D02*
X38850533Y-63615238D01*
X41092819Y-127451666D02*
X41807104Y-127451666D01*
X41807104Y-127451666D02*
X41949961Y-127404047D01*
X41949961Y-127404047D02*
X42045200Y-127308809D01*
X42045200Y-127308809D02*
X42092819Y-127165952D01*
X42092819Y-127165952D02*
X42092819Y-127070714D01*
X41188057Y-127880238D02*
X41140438Y-127927857D01*
X41140438Y-127927857D02*
X41092819Y-128023095D01*
X41092819Y-128023095D02*
X41092819Y-128261190D01*
X41092819Y-128261190D02*
X41140438Y-128356428D01*
X41140438Y-128356428D02*
X41188057Y-128404047D01*
X41188057Y-128404047D02*
X41283295Y-128451666D01*
X41283295Y-128451666D02*
X41378533Y-128451666D01*
X41378533Y-128451666D02*
X41521390Y-128404047D01*
X41521390Y-128404047D02*
X42092819Y-127832619D01*
X42092819Y-127832619D02*
X42092819Y-128451666D01*
D12*
X137286904Y-59147419D02*
X137286904Y-59956942D01*
X137286904Y-59956942D02*
X137239285Y-60052180D01*
X137239285Y-60052180D02*
X137191666Y-60099800D01*
X137191666Y-60099800D02*
X137096428Y-60147419D01*
X137096428Y-60147419D02*
X136905952Y-60147419D01*
X136905952Y-60147419D02*
X136810714Y-60099800D01*
X136810714Y-60099800D02*
X136763095Y-60052180D01*
X136763095Y-60052180D02*
X136715476Y-59956942D01*
X136715476Y-59956942D02*
X136715476Y-59147419D01*
X136096428Y-59575990D02*
X136191666Y-59528371D01*
X136191666Y-59528371D02*
X136239285Y-59480752D01*
X136239285Y-59480752D02*
X136286904Y-59385514D01*
X136286904Y-59385514D02*
X136286904Y-59337895D01*
X136286904Y-59337895D02*
X136239285Y-59242657D01*
X136239285Y-59242657D02*
X136191666Y-59195038D01*
X136191666Y-59195038D02*
X136096428Y-59147419D01*
X136096428Y-59147419D02*
X135905952Y-59147419D01*
X135905952Y-59147419D02*
X135810714Y-59195038D01*
X135810714Y-59195038D02*
X135763095Y-59242657D01*
X135763095Y-59242657D02*
X135715476Y-59337895D01*
X135715476Y-59337895D02*
X135715476Y-59385514D01*
X135715476Y-59385514D02*
X135763095Y-59480752D01*
X135763095Y-59480752D02*
X135810714Y-59528371D01*
X135810714Y-59528371D02*
X135905952Y-59575990D01*
X135905952Y-59575990D02*
X136096428Y-59575990D01*
X136096428Y-59575990D02*
X136191666Y-59623609D01*
X136191666Y-59623609D02*
X136239285Y-59671228D01*
X136239285Y-59671228D02*
X136286904Y-59766466D01*
X136286904Y-59766466D02*
X136286904Y-59956942D01*
X136286904Y-59956942D02*
X136239285Y-60052180D01*
X136239285Y-60052180D02*
X136191666Y-60099800D01*
X136191666Y-60099800D02*
X136096428Y-60147419D01*
X136096428Y-60147419D02*
X135905952Y-60147419D01*
X135905952Y-60147419D02*
X135810714Y-60099800D01*
X135810714Y-60099800D02*
X135763095Y-60052180D01*
X135763095Y-60052180D02*
X135715476Y-59956942D01*
X135715476Y-59956942D02*
X135715476Y-59766466D01*
X135715476Y-59766466D02*
X135763095Y-59671228D01*
X135763095Y-59671228D02*
X135810714Y-59623609D01*
X135810714Y-59623609D02*
X135905952Y-59575990D01*
D13*
X100413195Y-73761207D02*
X99613195Y-73761207D01*
X99613195Y-73761207D02*
X100184623Y-74027873D01*
X100184623Y-74027873D02*
X99613195Y-74294540D01*
X99613195Y-74294540D02*
X100413195Y-74294540D01*
X100337004Y-75132636D02*
X100375100Y-75094540D01*
X100375100Y-75094540D02*
X100413195Y-74980255D01*
X100413195Y-74980255D02*
X100413195Y-74904064D01*
X100413195Y-74904064D02*
X100375100Y-74789778D01*
X100375100Y-74789778D02*
X100298909Y-74713588D01*
X100298909Y-74713588D02*
X100222719Y-74675493D01*
X100222719Y-74675493D02*
X100070338Y-74637397D01*
X100070338Y-74637397D02*
X99956052Y-74637397D01*
X99956052Y-74637397D02*
X99803671Y-74675493D01*
X99803671Y-74675493D02*
X99727480Y-74713588D01*
X99727480Y-74713588D02*
X99651290Y-74789778D01*
X99651290Y-74789778D02*
X99613195Y-74904064D01*
X99613195Y-74904064D02*
X99613195Y-74980255D01*
X99613195Y-74980255D02*
X99651290Y-75094540D01*
X99651290Y-75094540D02*
X99689385Y-75132636D01*
X99613195Y-75475493D02*
X100260814Y-75475493D01*
X100260814Y-75475493D02*
X100337004Y-75513588D01*
X100337004Y-75513588D02*
X100375100Y-75551683D01*
X100375100Y-75551683D02*
X100413195Y-75627874D01*
X100413195Y-75627874D02*
X100413195Y-75780255D01*
X100413195Y-75780255D02*
X100375100Y-75856445D01*
X100375100Y-75856445D02*
X100337004Y-75894540D01*
X100337004Y-75894540D02*
X100260814Y-75932636D01*
X100260814Y-75932636D02*
X99613195Y-75932636D01*
X132923300Y-76490088D02*
X132885204Y-76375802D01*
X132885204Y-76375802D02*
X132885204Y-76185326D01*
X132885204Y-76185326D02*
X132923300Y-76109135D01*
X132923300Y-76109135D02*
X132961395Y-76071040D01*
X132961395Y-76071040D02*
X133037585Y-76032945D01*
X133037585Y-76032945D02*
X133113776Y-76032945D01*
X133113776Y-76032945D02*
X133189966Y-76071040D01*
X133189966Y-76071040D02*
X133228061Y-76109135D01*
X133228061Y-76109135D02*
X133266157Y-76185326D01*
X133266157Y-76185326D02*
X133304252Y-76337707D01*
X133304252Y-76337707D02*
X133342347Y-76413897D01*
X133342347Y-76413897D02*
X133380442Y-76451992D01*
X133380442Y-76451992D02*
X133456633Y-76490088D01*
X133456633Y-76490088D02*
X133532823Y-76490088D01*
X133532823Y-76490088D02*
X133609014Y-76451992D01*
X133609014Y-76451992D02*
X133647109Y-76413897D01*
X133647109Y-76413897D02*
X133685204Y-76337707D01*
X133685204Y-76337707D02*
X133685204Y-76147230D01*
X133685204Y-76147230D02*
X133647109Y-76032945D01*
X132923300Y-75385325D02*
X132885204Y-75461516D01*
X132885204Y-75461516D02*
X132885204Y-75613897D01*
X132885204Y-75613897D02*
X132923300Y-75690087D01*
X132923300Y-75690087D02*
X132999490Y-75728183D01*
X132999490Y-75728183D02*
X133304252Y-75728183D01*
X133304252Y-75728183D02*
X133380442Y-75690087D01*
X133380442Y-75690087D02*
X133418538Y-75613897D01*
X133418538Y-75613897D02*
X133418538Y-75461516D01*
X133418538Y-75461516D02*
X133380442Y-75385325D01*
X133380442Y-75385325D02*
X133304252Y-75347230D01*
X133304252Y-75347230D02*
X133228061Y-75347230D01*
X133228061Y-75347230D02*
X133151871Y-75728183D01*
X133418538Y-75004373D02*
X132885204Y-75004373D01*
X133342347Y-75004373D02*
X133380442Y-74966278D01*
X133380442Y-74966278D02*
X133418538Y-74890088D01*
X133418538Y-74890088D02*
X133418538Y-74775802D01*
X133418538Y-74775802D02*
X133380442Y-74699611D01*
X133380442Y-74699611D02*
X133304252Y-74661516D01*
X133304252Y-74661516D02*
X132885204Y-74661516D01*
X132923300Y-74318659D02*
X132885204Y-74242468D01*
X132885204Y-74242468D02*
X132885204Y-74090087D01*
X132885204Y-74090087D02*
X132923300Y-74013897D01*
X132923300Y-74013897D02*
X132999490Y-73975801D01*
X132999490Y-73975801D02*
X133037585Y-73975801D01*
X133037585Y-73975801D02*
X133113776Y-74013897D01*
X133113776Y-74013897D02*
X133151871Y-74090087D01*
X133151871Y-74090087D02*
X133151871Y-74204373D01*
X133151871Y-74204373D02*
X133189966Y-74280563D01*
X133189966Y-74280563D02*
X133266157Y-74318659D01*
X133266157Y-74318659D02*
X133304252Y-74318659D01*
X133304252Y-74318659D02*
X133380442Y-74280563D01*
X133380442Y-74280563D02*
X133418538Y-74204373D01*
X133418538Y-74204373D02*
X133418538Y-74090087D01*
X133418538Y-74090087D02*
X133380442Y-74013897D01*
X132885204Y-73518659D02*
X132923300Y-73594849D01*
X132923300Y-73594849D02*
X132961395Y-73632944D01*
X132961395Y-73632944D02*
X133037585Y-73671040D01*
X133037585Y-73671040D02*
X133266157Y-73671040D01*
X133266157Y-73671040D02*
X133342347Y-73632944D01*
X133342347Y-73632944D02*
X133380442Y-73594849D01*
X133380442Y-73594849D02*
X133418538Y-73518659D01*
X133418538Y-73518659D02*
X133418538Y-73404373D01*
X133418538Y-73404373D02*
X133380442Y-73328182D01*
X133380442Y-73328182D02*
X133342347Y-73290087D01*
X133342347Y-73290087D02*
X133266157Y-73251992D01*
X133266157Y-73251992D02*
X133037585Y-73251992D01*
X133037585Y-73251992D02*
X132961395Y-73290087D01*
X132961395Y-73290087D02*
X132923300Y-73328182D01*
X132923300Y-73328182D02*
X132885204Y-73404373D01*
X132885204Y-73404373D02*
X132885204Y-73518659D01*
X132885204Y-72909134D02*
X133418538Y-72909134D01*
X133266157Y-72909134D02*
X133342347Y-72871039D01*
X133342347Y-72871039D02*
X133380442Y-72832944D01*
X133380442Y-72832944D02*
X133418538Y-72756753D01*
X133418538Y-72756753D02*
X133418538Y-72680563D01*
D12*
X90453172Y-74106019D02*
X90119839Y-75106019D01*
X90119839Y-75106019D02*
X89786506Y-74106019D01*
X88881744Y-75010780D02*
X88929363Y-75058400D01*
X88929363Y-75058400D02*
X89072220Y-75106019D01*
X89072220Y-75106019D02*
X89167458Y-75106019D01*
X89167458Y-75106019D02*
X89310315Y-75058400D01*
X89310315Y-75058400D02*
X89405553Y-74963161D01*
X89405553Y-74963161D02*
X89453172Y-74867923D01*
X89453172Y-74867923D02*
X89500791Y-74677447D01*
X89500791Y-74677447D02*
X89500791Y-74534590D01*
X89500791Y-74534590D02*
X89453172Y-74344114D01*
X89453172Y-74344114D02*
X89405553Y-74248876D01*
X89405553Y-74248876D02*
X89310315Y-74153638D01*
X89310315Y-74153638D02*
X89167458Y-74106019D01*
X89167458Y-74106019D02*
X89072220Y-74106019D01*
X89072220Y-74106019D02*
X88929363Y-74153638D01*
X88929363Y-74153638D02*
X88881744Y-74201257D01*
X87881744Y-75010780D02*
X87929363Y-75058400D01*
X87929363Y-75058400D02*
X88072220Y-75106019D01*
X88072220Y-75106019D02*
X88167458Y-75106019D01*
X88167458Y-75106019D02*
X88310315Y-75058400D01*
X88310315Y-75058400D02*
X88405553Y-74963161D01*
X88405553Y-74963161D02*
X88453172Y-74867923D01*
X88453172Y-74867923D02*
X88500791Y-74677447D01*
X88500791Y-74677447D02*
X88500791Y-74534590D01*
X88500791Y-74534590D02*
X88453172Y-74344114D01*
X88453172Y-74344114D02*
X88405553Y-74248876D01*
X88405553Y-74248876D02*
X88310315Y-74153638D01*
X88310315Y-74153638D02*
X88167458Y-74106019D01*
X88167458Y-74106019D02*
X88072220Y-74106019D01*
X88072220Y-74106019D02*
X87929363Y-74153638D01*
X87929363Y-74153638D02*
X87881744Y-74201257D01*
D11*
X121515974Y-73280428D02*
X120658832Y-73280428D01*
X121087403Y-74780428D02*
X121087403Y-73280428D01*
X120158832Y-74780428D02*
X120158832Y-73280428D01*
X120158832Y-73280428D02*
X119801689Y-73280428D01*
X119801689Y-73280428D02*
X119587403Y-73351857D01*
X119587403Y-73351857D02*
X119444546Y-73494714D01*
X119444546Y-73494714D02*
X119373117Y-73637571D01*
X119373117Y-73637571D02*
X119301689Y-73923285D01*
X119301689Y-73923285D02*
X119301689Y-74137571D01*
X119301689Y-74137571D02*
X119373117Y-74423285D01*
X119373117Y-74423285D02*
X119444546Y-74566142D01*
X119444546Y-74566142D02*
X119587403Y-74709000D01*
X119587403Y-74709000D02*
X119801689Y-74780428D01*
X119801689Y-74780428D02*
X120158832Y-74780428D01*
X118730260Y-74709000D02*
X118515975Y-74780428D01*
X118515975Y-74780428D02*
X118158832Y-74780428D01*
X118158832Y-74780428D02*
X118015975Y-74709000D01*
X118015975Y-74709000D02*
X117944546Y-74637571D01*
X117944546Y-74637571D02*
X117873117Y-74494714D01*
X117873117Y-74494714D02*
X117873117Y-74351857D01*
X117873117Y-74351857D02*
X117944546Y-74209000D01*
X117944546Y-74209000D02*
X118015975Y-74137571D01*
X118015975Y-74137571D02*
X118158832Y-74066142D01*
X118158832Y-74066142D02*
X118444546Y-73994714D01*
X118444546Y-73994714D02*
X118587403Y-73923285D01*
X118587403Y-73923285D02*
X118658832Y-73851857D01*
X118658832Y-73851857D02*
X118730260Y-73709000D01*
X118730260Y-73709000D02*
X118730260Y-73566142D01*
X118730260Y-73566142D02*
X118658832Y-73423285D01*
X118658832Y-73423285D02*
X118587403Y-73351857D01*
X118587403Y-73351857D02*
X118444546Y-73280428D01*
X118444546Y-73280428D02*
X118087403Y-73280428D01*
X118087403Y-73280428D02*
X117873117Y-73351857D01*
X116158832Y-74709000D02*
X115944547Y-74780428D01*
X115944547Y-74780428D02*
X115587404Y-74780428D01*
X115587404Y-74780428D02*
X115444547Y-74709000D01*
X115444547Y-74709000D02*
X115373118Y-74637571D01*
X115373118Y-74637571D02*
X115301689Y-74494714D01*
X115301689Y-74494714D02*
X115301689Y-74351857D01*
X115301689Y-74351857D02*
X115373118Y-74209000D01*
X115373118Y-74209000D02*
X115444547Y-74137571D01*
X115444547Y-74137571D02*
X115587404Y-74066142D01*
X115587404Y-74066142D02*
X115873118Y-73994714D01*
X115873118Y-73994714D02*
X116015975Y-73923285D01*
X116015975Y-73923285D02*
X116087404Y-73851857D01*
X116087404Y-73851857D02*
X116158832Y-73709000D01*
X116158832Y-73709000D02*
X116158832Y-73566142D01*
X116158832Y-73566142D02*
X116087404Y-73423285D01*
X116087404Y-73423285D02*
X116015975Y-73351857D01*
X116015975Y-73351857D02*
X115873118Y-73280428D01*
X115873118Y-73280428D02*
X115515975Y-73280428D01*
X115515975Y-73280428D02*
X115301689Y-73351857D01*
X114087404Y-74709000D02*
X114230261Y-74780428D01*
X114230261Y-74780428D02*
X114515976Y-74780428D01*
X114515976Y-74780428D02*
X114658833Y-74709000D01*
X114658833Y-74709000D02*
X114730261Y-74566142D01*
X114730261Y-74566142D02*
X114730261Y-73994714D01*
X114730261Y-73994714D02*
X114658833Y-73851857D01*
X114658833Y-73851857D02*
X114515976Y-73780428D01*
X114515976Y-73780428D02*
X114230261Y-73780428D01*
X114230261Y-73780428D02*
X114087404Y-73851857D01*
X114087404Y-73851857D02*
X114015976Y-73994714D01*
X114015976Y-73994714D02*
X114015976Y-74137571D01*
X114015976Y-74137571D02*
X114730261Y-74280428D01*
X113373119Y-73780428D02*
X113373119Y-74780428D01*
X113373119Y-73923285D02*
X113301690Y-73851857D01*
X113301690Y-73851857D02*
X113158833Y-73780428D01*
X113158833Y-73780428D02*
X112944547Y-73780428D01*
X112944547Y-73780428D02*
X112801690Y-73851857D01*
X112801690Y-73851857D02*
X112730262Y-73994714D01*
X112730262Y-73994714D02*
X112730262Y-74780428D01*
X112087404Y-74709000D02*
X111944547Y-74780428D01*
X111944547Y-74780428D02*
X111658833Y-74780428D01*
X111658833Y-74780428D02*
X111515976Y-74709000D01*
X111515976Y-74709000D02*
X111444547Y-74566142D01*
X111444547Y-74566142D02*
X111444547Y-74494714D01*
X111444547Y-74494714D02*
X111515976Y-74351857D01*
X111515976Y-74351857D02*
X111658833Y-74280428D01*
X111658833Y-74280428D02*
X111873119Y-74280428D01*
X111873119Y-74280428D02*
X112015976Y-74209000D01*
X112015976Y-74209000D02*
X112087404Y-74066142D01*
X112087404Y-74066142D02*
X112087404Y-73994714D01*
X112087404Y-73994714D02*
X112015976Y-73851857D01*
X112015976Y-73851857D02*
X111873119Y-73780428D01*
X111873119Y-73780428D02*
X111658833Y-73780428D01*
X111658833Y-73780428D02*
X111515976Y-73851857D01*
X110587404Y-74780428D02*
X110730261Y-74709000D01*
X110730261Y-74709000D02*
X110801690Y-74637571D01*
X110801690Y-74637571D02*
X110873118Y-74494714D01*
X110873118Y-74494714D02*
X110873118Y-74066142D01*
X110873118Y-74066142D02*
X110801690Y-73923285D01*
X110801690Y-73923285D02*
X110730261Y-73851857D01*
X110730261Y-73851857D02*
X110587404Y-73780428D01*
X110587404Y-73780428D02*
X110373118Y-73780428D01*
X110373118Y-73780428D02*
X110230261Y-73851857D01*
X110230261Y-73851857D02*
X110158833Y-73923285D01*
X110158833Y-73923285D02*
X110087404Y-74066142D01*
X110087404Y-74066142D02*
X110087404Y-74494714D01*
X110087404Y-74494714D02*
X110158833Y-74637571D01*
X110158833Y-74637571D02*
X110230261Y-74709000D01*
X110230261Y-74709000D02*
X110373118Y-74780428D01*
X110373118Y-74780428D02*
X110587404Y-74780428D01*
X109444547Y-74780428D02*
X109444547Y-73780428D01*
X109444547Y-74066142D02*
X109373118Y-73923285D01*
X109373118Y-73923285D02*
X109301690Y-73851857D01*
X109301690Y-73851857D02*
X109158832Y-73780428D01*
X109158832Y-73780428D02*
X109015975Y-73780428D01*
D12*
X89341934Y-77360304D02*
X88865744Y-77360304D01*
X89437172Y-77646019D02*
X89103839Y-76646019D01*
X89103839Y-76646019D02*
X88770506Y-77646019D01*
X90040506Y-71613638D02*
X90135744Y-71566019D01*
X90135744Y-71566019D02*
X90278601Y-71566019D01*
X90278601Y-71566019D02*
X90421458Y-71613638D01*
X90421458Y-71613638D02*
X90516696Y-71708876D01*
X90516696Y-71708876D02*
X90564315Y-71804114D01*
X90564315Y-71804114D02*
X90611934Y-71994590D01*
X90611934Y-71994590D02*
X90611934Y-72137447D01*
X90611934Y-72137447D02*
X90564315Y-72327923D01*
X90564315Y-72327923D02*
X90516696Y-72423161D01*
X90516696Y-72423161D02*
X90421458Y-72518400D01*
X90421458Y-72518400D02*
X90278601Y-72566019D01*
X90278601Y-72566019D02*
X90183363Y-72566019D01*
X90183363Y-72566019D02*
X90040506Y-72518400D01*
X90040506Y-72518400D02*
X89992887Y-72470780D01*
X89992887Y-72470780D02*
X89992887Y-72137447D01*
X89992887Y-72137447D02*
X90183363Y-72137447D01*
X89564315Y-72566019D02*
X89564315Y-71566019D01*
X89564315Y-71566019D02*
X88992887Y-72566019D01*
X88992887Y-72566019D02*
X88992887Y-71566019D01*
X88516696Y-72566019D02*
X88516696Y-71566019D01*
X88516696Y-71566019D02*
X88278601Y-71566019D01*
X88278601Y-71566019D02*
X88135744Y-71613638D01*
X88135744Y-71613638D02*
X88040506Y-71708876D01*
X88040506Y-71708876D02*
X87992887Y-71804114D01*
X87992887Y-71804114D02*
X87945268Y-71994590D01*
X87945268Y-71994590D02*
X87945268Y-72137447D01*
X87945268Y-72137447D02*
X87992887Y-72327923D01*
X87992887Y-72327923D02*
X88040506Y-72423161D01*
X88040506Y-72423161D02*
X88135744Y-72518400D01*
X88135744Y-72518400D02*
X88278601Y-72566019D01*
X88278601Y-72566019D02*
X88516696Y-72566019D01*
X34290095Y-107278580D02*
X34290095Y-106469057D01*
X34290095Y-106469057D02*
X34337714Y-106373819D01*
X34337714Y-106373819D02*
X34385333Y-106326200D01*
X34385333Y-106326200D02*
X34480571Y-106278580D01*
X34480571Y-106278580D02*
X34671047Y-106278580D01*
X34671047Y-106278580D02*
X34766285Y-106326200D01*
X34766285Y-106326200D02*
X34813904Y-106373819D01*
X34813904Y-106373819D02*
X34861523Y-106469057D01*
X34861523Y-106469057D02*
X34861523Y-107278580D01*
X35813904Y-107278580D02*
X35337714Y-107278580D01*
X35337714Y-107278580D02*
X35290095Y-106802390D01*
X35290095Y-106802390D02*
X35337714Y-106850009D01*
X35337714Y-106850009D02*
X35432952Y-106897628D01*
X35432952Y-106897628D02*
X35671047Y-106897628D01*
X35671047Y-106897628D02*
X35766285Y-106850009D01*
X35766285Y-106850009D02*
X35813904Y-106802390D01*
X35813904Y-106802390D02*
X35861523Y-106707152D01*
X35861523Y-106707152D02*
X35861523Y-106469057D01*
X35861523Y-106469057D02*
X35813904Y-106373819D01*
X35813904Y-106373819D02*
X35766285Y-106326200D01*
X35766285Y-106326200D02*
X35671047Y-106278580D01*
X35671047Y-106278580D02*
X35432952Y-106278580D01*
X35432952Y-106278580D02*
X35337714Y-106326200D01*
X35337714Y-106326200D02*
X35290095Y-106373819D01*
D15*
X58847203Y-90681643D02*
X58847203Y-91062596D01*
X59075775Y-90605453D02*
X58275775Y-90872120D01*
X58275775Y-90872120D02*
X59075775Y-91138786D01*
X58275775Y-91329262D02*
X58275775Y-91824500D01*
X58275775Y-91824500D02*
X58580537Y-91557834D01*
X58580537Y-91557834D02*
X58580537Y-91672119D01*
X58580537Y-91672119D02*
X58618632Y-91748310D01*
X58618632Y-91748310D02*
X58656727Y-91786405D01*
X58656727Y-91786405D02*
X58732918Y-91824500D01*
X58732918Y-91824500D02*
X58923394Y-91824500D01*
X58923394Y-91824500D02*
X58999584Y-91786405D01*
X58999584Y-91786405D02*
X59037680Y-91748310D01*
X59037680Y-91748310D02*
X59075775Y-91672119D01*
X59075775Y-91672119D02*
X59075775Y-91443548D01*
X59075775Y-91443548D02*
X59037680Y-91367357D01*
X59037680Y-91367357D02*
X58999584Y-91329262D01*
X41257680Y-90681643D02*
X41295775Y-90795929D01*
X41295775Y-90795929D02*
X41295775Y-90986405D01*
X41295775Y-90986405D02*
X41257680Y-91062596D01*
X41257680Y-91062596D02*
X41219584Y-91100691D01*
X41219584Y-91100691D02*
X41143394Y-91138786D01*
X41143394Y-91138786D02*
X41067203Y-91138786D01*
X41067203Y-91138786D02*
X40991013Y-91100691D01*
X40991013Y-91100691D02*
X40952918Y-91062596D01*
X40952918Y-91062596D02*
X40914822Y-90986405D01*
X40914822Y-90986405D02*
X40876727Y-90834024D01*
X40876727Y-90834024D02*
X40838632Y-90757834D01*
X40838632Y-90757834D02*
X40800537Y-90719739D01*
X40800537Y-90719739D02*
X40724346Y-90681643D01*
X40724346Y-90681643D02*
X40648156Y-90681643D01*
X40648156Y-90681643D02*
X40571965Y-90719739D01*
X40571965Y-90719739D02*
X40533870Y-90757834D01*
X40533870Y-90757834D02*
X40495775Y-90834024D01*
X40495775Y-90834024D02*
X40495775Y-91024501D01*
X40495775Y-91024501D02*
X40533870Y-91138786D01*
X41219584Y-91938787D02*
X41257680Y-91900691D01*
X41257680Y-91900691D02*
X41295775Y-91786406D01*
X41295775Y-91786406D02*
X41295775Y-91710215D01*
X41295775Y-91710215D02*
X41257680Y-91595929D01*
X41257680Y-91595929D02*
X41181489Y-91519739D01*
X41181489Y-91519739D02*
X41105299Y-91481644D01*
X41105299Y-91481644D02*
X40952918Y-91443548D01*
X40952918Y-91443548D02*
X40838632Y-91443548D01*
X40838632Y-91443548D02*
X40686251Y-91481644D01*
X40686251Y-91481644D02*
X40610060Y-91519739D01*
X40610060Y-91519739D02*
X40533870Y-91595929D01*
X40533870Y-91595929D02*
X40495775Y-91710215D01*
X40495775Y-91710215D02*
X40495775Y-91786406D01*
X40495775Y-91786406D02*
X40533870Y-91900691D01*
X40533870Y-91900691D02*
X40571965Y-91938787D01*
X41295775Y-92662596D02*
X41295775Y-92281644D01*
X41295775Y-92281644D02*
X40495775Y-92281644D01*
X48433203Y-90681643D02*
X48433203Y-91062596D01*
X48661775Y-90605453D02*
X47861775Y-90872120D01*
X47861775Y-90872120D02*
X48661775Y-91138786D01*
X48661775Y-91786405D02*
X48661775Y-91405453D01*
X48661775Y-91405453D02*
X47861775Y-91405453D01*
X47861775Y-91938786D02*
X47861775Y-92395929D01*
X48661775Y-92167357D02*
X47861775Y-92167357D01*
X56053203Y-90681643D02*
X56053203Y-91062596D01*
X56281775Y-90605453D02*
X55481775Y-90872120D01*
X55481775Y-90872120D02*
X56281775Y-91138786D01*
X55557965Y-91367357D02*
X55519870Y-91405453D01*
X55519870Y-91405453D02*
X55481775Y-91481643D01*
X55481775Y-91481643D02*
X55481775Y-91672119D01*
X55481775Y-91672119D02*
X55519870Y-91748310D01*
X55519870Y-91748310D02*
X55557965Y-91786405D01*
X55557965Y-91786405D02*
X55634156Y-91824500D01*
X55634156Y-91824500D02*
X55710346Y-91824500D01*
X55710346Y-91824500D02*
X55824632Y-91786405D01*
X55824632Y-91786405D02*
X56281775Y-91329262D01*
X56281775Y-91329262D02*
X56281775Y-91824500D01*
X43797680Y-90681643D02*
X43835775Y-90795929D01*
X43835775Y-90795929D02*
X43835775Y-90986405D01*
X43835775Y-90986405D02*
X43797680Y-91062596D01*
X43797680Y-91062596D02*
X43759584Y-91100691D01*
X43759584Y-91100691D02*
X43683394Y-91138786D01*
X43683394Y-91138786D02*
X43607203Y-91138786D01*
X43607203Y-91138786D02*
X43531013Y-91100691D01*
X43531013Y-91100691D02*
X43492918Y-91062596D01*
X43492918Y-91062596D02*
X43454822Y-90986405D01*
X43454822Y-90986405D02*
X43416727Y-90834024D01*
X43416727Y-90834024D02*
X43378632Y-90757834D01*
X43378632Y-90757834D02*
X43340537Y-90719739D01*
X43340537Y-90719739D02*
X43264346Y-90681643D01*
X43264346Y-90681643D02*
X43188156Y-90681643D01*
X43188156Y-90681643D02*
X43111965Y-90719739D01*
X43111965Y-90719739D02*
X43073870Y-90757834D01*
X43073870Y-90757834D02*
X43035775Y-90834024D01*
X43035775Y-90834024D02*
X43035775Y-91024501D01*
X43035775Y-91024501D02*
X43073870Y-91138786D01*
X43835775Y-91481644D02*
X43035775Y-91481644D01*
X43035775Y-91481644D02*
X43035775Y-91672120D01*
X43035775Y-91672120D02*
X43073870Y-91786406D01*
X43073870Y-91786406D02*
X43150060Y-91862596D01*
X43150060Y-91862596D02*
X43226251Y-91900691D01*
X43226251Y-91900691D02*
X43378632Y-91938787D01*
X43378632Y-91938787D02*
X43492918Y-91938787D01*
X43492918Y-91938787D02*
X43645299Y-91900691D01*
X43645299Y-91900691D02*
X43721489Y-91862596D01*
X43721489Y-91862596D02*
X43797680Y-91786406D01*
X43797680Y-91786406D02*
X43835775Y-91672120D01*
X43835775Y-91672120D02*
X43835775Y-91481644D01*
X43607203Y-92243548D02*
X43607203Y-92624501D01*
X43835775Y-92167358D02*
X43035775Y-92434025D01*
X43035775Y-92434025D02*
X43835775Y-92700691D01*
X45893203Y-90681643D02*
X45893203Y-91062596D01*
X46121775Y-90605453D02*
X45321775Y-90872120D01*
X45321775Y-90872120D02*
X46121775Y-91138786D01*
X46121775Y-91405453D02*
X45321775Y-91405453D01*
X45321775Y-91405453D02*
X45321775Y-91595929D01*
X45321775Y-91595929D02*
X45359870Y-91710215D01*
X45359870Y-91710215D02*
X45436060Y-91786405D01*
X45436060Y-91786405D02*
X45512251Y-91824500D01*
X45512251Y-91824500D02*
X45664632Y-91862596D01*
X45664632Y-91862596D02*
X45778918Y-91862596D01*
X45778918Y-91862596D02*
X45931299Y-91824500D01*
X45931299Y-91824500D02*
X46007489Y-91786405D01*
X46007489Y-91786405D02*
X46083680Y-91710215D01*
X46083680Y-91710215D02*
X46121775Y-91595929D01*
X46121775Y-91595929D02*
X46121775Y-91405453D01*
X46121775Y-92662596D02*
X45740822Y-92395929D01*
X46121775Y-92205453D02*
X45321775Y-92205453D01*
X45321775Y-92205453D02*
X45321775Y-92510215D01*
X45321775Y-92510215D02*
X45359870Y-92586405D01*
X45359870Y-92586405D02*
X45397965Y-92624500D01*
X45397965Y-92624500D02*
X45474156Y-92662596D01*
X45474156Y-92662596D02*
X45588441Y-92662596D01*
X45588441Y-92662596D02*
X45664632Y-92624500D01*
X45664632Y-92624500D02*
X45702727Y-92586405D01*
X45702727Y-92586405D02*
X45740822Y-92510215D01*
X45740822Y-92510215D02*
X45740822Y-92205453D01*
X35161775Y-90605453D02*
X35961775Y-90872120D01*
X35961775Y-90872120D02*
X35161775Y-91138786D01*
X35885584Y-91862596D02*
X35923680Y-91824500D01*
X35923680Y-91824500D02*
X35961775Y-91710215D01*
X35961775Y-91710215D02*
X35961775Y-91634024D01*
X35961775Y-91634024D02*
X35923680Y-91519738D01*
X35923680Y-91519738D02*
X35847489Y-91443548D01*
X35847489Y-91443548D02*
X35771299Y-91405453D01*
X35771299Y-91405453D02*
X35618918Y-91367357D01*
X35618918Y-91367357D02*
X35504632Y-91367357D01*
X35504632Y-91367357D02*
X35352251Y-91405453D01*
X35352251Y-91405453D02*
X35276060Y-91443548D01*
X35276060Y-91443548D02*
X35199870Y-91519738D01*
X35199870Y-91519738D02*
X35161775Y-91634024D01*
X35161775Y-91634024D02*
X35161775Y-91710215D01*
X35161775Y-91710215D02*
X35199870Y-91824500D01*
X35199870Y-91824500D02*
X35237965Y-91862596D01*
X35885584Y-92662596D02*
X35923680Y-92624500D01*
X35923680Y-92624500D02*
X35961775Y-92510215D01*
X35961775Y-92510215D02*
X35961775Y-92434024D01*
X35961775Y-92434024D02*
X35923680Y-92319738D01*
X35923680Y-92319738D02*
X35847489Y-92243548D01*
X35847489Y-92243548D02*
X35771299Y-92205453D01*
X35771299Y-92205453D02*
X35618918Y-92167357D01*
X35618918Y-92167357D02*
X35504632Y-92167357D01*
X35504632Y-92167357D02*
X35352251Y-92205453D01*
X35352251Y-92205453D02*
X35276060Y-92243548D01*
X35276060Y-92243548D02*
X35199870Y-92319738D01*
X35199870Y-92319738D02*
X35161775Y-92434024D01*
X35161775Y-92434024D02*
X35161775Y-92510215D01*
X35161775Y-92510215D02*
X35199870Y-92624500D01*
X35199870Y-92624500D02*
X35237965Y-92662596D01*
X50973203Y-90681643D02*
X50973203Y-91062596D01*
X51201775Y-90605453D02*
X50401775Y-90872120D01*
X50401775Y-90872120D02*
X51201775Y-91138786D01*
X50401775Y-91557834D02*
X50401775Y-91634024D01*
X50401775Y-91634024D02*
X50439870Y-91710215D01*
X50439870Y-91710215D02*
X50477965Y-91748310D01*
X50477965Y-91748310D02*
X50554156Y-91786405D01*
X50554156Y-91786405D02*
X50706537Y-91824500D01*
X50706537Y-91824500D02*
X50897013Y-91824500D01*
X50897013Y-91824500D02*
X51049394Y-91786405D01*
X51049394Y-91786405D02*
X51125584Y-91748310D01*
X51125584Y-91748310D02*
X51163680Y-91710215D01*
X51163680Y-91710215D02*
X51201775Y-91634024D01*
X51201775Y-91634024D02*
X51201775Y-91557834D01*
X51201775Y-91557834D02*
X51163680Y-91481643D01*
X51163680Y-91481643D02*
X51125584Y-91443548D01*
X51125584Y-91443548D02*
X51049394Y-91405453D01*
X51049394Y-91405453D02*
X50897013Y-91367357D01*
X50897013Y-91367357D02*
X50706537Y-91367357D01*
X50706537Y-91367357D02*
X50554156Y-91405453D01*
X50554156Y-91405453D02*
X50477965Y-91443548D01*
X50477965Y-91443548D02*
X50439870Y-91481643D01*
X50439870Y-91481643D02*
X50401775Y-91557834D01*
X53513203Y-90681643D02*
X53513203Y-91062596D01*
X53741775Y-90605453D02*
X52941775Y-90872120D01*
X52941775Y-90872120D02*
X53741775Y-91138786D01*
X53741775Y-91824500D02*
X53741775Y-91367357D01*
X53741775Y-91595929D02*
X52941775Y-91595929D01*
X52941775Y-91595929D02*
X53056060Y-91519738D01*
X53056060Y-91519738D02*
X53132251Y-91443548D01*
X53132251Y-91443548D02*
X53170346Y-91367357D01*
D11*
X38144626Y-100013427D02*
X38144626Y-99013427D01*
X37787483Y-100584856D02*
X37430340Y-99513427D01*
X37430340Y-99513427D02*
X38358911Y-99513427D01*
X40930339Y-99156284D02*
X40858911Y-99084856D01*
X40858911Y-99084856D02*
X40644625Y-99013427D01*
X40644625Y-99013427D02*
X40501768Y-99013427D01*
X40501768Y-99013427D02*
X40287482Y-99084856D01*
X40287482Y-99084856D02*
X40144625Y-99227713D01*
X40144625Y-99227713D02*
X40073196Y-99370570D01*
X40073196Y-99370570D02*
X40001768Y-99656284D01*
X40001768Y-99656284D02*
X40001768Y-99870570D01*
X40001768Y-99870570D02*
X40073196Y-100156284D01*
X40073196Y-100156284D02*
X40144625Y-100299141D01*
X40144625Y-100299141D02*
X40287482Y-100441998D01*
X40287482Y-100441998D02*
X40501768Y-100513427D01*
X40501768Y-100513427D02*
X40644625Y-100513427D01*
X40644625Y-100513427D02*
X40858911Y-100441998D01*
X40858911Y-100441998D02*
X40930339Y-100370570D01*
X41573196Y-99013427D02*
X41573196Y-100513427D01*
X42216054Y-99013427D02*
X42216054Y-99799141D01*
X42216054Y-99799141D02*
X42144625Y-99941998D01*
X42144625Y-99941998D02*
X42001768Y-100013427D01*
X42001768Y-100013427D02*
X41787482Y-100013427D01*
X41787482Y-100013427D02*
X41644625Y-99941998D01*
X41644625Y-99941998D02*
X41573196Y-99870570D01*
X43573197Y-99013427D02*
X43573197Y-99799141D01*
X43573197Y-99799141D02*
X43501768Y-99941998D01*
X43501768Y-99941998D02*
X43358911Y-100013427D01*
X43358911Y-100013427D02*
X43073197Y-100013427D01*
X43073197Y-100013427D02*
X42930339Y-99941998D01*
X43573197Y-99084856D02*
X43430339Y-99013427D01*
X43430339Y-99013427D02*
X43073197Y-99013427D01*
X43073197Y-99013427D02*
X42930339Y-99084856D01*
X42930339Y-99084856D02*
X42858911Y-99227713D01*
X42858911Y-99227713D02*
X42858911Y-99370570D01*
X42858911Y-99370570D02*
X42930339Y-99513427D01*
X42930339Y-99513427D02*
X43073197Y-99584856D01*
X43073197Y-99584856D02*
X43430339Y-99584856D01*
X43430339Y-99584856D02*
X43573197Y-99656284D01*
X44287482Y-100013427D02*
X44287482Y-99013427D01*
X44287482Y-99870570D02*
X44358911Y-99941998D01*
X44358911Y-99941998D02*
X44501768Y-100013427D01*
X44501768Y-100013427D02*
X44716054Y-100013427D01*
X44716054Y-100013427D02*
X44858911Y-99941998D01*
X44858911Y-99941998D02*
X44930340Y-99799141D01*
X44930340Y-99799141D02*
X44930340Y-99013427D01*
X45644625Y-100013427D02*
X45644625Y-99013427D01*
X45644625Y-99870570D02*
X45716054Y-99941998D01*
X45716054Y-99941998D02*
X45858911Y-100013427D01*
X45858911Y-100013427D02*
X46073197Y-100013427D01*
X46073197Y-100013427D02*
X46216054Y-99941998D01*
X46216054Y-99941998D02*
X46287483Y-99799141D01*
X46287483Y-99799141D02*
X46287483Y-99013427D01*
X47573197Y-99084856D02*
X47430340Y-99013427D01*
X47430340Y-99013427D02*
X47144626Y-99013427D01*
X47144626Y-99013427D02*
X47001768Y-99084856D01*
X47001768Y-99084856D02*
X46930340Y-99227713D01*
X46930340Y-99227713D02*
X46930340Y-99799141D01*
X46930340Y-99799141D02*
X47001768Y-99941998D01*
X47001768Y-99941998D02*
X47144626Y-100013427D01*
X47144626Y-100013427D02*
X47430340Y-100013427D01*
X47430340Y-100013427D02*
X47573197Y-99941998D01*
X47573197Y-99941998D02*
X47644626Y-99799141D01*
X47644626Y-99799141D02*
X47644626Y-99656284D01*
X47644626Y-99656284D02*
X46930340Y-99513427D01*
X48501768Y-99013427D02*
X48358911Y-99084856D01*
X48358911Y-99084856D02*
X48287482Y-99227713D01*
X48287482Y-99227713D02*
X48287482Y-100513427D01*
X50216053Y-99584856D02*
X51358911Y-99584856D01*
X53144625Y-99441998D02*
X53858911Y-99441998D01*
X53001768Y-99013427D02*
X53501768Y-100513427D01*
X53501768Y-100513427D02*
X54001768Y-99013427D01*
X54501767Y-99013427D02*
X54501767Y-100513427D01*
X54501767Y-100513427D02*
X54858910Y-100513427D01*
X54858910Y-100513427D02*
X55073196Y-100441998D01*
X55073196Y-100441998D02*
X55216053Y-100299141D01*
X55216053Y-100299141D02*
X55287482Y-100156284D01*
X55287482Y-100156284D02*
X55358910Y-99870570D01*
X55358910Y-99870570D02*
X55358910Y-99656284D01*
X55358910Y-99656284D02*
X55287482Y-99370570D01*
X55287482Y-99370570D02*
X55216053Y-99227713D01*
X55216053Y-99227713D02*
X55073196Y-99084856D01*
X55073196Y-99084856D02*
X54858910Y-99013427D01*
X54858910Y-99013427D02*
X54501767Y-99013427D01*
X56858910Y-99156284D02*
X56787482Y-99084856D01*
X56787482Y-99084856D02*
X56573196Y-99013427D01*
X56573196Y-99013427D02*
X56430339Y-99013427D01*
X56430339Y-99013427D02*
X56216053Y-99084856D01*
X56216053Y-99084856D02*
X56073196Y-99227713D01*
X56073196Y-99227713D02*
X56001767Y-99370570D01*
X56001767Y-99370570D02*
X55930339Y-99656284D01*
X55930339Y-99656284D02*
X55930339Y-99870570D01*
X55930339Y-99870570D02*
X56001767Y-100156284D01*
X56001767Y-100156284D02*
X56073196Y-100299141D01*
X56073196Y-100299141D02*
X56216053Y-100441998D01*
X56216053Y-100441998D02*
X56430339Y-100513427D01*
X56430339Y-100513427D02*
X56573196Y-100513427D01*
X56573196Y-100513427D02*
X56787482Y-100441998D01*
X56787482Y-100441998D02*
X56858910Y-100370570D01*
D15*
X37739870Y-91138786D02*
X37701775Y-91062596D01*
X37701775Y-91062596D02*
X37701775Y-90948310D01*
X37701775Y-90948310D02*
X37739870Y-90834024D01*
X37739870Y-90834024D02*
X37816060Y-90757834D01*
X37816060Y-90757834D02*
X37892251Y-90719739D01*
X37892251Y-90719739D02*
X38044632Y-90681643D01*
X38044632Y-90681643D02*
X38158918Y-90681643D01*
X38158918Y-90681643D02*
X38311299Y-90719739D01*
X38311299Y-90719739D02*
X38387489Y-90757834D01*
X38387489Y-90757834D02*
X38463680Y-90834024D01*
X38463680Y-90834024D02*
X38501775Y-90948310D01*
X38501775Y-90948310D02*
X38501775Y-91024501D01*
X38501775Y-91024501D02*
X38463680Y-91138786D01*
X38463680Y-91138786D02*
X38425584Y-91176882D01*
X38425584Y-91176882D02*
X38158918Y-91176882D01*
X38158918Y-91176882D02*
X38158918Y-91024501D01*
X38501775Y-91519739D02*
X37701775Y-91519739D01*
X37701775Y-91519739D02*
X38501775Y-91976882D01*
X38501775Y-91976882D02*
X37701775Y-91976882D01*
X38501775Y-92357834D02*
X37701775Y-92357834D01*
X37701775Y-92357834D02*
X37701775Y-92548310D01*
X37701775Y-92548310D02*
X37739870Y-92662596D01*
X37739870Y-92662596D02*
X37816060Y-92738786D01*
X37816060Y-92738786D02*
X37892251Y-92776881D01*
X37892251Y-92776881D02*
X38044632Y-92814977D01*
X38044632Y-92814977D02*
X38158918Y-92814977D01*
X38158918Y-92814977D02*
X38311299Y-92776881D01*
X38311299Y-92776881D02*
X38387489Y-92738786D01*
X38387489Y-92738786D02*
X38463680Y-92662596D01*
X38463680Y-92662596D02*
X38501775Y-92548310D01*
X38501775Y-92548310D02*
X38501775Y-92357834D01*
D12*
X76361580Y-140588904D02*
X75552057Y-140588904D01*
X75552057Y-140588904D02*
X75456819Y-140541285D01*
X75456819Y-140541285D02*
X75409200Y-140493666D01*
X75409200Y-140493666D02*
X75361580Y-140398428D01*
X75361580Y-140398428D02*
X75361580Y-140207952D01*
X75361580Y-140207952D02*
X75409200Y-140112714D01*
X75409200Y-140112714D02*
X75456819Y-140065095D01*
X75456819Y-140065095D02*
X75552057Y-140017476D01*
X75552057Y-140017476D02*
X76361580Y-140017476D01*
X76028247Y-139112714D02*
X75361580Y-139112714D01*
X76409200Y-139350809D02*
X75694914Y-139588904D01*
X75694914Y-139588904D02*
X75694914Y-138969857D01*
D14*
X60560961Y-138804967D02*
X59760961Y-138538300D01*
X59760961Y-138538300D02*
X60560961Y-138271634D01*
X59760961Y-138004967D02*
X60560961Y-138004967D01*
X60560961Y-138004967D02*
X60560961Y-137814491D01*
X60560961Y-137814491D02*
X60522866Y-137700205D01*
X60522866Y-137700205D02*
X60446676Y-137624015D01*
X60446676Y-137624015D02*
X60370485Y-137585920D01*
X60370485Y-137585920D02*
X60218104Y-137547824D01*
X60218104Y-137547824D02*
X60103818Y-137547824D01*
X60103818Y-137547824D02*
X59951437Y-137585920D01*
X59951437Y-137585920D02*
X59875247Y-137624015D01*
X59875247Y-137624015D02*
X59799057Y-137700205D01*
X59799057Y-137700205D02*
X59760961Y-137814491D01*
X59760961Y-137814491D02*
X59760961Y-138004967D01*
X59760961Y-137204967D02*
X60560961Y-137204967D01*
X60560961Y-137204967D02*
X60560961Y-137014491D01*
X60560961Y-137014491D02*
X60522866Y-136900205D01*
X60522866Y-136900205D02*
X60446676Y-136824015D01*
X60446676Y-136824015D02*
X60370485Y-136785920D01*
X60370485Y-136785920D02*
X60218104Y-136747824D01*
X60218104Y-136747824D02*
X60103818Y-136747824D01*
X60103818Y-136747824D02*
X59951437Y-136785920D01*
X59951437Y-136785920D02*
X59875247Y-136824015D01*
X59875247Y-136824015D02*
X59799057Y-136900205D01*
X59799057Y-136900205D02*
X59760961Y-137014491D01*
X59760961Y-137014491D02*
X59760961Y-137204967D01*
D10*
X68839780Y-139203326D02*
X69839780Y-139203326D01*
X69839780Y-139203326D02*
X69839780Y-138822374D01*
X69839780Y-138822374D02*
X69792161Y-138727136D01*
X69792161Y-138727136D02*
X69744542Y-138679517D01*
X69744542Y-138679517D02*
X69649304Y-138631898D01*
X69649304Y-138631898D02*
X69506447Y-138631898D01*
X69506447Y-138631898D02*
X69411209Y-138679517D01*
X69411209Y-138679517D02*
X69363590Y-138727136D01*
X69363590Y-138727136D02*
X69315971Y-138822374D01*
X69315971Y-138822374D02*
X69315971Y-139203326D01*
X68839780Y-138060469D02*
X68887400Y-138155707D01*
X68887400Y-138155707D02*
X68935019Y-138203326D01*
X68935019Y-138203326D02*
X69030257Y-138250945D01*
X69030257Y-138250945D02*
X69315971Y-138250945D01*
X69315971Y-138250945D02*
X69411209Y-138203326D01*
X69411209Y-138203326D02*
X69458828Y-138155707D01*
X69458828Y-138155707D02*
X69506447Y-138060469D01*
X69506447Y-138060469D02*
X69506447Y-137917612D01*
X69506447Y-137917612D02*
X69458828Y-137822374D01*
X69458828Y-137822374D02*
X69411209Y-137774755D01*
X69411209Y-137774755D02*
X69315971Y-137727136D01*
X69315971Y-137727136D02*
X69030257Y-137727136D01*
X69030257Y-137727136D02*
X68935019Y-137774755D01*
X68935019Y-137774755D02*
X68887400Y-137822374D01*
X68887400Y-137822374D02*
X68839780Y-137917612D01*
X68839780Y-137917612D02*
X68839780Y-138060469D01*
X69506447Y-137393802D02*
X68839780Y-137203326D01*
X68839780Y-137203326D02*
X69315971Y-137012850D01*
X69315971Y-137012850D02*
X68839780Y-136822374D01*
X68839780Y-136822374D02*
X69506447Y-136631898D01*
X68887400Y-135869993D02*
X68839780Y-135965231D01*
X68839780Y-135965231D02*
X68839780Y-136155707D01*
X68839780Y-136155707D02*
X68887400Y-136250945D01*
X68887400Y-136250945D02*
X68982638Y-136298564D01*
X68982638Y-136298564D02*
X69363590Y-136298564D01*
X69363590Y-136298564D02*
X69458828Y-136250945D01*
X69458828Y-136250945D02*
X69506447Y-136155707D01*
X69506447Y-136155707D02*
X69506447Y-135965231D01*
X69506447Y-135965231D02*
X69458828Y-135869993D01*
X69458828Y-135869993D02*
X69363590Y-135822374D01*
X69363590Y-135822374D02*
X69268352Y-135822374D01*
X69268352Y-135822374D02*
X69173114Y-136298564D01*
X68839780Y-135393802D02*
X69506447Y-135393802D01*
X69315971Y-135393802D02*
X69411209Y-135346183D01*
X69411209Y-135346183D02*
X69458828Y-135298564D01*
X69458828Y-135298564D02*
X69506447Y-135203326D01*
X69506447Y-135203326D02*
X69506447Y-135108088D01*
X69839780Y-134155706D02*
X69839780Y-133584278D01*
X68839780Y-133869992D02*
X69839780Y-133869992D01*
X68839780Y-133250944D02*
X69506447Y-133250944D01*
X69839780Y-133250944D02*
X69792161Y-133298563D01*
X69792161Y-133298563D02*
X69744542Y-133250944D01*
X69744542Y-133250944D02*
X69792161Y-133203325D01*
X69792161Y-133203325D02*
X69839780Y-133250944D01*
X69839780Y-133250944D02*
X69744542Y-133250944D01*
X68839780Y-132774754D02*
X69506447Y-132774754D01*
X69411209Y-132774754D02*
X69458828Y-132727135D01*
X69458828Y-132727135D02*
X69506447Y-132631897D01*
X69506447Y-132631897D02*
X69506447Y-132489040D01*
X69506447Y-132489040D02*
X69458828Y-132393802D01*
X69458828Y-132393802D02*
X69363590Y-132346183D01*
X69363590Y-132346183D02*
X68839780Y-132346183D01*
X69363590Y-132346183D02*
X69458828Y-132298564D01*
X69458828Y-132298564D02*
X69506447Y-132203326D01*
X69506447Y-132203326D02*
X69506447Y-132060469D01*
X69506447Y-132060469D02*
X69458828Y-131965230D01*
X69458828Y-131965230D02*
X69363590Y-131917611D01*
X69363590Y-131917611D02*
X68839780Y-131917611D01*
X68887400Y-131060469D02*
X68839780Y-131155707D01*
X68839780Y-131155707D02*
X68839780Y-131346183D01*
X68839780Y-131346183D02*
X68887400Y-131441421D01*
X68887400Y-131441421D02*
X68982638Y-131489040D01*
X68982638Y-131489040D02*
X69363590Y-131489040D01*
X69363590Y-131489040D02*
X69458828Y-131441421D01*
X69458828Y-131441421D02*
X69506447Y-131346183D01*
X69506447Y-131346183D02*
X69506447Y-131155707D01*
X69506447Y-131155707D02*
X69458828Y-131060469D01*
X69458828Y-131060469D02*
X69363590Y-131012850D01*
X69363590Y-131012850D02*
X69268352Y-131012850D01*
X69268352Y-131012850D02*
X69173114Y-131489040D01*
X68839780Y-130584278D02*
X69506447Y-130584278D01*
X69315971Y-130584278D02*
X69411209Y-130536659D01*
X69411209Y-130536659D02*
X69458828Y-130489040D01*
X69458828Y-130489040D02*
X69506447Y-130393802D01*
X69506447Y-130393802D02*
X69506447Y-130298564D01*
X69363590Y-128869992D02*
X69315971Y-128727135D01*
X69315971Y-128727135D02*
X69268352Y-128679516D01*
X69268352Y-128679516D02*
X69173114Y-128631897D01*
X69173114Y-128631897D02*
X69030257Y-128631897D01*
X69030257Y-128631897D02*
X68935019Y-128679516D01*
X68935019Y-128679516D02*
X68887400Y-128727135D01*
X68887400Y-128727135D02*
X68839780Y-128822373D01*
X68839780Y-128822373D02*
X68839780Y-129203325D01*
X68839780Y-129203325D02*
X69839780Y-129203325D01*
X69839780Y-129203325D02*
X69839780Y-128869992D01*
X69839780Y-128869992D02*
X69792161Y-128774754D01*
X69792161Y-128774754D02*
X69744542Y-128727135D01*
X69744542Y-128727135D02*
X69649304Y-128679516D01*
X69649304Y-128679516D02*
X69554066Y-128679516D01*
X69554066Y-128679516D02*
X69458828Y-128727135D01*
X69458828Y-128727135D02*
X69411209Y-128774754D01*
X69411209Y-128774754D02*
X69363590Y-128869992D01*
X69363590Y-128869992D02*
X69363590Y-129203325D01*
X68839780Y-128060468D02*
X68887400Y-128155706D01*
X68887400Y-128155706D02*
X68935019Y-128203325D01*
X68935019Y-128203325D02*
X69030257Y-128250944D01*
X69030257Y-128250944D02*
X69315971Y-128250944D01*
X69315971Y-128250944D02*
X69411209Y-128203325D01*
X69411209Y-128203325D02*
X69458828Y-128155706D01*
X69458828Y-128155706D02*
X69506447Y-128060468D01*
X69506447Y-128060468D02*
X69506447Y-127917611D01*
X69506447Y-127917611D02*
X69458828Y-127822373D01*
X69458828Y-127822373D02*
X69411209Y-127774754D01*
X69411209Y-127774754D02*
X69315971Y-127727135D01*
X69315971Y-127727135D02*
X69030257Y-127727135D01*
X69030257Y-127727135D02*
X68935019Y-127774754D01*
X68935019Y-127774754D02*
X68887400Y-127822373D01*
X68887400Y-127822373D02*
X68839780Y-127917611D01*
X68839780Y-127917611D02*
X68839780Y-128060468D01*
X68839780Y-126869992D02*
X69363590Y-126869992D01*
X69363590Y-126869992D02*
X69458828Y-126917611D01*
X69458828Y-126917611D02*
X69506447Y-127012849D01*
X69506447Y-127012849D02*
X69506447Y-127203325D01*
X69506447Y-127203325D02*
X69458828Y-127298563D01*
X68887400Y-126869992D02*
X68839780Y-126965230D01*
X68839780Y-126965230D02*
X68839780Y-127203325D01*
X68839780Y-127203325D02*
X68887400Y-127298563D01*
X68887400Y-127298563D02*
X68982638Y-127346182D01*
X68982638Y-127346182D02*
X69077876Y-127346182D01*
X69077876Y-127346182D02*
X69173114Y-127298563D01*
X69173114Y-127298563D02*
X69220733Y-127203325D01*
X69220733Y-127203325D02*
X69220733Y-126965230D01*
X69220733Y-126965230D02*
X69268352Y-126869992D01*
X68839780Y-126393801D02*
X69506447Y-126393801D01*
X69315971Y-126393801D02*
X69411209Y-126346182D01*
X69411209Y-126346182D02*
X69458828Y-126298563D01*
X69458828Y-126298563D02*
X69506447Y-126203325D01*
X69506447Y-126203325D02*
X69506447Y-126108087D01*
X68839780Y-125346182D02*
X69839780Y-125346182D01*
X68887400Y-125346182D02*
X68839780Y-125441420D01*
X68839780Y-125441420D02*
X68839780Y-125631896D01*
X68839780Y-125631896D02*
X68887400Y-125727134D01*
X68887400Y-125727134D02*
X68935019Y-125774753D01*
X68935019Y-125774753D02*
X69030257Y-125822372D01*
X69030257Y-125822372D02*
X69315971Y-125822372D01*
X69315971Y-125822372D02*
X69411209Y-125774753D01*
X69411209Y-125774753D02*
X69458828Y-125727134D01*
X69458828Y-125727134D02*
X69506447Y-125631896D01*
X69506447Y-125631896D02*
X69506447Y-125441420D01*
X69506447Y-125441420D02*
X69458828Y-125346182D01*
D14*
X57152970Y-135839915D02*
X57191065Y-135916105D01*
X57191065Y-135916105D02*
X57191065Y-136030391D01*
X57191065Y-136030391D02*
X57152970Y-136144677D01*
X57152970Y-136144677D02*
X57076780Y-136220867D01*
X57076780Y-136220867D02*
X57000589Y-136258962D01*
X57000589Y-136258962D02*
X56848208Y-136297058D01*
X56848208Y-136297058D02*
X56733922Y-136297058D01*
X56733922Y-136297058D02*
X56581541Y-136258962D01*
X56581541Y-136258962D02*
X56505351Y-136220867D01*
X56505351Y-136220867D02*
X56429161Y-136144677D01*
X56429161Y-136144677D02*
X56391065Y-136030391D01*
X56391065Y-136030391D02*
X56391065Y-135954200D01*
X56391065Y-135954200D02*
X56429161Y-135839915D01*
X56429161Y-135839915D02*
X56467256Y-135801819D01*
X56467256Y-135801819D02*
X56733922Y-135801819D01*
X56733922Y-135801819D02*
X56733922Y-135954200D01*
X56391065Y-135458962D02*
X57191065Y-135458962D01*
X57191065Y-135458962D02*
X56391065Y-135001819D01*
X56391065Y-135001819D02*
X57191065Y-135001819D01*
X56391065Y-134620867D02*
X57191065Y-134620867D01*
X57191065Y-134620867D02*
X57191065Y-134430391D01*
X57191065Y-134430391D02*
X57152970Y-134316105D01*
X57152970Y-134316105D02*
X57076780Y-134239915D01*
X57076780Y-134239915D02*
X57000589Y-134201820D01*
X57000589Y-134201820D02*
X56848208Y-134163724D01*
X56848208Y-134163724D02*
X56733922Y-134163724D01*
X56733922Y-134163724D02*
X56581541Y-134201820D01*
X56581541Y-134201820D02*
X56505351Y-134239915D01*
X56505351Y-134239915D02*
X56429161Y-134316105D01*
X56429161Y-134316105D02*
X56391065Y-134430391D01*
X56391065Y-134430391D02*
X56391065Y-134620867D01*
X59922704Y-133441839D02*
X60722704Y-133441839D01*
X60722704Y-133441839D02*
X60722704Y-133251363D01*
X60722704Y-133251363D02*
X60684609Y-133137077D01*
X60684609Y-133137077D02*
X60608419Y-133060887D01*
X60608419Y-133060887D02*
X60532228Y-133022792D01*
X60532228Y-133022792D02*
X60379847Y-132984696D01*
X60379847Y-132984696D02*
X60265561Y-132984696D01*
X60265561Y-132984696D02*
X60113180Y-133022792D01*
X60113180Y-133022792D02*
X60036990Y-133060887D01*
X60036990Y-133060887D02*
X59960800Y-133137077D01*
X59960800Y-133137077D02*
X59922704Y-133251363D01*
X59922704Y-133251363D02*
X59922704Y-133441839D01*
X59922704Y-132260887D02*
X59922704Y-132641839D01*
X59922704Y-132641839D02*
X60722704Y-132641839D01*
X60303657Y-131841839D02*
X59922704Y-131841839D01*
X60722704Y-132108506D02*
X60303657Y-131841839D01*
X60303657Y-131841839D02*
X60722704Y-131575173D01*
X59922704Y-128361839D02*
X60722704Y-128361839D01*
X60722704Y-128361839D02*
X60722704Y-128171363D01*
X60722704Y-128171363D02*
X60684609Y-128057077D01*
X60684609Y-128057077D02*
X60608419Y-127980887D01*
X60608419Y-127980887D02*
X60532228Y-127942792D01*
X60532228Y-127942792D02*
X60379847Y-127904696D01*
X60379847Y-127904696D02*
X60265561Y-127904696D01*
X60265561Y-127904696D02*
X60113180Y-127942792D01*
X60113180Y-127942792D02*
X60036990Y-127980887D01*
X60036990Y-127980887D02*
X59960800Y-128057077D01*
X59960800Y-128057077D02*
X59922704Y-128171363D01*
X59922704Y-128171363D02*
X59922704Y-128361839D01*
X60722704Y-127409458D02*
X60722704Y-127257077D01*
X60722704Y-127257077D02*
X60684609Y-127180887D01*
X60684609Y-127180887D02*
X60608419Y-127104696D01*
X60608419Y-127104696D02*
X60456038Y-127066601D01*
X60456038Y-127066601D02*
X60189371Y-127066601D01*
X60189371Y-127066601D02*
X60036990Y-127104696D01*
X60036990Y-127104696D02*
X59960800Y-127180887D01*
X59960800Y-127180887D02*
X59922704Y-127257077D01*
X59922704Y-127257077D02*
X59922704Y-127409458D01*
X59922704Y-127409458D02*
X59960800Y-127485649D01*
X59960800Y-127485649D02*
X60036990Y-127561839D01*
X60036990Y-127561839D02*
X60189371Y-127599935D01*
X60189371Y-127599935D02*
X60456038Y-127599935D01*
X60456038Y-127599935D02*
X60608419Y-127561839D01*
X60608419Y-127561839D02*
X60684609Y-127485649D01*
X60684609Y-127485649D02*
X60722704Y-127409458D01*
X59922704Y-126723744D02*
X60722704Y-126723744D01*
X60722704Y-126723744D02*
X59922704Y-126266601D01*
X59922704Y-126266601D02*
X60722704Y-126266601D01*
X60341752Y-125885649D02*
X60341752Y-125618983D01*
X59922704Y-125504697D02*
X59922704Y-125885649D01*
X59922704Y-125885649D02*
X60722704Y-125885649D01*
X60722704Y-125885649D02*
X60722704Y-125504697D01*
X56366704Y-130901839D02*
X57166704Y-130901839D01*
X57166704Y-130901839D02*
X57166704Y-130711363D01*
X57166704Y-130711363D02*
X57128609Y-130597077D01*
X57128609Y-130597077D02*
X57052419Y-130520887D01*
X57052419Y-130520887D02*
X56976228Y-130482792D01*
X56976228Y-130482792D02*
X56823847Y-130444696D01*
X56823847Y-130444696D02*
X56709561Y-130444696D01*
X56709561Y-130444696D02*
X56557180Y-130482792D01*
X56557180Y-130482792D02*
X56480990Y-130520887D01*
X56480990Y-130520887D02*
X56404800Y-130597077D01*
X56404800Y-130597077D02*
X56366704Y-130711363D01*
X56366704Y-130711363D02*
X56366704Y-130901839D01*
X56366704Y-129644696D02*
X56747657Y-129911363D01*
X56366704Y-130101839D02*
X57166704Y-130101839D01*
X57166704Y-130101839D02*
X57166704Y-129797077D01*
X57166704Y-129797077D02*
X57128609Y-129720887D01*
X57128609Y-129720887D02*
X57090514Y-129682792D01*
X57090514Y-129682792D02*
X57014323Y-129644696D01*
X57014323Y-129644696D02*
X56900038Y-129644696D01*
X56900038Y-129644696D02*
X56823847Y-129682792D01*
X56823847Y-129682792D02*
X56785752Y-129720887D01*
X56785752Y-129720887D02*
X56747657Y-129797077D01*
X56747657Y-129797077D02*
X56747657Y-130101839D01*
X57166704Y-129416125D02*
X56366704Y-129149458D01*
X56366704Y-129149458D02*
X57166704Y-128882792D01*
X33744819Y-117348095D02*
X34554342Y-117348095D01*
X34554342Y-117348095D02*
X34649580Y-117395714D01*
X34649580Y-117395714D02*
X34697200Y-117443333D01*
X34697200Y-117443333D02*
X34744819Y-117538571D01*
X34744819Y-117538571D02*
X34744819Y-117729047D01*
X34744819Y-117729047D02*
X34697200Y-117824285D01*
X34697200Y-117824285D02*
X34649580Y-117871904D01*
X34649580Y-117871904D02*
X34554342Y-117919523D01*
X34554342Y-117919523D02*
X33744819Y-117919523D01*
X33744819Y-118300476D02*
X33744819Y-118919523D01*
X33744819Y-118919523D02*
X34125771Y-118586190D01*
X34125771Y-118586190D02*
X34125771Y-118729047D01*
X34125771Y-118729047D02*
X34173390Y-118824285D01*
X34173390Y-118824285D02*
X34221009Y-118871904D01*
X34221009Y-118871904D02*
X34316247Y-118919523D01*
X34316247Y-118919523D02*
X34554342Y-118919523D01*
X34554342Y-118919523D02*
X34649580Y-118871904D01*
X34649580Y-118871904D02*
X34697200Y-118824285D01*
X34697200Y-118824285D02*
X34744819Y-118729047D01*
X34744819Y-118729047D02*
X34744819Y-118443333D01*
X34744819Y-118443333D02*
X34697200Y-118348095D01*
X34697200Y-118348095D02*
X34649580Y-118300476D01*
D11*
X34654400Y-124181082D02*
X34725828Y-124395368D01*
X34725828Y-124395368D02*
X34725828Y-124752510D01*
X34725828Y-124752510D02*
X34654400Y-124895368D01*
X34654400Y-124895368D02*
X34582971Y-124966796D01*
X34582971Y-124966796D02*
X34440114Y-125038225D01*
X34440114Y-125038225D02*
X34297257Y-125038225D01*
X34297257Y-125038225D02*
X34154400Y-124966796D01*
X34154400Y-124966796D02*
X34082971Y-124895368D01*
X34082971Y-124895368D02*
X34011542Y-124752510D01*
X34011542Y-124752510D02*
X33940114Y-124466796D01*
X33940114Y-124466796D02*
X33868685Y-124323939D01*
X33868685Y-124323939D02*
X33797257Y-124252510D01*
X33797257Y-124252510D02*
X33654400Y-124181082D01*
X33654400Y-124181082D02*
X33511542Y-124181082D01*
X33511542Y-124181082D02*
X33368685Y-124252510D01*
X33368685Y-124252510D02*
X33297257Y-124323939D01*
X33297257Y-124323939D02*
X33225828Y-124466796D01*
X33225828Y-124466796D02*
X33225828Y-124823939D01*
X33225828Y-124823939D02*
X33297257Y-125038225D01*
X34725828Y-125681081D02*
X33225828Y-125681081D01*
X34725828Y-126395367D02*
X33225828Y-126395367D01*
X33225828Y-126395367D02*
X34297257Y-126895367D01*
X34297257Y-126895367D02*
X33225828Y-127395367D01*
X33225828Y-127395367D02*
X34725828Y-127395367D01*
X33868685Y-128323939D02*
X33797257Y-128181082D01*
X33797257Y-128181082D02*
X33725828Y-128109653D01*
X33725828Y-128109653D02*
X33582971Y-128038225D01*
X33582971Y-128038225D02*
X33511542Y-128038225D01*
X33511542Y-128038225D02*
X33368685Y-128109653D01*
X33368685Y-128109653D02*
X33297257Y-128181082D01*
X33297257Y-128181082D02*
X33225828Y-128323939D01*
X33225828Y-128323939D02*
X33225828Y-128609653D01*
X33225828Y-128609653D02*
X33297257Y-128752511D01*
X33297257Y-128752511D02*
X33368685Y-128823939D01*
X33368685Y-128823939D02*
X33511542Y-128895368D01*
X33511542Y-128895368D02*
X33582971Y-128895368D01*
X33582971Y-128895368D02*
X33725828Y-128823939D01*
X33725828Y-128823939D02*
X33797257Y-128752511D01*
X33797257Y-128752511D02*
X33868685Y-128609653D01*
X33868685Y-128609653D02*
X33868685Y-128323939D01*
X33868685Y-128323939D02*
X33940114Y-128181082D01*
X33940114Y-128181082D02*
X34011542Y-128109653D01*
X34011542Y-128109653D02*
X34154400Y-128038225D01*
X34154400Y-128038225D02*
X34440114Y-128038225D01*
X34440114Y-128038225D02*
X34582971Y-128109653D01*
X34582971Y-128109653D02*
X34654400Y-128181082D01*
X34654400Y-128181082D02*
X34725828Y-128323939D01*
X34725828Y-128323939D02*
X34725828Y-128609653D01*
X34725828Y-128609653D02*
X34654400Y-128752511D01*
X34654400Y-128752511D02*
X34582971Y-128823939D01*
X34582971Y-128823939D02*
X34440114Y-128895368D01*
X34440114Y-128895368D02*
X34154400Y-128895368D01*
X34154400Y-128895368D02*
X34011542Y-128823939D01*
X34011542Y-128823939D02*
X33940114Y-128752511D01*
X33940114Y-128752511D02*
X33868685Y-128609653D01*
X33225828Y-129823939D02*
X33225828Y-129966796D01*
X33225828Y-129966796D02*
X33297257Y-130109653D01*
X33297257Y-130109653D02*
X33368685Y-130181082D01*
X33368685Y-130181082D02*
X33511542Y-130252510D01*
X33511542Y-130252510D02*
X33797257Y-130323939D01*
X33797257Y-130323939D02*
X34154400Y-130323939D01*
X34154400Y-130323939D02*
X34440114Y-130252510D01*
X34440114Y-130252510D02*
X34582971Y-130181082D01*
X34582971Y-130181082D02*
X34654400Y-130109653D01*
X34654400Y-130109653D02*
X34725828Y-129966796D01*
X34725828Y-129966796D02*
X34725828Y-129823939D01*
X34725828Y-129823939D02*
X34654400Y-129681082D01*
X34654400Y-129681082D02*
X34582971Y-129609653D01*
X34582971Y-129609653D02*
X34440114Y-129538224D01*
X34440114Y-129538224D02*
X34154400Y-129466796D01*
X34154400Y-129466796D02*
X33797257Y-129466796D01*
X33797257Y-129466796D02*
X33511542Y-129538224D01*
X33511542Y-129538224D02*
X33368685Y-129609653D01*
X33368685Y-129609653D02*
X33297257Y-129681082D01*
X33297257Y-129681082D02*
X33225828Y-129823939D01*
X33225828Y-131252510D02*
X33225828Y-131395367D01*
X33225828Y-131395367D02*
X33297257Y-131538224D01*
X33297257Y-131538224D02*
X33368685Y-131609653D01*
X33368685Y-131609653D02*
X33511542Y-131681081D01*
X33511542Y-131681081D02*
X33797257Y-131752510D01*
X33797257Y-131752510D02*
X34154400Y-131752510D01*
X34154400Y-131752510D02*
X34440114Y-131681081D01*
X34440114Y-131681081D02*
X34582971Y-131609653D01*
X34582971Y-131609653D02*
X34654400Y-131538224D01*
X34654400Y-131538224D02*
X34725828Y-131395367D01*
X34725828Y-131395367D02*
X34725828Y-131252510D01*
X34725828Y-131252510D02*
X34654400Y-131109653D01*
X34654400Y-131109653D02*
X34582971Y-131038224D01*
X34582971Y-131038224D02*
X34440114Y-130966795D01*
X34440114Y-130966795D02*
X34154400Y-130895367D01*
X34154400Y-130895367D02*
X33797257Y-130895367D01*
X33797257Y-130895367D02*
X33511542Y-130966795D01*
X33511542Y-130966795D02*
X33368685Y-131038224D01*
X33368685Y-131038224D02*
X33297257Y-131109653D01*
X33297257Y-131109653D02*
X33225828Y-131252510D01*
X34725828Y-133109652D02*
X34725828Y-132395366D01*
X34725828Y-132395366D02*
X33225828Y-132395366D01*
X34154400Y-133609652D02*
X34154400Y-134752510D01*
X33297257Y-136252510D02*
X33225828Y-136109653D01*
X33225828Y-136109653D02*
X33225828Y-135895367D01*
X33225828Y-135895367D02*
X33297257Y-135681081D01*
X33297257Y-135681081D02*
X33440114Y-135538224D01*
X33440114Y-135538224D02*
X33582971Y-135466795D01*
X33582971Y-135466795D02*
X33868685Y-135395367D01*
X33868685Y-135395367D02*
X34082971Y-135395367D01*
X34082971Y-135395367D02*
X34368685Y-135466795D01*
X34368685Y-135466795D02*
X34511542Y-135538224D01*
X34511542Y-135538224D02*
X34654400Y-135681081D01*
X34654400Y-135681081D02*
X34725828Y-135895367D01*
X34725828Y-135895367D02*
X34725828Y-136038224D01*
X34725828Y-136038224D02*
X34654400Y-136252510D01*
X34654400Y-136252510D02*
X34582971Y-136323938D01*
X34582971Y-136323938D02*
X34082971Y-136323938D01*
X34082971Y-136323938D02*
X34082971Y-136038224D01*
X34654400Y-136895367D02*
X34725828Y-137109653D01*
X34725828Y-137109653D02*
X34725828Y-137466795D01*
X34725828Y-137466795D02*
X34654400Y-137609653D01*
X34654400Y-137609653D02*
X34582971Y-137681081D01*
X34582971Y-137681081D02*
X34440114Y-137752510D01*
X34440114Y-137752510D02*
X34297257Y-137752510D01*
X34297257Y-137752510D02*
X34154400Y-137681081D01*
X34154400Y-137681081D02*
X34082971Y-137609653D01*
X34082971Y-137609653D02*
X34011542Y-137466795D01*
X34011542Y-137466795D02*
X33940114Y-137181081D01*
X33940114Y-137181081D02*
X33868685Y-137038224D01*
X33868685Y-137038224D02*
X33797257Y-136966795D01*
X33797257Y-136966795D02*
X33654400Y-136895367D01*
X33654400Y-136895367D02*
X33511542Y-136895367D01*
X33511542Y-136895367D02*
X33368685Y-136966795D01*
X33368685Y-136966795D02*
X33297257Y-137038224D01*
X33297257Y-137038224D02*
X33225828Y-137181081D01*
X33225828Y-137181081D02*
X33225828Y-137538224D01*
X33225828Y-137538224D02*
X33297257Y-137752510D01*
X34725828Y-138395366D02*
X33225828Y-138395366D01*
X33225828Y-138395366D02*
X34297257Y-138895366D01*
X34297257Y-138895366D02*
X33225828Y-139395366D01*
X33225828Y-139395366D02*
X34725828Y-139395366D01*
D16*
%TO.C,U12*%
X128605000Y-93960000D02*
X128605000Y-104080000D01*
X128605000Y-104080000D02*
X122635000Y-104080000D01*
X127845000Y-94720000D02*
X127845000Y-99020000D01*
X127845000Y-103320000D02*
X127845000Y-99020000D01*
X124895000Y-93970000D02*
X124895000Y-94720000D01*
X124895000Y-94720000D02*
X127845000Y-94720000D01*
X124895000Y-103320000D02*
X127845000Y-103320000D01*
X124895000Y-104070000D02*
X124895000Y-103320000D01*
X123395000Y-93970000D02*
X123395000Y-95770000D01*
X123395000Y-95770000D02*
X122645000Y-95770000D01*
X123395000Y-97270000D02*
X123395000Y-100770000D01*
X123395000Y-100770000D02*
X122645000Y-100770000D01*
X123395000Y-102270000D02*
X123395000Y-104070000D01*
X123395000Y-104070000D02*
X122645000Y-104070000D01*
X122645000Y-93970000D02*
X123395000Y-93970000D01*
X122645000Y-95770000D02*
X122645000Y-93970000D01*
X122645000Y-97270000D02*
X123395000Y-97270000D01*
X122645000Y-100770000D02*
X122645000Y-97270000D01*
X122645000Y-102270000D02*
X123395000Y-102270000D01*
X122645000Y-104070000D02*
X122645000Y-102270000D01*
X122635000Y-93960000D02*
X128605000Y-93960000D01*
X122635000Y-104080000D02*
X122635000Y-93960000D01*
X122345000Y-93670000D02*
X123595000Y-93670000D01*
X122345000Y-94920000D02*
X122345000Y-93670000D01*
D12*
X168543000Y-89050000D02*
X138543000Y-89050000D01*
X138543000Y-109050000D01*
X168543000Y-109050000D01*
X168543000Y-89050000D01*
X166497000Y-92573000D02*
X161163000Y-92573000D01*
X161163000Y-105527000D01*
X166497000Y-105527000D01*
X166497000Y-92573000D01*
X143383000Y-95240000D02*
X139827000Y-95240000D01*
X139827000Y-103114000D01*
X143383000Y-103114000D01*
X143383000Y-95240000D01*
X132293736Y-93670000D02*
X132273736Y-93670000D01*
X131873736Y-93670000D02*
X131853736Y-93670000D01*
X131453736Y-93670000D02*
X131433736Y-93670000D01*
X131033736Y-93670000D02*
X131013736Y-93670000D01*
X130613736Y-93670000D02*
X130593736Y-93670000D01*
X130193736Y-93670000D02*
X130173736Y-93670000D01*
X129773736Y-93670000D02*
X129753736Y-93670000D01*
X129353736Y-93670000D02*
X129333736Y-93670000D01*
X128933736Y-93670000D02*
X128913736Y-93670000D01*
X128513736Y-93670000D02*
X128493736Y-93670000D01*
X128093736Y-93670000D02*
X128073736Y-93670000D01*
X127673736Y-93670000D02*
X127653736Y-93670000D01*
X127253736Y-93670000D02*
X127233736Y-93670000D01*
X126833736Y-93670000D02*
X126813736Y-93670000D01*
X126413736Y-93670000D02*
X126393736Y-93670000D01*
X125993736Y-93670000D02*
X125973736Y-93670000D01*
X125573736Y-93670000D02*
X125553736Y-93670000D01*
X125153736Y-93670000D02*
X125133736Y-93670000D01*
X124733736Y-93670000D02*
X124713736Y-93670000D01*
X124313736Y-93670000D02*
X124293736Y-93670000D01*
X123893736Y-93670000D02*
X123873736Y-93670000D01*
X123473736Y-93670000D02*
X123453736Y-93670000D01*
X123053736Y-93670000D02*
X123033736Y-93670000D01*
X122633736Y-93670000D02*
X122613736Y-93670000D01*
X122265000Y-93670000D02*
X122265000Y-93690000D01*
X122265000Y-94090000D02*
X122265000Y-94110000D01*
X122265000Y-94510000D02*
X122265000Y-94530000D01*
X122265000Y-94930000D02*
X122265000Y-94950000D01*
X122265000Y-95350000D02*
X122265000Y-95370000D01*
X122265000Y-95770000D02*
X122265000Y-95790000D01*
X122265000Y-96190000D02*
X122265000Y-96210000D01*
X122265000Y-96610000D02*
X122265000Y-96630000D01*
X122265000Y-97030000D02*
X122265000Y-97050000D01*
X122265000Y-97450000D02*
X122265000Y-97470000D01*
X122265000Y-97870000D02*
X122265000Y-97890000D01*
X122265000Y-98290000D02*
X122265000Y-98310000D01*
X122265000Y-98710000D02*
X122265000Y-98730000D01*
X122265000Y-99130000D02*
X122265000Y-99150000D01*
X122265000Y-99550000D02*
X122265000Y-99570000D01*
X122265000Y-99970000D02*
X122265000Y-99990000D01*
X122265000Y-100390000D02*
X122265000Y-100410000D01*
X122265000Y-100810000D02*
X122265000Y-100830000D01*
X122265000Y-101230000D02*
X122265000Y-101250000D01*
X122265000Y-101650000D02*
X122265000Y-101670000D01*
X122265000Y-102070000D02*
X122265000Y-102090000D01*
X122265000Y-102490000D02*
X122265000Y-102510000D01*
X122265000Y-102910000D02*
X122265000Y-102930000D01*
X122265000Y-103330000D02*
X122265000Y-103350000D01*
X122265000Y-103750000D02*
X122265000Y-103770000D01*
X122265000Y-104170000D02*
X122265000Y-104190000D01*
X122265000Y-104382000D02*
X122285000Y-104382000D01*
X122685000Y-104382000D02*
X122705000Y-104382000D01*
X123105000Y-104382000D02*
X123125000Y-104382000D01*
X123525000Y-104382000D02*
X123545000Y-104382000D01*
X123945000Y-104382000D02*
X123965000Y-104382000D01*
X124365000Y-104382000D02*
X124385000Y-104382000D01*
X124785000Y-104382000D02*
X124805000Y-104382000D01*
X125205000Y-104382000D02*
X125225000Y-104382000D01*
X125625000Y-104382000D02*
X125645000Y-104382000D01*
X126045000Y-104382000D02*
X126065000Y-104382000D01*
X126465000Y-104382000D02*
X126485000Y-104382000D01*
X126885000Y-104382000D02*
X126905000Y-104382000D01*
X127305000Y-104382000D02*
X127325000Y-104382000D01*
X127725000Y-104382000D02*
X127745000Y-104382000D01*
X128145000Y-104382000D02*
X128165000Y-104382000D01*
X128565000Y-104382000D02*
X128585000Y-104382000D01*
X128985000Y-104382000D02*
X129005000Y-104382000D01*
X129405000Y-104382000D02*
X129425000Y-104382000D01*
X129825000Y-104382000D02*
X129845000Y-104382000D01*
X130245000Y-104382000D02*
X130265000Y-104382000D01*
X130665000Y-104382000D02*
X130685000Y-104382000D01*
X131085000Y-104382000D02*
X131105000Y-104382000D01*
X131505000Y-104382000D02*
X131525000Y-104382000D01*
X131925000Y-104382000D02*
X131945000Y-104382000D01*
X132293736Y-104382000D02*
X132293736Y-104362000D01*
X132293736Y-103962000D02*
X132293736Y-103942000D01*
X132293736Y-103542000D02*
X132293736Y-103522000D01*
X132293736Y-103122000D02*
X132293736Y-103102000D01*
X132293736Y-102702000D02*
X132293736Y-102682000D01*
X132293736Y-102282000D02*
X132293736Y-102262000D01*
X132293736Y-101862000D02*
X132293736Y-101842000D01*
X132293736Y-101442000D02*
X132293736Y-101422000D01*
X132293736Y-101022000D02*
X132293736Y-101002000D01*
X132293736Y-100602000D02*
X132293736Y-100582000D01*
X132293736Y-100182000D02*
X132293736Y-100162000D01*
X132293736Y-99762000D02*
X132293736Y-99742000D01*
X132293736Y-99342000D02*
X132293736Y-99322000D01*
X132293736Y-98922000D02*
X132293736Y-98902000D01*
X132293736Y-98502000D02*
X132293736Y-98482000D01*
X132293736Y-98082000D02*
X132293736Y-98062000D01*
X132293736Y-97662000D02*
X132293736Y-97642000D01*
X132293736Y-97242000D02*
X132293736Y-97222000D01*
X132293736Y-96822000D02*
X132293736Y-96802000D01*
X132293736Y-96402000D02*
X132293736Y-96382000D01*
X132293736Y-95982000D02*
X132293736Y-95962000D01*
X132293736Y-95562000D02*
X132293736Y-95542000D01*
X132293736Y-95142000D02*
X132293736Y-95122000D01*
X132293736Y-94722000D02*
X132293736Y-94702000D01*
X132293736Y-94302000D02*
X132293736Y-94282000D01*
X132293736Y-93882000D02*
X132293736Y-93862000D01*
D16*
%TO.C,U10*%
X86939800Y-119581600D02*
X86939800Y-129701600D01*
X86939800Y-129701600D02*
X80969800Y-129701600D01*
X86179800Y-120341600D02*
X86179800Y-124641600D01*
X86179800Y-128941600D02*
X86179800Y-124641600D01*
X83229800Y-119591600D02*
X83229800Y-120341600D01*
X83229800Y-120341600D02*
X86179800Y-120341600D01*
X83229800Y-128941600D02*
X86179800Y-128941600D01*
X83229800Y-129691600D02*
X83229800Y-128941600D01*
X81729800Y-119591600D02*
X81729800Y-121391600D01*
X81729800Y-121391600D02*
X80979800Y-121391600D01*
X81729800Y-122891600D02*
X81729800Y-126391600D01*
X81729800Y-126391600D02*
X80979800Y-126391600D01*
X81729800Y-127891600D02*
X81729800Y-129691600D01*
X81729800Y-129691600D02*
X80979800Y-129691600D01*
X80979800Y-119591600D02*
X81729800Y-119591600D01*
X80979800Y-121391600D02*
X80979800Y-119591600D01*
X80979800Y-122891600D02*
X81729800Y-122891600D01*
X80979800Y-126391600D02*
X80979800Y-122891600D01*
X80979800Y-127891600D02*
X81729800Y-127891600D01*
X80979800Y-129691600D02*
X80979800Y-127891600D01*
X80969800Y-119581600D02*
X86939800Y-119581600D01*
X80969800Y-129701600D02*
X80969800Y-119581600D01*
X80679800Y-119291600D02*
X81929800Y-119291600D01*
X80679800Y-120541600D02*
X80679800Y-119291600D01*
D12*
X137529800Y-108671600D02*
X95529800Y-108671600D01*
X95529800Y-140671600D01*
X137529800Y-140671600D01*
X137529800Y-108671600D01*
X134055800Y-122129600D02*
X131515800Y-122129600D01*
X131515800Y-127209600D01*
X134055800Y-127209600D01*
X134055800Y-122129600D01*
X101035800Y-122129600D02*
X98495800Y-122129600D01*
X98495800Y-127209600D01*
X101035800Y-127209600D01*
X101035800Y-122129600D01*
X95280536Y-119291600D02*
X95260536Y-119291600D01*
X94860536Y-119291600D02*
X94840536Y-119291600D01*
X94440536Y-119291600D02*
X94420536Y-119291600D01*
X94020536Y-119291600D02*
X94000536Y-119291600D01*
X93600536Y-119291600D02*
X93580536Y-119291600D01*
X93180536Y-119291600D02*
X93160536Y-119291600D01*
X92760536Y-119291600D02*
X92740536Y-119291600D01*
X92340536Y-119291600D02*
X92320536Y-119291600D01*
X91920536Y-119291600D02*
X91900536Y-119291600D01*
X91500536Y-119291600D02*
X91480536Y-119291600D01*
X91080536Y-119291600D02*
X91060536Y-119291600D01*
X90660536Y-119291600D02*
X90640536Y-119291600D01*
X90240536Y-119291600D02*
X90220536Y-119291600D01*
X89820536Y-119291600D02*
X89800536Y-119291600D01*
X89400536Y-119291600D02*
X89380536Y-119291600D01*
X88980536Y-119291600D02*
X88960536Y-119291600D01*
X88560536Y-119291600D02*
X88540536Y-119291600D01*
X88140536Y-119291600D02*
X88120536Y-119291600D01*
X87720536Y-119291600D02*
X87700536Y-119291600D01*
X87300536Y-119291600D02*
X87280536Y-119291600D01*
X86880536Y-119291600D02*
X86860536Y-119291600D01*
X86460536Y-119291600D02*
X86440536Y-119291600D01*
X86040536Y-119291600D02*
X86020536Y-119291600D01*
X85620536Y-119291600D02*
X85600536Y-119291600D01*
X85200536Y-119291600D02*
X85180536Y-119291600D01*
X84780536Y-119291600D02*
X84760536Y-119291600D01*
X84360536Y-119291600D02*
X84340536Y-119291600D01*
X83940536Y-119291600D02*
X83920536Y-119291600D01*
X83520536Y-119291600D02*
X83500536Y-119291600D01*
X83100536Y-119291600D02*
X83080536Y-119291600D01*
X82680536Y-119291600D02*
X82660536Y-119291600D01*
X82260536Y-119291600D02*
X82240536Y-119291600D01*
X81840536Y-119291600D02*
X81820536Y-119291600D01*
X81420536Y-119291600D02*
X81400536Y-119291600D01*
X81000536Y-119291600D02*
X80980536Y-119291600D01*
X80679800Y-119291600D02*
X80679800Y-119311600D01*
X80679800Y-119711600D02*
X80679800Y-119731600D01*
X80679800Y-120131600D02*
X80679800Y-120151600D01*
X80679800Y-120551600D02*
X80679800Y-120571600D01*
X80679800Y-120971600D02*
X80679800Y-120991600D01*
X80679800Y-121391600D02*
X80679800Y-121411600D01*
X80679800Y-121811600D02*
X80679800Y-121831600D01*
X80679800Y-122231600D02*
X80679800Y-122251600D01*
X80679800Y-122651600D02*
X80679800Y-122671600D01*
X80679800Y-123071600D02*
X80679800Y-123091600D01*
X80679800Y-123491600D02*
X80679800Y-123511600D01*
X80679800Y-123911600D02*
X80679800Y-123931600D01*
X80679800Y-124331600D02*
X80679800Y-124351600D01*
X80679800Y-124751600D02*
X80679800Y-124771600D01*
X80679800Y-125171600D02*
X80679800Y-125191600D01*
X80679800Y-125591600D02*
X80679800Y-125611600D01*
X80679800Y-126011600D02*
X80679800Y-126031600D01*
X80679800Y-126431600D02*
X80679800Y-126451600D01*
X80679800Y-126851600D02*
X80679800Y-126871600D01*
X80679800Y-127271600D02*
X80679800Y-127291600D01*
X80679800Y-127691600D02*
X80679800Y-127711600D01*
X80679800Y-128111600D02*
X80679800Y-128131600D01*
X80679800Y-128531600D02*
X80679800Y-128551600D01*
X80679800Y-128951600D02*
X80679800Y-128971600D01*
X80679800Y-129371600D02*
X80679800Y-129391600D01*
X80679800Y-129791600D02*
X80679800Y-129811600D01*
X80679800Y-130003600D02*
X80699800Y-130003600D01*
X81099800Y-130003600D02*
X81119800Y-130003600D01*
X81519800Y-130003600D02*
X81539800Y-130003600D01*
X81939800Y-130003600D02*
X81959800Y-130003600D01*
X82359800Y-130003600D02*
X82379800Y-130003600D01*
X82779800Y-130003600D02*
X82799800Y-130003600D01*
X83199800Y-130003600D02*
X83219800Y-130003600D01*
X83619800Y-130003600D02*
X83639800Y-130003600D01*
X84039800Y-130003600D02*
X84059800Y-130003600D01*
X84459800Y-130003600D02*
X84479800Y-130003600D01*
X84879800Y-130003600D02*
X84899800Y-130003600D01*
X85299800Y-130003600D02*
X85319800Y-130003600D01*
X85719800Y-130003600D02*
X85739800Y-130003600D01*
X86139800Y-130003600D02*
X86159800Y-130003600D01*
X86559800Y-130003600D02*
X86579800Y-130003600D01*
X86979800Y-130003600D02*
X86999800Y-130003600D01*
X87399800Y-130003600D02*
X87419800Y-130003600D01*
X87819800Y-130003600D02*
X87839800Y-130003600D01*
X88239800Y-130003600D02*
X88259800Y-130003600D01*
X88659800Y-130003600D02*
X88679800Y-130003600D01*
X89079800Y-130003600D02*
X89099800Y-130003600D01*
X89499800Y-130003600D02*
X89519800Y-130003600D01*
X89919800Y-130003600D02*
X89939800Y-130003600D01*
X90339800Y-130003600D02*
X90359800Y-130003600D01*
X90759800Y-130003600D02*
X90779800Y-130003600D01*
X91179800Y-130003600D02*
X91199800Y-130003600D01*
X91599800Y-130003600D02*
X91619800Y-130003600D01*
X92019800Y-130003600D02*
X92039800Y-130003600D01*
X92439800Y-130003600D02*
X92459800Y-130003600D01*
X92859800Y-130003600D02*
X92879800Y-130003600D01*
X93279800Y-130003600D02*
X93299800Y-130003600D01*
X93699800Y-130003600D02*
X93719800Y-130003600D01*
X94119800Y-130003600D02*
X94139800Y-130003600D01*
X94539800Y-130003600D02*
X94559800Y-130003600D01*
X94959800Y-130003600D02*
X94979800Y-130003600D01*
X95280536Y-130003600D02*
X95280536Y-129983600D01*
X95280536Y-129583600D02*
X95280536Y-129563600D01*
X95280536Y-129163600D02*
X95280536Y-129143600D01*
X95280536Y-128743600D02*
X95280536Y-128723600D01*
X95280536Y-128323600D02*
X95280536Y-128303600D01*
X95280536Y-127903600D02*
X95280536Y-127883600D01*
X95280536Y-127483600D02*
X95280536Y-127463600D01*
X95280536Y-127063600D02*
X95280536Y-127043600D01*
X95280536Y-126643600D02*
X95280536Y-126623600D01*
X95280536Y-126223600D02*
X95280536Y-126203600D01*
X95280536Y-125803600D02*
X95280536Y-125783600D01*
X95280536Y-125383600D02*
X95280536Y-125363600D01*
X95280536Y-124963600D02*
X95280536Y-124943600D01*
X95280536Y-124543600D02*
X95280536Y-124523600D01*
X95280536Y-124123600D02*
X95280536Y-124103600D01*
X95280536Y-123703600D02*
X95280536Y-123683600D01*
X95280536Y-123283600D02*
X95280536Y-123263600D01*
X95280536Y-122863600D02*
X95280536Y-122843600D01*
X95280536Y-122443600D02*
X95280536Y-122423600D01*
X95280536Y-122023600D02*
X95280536Y-122003600D01*
X95280536Y-121603600D02*
X95280536Y-121583600D01*
X95280536Y-121183600D02*
X95280536Y-121163600D01*
X95280536Y-120763600D02*
X95280536Y-120743600D01*
X95280536Y-120343600D02*
X95280536Y-120323600D01*
X95280536Y-119923600D02*
X95280536Y-119903600D01*
X95280536Y-119503600D02*
X95280536Y-119483600D01*
D16*
%TO.C,J9*%
X78680000Y-139130000D02*
X80010000Y-139130000D01*
X78680000Y-137800000D02*
X78680000Y-139130000D01*
X78680000Y-136530000D02*
X78680000Y-133930000D01*
X78680000Y-136530000D02*
X81340000Y-136530000D01*
X78680000Y-133930000D02*
X81340000Y-133930000D01*
X81340000Y-136530000D02*
X81340000Y-133930000D01*
%TO.C,J14*%
X188020000Y-102930000D02*
X188020000Y-82490000D01*
X185420000Y-100330000D02*
X185420000Y-102930000D01*
X185420000Y-102930000D02*
X188020000Y-102930000D01*
X182820000Y-82490000D02*
X188020000Y-82490000D01*
X182820000Y-100330000D02*
X185420000Y-100330000D01*
X182820000Y-100330000D02*
X182820000Y-82490000D01*
X182820000Y-101600000D02*
X182820000Y-102930000D01*
X182820000Y-102930000D02*
X184150000Y-102930000D01*
%TO.C,J19*%
X177740000Y-132140000D02*
X179070000Y-132140000D01*
X177740000Y-130810000D02*
X177740000Y-132140000D01*
X177740000Y-129540000D02*
X177740000Y-111700000D01*
X177740000Y-129540000D02*
X180340000Y-129540000D01*
X177740000Y-111700000D02*
X182940000Y-111700000D01*
X180340000Y-132140000D02*
X182940000Y-132140000D01*
X180340000Y-129540000D02*
X180340000Y-132140000D01*
X182940000Y-132140000D02*
X182940000Y-111700000D01*
%TO.C,J18*%
X170540000Y-132140000D02*
X171870000Y-132140000D01*
X170540000Y-130810000D02*
X170540000Y-132140000D01*
X170540000Y-129540000D02*
X170540000Y-111700000D01*
X170540000Y-129540000D02*
X173140000Y-129540000D01*
X170540000Y-111700000D02*
X175740000Y-111700000D01*
X173140000Y-132140000D02*
X175740000Y-132140000D01*
X173140000Y-129540000D02*
X173140000Y-132140000D01*
X175740000Y-132140000D02*
X175740000Y-111700000D01*
%TO.C,J17*%
X163340000Y-132140000D02*
X164670000Y-132140000D01*
X163340000Y-130810000D02*
X163340000Y-132140000D01*
X163340000Y-129540000D02*
X163340000Y-111700000D01*
X163340000Y-129540000D02*
X165940000Y-129540000D01*
X163340000Y-111700000D02*
X168540000Y-111700000D01*
X165940000Y-132140000D02*
X168540000Y-132140000D01*
X165940000Y-129540000D02*
X165940000Y-132140000D01*
X168540000Y-132140000D02*
X168540000Y-111700000D01*
%TO.C,J16*%
X156140000Y-132140000D02*
X157470000Y-132140000D01*
X156140000Y-130810000D02*
X156140000Y-132140000D01*
X156140000Y-129540000D02*
X156140000Y-111700000D01*
X156140000Y-129540000D02*
X158740000Y-129540000D01*
X156140000Y-111700000D02*
X161340000Y-111700000D01*
X158740000Y-132140000D02*
X161340000Y-132140000D01*
X158740000Y-129540000D02*
X158740000Y-132140000D01*
X161340000Y-132140000D02*
X161340000Y-111700000D01*
%TO.C,J15*%
X182820000Y-80705000D02*
X184150000Y-80705000D01*
X182820000Y-79375000D02*
X182820000Y-80705000D01*
X182820000Y-78105000D02*
X182820000Y-60265000D01*
X182820000Y-78105000D02*
X185420000Y-78105000D01*
X182820000Y-60265000D02*
X188020000Y-60265000D01*
X185420000Y-80705000D02*
X188020000Y-80705000D01*
X185420000Y-78105000D02*
X185420000Y-80705000D01*
X188020000Y-80705000D02*
X188020000Y-60265000D01*
%TO.C,J1*%
X38310000Y-67620000D02*
X37060000Y-67620000D01*
X38020000Y-67330000D02*
X32050000Y-67330000D01*
X32050000Y-67330000D02*
X32050000Y-59710000D01*
X38010000Y-67320000D02*
X37260000Y-67320000D01*
X37260000Y-67320000D02*
X37260000Y-65520000D01*
X35760000Y-67320000D02*
X35760000Y-66570000D01*
X35760000Y-66570000D02*
X32810000Y-66570000D01*
X32810000Y-66570000D02*
X32810000Y-63520000D01*
X38310000Y-66370000D02*
X38310000Y-67620000D01*
X38010000Y-65520000D02*
X38010000Y-67320000D01*
X37260000Y-65520000D02*
X38010000Y-65520000D01*
X38010000Y-64020000D02*
X37260000Y-64020000D01*
X37260000Y-64020000D02*
X37260000Y-63020000D01*
X38010000Y-63020000D02*
X38010000Y-64020000D01*
X37260000Y-63020000D02*
X38010000Y-63020000D01*
X38010000Y-61520000D02*
X37260000Y-61520000D01*
X37260000Y-61520000D02*
X37260000Y-59720000D01*
X35760000Y-60470000D02*
X32810000Y-60470000D01*
X32810000Y-60470000D02*
X32810000Y-63520000D01*
X38010000Y-59720000D02*
X38010000Y-61520000D01*
X37260000Y-59720000D02*
X38010000Y-59720000D01*
X35760000Y-59720000D02*
X35760000Y-60470000D01*
X38020000Y-59710000D02*
X38020000Y-67330000D01*
X32050000Y-59710000D02*
X38020000Y-59710000D01*
%TO.C,J2*%
X38310000Y-77105000D02*
X37060000Y-77105000D01*
X38020000Y-76815000D02*
X32050000Y-76815000D01*
X32050000Y-76815000D02*
X32050000Y-69195000D01*
X38010000Y-76805000D02*
X37260000Y-76805000D01*
X37260000Y-76805000D02*
X37260000Y-75005000D01*
X35760000Y-76805000D02*
X35760000Y-76055000D01*
X35760000Y-76055000D02*
X32810000Y-76055000D01*
X32810000Y-76055000D02*
X32810000Y-73005000D01*
X38310000Y-75855000D02*
X38310000Y-77105000D01*
X38010000Y-75005000D02*
X38010000Y-76805000D01*
X37260000Y-75005000D02*
X38010000Y-75005000D01*
X38010000Y-73505000D02*
X37260000Y-73505000D01*
X37260000Y-73505000D02*
X37260000Y-72505000D01*
X38010000Y-72505000D02*
X38010000Y-73505000D01*
X37260000Y-72505000D02*
X38010000Y-72505000D01*
X38010000Y-71005000D02*
X37260000Y-71005000D01*
X37260000Y-71005000D02*
X37260000Y-69205000D01*
X35760000Y-69955000D02*
X32810000Y-69955000D01*
X32810000Y-69955000D02*
X32810000Y-73005000D01*
X38010000Y-69205000D02*
X38010000Y-71005000D01*
X37260000Y-69205000D02*
X38010000Y-69205000D01*
X35760000Y-69205000D02*
X35760000Y-69955000D01*
X38020000Y-69195000D02*
X38020000Y-76815000D01*
X32050000Y-69195000D02*
X38020000Y-69195000D01*
%TO.C,U8*%
X80926200Y-69347600D02*
X82176200Y-69347600D01*
X80926200Y-70597600D02*
X80926200Y-69347600D01*
X81216200Y-69637600D02*
X87186200Y-69637600D01*
X81216200Y-79757600D02*
X81216200Y-69637600D01*
X81226200Y-69647600D02*
X81976200Y-69647600D01*
X81226200Y-71447600D02*
X81226200Y-69647600D01*
X81226200Y-72947600D02*
X81976200Y-72947600D01*
X81226200Y-76447600D02*
X81226200Y-72947600D01*
X81226200Y-77947600D02*
X81976200Y-77947600D01*
X81226200Y-79747600D02*
X81226200Y-77947600D01*
X81976200Y-69647600D02*
X81976200Y-71447600D01*
X81976200Y-71447600D02*
X81226200Y-71447600D01*
X81976200Y-72947600D02*
X81976200Y-76447600D01*
X81976200Y-76447600D02*
X81226200Y-76447600D01*
X81976200Y-77947600D02*
X81976200Y-79747600D01*
X81976200Y-79747600D02*
X81226200Y-79747600D01*
X83476200Y-69647600D02*
X83476200Y-70397600D01*
X83476200Y-70397600D02*
X86426200Y-70397600D01*
X83476200Y-78997600D02*
X86426200Y-78997600D01*
X83476200Y-79747600D02*
X83476200Y-78997600D01*
X86426200Y-70397600D02*
X86426200Y-74697600D01*
X86426200Y-78997600D02*
X86426200Y-74697600D01*
X87186200Y-69637600D02*
X87186200Y-79757600D01*
X87186200Y-79757600D02*
X81216200Y-79757600D01*
D12*
X95526936Y-69347600D02*
X95506936Y-69347600D01*
X95106936Y-69347600D02*
X95086936Y-69347600D01*
X94686936Y-69347600D02*
X94666936Y-69347600D01*
X94266936Y-69347600D02*
X94246936Y-69347600D01*
X93846936Y-69347600D02*
X93826936Y-69347600D01*
X93426936Y-69347600D02*
X93406936Y-69347600D01*
X93006936Y-69347600D02*
X92986936Y-69347600D01*
X92586936Y-69347600D02*
X92566936Y-69347600D01*
X92166936Y-69347600D02*
X92146936Y-69347600D01*
X91746936Y-69347600D02*
X91726936Y-69347600D01*
X91326936Y-69347600D02*
X91306936Y-69347600D01*
X90906936Y-69347600D02*
X90886936Y-69347600D01*
X90486936Y-69347600D02*
X90466936Y-69347600D01*
X90066936Y-69347600D02*
X90046936Y-69347600D01*
X89646936Y-69347600D02*
X89626936Y-69347600D01*
X89226936Y-69347600D02*
X89206936Y-69347600D01*
X88806936Y-69347600D02*
X88786936Y-69347600D01*
X88386936Y-69347600D02*
X88366936Y-69347600D01*
X87966936Y-69347600D02*
X87946936Y-69347600D01*
X87546936Y-69347600D02*
X87526936Y-69347600D01*
X87126936Y-69347600D02*
X87106936Y-69347600D01*
X86706936Y-69347600D02*
X86686936Y-69347600D01*
X86286936Y-69347600D02*
X86266936Y-69347600D01*
X85866936Y-69347600D02*
X85846936Y-69347600D01*
X85446936Y-69347600D02*
X85426936Y-69347600D01*
X85026936Y-69347600D02*
X85006936Y-69347600D01*
X84606936Y-69347600D02*
X84586936Y-69347600D01*
X84186936Y-69347600D02*
X84166936Y-69347600D01*
X83766936Y-69347600D02*
X83746936Y-69347600D01*
X83346936Y-69347600D02*
X83326936Y-69347600D01*
X82926936Y-69347600D02*
X82906936Y-69347600D01*
X82506936Y-69347600D02*
X82486936Y-69347600D01*
X82086936Y-69347600D02*
X82066936Y-69347600D01*
X81666936Y-69347600D02*
X81646936Y-69347600D01*
X81246936Y-69347600D02*
X81226936Y-69347600D01*
X80926200Y-69347600D02*
X80926200Y-69367600D01*
X80926200Y-69767600D02*
X80926200Y-69787600D01*
X80926200Y-70187600D02*
X80926200Y-70207600D01*
X80926200Y-70607600D02*
X80926200Y-70627600D01*
X80926200Y-71027600D02*
X80926200Y-71047600D01*
X80926200Y-71447600D02*
X80926200Y-71467600D01*
X80926200Y-71867600D02*
X80926200Y-71887600D01*
X80926200Y-72287600D02*
X80926200Y-72307600D01*
X80926200Y-72707600D02*
X80926200Y-72727600D01*
X80926200Y-73127600D02*
X80926200Y-73147600D01*
X80926200Y-73547600D02*
X80926200Y-73567600D01*
X80926200Y-73967600D02*
X80926200Y-73987600D01*
X80926200Y-74387600D02*
X80926200Y-74407600D01*
X80926200Y-74807600D02*
X80926200Y-74827600D01*
X80926200Y-75227600D02*
X80926200Y-75247600D01*
X80926200Y-75647600D02*
X80926200Y-75667600D01*
X80926200Y-76067600D02*
X80926200Y-76087600D01*
X80926200Y-76487600D02*
X80926200Y-76507600D01*
X80926200Y-76907600D02*
X80926200Y-76927600D01*
X80926200Y-77327600D02*
X80926200Y-77347600D01*
X80926200Y-77747600D02*
X80926200Y-77767600D01*
X80926200Y-78167600D02*
X80926200Y-78187600D01*
X80926200Y-78587600D02*
X80926200Y-78607600D01*
X80926200Y-79007600D02*
X80926200Y-79027600D01*
X80926200Y-79427600D02*
X80926200Y-79447600D01*
X80926200Y-79847600D02*
X80926200Y-79867600D01*
X80926200Y-80059600D02*
X80946200Y-80059600D01*
X81346200Y-80059600D02*
X81366200Y-80059600D01*
X81766200Y-80059600D02*
X81786200Y-80059600D01*
X82186200Y-80059600D02*
X82206200Y-80059600D01*
X82606200Y-80059600D02*
X82626200Y-80059600D01*
X83026200Y-80059600D02*
X83046200Y-80059600D01*
X83446200Y-80059600D02*
X83466200Y-80059600D01*
X83866200Y-80059600D02*
X83886200Y-80059600D01*
X84286200Y-80059600D02*
X84306200Y-80059600D01*
X84706200Y-80059600D02*
X84726200Y-80059600D01*
X85126200Y-80059600D02*
X85146200Y-80059600D01*
X85546200Y-80059600D02*
X85566200Y-80059600D01*
X85966200Y-80059600D02*
X85986200Y-80059600D01*
X86386200Y-80059600D02*
X86406200Y-80059600D01*
X86806200Y-80059600D02*
X86826200Y-80059600D01*
X87226200Y-80059600D02*
X87246200Y-80059600D01*
X87646200Y-80059600D02*
X87666200Y-80059600D01*
X88066200Y-80059600D02*
X88086200Y-80059600D01*
X88486200Y-80059600D02*
X88506200Y-80059600D01*
X88906200Y-80059600D02*
X88926200Y-80059600D01*
X89326200Y-80059600D02*
X89346200Y-80059600D01*
X89746200Y-80059600D02*
X89766200Y-80059600D01*
X90166200Y-80059600D02*
X90186200Y-80059600D01*
X90586200Y-80059600D02*
X90606200Y-80059600D01*
X91006200Y-80059600D02*
X91026200Y-80059600D01*
X91426200Y-80059600D02*
X91446200Y-80059600D01*
X91846200Y-80059600D02*
X91866200Y-80059600D01*
X92266200Y-80059600D02*
X92286200Y-80059600D01*
X92686200Y-80059600D02*
X92706200Y-80059600D01*
X93106200Y-80059600D02*
X93126200Y-80059600D01*
X93526200Y-80059600D02*
X93546200Y-80059600D01*
X93946200Y-80059600D02*
X93966200Y-80059600D01*
X94366200Y-80059600D02*
X94386200Y-80059600D01*
X94786200Y-80059600D02*
X94806200Y-80059600D01*
X95206200Y-80059600D02*
X95226200Y-80059600D01*
X95526936Y-80059600D02*
X95526936Y-80039600D01*
X95526936Y-79639600D02*
X95526936Y-79619600D01*
X95526936Y-79219600D02*
X95526936Y-79199600D01*
X95526936Y-78799600D02*
X95526936Y-78779600D01*
X95526936Y-78379600D02*
X95526936Y-78359600D01*
X95526936Y-77959600D02*
X95526936Y-77939600D01*
X95526936Y-77539600D02*
X95526936Y-77519600D01*
X95526936Y-77119600D02*
X95526936Y-77099600D01*
X95526936Y-76699600D02*
X95526936Y-76679600D01*
X95526936Y-76279600D02*
X95526936Y-76259600D01*
X95526936Y-75859600D02*
X95526936Y-75839600D01*
X95526936Y-75439600D02*
X95526936Y-75419600D01*
X95526936Y-75019600D02*
X95526936Y-74999600D01*
X95526936Y-74599600D02*
X95526936Y-74579600D01*
X95526936Y-74179600D02*
X95526936Y-74159600D01*
X95526936Y-73759600D02*
X95526936Y-73739600D01*
X95526936Y-73339600D02*
X95526936Y-73319600D01*
X95526936Y-72919600D02*
X95526936Y-72899600D01*
X95526936Y-72499600D02*
X95526936Y-72479600D01*
X95526936Y-72079600D02*
X95526936Y-72059600D01*
X95526936Y-71659600D02*
X95526936Y-71639600D01*
X95526936Y-71239600D02*
X95526936Y-71219600D01*
X95526936Y-70819600D02*
X95526936Y-70799600D01*
X95526936Y-70399600D02*
X95526936Y-70379600D01*
X95526936Y-69979600D02*
X95526936Y-69959600D01*
X95526936Y-69559600D02*
X95526936Y-69539600D01*
X101282200Y-72185600D02*
X98742200Y-72185600D01*
X98742200Y-77265600D01*
X101282200Y-77265600D01*
X101282200Y-72185600D01*
X134302200Y-72185600D02*
X131762200Y-72185600D01*
X131762200Y-77265600D01*
X134302200Y-77265600D01*
X134302200Y-72185600D01*
X137522200Y-58725600D02*
X95522200Y-58725600D01*
X95522200Y-90725600D01*
X137522200Y-90725600D01*
X137522200Y-58725600D01*
%TO.C,U5*%
D10*
X33144000Y-104200000D02*
X61344000Y-104200000D01*
X61344000Y-86300000D01*
X33144000Y-86300000D01*
X33144000Y-104200000D01*
%TO.C,U4*%
X74930000Y-141605000D02*
X55880000Y-141605000D01*
X55880000Y-123825000D01*
X74930000Y-123825000D01*
X74930000Y-141605000D01*
D16*
%TO.C,U3*%
X31703000Y-118110000D02*
X31703000Y-116310000D01*
X31703000Y-118110000D02*
X31703000Y-138110000D01*
X31703000Y-138110000D02*
X31703000Y-141110000D01*
X31703000Y-141510000D02*
X31703000Y-141110000D01*
X47503000Y-116310000D02*
X31703000Y-116310000D01*
X47503000Y-116310000D02*
X54703000Y-116310000D01*
X54703000Y-116310000D02*
X54703000Y-118110000D01*
X54703000Y-118110000D02*
X54703000Y-136110000D01*
X54703000Y-136110000D02*
X54703000Y-141510000D01*
X54703000Y-141510000D02*
X31703000Y-141510000D01*
X32203000Y-117110000D02*
X35203000Y-117110000D01*
X35203000Y-120110000D01*
X32203000Y-120110000D01*
X32203000Y-117110000D01*
X34821034Y-118610000D02*
G75*
G02*
X32584966Y-118610000I-1118034J0D01*
G01*
X32584966Y-118610000D02*
G75*
G02*
X34821034Y-118610000I1118034J0D01*
G01*
%TD*%
M02*
