M48
; DRILL file {KiCad 9.0.0} date 2025-05-23T22:19:37+0200
; FORMAT={-:-/ absolute / inch / decimal}
; #@! TF.CreationDate,2025-05-23T22:19:37+02:00
; #@! TF.GenerationSoftware,Kicad,Pcbnew,9.0.0
; #@! TF.FileFunction,Plated,1,2,PTH
FMAT,2
INCH
; #@! TA.AperFunction,Plated,PTH,ViaDrill
T1C0.0118
; #@! TA.AperFunction,Plated,PTH,ComponentDrill
T2C0.0300
; #@! TA.AperFunction,Plated,PTH,ComponentDrill
T3C0.0315
; #@! TA.AperFunction,Plated,PTH,ComponentDrill
T4C0.0374
; #@! TA.AperFunction,Plated,PTH,ComponentDrill
T5C0.0394
; #@! TA.AperFunction,Plated,PTH,ComponentDrill
T6C0.0402
; #@! TA.AperFunction,Plated,PTH,ComponentDrill
T7C0.0433
%
G90
G05
T1
X1.3001Y-2.6776
X1.3135Y-4.9129
X1.3163Y-4.8753
X1.375Y-3.925
X1.4225Y-5.2367
X1.5Y-3.6
X1.5175Y-3.1
X1.5563Y-4.0656
X1.6Y-3.6
X1.725Y-3.8
X1.9863Y-3.8185
X2.0328Y-4.403
X2.1642Y-3.1403
X2.35Y-3.625
X2.3677Y-2.8173
X2.525Y-3.625
X2.5451Y-2.7919
X2.8652Y-3.4873
X2.8652Y-4.775
X2.9Y-3.1
X2.982Y-5.0056
X3.075Y-2.95
X3.55Y-2.475
X3.55Y-2.65
X3.55Y-2.675
X3.55Y-2.85
X3.55Y-2.9
X3.55Y-3.075
X3.9515Y-4.2937
X4.6177Y-3.9301
X4.85Y-4.075
X4.9682Y-2.7561
X5.2862Y-2.5822
X5.3187Y-4.2932
X5.4787Y-2.7933
X5.5196Y-2.5819
X7.5357Y-3.2326
X7.5386Y-4.4126
T2
X3.675Y-4.9744
X3.675Y-5.0744
X3.675Y-5.1744
X3.675Y-5.2744
X3.675Y-5.3744
X3.925Y-4.8244
X3.925Y-5.5244
X4.025Y-4.8244
X4.025Y-5.5244
X4.125Y-4.8244
X4.125Y-5.5244
X4.225Y-4.8244
X4.225Y-5.5244
X4.325Y-4.8244
X4.325Y-5.5244
X4.425Y-4.8244
X4.425Y-5.5244
X4.525Y-4.8244
X4.525Y-5.5244
X4.625Y-4.8244
X4.625Y-5.5244
X4.725Y-4.8244
X4.725Y-5.5244
X4.825Y-4.8244
X4.825Y-5.5244
T3
X1.85Y-4.45
X2.15Y-4.45
X2.525Y-5.225
X2.825Y-5.225
X4.175Y-2.7
X4.175Y-3.0
X4.375Y-2.7
X4.375Y-3.0
T4
X1.4207Y-4.25
X1.4207Y-4.3484
X1.4207Y-4.4469
X3.2846Y-4.8087
X3.2846Y-4.9071
X3.2846Y-5.0056
X3.2943Y-2.8424
X3.2943Y-2.9409
X3.2943Y-3.0393
X3.4689Y-3.8282
X3.4689Y-3.9267
X3.4689Y-4.0251
X4.8669Y-2.8277
X4.8669Y-2.9261
X4.8669Y-3.0245
X4.925Y-3.8
X4.925Y-3.8984
X4.925Y-3.9969
T5
X1.275Y-5.325
X1.275Y-5.425
X1.4Y-2.4516
X1.4Y-2.55
X1.4Y-2.825
X1.4Y-2.9234
X1.4Y-3.5
X1.4716Y-4.8798
X1.4716Y-4.9798
X1.4716Y-5.0798
X1.4716Y-5.1798
X1.4716Y-5.2798
X1.5Y-3.5
X1.61Y-3.5
X1.71Y-3.5
X1.8Y-2.65
X1.8Y-2.75
X1.8Y-4.075
X1.8Y-4.175
X1.81Y-3.5
X1.9Y-2.65
X1.9Y-2.75
X1.9Y-4.075
X1.9Y-4.175
X1.91Y-3.5
X2.0Y-2.65
X2.0Y-2.75
X2.0Y-4.075
X2.0Y-4.175
X2.01Y-3.5
X2.1Y-2.65
X2.1Y-2.75
X2.1Y-4.075
X2.1Y-4.175
X2.11Y-3.5
X2.2Y-2.65
X2.2Y-2.75
X2.2Y-4.075
X2.2Y-4.175
X2.21Y-3.5
X2.3Y-2.65
X2.3Y-2.75
X2.3Y-4.075
X2.3Y-4.175
X2.31Y-3.5
X2.4Y-2.65
X2.4Y-2.75
X2.4Y-4.075
X2.4Y-4.175
X2.5Y-2.65
X2.5Y-2.75
X2.5Y-4.075
X2.5Y-4.175
X2.6Y-2.65
X2.6Y-2.75
X2.6Y-4.075
X2.6Y-4.175
X2.7Y-2.65
X2.7Y-2.75
X2.7Y-4.075
X2.7Y-4.175
X2.8Y-2.65
X2.8Y-2.75
X2.8Y-4.075
X2.8Y-4.175
X2.9Y-2.65
X2.9Y-2.75
X2.9Y-4.075
X2.9Y-4.175
X3.0Y-4.075
X3.0Y-4.175
X3.15Y-5.3252
X3.15Y-5.4252
X5.2Y-5.025
X5.2008Y-4.749
X5.3Y-5.025
X5.3008Y-4.749
X6.1996Y-4.45
X6.1996Y-4.55
X6.1996Y-4.65
X6.1996Y-4.75
X6.1996Y-4.85
X6.1996Y-4.95
X6.1996Y-5.05
X6.1996Y-5.15
X6.2996Y-4.45
X6.2996Y-4.55
X6.2996Y-4.65
X6.2996Y-4.75
X6.2996Y-4.85
X6.2996Y-4.95
X6.2996Y-5.05
X6.2996Y-5.15
X6.4831Y-4.45
X6.4831Y-4.55
X6.4831Y-4.65
X6.4831Y-4.75
X6.4831Y-4.85
X6.4831Y-4.95
X6.4831Y-5.05
X6.4831Y-5.15
X6.5831Y-4.45
X6.5831Y-4.55
X6.5831Y-4.65
X6.5831Y-4.75
X6.5831Y-4.85
X6.5831Y-4.95
X6.5831Y-5.05
X6.5831Y-5.15
X6.7665Y-4.45
X6.7665Y-4.55
X6.7665Y-4.65
X6.7665Y-4.75
X6.7665Y-4.85
X6.7665Y-4.95
X6.7665Y-5.05
X6.7665Y-5.15
X6.8665Y-4.45
X6.8665Y-4.55
X6.8665Y-4.65
X6.8665Y-4.75
X6.8665Y-4.85
X6.8665Y-4.95
X6.8665Y-5.05
X6.8665Y-5.15
X7.05Y-4.45
X7.05Y-4.55
X7.05Y-4.65
X7.05Y-4.75
X7.05Y-4.85
X7.05Y-4.95
X7.05Y-5.05
X7.05Y-5.15
X7.15Y-4.45
X7.15Y-4.55
X7.15Y-4.65
X7.15Y-4.75
X7.15Y-4.85
X7.15Y-4.95
X7.15Y-5.05
X7.15Y-5.15
X7.25Y-2.425
X7.25Y-2.525
X7.25Y-2.625
X7.25Y-2.725
X7.25Y-2.825
X7.25Y-2.925
X7.25Y-3.025
X7.25Y-3.125
X7.25Y-3.3
X7.25Y-3.4
X7.25Y-3.5
X7.25Y-3.6
X7.25Y-3.7
X7.25Y-3.8
X7.25Y-3.9
X7.25Y-4.0
X7.35Y-2.425
X7.35Y-2.525
X7.35Y-2.625
X7.35Y-2.725
X7.35Y-2.825
X7.35Y-2.925
X7.35Y-3.025
X7.35Y-3.125
X7.35Y-3.3
X7.35Y-3.4
X7.35Y-3.5
X7.35Y-3.6
X7.35Y-3.7
X7.35Y-3.8
X7.35Y-3.9
X7.35Y-4.0
X7.5248Y-3.3006
X7.5248Y-3.4006
X7.5248Y-3.5006
X7.5248Y-3.6006
X7.5248Y-3.7006
X7.5248Y-3.8006
X7.5248Y-3.9006
X7.5248Y-4.0006
X7.525Y-2.425
X7.525Y-2.525
X7.525Y-2.625
X7.525Y-2.725
X7.525Y-2.825
X7.525Y-2.925
X7.525Y-3.025
X7.525Y-3.125
X7.6248Y-3.3006
X7.6248Y-3.4006
X7.6248Y-3.5006
X7.6248Y-3.6006
X7.6248Y-3.7006
X7.6248Y-3.8006
X7.6248Y-3.9006
X7.6248Y-4.0006
X7.625Y-2.425
X7.625Y-2.525
X7.625Y-2.625
X7.625Y-2.725
X7.625Y-2.825
X7.625Y-2.925
X7.625Y-3.025
X7.625Y-3.125
T6
X1.445Y-4.65
X1.545Y-4.65
X1.545Y-5.511
X1.6Y-2.9
X1.6Y-3.9
X1.645Y-4.65
X1.645Y-5.511
X1.7Y-2.9
X1.7Y-3.9
X1.745Y-4.65
X1.745Y-5.511
X1.8Y-2.9
X1.8Y-3.9
X1.845Y-4.65
X1.845Y-5.511
X1.9Y-2.9
X1.9Y-3.9
X1.945Y-4.65
X1.945Y-5.511
X2.0Y-2.9
X2.0Y-3.9
X2.045Y-5.511
X2.1Y-2.9
X2.1Y-3.9
X2.2Y-2.9
X2.2Y-3.9
X2.3Y-2.9
X2.3Y-3.9
X2.305Y-5.025
X2.305Y-5.125
X2.305Y-5.225
X2.305Y-5.325
X2.305Y-5.425
X2.4Y-2.9
X2.4Y-3.9
X2.5Y-2.9
X2.5Y-3.9
X2.6Y-2.9
X2.6Y-3.9
X2.7Y-2.9
X2.7Y-3.9
X2.8Y-2.9
X2.8Y-3.9
X2.9Y-2.9
X2.9Y-3.9
X3.0Y-2.9
X3.0Y-3.9
X5.62Y-4.5498
X5.62Y-4.6498
X5.62Y-4.7498
X5.62Y-4.8498
X5.62Y-4.9498
X5.62Y-5.0498
X5.62Y-5.1498
X5.62Y-5.2498
X7.7Y-4.7476
X7.7Y-4.8476
X7.7Y-4.95
X7.7Y-5.05
T7
X4.175Y-2.425
X4.275Y-2.425
X4.375Y-2.425
M30
