M48
; DRILL file {KiCad 9.0.0} date 2025-05-24T14:05:29+0200
; FORMAT={-:-/ absolute / inch / decimal}
; #@! TF.CreationDate,2025-05-24T14:05:29+02:00
; #@! TF.GenerationSoftware,Kicad,Pcbnew,9.0.0
; #@! TF.FileFunction,NonPlated,1,2,NPTH
FMAT,2
INCH
; #@! TA.AperFunction,NonPlated,NPTH,ComponentDrill
T1C0.1181
; #@! TA.AperFunction,NonPlated,NPTH,ComponentDrill
T2C0.1260
%
G90
G05
T1
X1.6886Y-5.058
X1.6896Y-4.0746
X1.8292Y-2.7755
X1.8298Y-3.6144
X3.0608Y-3.6149
X3.0626Y-2.7747
X3.0627Y-4.075
X3.063Y-2.775
X3.063Y-5.0585
X3.0633Y-5.059
X5.0Y-2.775
X5.0Y-5.0585
X6.135Y-2.635
X6.135Y-3.617
X6.135Y-4.2078
X6.135Y-5.19
X7.5126Y-3.6157
X7.515Y-4.2078
X7.515Y-5.1907
X7.5161Y-2.6328
T2
X1.25Y-2.3532
X1.25Y-5.5473
X4.9502Y-5.5469
X4.9536Y-2.3536
X8.6549Y-2.3533
X8.6558Y-5.5465
M30
