%TF.GenerationSoftware,KiCad,Pcbnew,9.0.0*%
%TF.CreationDate,2025-05-24T15:42:22+02:00*%
%TF.ProjectId,Bojen_PCB,426f6a65-6e5f-4504-9342-2e6b69636164,V2*%
%TF.SameCoordinates,Original*%
%TF.FileFunction,Soldermask,Bot*%
%TF.FilePolarity,Negative*%
%FSLAX46Y46*%
G04 Gerber Fmt 4.6, Leading zero omitted, Abs format (unit mm)*
G04 Created by KiCad (PCBNEW 9.0.0) date 2025-05-24 15:42:22*
%MOMM*%
%LPD*%
G01*
G04 APERTURE LIST*
G04 Aperture macros list*
%AMRoundRect*
0 Rectangle with rounded corners*
0 $1 Rounding radius*
0 $2 $3 $4 $5 $6 $7 $8 $9 X,Y pos of 4 corners*
0 Add a 4 corners polygon primitive as box body*
4,1,4,$2,$3,$4,$5,$6,$7,$8,$9,$2,$3,0*
0 Add four circle primitives for the rounded corners*
1,1,$1+$1,$2,$3*
1,1,$1+$1,$4,$5*
1,1,$1+$1,$6,$7*
1,1,$1+$1,$8,$9*
0 Add four rect primitives between the rounded corners*
20,1,$1+$1,$2,$3,$4,$5,0*
20,1,$1+$1,$4,$5,$6,$7,0*
20,1,$1+$1,$6,$7,$8,$9,0*
20,1,$1+$1,$8,$9,$2,$3,0*%
G04 Aperture macros list end*
%ADD10C,2.000000*%
%ADD11R,2.000000X2.000000*%
%ADD12O,2.300000X1.600000*%
%ADD13R,2.300000X1.600000*%
%ADD14C,1.524000*%
%ADD15C,1.900000*%
%ADD16O,1.950000X1.700000*%
%ADD17RoundRect,0.250000X0.725000X-0.600000X0.725000X0.600000X-0.725000X0.600000X-0.725000X-0.600000X0*%
%ADD18R,1.700000X1.700000*%
%ADD19O,1.700000X1.700000*%
%ADD20C,3.200000*%
%ADD21C,3.000000*%
%ADD22C,1.600000*%
%ADD23O,1.600000X1.600000*%
%ADD24RoundRect,0.250000X0.750000X-0.750000X0.750000X0.750000X-0.750000X0.750000X-0.750000X-0.750000X0*%
%ADD25RoundRect,0.250000X-0.725000X0.600000X-0.725000X-0.600000X0.725000X-0.600000X0.725000X0.600000X0*%
%ADD26RoundRect,0.250000X0.600000X0.750000X-0.600000X0.750000X-0.600000X-0.750000X0.600000X-0.750000X0*%
%ADD27O,1.700000X2.000000*%
%ADD28R,1.905000X2.000000*%
%ADD29O,1.905000X2.000000*%
%ADD30RoundRect,0.250000X-0.600000X-0.750000X0.600000X-0.750000X0.600000X0.750000X-0.600000X0.750000X0*%
G04 APERTURE END LIST*
D10*
%TO.C,U5*%
X213360000Y-84201000D03*
D11*
X213360000Y-86741000D03*
D10*
X213360000Y-89535000D03*
X213360000Y-92075000D03*
X213360000Y-94615000D03*
X213360000Y-97155000D03*
X213360000Y-99695000D03*
X213360000Y-102235000D03*
X213360000Y-104775000D03*
X213360000Y-107315000D03*
%TD*%
D11*
%TO.C,U7*%
X99060000Y-111125000D03*
D10*
X101600000Y-111125000D03*
X104140000Y-111125000D03*
X106680000Y-111125000D03*
X109220000Y-111125000D03*
X111760000Y-111125000D03*
X114300000Y-111125000D03*
X116840000Y-111125000D03*
X119380000Y-111125000D03*
X121920000Y-111125000D03*
X124460000Y-111125000D03*
X127000000Y-111125000D03*
X129540000Y-111125000D03*
X132080000Y-111125000D03*
X134620000Y-111125000D03*
X134620000Y-85725000D03*
X132080000Y-85725000D03*
X129540000Y-85725000D03*
X127000000Y-85725000D03*
X124460000Y-85725000D03*
X121920000Y-85725000D03*
X119380000Y-85725000D03*
X116840000Y-85725000D03*
X114300000Y-85725000D03*
X111760000Y-85725000D03*
X109220000Y-85725000D03*
X106680000Y-85725000D03*
X104140000Y-85725000D03*
X101600000Y-85725000D03*
X99060000Y-85725000D03*
%TD*%
D12*
%TO.C,U2*%
X183064500Y-119258000D03*
D13*
X183064500Y-121798000D03*
D12*
X183064500Y-124338000D03*
X183064500Y-126878000D03*
X183064499Y-129418198D03*
%TD*%
D10*
%TO.C,U1*%
X151770971Y-125476000D03*
X154310971Y-125476000D03*
X156850971Y-125476000D03*
X159390971Y-125476000D03*
X161930971Y-125476000D03*
X164470971Y-125476000D03*
D11*
X167010971Y-125476000D03*
D10*
X169550971Y-125476000D03*
X164525000Y-72644000D03*
X161985000Y-72644000D03*
X159385000Y-72644000D03*
X156845000Y-72644000D03*
%TD*%
D14*
%TO.C,U6*%
X213360000Y-79389500D03*
X210820000Y-79389500D03*
X208280000Y-79389500D03*
X205740000Y-79389500D03*
X203200000Y-79389500D03*
X200660000Y-79389500D03*
X198120000Y-79389500D03*
X195580000Y-79389500D03*
X193040000Y-79389500D03*
X190500000Y-79389500D03*
X190500000Y-61609500D03*
X193040000Y-61609500D03*
X195580000Y-61609500D03*
X198120000Y-61609500D03*
X200660000Y-61609500D03*
X203200000Y-61609500D03*
X205740000Y-61609500D03*
X208280000Y-61609500D03*
X210820000Y-61609500D03*
X213360000Y-61609500D03*
X184150000Y-75579500D03*
X184150000Y-73039500D03*
X184150000Y-70499500D03*
X184150000Y-67959500D03*
X184150000Y-65419500D03*
%TD*%
D15*
%TO.C,U3*%
X54483000Y-105410000D03*
X57023000Y-105410000D03*
X59563000Y-105410000D03*
X62103000Y-105410000D03*
X64643000Y-105410000D03*
X67183000Y-105410000D03*
X69723000Y-127280000D03*
X67183000Y-127280000D03*
X64643000Y-127280000D03*
X62103000Y-127280000D03*
X59563000Y-127280000D03*
X57023000Y-127280000D03*
%TD*%
D16*
%TO.C,J26*%
X137160000Y-118190000D03*
X137160000Y-120690000D03*
D17*
X137160000Y-123190000D03*
%TD*%
D18*
%TO.C,J8*%
X128270000Y-74930000D03*
D19*
X128270000Y-77470000D03*
X125730000Y-74930000D03*
X125730000Y-77470000D03*
X123190000Y-74930000D03*
X123190000Y-77470000D03*
X120650000Y-74930000D03*
X120650000Y-77470000D03*
X118110000Y-74930000D03*
X118110000Y-77470000D03*
X115570000Y-74930000D03*
X115570000Y-77470000D03*
X113030000Y-74930000D03*
X113030000Y-77470000D03*
X110490000Y-74930000D03*
X110490000Y-77470000D03*
X107950000Y-74930000D03*
X107950000Y-77470000D03*
X105410000Y-74930000D03*
X105410000Y-77470000D03*
X102870000Y-74930000D03*
X102870000Y-77470000D03*
X100330000Y-74930000D03*
X100330000Y-77470000D03*
%TD*%
%TO.C,J3*%
X97790000Y-123190000D03*
X97790000Y-120650000D03*
X100330000Y-123190000D03*
X100330000Y-120650000D03*
X102870000Y-123190000D03*
X102870000Y-120650000D03*
X105410000Y-123190000D03*
X105410000Y-120650000D03*
X107950000Y-123190000D03*
X107950000Y-120650000D03*
X110490000Y-123190000D03*
X110490000Y-120650000D03*
X113030000Y-123190000D03*
X113030000Y-120650000D03*
X115570000Y-123190000D03*
X115570000Y-120650000D03*
X118110000Y-123190000D03*
X118110000Y-120650000D03*
X120650000Y-123190000D03*
X120650000Y-120650000D03*
X123190000Y-123190000D03*
X123190000Y-120650000D03*
X125730000Y-123190000D03*
X125730000Y-120650000D03*
X128270000Y-123190000D03*
D18*
X128270000Y-120650000D03*
%TD*%
D20*
%TO.C,H5*%
X125822300Y-59782500D03*
%TD*%
%TO.C,H6*%
X125734100Y-140892400D03*
%TD*%
D21*
%TO.C,U15*%
X190908134Y-66874172D03*
X190821093Y-91838080D03*
X155829000Y-91872796D03*
X155829000Y-66929000D03*
%TD*%
D17*
%TO.C,J27*%
X33020000Y-84375000D03*
D16*
X33020000Y-81875000D03*
X33020000Y-79375000D03*
%TD*%
D17*
%TO.C,J25*%
X137160000Y-79375000D03*
D16*
X137160000Y-76875000D03*
X137160000Y-74375000D03*
%TD*%
D17*
%TO.C,J24*%
X33020000Y-118030000D03*
D16*
X33020000Y-115530000D03*
X33020000Y-113030000D03*
%TD*%
D21*
%TO.C,U13*%
X127000000Y-128485000D03*
X77800000Y-128485000D03*
X127000000Y-70485000D03*
X77800000Y-70485000D03*
%TD*%
%TO.C,U8*%
X42889255Y-128474399D03*
X42916210Y-103495567D03*
X77793429Y-103505845D03*
X77807345Y-128497619D03*
%TD*%
%TO.C,U9*%
X46461132Y-70496920D03*
X46478003Y-91804891D03*
X77743310Y-91818758D03*
X77789893Y-70477010D03*
%TD*%
%TO.C,U11*%
X190881000Y-131843080D03*
X190881000Y-106878000D03*
X155829000Y-131826000D03*
X155829000Y-106878000D03*
%TD*%
D22*
%TO.C,R6*%
X199390000Y-91440000D03*
D23*
X199390000Y-83820000D03*
%TD*%
D22*
%TO.C,R5*%
X199390000Y-113030000D03*
D23*
X199390000Y-105410000D03*
%TD*%
D24*
%TO.C,J22*%
X201930000Y-100965000D03*
D10*
X201930000Y-98425000D03*
X201930000Y-95885000D03*
%TD*%
D18*
%TO.C,J21*%
X207010000Y-107945000D03*
D19*
X207010000Y-110485000D03*
%TD*%
D18*
%TO.C,J20*%
X207010000Y-86990000D03*
D19*
X207010000Y-89530000D03*
%TD*%
D20*
%TO.C,H1*%
X219834700Y-59774500D03*
%TD*%
D18*
%TO.C,J5*%
X147960000Y-67310000D03*
D19*
X145420000Y-67310000D03*
%TD*%
D20*
%TO.C,H4*%
X219856400Y-140881800D03*
%TD*%
%TO.C,H3*%
X31750000Y-140900500D03*
%TD*%
%TO.C,H2*%
X31750000Y-59771100D03*
%TD*%
D22*
%TO.C,R2*%
X42545000Y-136525000D03*
D23*
X50165000Y-136525000D03*
%TD*%
D18*
%TO.C,J10*%
X177165000Y-132080000D03*
D19*
X177165000Y-134620000D03*
%TD*%
D18*
%TO.C,J9*%
X48387000Y-85730000D03*
D19*
X48387000Y-83190000D03*
%TD*%
D18*
%TO.C,J4*%
X145410000Y-130810000D03*
D19*
X147950000Y-130810000D03*
%TD*%
D22*
%TO.C,R4*%
X62865000Y-65405000D03*
D23*
X70485000Y-65405000D03*
%TD*%
D25*
%TO.C,J6*%
X55990000Y-64810000D03*
D16*
X55990000Y-67310000D03*
X55990000Y-69810000D03*
%TD*%
D22*
%TO.C,R3*%
X62865000Y-71755000D03*
D23*
X70485000Y-71755000D03*
%TD*%
D22*
%TO.C,R1*%
X60960000Y-136525000D03*
D23*
X53340000Y-136525000D03*
%TD*%
D26*
%TO.C,J1*%
X86995000Y-135890000D03*
D27*
X84495000Y-135890000D03*
%TD*%
D28*
%TO.C,Q1*%
X66040000Y-136215000D03*
D29*
X68580000Y-136215000D03*
X71120000Y-136215000D03*
%TD*%
D30*
%TO.C,J2*%
X102235000Y-136525000D03*
D27*
X104735000Y-136525000D03*
%TD*%
D11*
%TO.C,U4*%
X54737000Y-89535000D03*
D10*
X54737000Y-86995000D03*
X54737000Y-84455000D03*
X54737000Y-81915000D03*
X54737000Y-79375000D03*
%TD*%
M02*
