%TF.GenerationSoftware,KiCad,Pcbnew,9.0.0*%
%TF.CreationDate,2025-05-24T14:05:22+02:00*%
%TF.ProjectId,Bojen_PCB,426f6a65-6e5f-4504-9342-2e6b69636164,V2*%
%TF.SameCoordinates,Original*%
%TF.FileFunction,Legend,Top*%
%TF.FilePolarity,Positive*%
%FSLAX46Y46*%
G04 Gerber Fmt 4.6, Leading zero omitted, Abs format (unit mm)*
G04 Created by KiCad (PCBNEW 9.0.0) date 2025-05-24 14:05:22*
%MOMM*%
%LPD*%
G01*
G04 APERTURE LIST*
%ADD10C,0.100000*%
%ADD11C,0.150000*%
%ADD12C,0.300000*%
%ADD13C,0.175000*%
%ADD14C,0.200000*%
%ADD15C,0.120000*%
%ADD16C,0.127000*%
G04 APERTURE END LIST*
D10*
X209676466Y-101931115D02*
X209676466Y-101169211D01*
X209676466Y-99169210D02*
X209676466Y-98407306D01*
X210057419Y-98788258D02*
X209295514Y-98788258D01*
X210057419Y-96407305D02*
X209057419Y-96407305D01*
X209057419Y-96407305D02*
X209057419Y-96169210D01*
X209057419Y-96169210D02*
X209105038Y-96026353D01*
X209105038Y-96026353D02*
X209200276Y-95931115D01*
X209200276Y-95931115D02*
X209295514Y-95883496D01*
X209295514Y-95883496D02*
X209485990Y-95835877D01*
X209485990Y-95835877D02*
X209628847Y-95835877D01*
X209628847Y-95835877D02*
X209819323Y-95883496D01*
X209819323Y-95883496D02*
X209914561Y-95931115D01*
X209914561Y-95931115D02*
X210009800Y-96026353D01*
X210009800Y-96026353D02*
X210057419Y-96169210D01*
X210057419Y-96169210D02*
X210057419Y-96407305D01*
X142366466Y-79786115D02*
X142366466Y-79024211D01*
X142366466Y-77024210D02*
X142366466Y-76262306D01*
X142747419Y-76643258D02*
X141985514Y-76643258D01*
X142461704Y-74309924D02*
X142461704Y-73833734D01*
X142747419Y-74405162D02*
X141747419Y-74071829D01*
X141747419Y-74071829D02*
X142747419Y-73738496D01*
X142366466Y-122966115D02*
X142366466Y-122204211D01*
X142366466Y-120204210D02*
X142366466Y-119442306D01*
X142747419Y-119823258D02*
X141985514Y-119823258D01*
X142461704Y-117489924D02*
X142461704Y-117013734D01*
X142747419Y-117585162D02*
X141747419Y-117251829D01*
X141747419Y-117251829D02*
X142747419Y-116918496D01*
X37591466Y-118441115D02*
X37591466Y-117679211D01*
X37591466Y-115679210D02*
X37591466Y-114917306D01*
X37972419Y-115298258D02*
X37210514Y-115298258D01*
X37686704Y-112964924D02*
X37686704Y-112488734D01*
X37972419Y-113060162D02*
X36972419Y-112726829D01*
X36972419Y-112726829D02*
X37972419Y-112393496D01*
X37805305Y-84786115D02*
X37805305Y-84024211D01*
X37805305Y-82024210D02*
X37805305Y-81262306D01*
X38186258Y-81643258D02*
X37424353Y-81643258D01*
X37900543Y-79309924D02*
X37900543Y-78833734D01*
X38186258Y-79405162D02*
X37186258Y-79071829D01*
X37186258Y-79071829D02*
X38186258Y-78738496D01*
D11*
X210054819Y-112693220D02*
X209054819Y-112693220D01*
X209054819Y-112693220D02*
X209054819Y-112312268D01*
X209054819Y-112312268D02*
X209102438Y-112217030D01*
X209102438Y-112217030D02*
X209150057Y-112169411D01*
X209150057Y-112169411D02*
X209245295Y-112121792D01*
X209245295Y-112121792D02*
X209388152Y-112121792D01*
X209388152Y-112121792D02*
X209483390Y-112169411D01*
X209483390Y-112169411D02*
X209531009Y-112217030D01*
X209531009Y-112217030D02*
X209578628Y-112312268D01*
X209578628Y-112312268D02*
X209578628Y-112693220D01*
X209388152Y-111264649D02*
X210054819Y-111264649D01*
X209388152Y-111693220D02*
X209911961Y-111693220D01*
X209911961Y-111693220D02*
X210007200Y-111645601D01*
X210007200Y-111645601D02*
X210054819Y-111550363D01*
X210054819Y-111550363D02*
X210054819Y-111407506D01*
X210054819Y-111407506D02*
X210007200Y-111312268D01*
X210007200Y-111312268D02*
X209959580Y-111264649D01*
X210054819Y-110645601D02*
X210007200Y-110740839D01*
X210007200Y-110740839D02*
X209911961Y-110788458D01*
X209911961Y-110788458D02*
X209054819Y-110788458D01*
X210054819Y-110121791D02*
X210007200Y-110217029D01*
X210007200Y-110217029D02*
X209911961Y-110264648D01*
X209911961Y-110264648D02*
X209054819Y-110264648D01*
X210054819Y-108978933D02*
X209054819Y-108978933D01*
X209054819Y-108978933D02*
X209054819Y-108740838D01*
X209054819Y-108740838D02*
X209102438Y-108597981D01*
X209102438Y-108597981D02*
X209197676Y-108502743D01*
X209197676Y-108502743D02*
X209292914Y-108455124D01*
X209292914Y-108455124D02*
X209483390Y-108407505D01*
X209483390Y-108407505D02*
X209626247Y-108407505D01*
X209626247Y-108407505D02*
X209816723Y-108455124D01*
X209816723Y-108455124D02*
X209911961Y-108502743D01*
X209911961Y-108502743D02*
X210007200Y-108597981D01*
X210007200Y-108597981D02*
X210054819Y-108740838D01*
X210054819Y-108740838D02*
X210054819Y-108978933D01*
X210054819Y-107836076D02*
X210007200Y-107931314D01*
X210007200Y-107931314D02*
X209959580Y-107978933D01*
X209959580Y-107978933D02*
X209864342Y-108026552D01*
X209864342Y-108026552D02*
X209578628Y-108026552D01*
X209578628Y-108026552D02*
X209483390Y-107978933D01*
X209483390Y-107978933D02*
X209435771Y-107931314D01*
X209435771Y-107931314D02*
X209388152Y-107836076D01*
X209388152Y-107836076D02*
X209388152Y-107693219D01*
X209388152Y-107693219D02*
X209435771Y-107597981D01*
X209435771Y-107597981D02*
X209483390Y-107550362D01*
X209483390Y-107550362D02*
X209578628Y-107502743D01*
X209578628Y-107502743D02*
X209864342Y-107502743D01*
X209864342Y-107502743D02*
X209959580Y-107550362D01*
X209959580Y-107550362D02*
X210007200Y-107597981D01*
X210007200Y-107597981D02*
X210054819Y-107693219D01*
X210054819Y-107693219D02*
X210054819Y-107836076D01*
X209388152Y-107169409D02*
X210054819Y-106978933D01*
X210054819Y-106978933D02*
X209578628Y-106788457D01*
X209578628Y-106788457D02*
X210054819Y-106597981D01*
X210054819Y-106597981D02*
X209388152Y-106407505D01*
X209388152Y-106026552D02*
X210054819Y-106026552D01*
X209483390Y-106026552D02*
X209435771Y-105978933D01*
X209435771Y-105978933D02*
X209388152Y-105883695D01*
X209388152Y-105883695D02*
X209388152Y-105740838D01*
X209388152Y-105740838D02*
X209435771Y-105645600D01*
X209435771Y-105645600D02*
X209531009Y-105597981D01*
X209531009Y-105597981D02*
X210054819Y-105597981D01*
X210054819Y-90468220D02*
X209054819Y-90468220D01*
X209054819Y-90468220D02*
X209054819Y-90087268D01*
X209054819Y-90087268D02*
X209102438Y-89992030D01*
X209102438Y-89992030D02*
X209150057Y-89944411D01*
X209150057Y-89944411D02*
X209245295Y-89896792D01*
X209245295Y-89896792D02*
X209388152Y-89896792D01*
X209388152Y-89896792D02*
X209483390Y-89944411D01*
X209483390Y-89944411D02*
X209531009Y-89992030D01*
X209531009Y-89992030D02*
X209578628Y-90087268D01*
X209578628Y-90087268D02*
X209578628Y-90468220D01*
X209388152Y-89039649D02*
X210054819Y-89039649D01*
X209388152Y-89468220D02*
X209911961Y-89468220D01*
X209911961Y-89468220D02*
X210007200Y-89420601D01*
X210007200Y-89420601D02*
X210054819Y-89325363D01*
X210054819Y-89325363D02*
X210054819Y-89182506D01*
X210054819Y-89182506D02*
X210007200Y-89087268D01*
X210007200Y-89087268D02*
X209959580Y-89039649D01*
X210054819Y-88420601D02*
X210007200Y-88515839D01*
X210007200Y-88515839D02*
X209911961Y-88563458D01*
X209911961Y-88563458D02*
X209054819Y-88563458D01*
X210054819Y-87896791D02*
X210007200Y-87992029D01*
X210007200Y-87992029D02*
X209911961Y-88039648D01*
X209911961Y-88039648D02*
X209054819Y-88039648D01*
X209054819Y-86753933D02*
X209864342Y-86753933D01*
X209864342Y-86753933D02*
X209959580Y-86706314D01*
X209959580Y-86706314D02*
X210007200Y-86658695D01*
X210007200Y-86658695D02*
X210054819Y-86563457D01*
X210054819Y-86563457D02*
X210054819Y-86372981D01*
X210054819Y-86372981D02*
X210007200Y-86277743D01*
X210007200Y-86277743D02*
X209959580Y-86230124D01*
X209959580Y-86230124D02*
X209864342Y-86182505D01*
X209864342Y-86182505D02*
X209054819Y-86182505D01*
X209388152Y-85706314D02*
X210388152Y-85706314D01*
X209435771Y-85706314D02*
X209388152Y-85611076D01*
X209388152Y-85611076D02*
X209388152Y-85420600D01*
X209388152Y-85420600D02*
X209435771Y-85325362D01*
X209435771Y-85325362D02*
X209483390Y-85277743D01*
X209483390Y-85277743D02*
X209578628Y-85230124D01*
X209578628Y-85230124D02*
X209864342Y-85230124D01*
X209864342Y-85230124D02*
X209959580Y-85277743D01*
X209959580Y-85277743D02*
X210007200Y-85325362D01*
X210007200Y-85325362D02*
X210054819Y-85420600D01*
X210054819Y-85420600D02*
X210054819Y-85611076D01*
X210054819Y-85611076D02*
X210007200Y-85706314D01*
X133064819Y-121499523D02*
X133779104Y-121499523D01*
X133779104Y-121499523D02*
X133921961Y-121547142D01*
X133921961Y-121547142D02*
X134017200Y-121642380D01*
X134017200Y-121642380D02*
X134064819Y-121785237D01*
X134064819Y-121785237D02*
X134064819Y-121880475D01*
X133160057Y-121070951D02*
X133112438Y-121023332D01*
X133112438Y-121023332D02*
X133064819Y-120928094D01*
X133064819Y-120928094D02*
X133064819Y-120689999D01*
X133064819Y-120689999D02*
X133112438Y-120594761D01*
X133112438Y-120594761D02*
X133160057Y-120547142D01*
X133160057Y-120547142D02*
X133255295Y-120499523D01*
X133255295Y-120499523D02*
X133350533Y-120499523D01*
X133350533Y-120499523D02*
X133493390Y-120547142D01*
X133493390Y-120547142D02*
X134064819Y-121118570D01*
X134064819Y-121118570D02*
X134064819Y-120499523D01*
X133064819Y-119642380D02*
X133064819Y-119832856D01*
X133064819Y-119832856D02*
X133112438Y-119928094D01*
X133112438Y-119928094D02*
X133160057Y-119975713D01*
X133160057Y-119975713D02*
X133302914Y-120070951D01*
X133302914Y-120070951D02*
X133493390Y-120118570D01*
X133493390Y-120118570D02*
X133874342Y-120118570D01*
X133874342Y-120118570D02*
X133969580Y-120070951D01*
X133969580Y-120070951D02*
X134017200Y-120023332D01*
X134017200Y-120023332D02*
X134064819Y-119928094D01*
X134064819Y-119928094D02*
X134064819Y-119737618D01*
X134064819Y-119737618D02*
X134017200Y-119642380D01*
X134017200Y-119642380D02*
X133969580Y-119594761D01*
X133969580Y-119594761D02*
X133874342Y-119547142D01*
X133874342Y-119547142D02*
X133636247Y-119547142D01*
X133636247Y-119547142D02*
X133541009Y-119594761D01*
X133541009Y-119594761D02*
X133493390Y-119642380D01*
X133493390Y-119642380D02*
X133445771Y-119737618D01*
X133445771Y-119737618D02*
X133445771Y-119928094D01*
X133445771Y-119928094D02*
X133493390Y-120023332D01*
X133493390Y-120023332D02*
X133541009Y-120070951D01*
X133541009Y-120070951D02*
X133636247Y-120118570D01*
X130054819Y-76533333D02*
X130769104Y-76533333D01*
X130769104Y-76533333D02*
X130911961Y-76580952D01*
X130911961Y-76580952D02*
X131007200Y-76676190D01*
X131007200Y-76676190D02*
X131054819Y-76819047D01*
X131054819Y-76819047D02*
X131054819Y-76914285D01*
X130483390Y-75914285D02*
X130435771Y-76009523D01*
X130435771Y-76009523D02*
X130388152Y-76057142D01*
X130388152Y-76057142D02*
X130292914Y-76104761D01*
X130292914Y-76104761D02*
X130245295Y-76104761D01*
X130245295Y-76104761D02*
X130150057Y-76057142D01*
X130150057Y-76057142D02*
X130102438Y-76009523D01*
X130102438Y-76009523D02*
X130054819Y-75914285D01*
X130054819Y-75914285D02*
X130054819Y-75723809D01*
X130054819Y-75723809D02*
X130102438Y-75628571D01*
X130102438Y-75628571D02*
X130150057Y-75580952D01*
X130150057Y-75580952D02*
X130245295Y-75533333D01*
X130245295Y-75533333D02*
X130292914Y-75533333D01*
X130292914Y-75533333D02*
X130388152Y-75580952D01*
X130388152Y-75580952D02*
X130435771Y-75628571D01*
X130435771Y-75628571D02*
X130483390Y-75723809D01*
X130483390Y-75723809D02*
X130483390Y-75914285D01*
X130483390Y-75914285D02*
X130531009Y-76009523D01*
X130531009Y-76009523D02*
X130578628Y-76057142D01*
X130578628Y-76057142D02*
X130673866Y-76104761D01*
X130673866Y-76104761D02*
X130864342Y-76104761D01*
X130864342Y-76104761D02*
X130959580Y-76057142D01*
X130959580Y-76057142D02*
X131007200Y-76009523D01*
X131007200Y-76009523D02*
X131054819Y-75914285D01*
X131054819Y-75914285D02*
X131054819Y-75723809D01*
X131054819Y-75723809D02*
X131007200Y-75628571D01*
X131007200Y-75628571D02*
X130959580Y-75580952D01*
X130959580Y-75580952D02*
X130864342Y-75533333D01*
X130864342Y-75533333D02*
X130673866Y-75533333D01*
X130673866Y-75533333D02*
X130578628Y-75580952D01*
X130578628Y-75580952D02*
X130531009Y-75628571D01*
X130531009Y-75628571D02*
X130483390Y-75723809D01*
X130054819Y-122253333D02*
X130769104Y-122253333D01*
X130769104Y-122253333D02*
X130911961Y-122300952D01*
X130911961Y-122300952D02*
X131007200Y-122396190D01*
X131007200Y-122396190D02*
X131054819Y-122539047D01*
X131054819Y-122539047D02*
X131054819Y-122634285D01*
X130054819Y-121872380D02*
X130054819Y-121253333D01*
X130054819Y-121253333D02*
X130435771Y-121586666D01*
X130435771Y-121586666D02*
X130435771Y-121443809D01*
X130435771Y-121443809D02*
X130483390Y-121348571D01*
X130483390Y-121348571D02*
X130531009Y-121300952D01*
X130531009Y-121300952D02*
X130626247Y-121253333D01*
X130626247Y-121253333D02*
X130864342Y-121253333D01*
X130864342Y-121253333D02*
X130959580Y-121300952D01*
X130959580Y-121300952D02*
X131007200Y-121348571D01*
X131007200Y-121348571D02*
X131054819Y-121443809D01*
X131054819Y-121443809D02*
X131054819Y-121729523D01*
X131054819Y-121729523D02*
X131007200Y-121824761D01*
X131007200Y-121824761D02*
X130959580Y-121872380D01*
X86669819Y-110541904D02*
X87479342Y-110541904D01*
X87479342Y-110541904D02*
X87574580Y-110494285D01*
X87574580Y-110494285D02*
X87622200Y-110446666D01*
X87622200Y-110446666D02*
X87669819Y-110351428D01*
X87669819Y-110351428D02*
X87669819Y-110160952D01*
X87669819Y-110160952D02*
X87622200Y-110065714D01*
X87622200Y-110065714D02*
X87574580Y-110018095D01*
X87574580Y-110018095D02*
X87479342Y-109970476D01*
X87479342Y-109970476D02*
X86669819Y-109970476D01*
X86669819Y-109589523D02*
X86669819Y-108922857D01*
X86669819Y-108922857D02*
X87669819Y-109351428D01*
D12*
X94969462Y-111991500D02*
X94969462Y-111491500D01*
X95755176Y-111277214D02*
X95755176Y-111991500D01*
X95755176Y-111991500D02*
X94255176Y-111991500D01*
X94255176Y-111991500D02*
X94255176Y-111277214D01*
X95683748Y-110705785D02*
X95755176Y-110491500D01*
X95755176Y-110491500D02*
X95755176Y-110134357D01*
X95755176Y-110134357D02*
X95683748Y-109991500D01*
X95683748Y-109991500D02*
X95612319Y-109920071D01*
X95612319Y-109920071D02*
X95469462Y-109848642D01*
X95469462Y-109848642D02*
X95326605Y-109848642D01*
X95326605Y-109848642D02*
X95183748Y-109920071D01*
X95183748Y-109920071D02*
X95112319Y-109991500D01*
X95112319Y-109991500D02*
X95040890Y-110134357D01*
X95040890Y-110134357D02*
X94969462Y-110420071D01*
X94969462Y-110420071D02*
X94898033Y-110562928D01*
X94898033Y-110562928D02*
X94826605Y-110634357D01*
X94826605Y-110634357D02*
X94683748Y-110705785D01*
X94683748Y-110705785D02*
X94540890Y-110705785D01*
X94540890Y-110705785D02*
X94398033Y-110634357D01*
X94398033Y-110634357D02*
X94326605Y-110562928D01*
X94326605Y-110562928D02*
X94255176Y-110420071D01*
X94255176Y-110420071D02*
X94255176Y-110062928D01*
X94255176Y-110062928D02*
X94326605Y-109848642D01*
X95755176Y-109205786D02*
X94255176Y-109205786D01*
X94255176Y-109205786D02*
X94255176Y-108634357D01*
X94255176Y-108634357D02*
X94326605Y-108491500D01*
X94326605Y-108491500D02*
X94398033Y-108420071D01*
X94398033Y-108420071D02*
X94540890Y-108348643D01*
X94540890Y-108348643D02*
X94755176Y-108348643D01*
X94755176Y-108348643D02*
X94898033Y-108420071D01*
X94898033Y-108420071D02*
X94969462Y-108491500D01*
X94969462Y-108491500D02*
X95040890Y-108634357D01*
X95040890Y-108634357D02*
X95040890Y-109205786D01*
X94255176Y-107848643D02*
X94255176Y-106920071D01*
X94255176Y-106920071D02*
X94826605Y-107420071D01*
X94826605Y-107420071D02*
X94826605Y-107205786D01*
X94826605Y-107205786D02*
X94898033Y-107062929D01*
X94898033Y-107062929D02*
X94969462Y-106991500D01*
X94969462Y-106991500D02*
X95112319Y-106920071D01*
X95112319Y-106920071D02*
X95469462Y-106920071D01*
X95469462Y-106920071D02*
X95612319Y-106991500D01*
X95612319Y-106991500D02*
X95683748Y-107062929D01*
X95683748Y-107062929D02*
X95755176Y-107205786D01*
X95755176Y-107205786D02*
X95755176Y-107634357D01*
X95755176Y-107634357D02*
X95683748Y-107777214D01*
X95683748Y-107777214D02*
X95612319Y-107848643D01*
X94398033Y-106348643D02*
X94326605Y-106277215D01*
X94326605Y-106277215D02*
X94255176Y-106134358D01*
X94255176Y-106134358D02*
X94255176Y-105777215D01*
X94255176Y-105777215D02*
X94326605Y-105634358D01*
X94326605Y-105634358D02*
X94398033Y-105562929D01*
X94398033Y-105562929D02*
X94540890Y-105491500D01*
X94540890Y-105491500D02*
X94683748Y-105491500D01*
X94683748Y-105491500D02*
X94898033Y-105562929D01*
X94898033Y-105562929D02*
X95755176Y-106420072D01*
X95755176Y-106420072D02*
X95755176Y-105491500D01*
X95183748Y-104848644D02*
X95183748Y-103705787D01*
X94255176Y-103134358D02*
X95755176Y-102777215D01*
X95755176Y-102777215D02*
X94683748Y-102491501D01*
X94683748Y-102491501D02*
X95755176Y-102205786D01*
X95755176Y-102205786D02*
X94255176Y-101848644D01*
X95755176Y-101277215D02*
X94755176Y-101277215D01*
X95040890Y-101277215D02*
X94898033Y-101205786D01*
X94898033Y-101205786D02*
X94826605Y-101134358D01*
X94826605Y-101134358D02*
X94755176Y-100991500D01*
X94755176Y-100991500D02*
X94755176Y-100848643D01*
X95755176Y-100134358D02*
X95683748Y-100277215D01*
X95683748Y-100277215D02*
X95612319Y-100348644D01*
X95612319Y-100348644D02*
X95469462Y-100420072D01*
X95469462Y-100420072D02*
X95040890Y-100420072D01*
X95040890Y-100420072D02*
X94898033Y-100348644D01*
X94898033Y-100348644D02*
X94826605Y-100277215D01*
X94826605Y-100277215D02*
X94755176Y-100134358D01*
X94755176Y-100134358D02*
X94755176Y-99920072D01*
X94755176Y-99920072D02*
X94826605Y-99777215D01*
X94826605Y-99777215D02*
X94898033Y-99705787D01*
X94898033Y-99705787D02*
X95040890Y-99634358D01*
X95040890Y-99634358D02*
X95469462Y-99634358D01*
X95469462Y-99634358D02*
X95612319Y-99705787D01*
X95612319Y-99705787D02*
X95683748Y-99777215D01*
X95683748Y-99777215D02*
X95755176Y-99920072D01*
X95755176Y-99920072D02*
X95755176Y-100134358D01*
X95755176Y-98777215D02*
X95683748Y-98920072D01*
X95683748Y-98920072D02*
X95612319Y-98991501D01*
X95612319Y-98991501D02*
X95469462Y-99062929D01*
X95469462Y-99062929D02*
X95040890Y-99062929D01*
X95040890Y-99062929D02*
X94898033Y-98991501D01*
X94898033Y-98991501D02*
X94826605Y-98920072D01*
X94826605Y-98920072D02*
X94755176Y-98777215D01*
X94755176Y-98777215D02*
X94755176Y-98562929D01*
X94755176Y-98562929D02*
X94826605Y-98420072D01*
X94826605Y-98420072D02*
X94898033Y-98348644D01*
X94898033Y-98348644D02*
X95040890Y-98277215D01*
X95040890Y-98277215D02*
X95469462Y-98277215D01*
X95469462Y-98277215D02*
X95612319Y-98348644D01*
X95612319Y-98348644D02*
X95683748Y-98420072D01*
X95683748Y-98420072D02*
X95755176Y-98562929D01*
X95755176Y-98562929D02*
X95755176Y-98777215D01*
X95755176Y-97634358D02*
X94755176Y-97634358D01*
X94898033Y-97634358D02*
X94826605Y-97562929D01*
X94826605Y-97562929D02*
X94755176Y-97420072D01*
X94755176Y-97420072D02*
X94755176Y-97205786D01*
X94755176Y-97205786D02*
X94826605Y-97062929D01*
X94826605Y-97062929D02*
X94969462Y-96991501D01*
X94969462Y-96991501D02*
X95755176Y-96991501D01*
X94969462Y-96991501D02*
X94826605Y-96920072D01*
X94826605Y-96920072D02*
X94755176Y-96777215D01*
X94755176Y-96777215D02*
X94755176Y-96562929D01*
X94755176Y-96562929D02*
X94826605Y-96420072D01*
X94826605Y-96420072D02*
X94969462Y-96348643D01*
X94969462Y-96348643D02*
X95755176Y-96348643D01*
X95183748Y-95634358D02*
X95183748Y-94491501D01*
X95755176Y-93777215D02*
X94255176Y-93777215D01*
X94255176Y-93777215D02*
X94255176Y-93420072D01*
X94255176Y-93420072D02*
X94326605Y-93205786D01*
X94326605Y-93205786D02*
X94469462Y-93062929D01*
X94469462Y-93062929D02*
X94612319Y-92991500D01*
X94612319Y-92991500D02*
X94898033Y-92920072D01*
X94898033Y-92920072D02*
X95112319Y-92920072D01*
X95112319Y-92920072D02*
X95398033Y-92991500D01*
X95398033Y-92991500D02*
X95540890Y-93062929D01*
X95540890Y-93062929D02*
X95683748Y-93205786D01*
X95683748Y-93205786D02*
X95755176Y-93420072D01*
X95755176Y-93420072D02*
X95755176Y-93777215D01*
X95683748Y-91705786D02*
X95755176Y-91848643D01*
X95755176Y-91848643D02*
X95755176Y-92134358D01*
X95755176Y-92134358D02*
X95683748Y-92277215D01*
X95683748Y-92277215D02*
X95540890Y-92348643D01*
X95540890Y-92348643D02*
X94969462Y-92348643D01*
X94969462Y-92348643D02*
X94826605Y-92277215D01*
X94826605Y-92277215D02*
X94755176Y-92134358D01*
X94755176Y-92134358D02*
X94755176Y-91848643D01*
X94755176Y-91848643D02*
X94826605Y-91705786D01*
X94826605Y-91705786D02*
X94969462Y-91634358D01*
X94969462Y-91634358D02*
X95112319Y-91634358D01*
X95112319Y-91634358D02*
X95255176Y-92348643D01*
X94755176Y-91134358D02*
X95755176Y-90777215D01*
X95755176Y-90777215D02*
X94755176Y-90420072D01*
X95755176Y-89848644D02*
X94255176Y-89848644D01*
X95755176Y-88991501D02*
X94898033Y-89634358D01*
X94255176Y-88991501D02*
X95112319Y-89848644D01*
X95755176Y-88348644D02*
X94755176Y-88348644D01*
X94255176Y-88348644D02*
X94326605Y-88420072D01*
X94326605Y-88420072D02*
X94398033Y-88348644D01*
X94398033Y-88348644D02*
X94326605Y-88277215D01*
X94326605Y-88277215D02*
X94255176Y-88348644D01*
X94255176Y-88348644D02*
X94398033Y-88348644D01*
X94755176Y-87848643D02*
X94755176Y-87277215D01*
X94255176Y-87634358D02*
X95540890Y-87634358D01*
X95540890Y-87634358D02*
X95683748Y-87562929D01*
X95683748Y-87562929D02*
X95755176Y-87420072D01*
X95755176Y-87420072D02*
X95755176Y-87277215D01*
X94255176Y-86991500D02*
X95755176Y-86491500D01*
X95755176Y-86491500D02*
X94255176Y-85991500D01*
X95755176Y-84705786D02*
X95755176Y-85562929D01*
X95755176Y-85134358D02*
X94255176Y-85134358D01*
X94255176Y-85134358D02*
X94469462Y-85277215D01*
X94469462Y-85277215D02*
X94612319Y-85420072D01*
X94612319Y-85420072D02*
X94683748Y-85562929D01*
D11*
X125060395Y-56037319D02*
X125060395Y-55037319D01*
X125060395Y-55513509D02*
X125631823Y-55513509D01*
X125631823Y-56037319D02*
X125631823Y-55037319D01*
X126584204Y-55037319D02*
X126108014Y-55037319D01*
X126108014Y-55037319D02*
X126060395Y-55513509D01*
X126060395Y-55513509D02*
X126108014Y-55465890D01*
X126108014Y-55465890D02*
X126203252Y-55418271D01*
X126203252Y-55418271D02*
X126441347Y-55418271D01*
X126441347Y-55418271D02*
X126536585Y-55465890D01*
X126536585Y-55465890D02*
X126584204Y-55513509D01*
X126584204Y-55513509D02*
X126631823Y-55608747D01*
X126631823Y-55608747D02*
X126631823Y-55846842D01*
X126631823Y-55846842D02*
X126584204Y-55942080D01*
X126584204Y-55942080D02*
X126536585Y-55989700D01*
X126536585Y-55989700D02*
X126441347Y-56037319D01*
X126441347Y-56037319D02*
X126203252Y-56037319D01*
X126203252Y-56037319D02*
X126108014Y-55989700D01*
X126108014Y-55989700D02*
X126060395Y-55942080D01*
X124972195Y-137147219D02*
X124972195Y-136147219D01*
X124972195Y-136623409D02*
X125543623Y-136623409D01*
X125543623Y-137147219D02*
X125543623Y-136147219D01*
X126448385Y-136147219D02*
X126257909Y-136147219D01*
X126257909Y-136147219D02*
X126162671Y-136194838D01*
X126162671Y-136194838D02*
X126115052Y-136242457D01*
X126115052Y-136242457D02*
X126019814Y-136385314D01*
X126019814Y-136385314D02*
X125972195Y-136575790D01*
X125972195Y-136575790D02*
X125972195Y-136956742D01*
X125972195Y-136956742D02*
X126019814Y-137051980D01*
X126019814Y-137051980D02*
X126067433Y-137099600D01*
X126067433Y-137099600D02*
X126162671Y-137147219D01*
X126162671Y-137147219D02*
X126353147Y-137147219D01*
X126353147Y-137147219D02*
X126448385Y-137099600D01*
X126448385Y-137099600D02*
X126496004Y-137051980D01*
X126496004Y-137051980D02*
X126543623Y-136956742D01*
X126543623Y-136956742D02*
X126543623Y-136718647D01*
X126543623Y-136718647D02*
X126496004Y-136623409D01*
X126496004Y-136623409D02*
X126448385Y-136575790D01*
X126448385Y-136575790D02*
X126353147Y-136528171D01*
X126353147Y-136528171D02*
X126162671Y-136528171D01*
X126162671Y-136528171D02*
X126067433Y-136575790D01*
X126067433Y-136575790D02*
X126019814Y-136623409D01*
X126019814Y-136623409D02*
X125972195Y-136718647D01*
D13*
X157635484Y-80339392D02*
X156835484Y-80339392D01*
X156835484Y-80339392D02*
X157406912Y-80072726D01*
X157406912Y-80072726D02*
X156835484Y-79806059D01*
X156835484Y-79806059D02*
X157635484Y-79806059D01*
X157559293Y-78967963D02*
X157597389Y-79006059D01*
X157597389Y-79006059D02*
X157635484Y-79120344D01*
X157635484Y-79120344D02*
X157635484Y-79196535D01*
X157635484Y-79196535D02*
X157597389Y-79310821D01*
X157597389Y-79310821D02*
X157521198Y-79387011D01*
X157521198Y-79387011D02*
X157445008Y-79425106D01*
X157445008Y-79425106D02*
X157292627Y-79463202D01*
X157292627Y-79463202D02*
X157178341Y-79463202D01*
X157178341Y-79463202D02*
X157025960Y-79425106D01*
X157025960Y-79425106D02*
X156949769Y-79387011D01*
X156949769Y-79387011D02*
X156873579Y-79310821D01*
X156873579Y-79310821D02*
X156835484Y-79196535D01*
X156835484Y-79196535D02*
X156835484Y-79120344D01*
X156835484Y-79120344D02*
X156873579Y-79006059D01*
X156873579Y-79006059D02*
X156911674Y-78967963D01*
X156835484Y-78625106D02*
X157483103Y-78625106D01*
X157483103Y-78625106D02*
X157559293Y-78587011D01*
X157559293Y-78587011D02*
X157597389Y-78548916D01*
X157597389Y-78548916D02*
X157635484Y-78472725D01*
X157635484Y-78472725D02*
X157635484Y-78320344D01*
X157635484Y-78320344D02*
X157597389Y-78244154D01*
X157597389Y-78244154D02*
X157559293Y-78206059D01*
X157559293Y-78206059D02*
X157483103Y-78167963D01*
X157483103Y-78167963D02*
X156835484Y-78167963D01*
D12*
X177372489Y-79066171D02*
X177372489Y-80566171D01*
X177372489Y-80566171D02*
X176801060Y-80566171D01*
X176801060Y-80566171D02*
X176658203Y-80494742D01*
X176658203Y-80494742D02*
X176586774Y-80423314D01*
X176586774Y-80423314D02*
X176515346Y-80280457D01*
X176515346Y-80280457D02*
X176515346Y-80066171D01*
X176515346Y-80066171D02*
X176586774Y-79923314D01*
X176586774Y-79923314D02*
X176658203Y-79851885D01*
X176658203Y-79851885D02*
X176801060Y-79780457D01*
X176801060Y-79780457D02*
X177372489Y-79780457D01*
X175872489Y-79066171D02*
X175872489Y-80566171D01*
X175872489Y-79851885D02*
X175015346Y-79851885D01*
X175015346Y-79066171D02*
X175015346Y-80566171D01*
X173229631Y-79137600D02*
X173015346Y-79066171D01*
X173015346Y-79066171D02*
X172658203Y-79066171D01*
X172658203Y-79066171D02*
X172515346Y-79137600D01*
X172515346Y-79137600D02*
X172443917Y-79209028D01*
X172443917Y-79209028D02*
X172372488Y-79351885D01*
X172372488Y-79351885D02*
X172372488Y-79494742D01*
X172372488Y-79494742D02*
X172443917Y-79637600D01*
X172443917Y-79637600D02*
X172515346Y-79709028D01*
X172515346Y-79709028D02*
X172658203Y-79780457D01*
X172658203Y-79780457D02*
X172943917Y-79851885D01*
X172943917Y-79851885D02*
X173086774Y-79923314D01*
X173086774Y-79923314D02*
X173158203Y-79994742D01*
X173158203Y-79994742D02*
X173229631Y-80137600D01*
X173229631Y-80137600D02*
X173229631Y-80280457D01*
X173229631Y-80280457D02*
X173158203Y-80423314D01*
X173158203Y-80423314D02*
X173086774Y-80494742D01*
X173086774Y-80494742D02*
X172943917Y-80566171D01*
X172943917Y-80566171D02*
X172586774Y-80566171D01*
X172586774Y-80566171D02*
X172372488Y-80494742D01*
X171158203Y-79137600D02*
X171301060Y-79066171D01*
X171301060Y-79066171D02*
X171586775Y-79066171D01*
X171586775Y-79066171D02*
X171729632Y-79137600D01*
X171729632Y-79137600D02*
X171801060Y-79280457D01*
X171801060Y-79280457D02*
X171801060Y-79851885D01*
X171801060Y-79851885D02*
X171729632Y-79994742D01*
X171729632Y-79994742D02*
X171586775Y-80066171D01*
X171586775Y-80066171D02*
X171301060Y-80066171D01*
X171301060Y-80066171D02*
X171158203Y-79994742D01*
X171158203Y-79994742D02*
X171086775Y-79851885D01*
X171086775Y-79851885D02*
X171086775Y-79709028D01*
X171086775Y-79709028D02*
X171801060Y-79566171D01*
X170443918Y-80066171D02*
X170443918Y-79066171D01*
X170443918Y-79923314D02*
X170372489Y-79994742D01*
X170372489Y-79994742D02*
X170229632Y-80066171D01*
X170229632Y-80066171D02*
X170015346Y-80066171D01*
X170015346Y-80066171D02*
X169872489Y-79994742D01*
X169872489Y-79994742D02*
X169801061Y-79851885D01*
X169801061Y-79851885D02*
X169801061Y-79066171D01*
X169158203Y-79137600D02*
X169015346Y-79066171D01*
X169015346Y-79066171D02*
X168729632Y-79066171D01*
X168729632Y-79066171D02*
X168586775Y-79137600D01*
X168586775Y-79137600D02*
X168515346Y-79280457D01*
X168515346Y-79280457D02*
X168515346Y-79351885D01*
X168515346Y-79351885D02*
X168586775Y-79494742D01*
X168586775Y-79494742D02*
X168729632Y-79566171D01*
X168729632Y-79566171D02*
X168943918Y-79566171D01*
X168943918Y-79566171D02*
X169086775Y-79637600D01*
X169086775Y-79637600D02*
X169158203Y-79780457D01*
X169158203Y-79780457D02*
X169158203Y-79851885D01*
X169158203Y-79851885D02*
X169086775Y-79994742D01*
X169086775Y-79994742D02*
X168943918Y-80066171D01*
X168943918Y-80066171D02*
X168729632Y-80066171D01*
X168729632Y-80066171D02*
X168586775Y-79994742D01*
X167658203Y-79066171D02*
X167801060Y-79137600D01*
X167801060Y-79137600D02*
X167872489Y-79209028D01*
X167872489Y-79209028D02*
X167943917Y-79351885D01*
X167943917Y-79351885D02*
X167943917Y-79780457D01*
X167943917Y-79780457D02*
X167872489Y-79923314D01*
X167872489Y-79923314D02*
X167801060Y-79994742D01*
X167801060Y-79994742D02*
X167658203Y-80066171D01*
X167658203Y-80066171D02*
X167443917Y-80066171D01*
X167443917Y-80066171D02*
X167301060Y-79994742D01*
X167301060Y-79994742D02*
X167229632Y-79923314D01*
X167229632Y-79923314D02*
X167158203Y-79780457D01*
X167158203Y-79780457D02*
X167158203Y-79351885D01*
X167158203Y-79351885D02*
X167229632Y-79209028D01*
X167229632Y-79209028D02*
X167301060Y-79137600D01*
X167301060Y-79137600D02*
X167443917Y-79066171D01*
X167443917Y-79066171D02*
X167658203Y-79066171D01*
X166515346Y-79066171D02*
X166515346Y-80066171D01*
X166515346Y-79780457D02*
X166443917Y-79923314D01*
X166443917Y-79923314D02*
X166372489Y-79994742D01*
X166372489Y-79994742D02*
X166229631Y-80066171D01*
X166229631Y-80066171D02*
X166086774Y-80066171D01*
D10*
X154431466Y-81611115D02*
X154431466Y-80849211D01*
X154898604Y-79375533D02*
X154136700Y-79375533D01*
X154517652Y-78994580D02*
X154517652Y-79756485D01*
X154810734Y-77248295D02*
X154334544Y-77248295D01*
X154905972Y-76962580D02*
X154572639Y-77962580D01*
X154572639Y-77962580D02*
X154239306Y-76962580D01*
D13*
X189019942Y-77593398D02*
X188981846Y-77707684D01*
X188981846Y-77707684D02*
X188981846Y-77898160D01*
X188981846Y-77898160D02*
X189019942Y-77974351D01*
X189019942Y-77974351D02*
X189058037Y-78012446D01*
X189058037Y-78012446D02*
X189134227Y-78050541D01*
X189134227Y-78050541D02*
X189210418Y-78050541D01*
X189210418Y-78050541D02*
X189286608Y-78012446D01*
X189286608Y-78012446D02*
X189324703Y-77974351D01*
X189324703Y-77974351D02*
X189362799Y-77898160D01*
X189362799Y-77898160D02*
X189400894Y-77745779D01*
X189400894Y-77745779D02*
X189438989Y-77669589D01*
X189438989Y-77669589D02*
X189477084Y-77631494D01*
X189477084Y-77631494D02*
X189553275Y-77593398D01*
X189553275Y-77593398D02*
X189629465Y-77593398D01*
X189629465Y-77593398D02*
X189705656Y-77631494D01*
X189705656Y-77631494D02*
X189743751Y-77669589D01*
X189743751Y-77669589D02*
X189781846Y-77745779D01*
X189781846Y-77745779D02*
X189781846Y-77936256D01*
X189781846Y-77936256D02*
X189743751Y-78050541D01*
X189019942Y-78698161D02*
X188981846Y-78621970D01*
X188981846Y-78621970D02*
X188981846Y-78469589D01*
X188981846Y-78469589D02*
X189019942Y-78393399D01*
X189019942Y-78393399D02*
X189096132Y-78355303D01*
X189096132Y-78355303D02*
X189400894Y-78355303D01*
X189400894Y-78355303D02*
X189477084Y-78393399D01*
X189477084Y-78393399D02*
X189515180Y-78469589D01*
X189515180Y-78469589D02*
X189515180Y-78621970D01*
X189515180Y-78621970D02*
X189477084Y-78698161D01*
X189477084Y-78698161D02*
X189400894Y-78736256D01*
X189400894Y-78736256D02*
X189324703Y-78736256D01*
X189324703Y-78736256D02*
X189248513Y-78355303D01*
X189515180Y-79079113D02*
X188981846Y-79079113D01*
X189438989Y-79079113D02*
X189477084Y-79117208D01*
X189477084Y-79117208D02*
X189515180Y-79193398D01*
X189515180Y-79193398D02*
X189515180Y-79307684D01*
X189515180Y-79307684D02*
X189477084Y-79383875D01*
X189477084Y-79383875D02*
X189400894Y-79421970D01*
X189400894Y-79421970D02*
X188981846Y-79421970D01*
X189019942Y-79764827D02*
X188981846Y-79841018D01*
X188981846Y-79841018D02*
X188981846Y-79993399D01*
X188981846Y-79993399D02*
X189019942Y-80069589D01*
X189019942Y-80069589D02*
X189096132Y-80107685D01*
X189096132Y-80107685D02*
X189134227Y-80107685D01*
X189134227Y-80107685D02*
X189210418Y-80069589D01*
X189210418Y-80069589D02*
X189248513Y-79993399D01*
X189248513Y-79993399D02*
X189248513Y-79879113D01*
X189248513Y-79879113D02*
X189286608Y-79802923D01*
X189286608Y-79802923D02*
X189362799Y-79764827D01*
X189362799Y-79764827D02*
X189400894Y-79764827D01*
X189400894Y-79764827D02*
X189477084Y-79802923D01*
X189477084Y-79802923D02*
X189515180Y-79879113D01*
X189515180Y-79879113D02*
X189515180Y-79993399D01*
X189515180Y-79993399D02*
X189477084Y-80069589D01*
X188981846Y-80564827D02*
X189019942Y-80488637D01*
X189019942Y-80488637D02*
X189058037Y-80450542D01*
X189058037Y-80450542D02*
X189134227Y-80412446D01*
X189134227Y-80412446D02*
X189362799Y-80412446D01*
X189362799Y-80412446D02*
X189438989Y-80450542D01*
X189438989Y-80450542D02*
X189477084Y-80488637D01*
X189477084Y-80488637D02*
X189515180Y-80564827D01*
X189515180Y-80564827D02*
X189515180Y-80679113D01*
X189515180Y-80679113D02*
X189477084Y-80755304D01*
X189477084Y-80755304D02*
X189438989Y-80793399D01*
X189438989Y-80793399D02*
X189362799Y-80831494D01*
X189362799Y-80831494D02*
X189134227Y-80831494D01*
X189134227Y-80831494D02*
X189058037Y-80793399D01*
X189058037Y-80793399D02*
X189019942Y-80755304D01*
X189019942Y-80755304D02*
X188981846Y-80679113D01*
X188981846Y-80679113D02*
X188981846Y-80564827D01*
X188981846Y-81174352D02*
X189515180Y-81174352D01*
X189362799Y-81174352D02*
X189438989Y-81212447D01*
X189438989Y-81212447D02*
X189477084Y-81250542D01*
X189477084Y-81250542D02*
X189515180Y-81326733D01*
X189515180Y-81326733D02*
X189515180Y-81402923D01*
D11*
X28924819Y-82684523D02*
X29639104Y-82684523D01*
X29639104Y-82684523D02*
X29781961Y-82732142D01*
X29781961Y-82732142D02*
X29877200Y-82827380D01*
X29877200Y-82827380D02*
X29924819Y-82970237D01*
X29924819Y-82970237D02*
X29924819Y-83065475D01*
X29020057Y-82255951D02*
X28972438Y-82208332D01*
X28972438Y-82208332D02*
X28924819Y-82113094D01*
X28924819Y-82113094D02*
X28924819Y-81874999D01*
X28924819Y-81874999D02*
X28972438Y-81779761D01*
X28972438Y-81779761D02*
X29020057Y-81732142D01*
X29020057Y-81732142D02*
X29115295Y-81684523D01*
X29115295Y-81684523D02*
X29210533Y-81684523D01*
X29210533Y-81684523D02*
X29353390Y-81732142D01*
X29353390Y-81732142D02*
X29924819Y-82303570D01*
X29924819Y-82303570D02*
X29924819Y-81684523D01*
X28924819Y-81351189D02*
X28924819Y-80684523D01*
X28924819Y-80684523D02*
X29924819Y-81113094D01*
X133064819Y-77684523D02*
X133779104Y-77684523D01*
X133779104Y-77684523D02*
X133921961Y-77732142D01*
X133921961Y-77732142D02*
X134017200Y-77827380D01*
X134017200Y-77827380D02*
X134064819Y-77970237D01*
X134064819Y-77970237D02*
X134064819Y-78065475D01*
X133160057Y-77255951D02*
X133112438Y-77208332D01*
X133112438Y-77208332D02*
X133064819Y-77113094D01*
X133064819Y-77113094D02*
X133064819Y-76874999D01*
X133064819Y-76874999D02*
X133112438Y-76779761D01*
X133112438Y-76779761D02*
X133160057Y-76732142D01*
X133160057Y-76732142D02*
X133255295Y-76684523D01*
X133255295Y-76684523D02*
X133350533Y-76684523D01*
X133350533Y-76684523D02*
X133493390Y-76732142D01*
X133493390Y-76732142D02*
X134064819Y-77303570D01*
X134064819Y-77303570D02*
X134064819Y-76684523D01*
X133064819Y-75779761D02*
X133064819Y-76255951D01*
X133064819Y-76255951D02*
X133541009Y-76303570D01*
X133541009Y-76303570D02*
X133493390Y-76255951D01*
X133493390Y-76255951D02*
X133445771Y-76160713D01*
X133445771Y-76160713D02*
X133445771Y-75922618D01*
X133445771Y-75922618D02*
X133493390Y-75827380D01*
X133493390Y-75827380D02*
X133541009Y-75779761D01*
X133541009Y-75779761D02*
X133636247Y-75732142D01*
X133636247Y-75732142D02*
X133874342Y-75732142D01*
X133874342Y-75732142D02*
X133969580Y-75779761D01*
X133969580Y-75779761D02*
X134017200Y-75827380D01*
X134017200Y-75827380D02*
X134064819Y-75922618D01*
X134064819Y-75922618D02*
X134064819Y-76160713D01*
X134064819Y-76160713D02*
X134017200Y-76255951D01*
X134017200Y-76255951D02*
X133969580Y-76303570D01*
X28924819Y-116339523D02*
X29639104Y-116339523D01*
X29639104Y-116339523D02*
X29781961Y-116387142D01*
X29781961Y-116387142D02*
X29877200Y-116482380D01*
X29877200Y-116482380D02*
X29924819Y-116625237D01*
X29924819Y-116625237D02*
X29924819Y-116720475D01*
X29020057Y-115910951D02*
X28972438Y-115863332D01*
X28972438Y-115863332D02*
X28924819Y-115768094D01*
X28924819Y-115768094D02*
X28924819Y-115529999D01*
X28924819Y-115529999D02*
X28972438Y-115434761D01*
X28972438Y-115434761D02*
X29020057Y-115387142D01*
X29020057Y-115387142D02*
X29115295Y-115339523D01*
X29115295Y-115339523D02*
X29210533Y-115339523D01*
X29210533Y-115339523D02*
X29353390Y-115387142D01*
X29353390Y-115387142D02*
X29924819Y-115958570D01*
X29924819Y-115958570D02*
X29924819Y-115339523D01*
X29258152Y-114482380D02*
X29924819Y-114482380D01*
X28877200Y-114720475D02*
X29591485Y-114958570D01*
X29591485Y-114958570D02*
X29591485Y-114339523D01*
D10*
X80163404Y-133539380D02*
X80163404Y-132729857D01*
X80163404Y-132729857D02*
X80115785Y-132634619D01*
X80115785Y-132634619D02*
X80068166Y-132587000D01*
X80068166Y-132587000D02*
X79972928Y-132539380D01*
X79972928Y-132539380D02*
X79782452Y-132539380D01*
X79782452Y-132539380D02*
X79687214Y-132587000D01*
X79687214Y-132587000D02*
X79639595Y-132634619D01*
X79639595Y-132634619D02*
X79591976Y-132729857D01*
X79591976Y-132729857D02*
X79591976Y-133539380D01*
X78972928Y-133110809D02*
X79068166Y-133158428D01*
X79068166Y-133158428D02*
X79115785Y-133206047D01*
X79115785Y-133206047D02*
X79163404Y-133301285D01*
X79163404Y-133301285D02*
X79163404Y-133348904D01*
X79163404Y-133348904D02*
X79115785Y-133444142D01*
X79115785Y-133444142D02*
X79068166Y-133491761D01*
X79068166Y-133491761D02*
X78972928Y-133539380D01*
X78972928Y-133539380D02*
X78782452Y-133539380D01*
X78782452Y-133539380D02*
X78687214Y-133491761D01*
X78687214Y-133491761D02*
X78639595Y-133444142D01*
X78639595Y-133444142D02*
X78591976Y-133348904D01*
X78591976Y-133348904D02*
X78591976Y-133301285D01*
X78591976Y-133301285D02*
X78639595Y-133206047D01*
X78639595Y-133206047D02*
X78687214Y-133158428D01*
X78687214Y-133158428D02*
X78782452Y-133110809D01*
X78782452Y-133110809D02*
X78972928Y-133110809D01*
X78972928Y-133110809D02*
X79068166Y-133063190D01*
X79068166Y-133063190D02*
X79115785Y-133015571D01*
X79115785Y-133015571D02*
X79163404Y-132920333D01*
X79163404Y-132920333D02*
X79163404Y-132729857D01*
X79163404Y-132729857D02*
X79115785Y-132634619D01*
X79115785Y-132634619D02*
X79068166Y-132587000D01*
X79068166Y-132587000D02*
X78972928Y-132539380D01*
X78972928Y-132539380D02*
X78782452Y-132539380D01*
X78782452Y-132539380D02*
X78687214Y-132587000D01*
X78687214Y-132587000D02*
X78639595Y-132634619D01*
X78639595Y-132634619D02*
X78591976Y-132729857D01*
X78591976Y-132729857D02*
X78591976Y-132920333D01*
X78591976Y-132920333D02*
X78639595Y-133015571D01*
X78639595Y-133015571D02*
X78687214Y-133063190D01*
X78687214Y-133063190D02*
X78782452Y-133110809D01*
D13*
X76752600Y-114214311D02*
X76714504Y-114328597D01*
X76714504Y-114328597D02*
X76714504Y-114519073D01*
X76714504Y-114519073D02*
X76752600Y-114595264D01*
X76752600Y-114595264D02*
X76790695Y-114633359D01*
X76790695Y-114633359D02*
X76866885Y-114671454D01*
X76866885Y-114671454D02*
X76943076Y-114671454D01*
X76943076Y-114671454D02*
X77019266Y-114633359D01*
X77019266Y-114633359D02*
X77057361Y-114595264D01*
X77057361Y-114595264D02*
X77095457Y-114519073D01*
X77095457Y-114519073D02*
X77133552Y-114366692D01*
X77133552Y-114366692D02*
X77171647Y-114290502D01*
X77171647Y-114290502D02*
X77209742Y-114252407D01*
X77209742Y-114252407D02*
X77285933Y-114214311D01*
X77285933Y-114214311D02*
X77362123Y-114214311D01*
X77362123Y-114214311D02*
X77438314Y-114252407D01*
X77438314Y-114252407D02*
X77476409Y-114290502D01*
X77476409Y-114290502D02*
X77514504Y-114366692D01*
X77514504Y-114366692D02*
X77514504Y-114557169D01*
X77514504Y-114557169D02*
X77476409Y-114671454D01*
X76752600Y-115319074D02*
X76714504Y-115242883D01*
X76714504Y-115242883D02*
X76714504Y-115090502D01*
X76714504Y-115090502D02*
X76752600Y-115014312D01*
X76752600Y-115014312D02*
X76828790Y-114976216D01*
X76828790Y-114976216D02*
X77133552Y-114976216D01*
X77133552Y-114976216D02*
X77209742Y-115014312D01*
X77209742Y-115014312D02*
X77247838Y-115090502D01*
X77247838Y-115090502D02*
X77247838Y-115242883D01*
X77247838Y-115242883D02*
X77209742Y-115319074D01*
X77209742Y-115319074D02*
X77133552Y-115357169D01*
X77133552Y-115357169D02*
X77057361Y-115357169D01*
X77057361Y-115357169D02*
X76981171Y-114976216D01*
X77247838Y-115700026D02*
X76714504Y-115700026D01*
X77171647Y-115700026D02*
X77209742Y-115738121D01*
X77209742Y-115738121D02*
X77247838Y-115814311D01*
X77247838Y-115814311D02*
X77247838Y-115928597D01*
X77247838Y-115928597D02*
X77209742Y-116004788D01*
X77209742Y-116004788D02*
X77133552Y-116042883D01*
X77133552Y-116042883D02*
X76714504Y-116042883D01*
X76752600Y-116385740D02*
X76714504Y-116461931D01*
X76714504Y-116461931D02*
X76714504Y-116614312D01*
X76714504Y-116614312D02*
X76752600Y-116690502D01*
X76752600Y-116690502D02*
X76828790Y-116728598D01*
X76828790Y-116728598D02*
X76866885Y-116728598D01*
X76866885Y-116728598D02*
X76943076Y-116690502D01*
X76943076Y-116690502D02*
X76981171Y-116614312D01*
X76981171Y-116614312D02*
X76981171Y-116500026D01*
X76981171Y-116500026D02*
X77019266Y-116423836D01*
X77019266Y-116423836D02*
X77095457Y-116385740D01*
X77095457Y-116385740D02*
X77133552Y-116385740D01*
X77133552Y-116385740D02*
X77209742Y-116423836D01*
X77209742Y-116423836D02*
X77247838Y-116500026D01*
X77247838Y-116500026D02*
X77247838Y-116614312D01*
X77247838Y-116614312D02*
X77209742Y-116690502D01*
X76714504Y-117185740D02*
X76752600Y-117109550D01*
X76752600Y-117109550D02*
X76790695Y-117071455D01*
X76790695Y-117071455D02*
X76866885Y-117033359D01*
X76866885Y-117033359D02*
X77095457Y-117033359D01*
X77095457Y-117033359D02*
X77171647Y-117071455D01*
X77171647Y-117071455D02*
X77209742Y-117109550D01*
X77209742Y-117109550D02*
X77247838Y-117185740D01*
X77247838Y-117185740D02*
X77247838Y-117300026D01*
X77247838Y-117300026D02*
X77209742Y-117376217D01*
X77209742Y-117376217D02*
X77171647Y-117414312D01*
X77171647Y-117414312D02*
X77095457Y-117452407D01*
X77095457Y-117452407D02*
X76866885Y-117452407D01*
X76866885Y-117452407D02*
X76790695Y-117414312D01*
X76790695Y-117414312D02*
X76752600Y-117376217D01*
X76752600Y-117376217D02*
X76714504Y-117300026D01*
X76714504Y-117300026D02*
X76714504Y-117185740D01*
X76714504Y-117795265D02*
X77247838Y-117795265D01*
X77095457Y-117795265D02*
X77171647Y-117833360D01*
X77171647Y-117833360D02*
X77209742Y-117871455D01*
X77209742Y-117871455D02*
X77247838Y-117947646D01*
X77247838Y-117947646D02*
X77247838Y-118023836D01*
D10*
X41387104Y-115979333D02*
X40625200Y-115979333D01*
X41006152Y-115598380D02*
X41006152Y-116360285D01*
D13*
X44123984Y-116943192D02*
X43323984Y-116943192D01*
X43323984Y-116943192D02*
X43895412Y-116676526D01*
X43895412Y-116676526D02*
X43323984Y-116409859D01*
X43323984Y-116409859D02*
X44123984Y-116409859D01*
X44047793Y-115571763D02*
X44085889Y-115609859D01*
X44085889Y-115609859D02*
X44123984Y-115724144D01*
X44123984Y-115724144D02*
X44123984Y-115800335D01*
X44123984Y-115800335D02*
X44085889Y-115914621D01*
X44085889Y-115914621D02*
X44009698Y-115990811D01*
X44009698Y-115990811D02*
X43933508Y-116028906D01*
X43933508Y-116028906D02*
X43781127Y-116067002D01*
X43781127Y-116067002D02*
X43666841Y-116067002D01*
X43666841Y-116067002D02*
X43514460Y-116028906D01*
X43514460Y-116028906D02*
X43438269Y-115990811D01*
X43438269Y-115990811D02*
X43362079Y-115914621D01*
X43362079Y-115914621D02*
X43323984Y-115800335D01*
X43323984Y-115800335D02*
X43323984Y-115724144D01*
X43323984Y-115724144D02*
X43362079Y-115609859D01*
X43362079Y-115609859D02*
X43400174Y-115571763D01*
X43323984Y-115228906D02*
X43971603Y-115228906D01*
X43971603Y-115228906D02*
X44047793Y-115190811D01*
X44047793Y-115190811D02*
X44085889Y-115152716D01*
X44085889Y-115152716D02*
X44123984Y-115076525D01*
X44123984Y-115076525D02*
X44123984Y-114924144D01*
X44123984Y-114924144D02*
X44085889Y-114847954D01*
X44085889Y-114847954D02*
X44047793Y-114809859D01*
X44047793Y-114809859D02*
X43971603Y-114771763D01*
X43971603Y-114771763D02*
X43323984Y-114771763D01*
D10*
X40766428Y-118441145D02*
X40766428Y-117679241D01*
D12*
X65345274Y-117423971D02*
X64488132Y-117423971D01*
X64916703Y-115923971D02*
X64916703Y-117423971D01*
X63988132Y-115923971D02*
X63988132Y-117423971D01*
X63988132Y-117423971D02*
X63630989Y-117423971D01*
X63630989Y-117423971D02*
X63416703Y-117352542D01*
X63416703Y-117352542D02*
X63273846Y-117209685D01*
X63273846Y-117209685D02*
X63202417Y-117066828D01*
X63202417Y-117066828D02*
X63130989Y-116781114D01*
X63130989Y-116781114D02*
X63130989Y-116566828D01*
X63130989Y-116566828D02*
X63202417Y-116281114D01*
X63202417Y-116281114D02*
X63273846Y-116138257D01*
X63273846Y-116138257D02*
X63416703Y-115995400D01*
X63416703Y-115995400D02*
X63630989Y-115923971D01*
X63630989Y-115923971D02*
X63988132Y-115923971D01*
X62559560Y-115995400D02*
X62345275Y-115923971D01*
X62345275Y-115923971D02*
X61988132Y-115923971D01*
X61988132Y-115923971D02*
X61845275Y-115995400D01*
X61845275Y-115995400D02*
X61773846Y-116066828D01*
X61773846Y-116066828D02*
X61702417Y-116209685D01*
X61702417Y-116209685D02*
X61702417Y-116352542D01*
X61702417Y-116352542D02*
X61773846Y-116495400D01*
X61773846Y-116495400D02*
X61845275Y-116566828D01*
X61845275Y-116566828D02*
X61988132Y-116638257D01*
X61988132Y-116638257D02*
X62273846Y-116709685D01*
X62273846Y-116709685D02*
X62416703Y-116781114D01*
X62416703Y-116781114D02*
X62488132Y-116852542D01*
X62488132Y-116852542D02*
X62559560Y-116995400D01*
X62559560Y-116995400D02*
X62559560Y-117138257D01*
X62559560Y-117138257D02*
X62488132Y-117281114D01*
X62488132Y-117281114D02*
X62416703Y-117352542D01*
X62416703Y-117352542D02*
X62273846Y-117423971D01*
X62273846Y-117423971D02*
X61916703Y-117423971D01*
X61916703Y-117423971D02*
X61702417Y-117352542D01*
X59988132Y-115995400D02*
X59773847Y-115923971D01*
X59773847Y-115923971D02*
X59416704Y-115923971D01*
X59416704Y-115923971D02*
X59273847Y-115995400D01*
X59273847Y-115995400D02*
X59202418Y-116066828D01*
X59202418Y-116066828D02*
X59130989Y-116209685D01*
X59130989Y-116209685D02*
X59130989Y-116352542D01*
X59130989Y-116352542D02*
X59202418Y-116495400D01*
X59202418Y-116495400D02*
X59273847Y-116566828D01*
X59273847Y-116566828D02*
X59416704Y-116638257D01*
X59416704Y-116638257D02*
X59702418Y-116709685D01*
X59702418Y-116709685D02*
X59845275Y-116781114D01*
X59845275Y-116781114D02*
X59916704Y-116852542D01*
X59916704Y-116852542D02*
X59988132Y-116995400D01*
X59988132Y-116995400D02*
X59988132Y-117138257D01*
X59988132Y-117138257D02*
X59916704Y-117281114D01*
X59916704Y-117281114D02*
X59845275Y-117352542D01*
X59845275Y-117352542D02*
X59702418Y-117423971D01*
X59702418Y-117423971D02*
X59345275Y-117423971D01*
X59345275Y-117423971D02*
X59130989Y-117352542D01*
X57916704Y-115995400D02*
X58059561Y-115923971D01*
X58059561Y-115923971D02*
X58345276Y-115923971D01*
X58345276Y-115923971D02*
X58488133Y-115995400D01*
X58488133Y-115995400D02*
X58559561Y-116138257D01*
X58559561Y-116138257D02*
X58559561Y-116709685D01*
X58559561Y-116709685D02*
X58488133Y-116852542D01*
X58488133Y-116852542D02*
X58345276Y-116923971D01*
X58345276Y-116923971D02*
X58059561Y-116923971D01*
X58059561Y-116923971D02*
X57916704Y-116852542D01*
X57916704Y-116852542D02*
X57845276Y-116709685D01*
X57845276Y-116709685D02*
X57845276Y-116566828D01*
X57845276Y-116566828D02*
X58559561Y-116423971D01*
X57202419Y-116923971D02*
X57202419Y-115923971D01*
X57202419Y-116781114D02*
X57130990Y-116852542D01*
X57130990Y-116852542D02*
X56988133Y-116923971D01*
X56988133Y-116923971D02*
X56773847Y-116923971D01*
X56773847Y-116923971D02*
X56630990Y-116852542D01*
X56630990Y-116852542D02*
X56559562Y-116709685D01*
X56559562Y-116709685D02*
X56559562Y-115923971D01*
X55916704Y-115995400D02*
X55773847Y-115923971D01*
X55773847Y-115923971D02*
X55488133Y-115923971D01*
X55488133Y-115923971D02*
X55345276Y-115995400D01*
X55345276Y-115995400D02*
X55273847Y-116138257D01*
X55273847Y-116138257D02*
X55273847Y-116209685D01*
X55273847Y-116209685D02*
X55345276Y-116352542D01*
X55345276Y-116352542D02*
X55488133Y-116423971D01*
X55488133Y-116423971D02*
X55702419Y-116423971D01*
X55702419Y-116423971D02*
X55845276Y-116495400D01*
X55845276Y-116495400D02*
X55916704Y-116638257D01*
X55916704Y-116638257D02*
X55916704Y-116709685D01*
X55916704Y-116709685D02*
X55845276Y-116852542D01*
X55845276Y-116852542D02*
X55702419Y-116923971D01*
X55702419Y-116923971D02*
X55488133Y-116923971D01*
X55488133Y-116923971D02*
X55345276Y-116852542D01*
X54416704Y-115923971D02*
X54559561Y-115995400D01*
X54559561Y-115995400D02*
X54630990Y-116066828D01*
X54630990Y-116066828D02*
X54702418Y-116209685D01*
X54702418Y-116209685D02*
X54702418Y-116638257D01*
X54702418Y-116638257D02*
X54630990Y-116781114D01*
X54630990Y-116781114D02*
X54559561Y-116852542D01*
X54559561Y-116852542D02*
X54416704Y-116923971D01*
X54416704Y-116923971D02*
X54202418Y-116923971D01*
X54202418Y-116923971D02*
X54059561Y-116852542D01*
X54059561Y-116852542D02*
X53988133Y-116781114D01*
X53988133Y-116781114D02*
X53916704Y-116638257D01*
X53916704Y-116638257D02*
X53916704Y-116209685D01*
X53916704Y-116209685D02*
X53988133Y-116066828D01*
X53988133Y-116066828D02*
X54059561Y-115995400D01*
X54059561Y-115995400D02*
X54202418Y-115923971D01*
X54202418Y-115923971D02*
X54416704Y-115923971D01*
X53273847Y-115923971D02*
X53273847Y-116923971D01*
X53273847Y-116638257D02*
X53202418Y-116781114D01*
X53202418Y-116781114D02*
X53130990Y-116852542D01*
X53130990Y-116852542D02*
X52988132Y-116923971D01*
X52988132Y-116923971D02*
X52845275Y-116923971D01*
D10*
X41299234Y-113852095D02*
X40823044Y-113852095D01*
X41394472Y-113566380D02*
X41061139Y-114566380D01*
X41061139Y-114566380D02*
X40727806Y-113566380D01*
X80145704Y-96680580D02*
X80145704Y-95871057D01*
X80145704Y-95871057D02*
X80098085Y-95775819D01*
X80098085Y-95775819D02*
X80050466Y-95728200D01*
X80050466Y-95728200D02*
X79955228Y-95680580D01*
X79955228Y-95680580D02*
X79764752Y-95680580D01*
X79764752Y-95680580D02*
X79669514Y-95728200D01*
X79669514Y-95728200D02*
X79621895Y-95775819D01*
X79621895Y-95775819D02*
X79574276Y-95871057D01*
X79574276Y-95871057D02*
X79574276Y-96680580D01*
X79050466Y-95680580D02*
X78859990Y-95680580D01*
X78859990Y-95680580D02*
X78764752Y-95728200D01*
X78764752Y-95728200D02*
X78717133Y-95775819D01*
X78717133Y-95775819D02*
X78621895Y-95918676D01*
X78621895Y-95918676D02*
X78574276Y-96109152D01*
X78574276Y-96109152D02*
X78574276Y-96490104D01*
X78574276Y-96490104D02*
X78621895Y-96585342D01*
X78621895Y-96585342D02*
X78669514Y-96632961D01*
X78669514Y-96632961D02*
X78764752Y-96680580D01*
X78764752Y-96680580D02*
X78955228Y-96680580D01*
X78955228Y-96680580D02*
X79050466Y-96632961D01*
X79050466Y-96632961D02*
X79098085Y-96585342D01*
X79098085Y-96585342D02*
X79145704Y-96490104D01*
X79145704Y-96490104D02*
X79145704Y-96252009D01*
X79145704Y-96252009D02*
X79098085Y-96156771D01*
X79098085Y-96156771D02*
X79050466Y-96109152D01*
X79050466Y-96109152D02*
X78955228Y-96061533D01*
X78955228Y-96061533D02*
X78764752Y-96061533D01*
X78764752Y-96061533D02*
X78669514Y-96109152D01*
X78669514Y-96109152D02*
X78621895Y-96156771D01*
X78621895Y-96156771D02*
X78574276Y-96252009D01*
D13*
X47780795Y-82116392D02*
X46980795Y-82116392D01*
X46980795Y-82116392D02*
X47552223Y-81849726D01*
X47552223Y-81849726D02*
X46980795Y-81583059D01*
X46980795Y-81583059D02*
X47780795Y-81583059D01*
X47704604Y-80744963D02*
X47742700Y-80783059D01*
X47742700Y-80783059D02*
X47780795Y-80897344D01*
X47780795Y-80897344D02*
X47780795Y-80973535D01*
X47780795Y-80973535D02*
X47742700Y-81087821D01*
X47742700Y-81087821D02*
X47666509Y-81164011D01*
X47666509Y-81164011D02*
X47590319Y-81202106D01*
X47590319Y-81202106D02*
X47437938Y-81240202D01*
X47437938Y-81240202D02*
X47323652Y-81240202D01*
X47323652Y-81240202D02*
X47171271Y-81202106D01*
X47171271Y-81202106D02*
X47095080Y-81164011D01*
X47095080Y-81164011D02*
X47018890Y-81087821D01*
X47018890Y-81087821D02*
X46980795Y-80973535D01*
X46980795Y-80973535D02*
X46980795Y-80897344D01*
X46980795Y-80897344D02*
X47018890Y-80783059D01*
X47018890Y-80783059D02*
X47056985Y-80744963D01*
X46980795Y-80402106D02*
X47628414Y-80402106D01*
X47628414Y-80402106D02*
X47704604Y-80364011D01*
X47704604Y-80364011D02*
X47742700Y-80325916D01*
X47742700Y-80325916D02*
X47780795Y-80249725D01*
X47780795Y-80249725D02*
X47780795Y-80097344D01*
X47780795Y-80097344D02*
X47742700Y-80021154D01*
X47742700Y-80021154D02*
X47704604Y-79983059D01*
X47704604Y-79983059D02*
X47628414Y-79944963D01*
X47628414Y-79944963D02*
X46980795Y-79944963D01*
D14*
X68234983Y-83300780D02*
X67663555Y-83300780D01*
X67949269Y-82300780D02*
X67949269Y-83300780D01*
X66901650Y-82967447D02*
X66901650Y-82300780D01*
X67330221Y-82967447D02*
X67330221Y-82443638D01*
X67330221Y-82443638D02*
X67282602Y-82348400D01*
X67282602Y-82348400D02*
X67187364Y-82300780D01*
X67187364Y-82300780D02*
X67044507Y-82300780D01*
X67044507Y-82300780D02*
X66949269Y-82348400D01*
X66949269Y-82348400D02*
X66901650Y-82396019D01*
X66425459Y-82300780D02*
X66425459Y-82967447D01*
X66425459Y-82776971D02*
X66377840Y-82872209D01*
X66377840Y-82872209D02*
X66330221Y-82919828D01*
X66330221Y-82919828D02*
X66234983Y-82967447D01*
X66234983Y-82967447D02*
X66139745Y-82967447D01*
X65806411Y-82300780D02*
X65806411Y-83300780D01*
X65806411Y-82919828D02*
X65711173Y-82967447D01*
X65711173Y-82967447D02*
X65520697Y-82967447D01*
X65520697Y-82967447D02*
X65425459Y-82919828D01*
X65425459Y-82919828D02*
X65377840Y-82872209D01*
X65377840Y-82872209D02*
X65330221Y-82776971D01*
X65330221Y-82776971D02*
X65330221Y-82491257D01*
X65330221Y-82491257D02*
X65377840Y-82396019D01*
X65377840Y-82396019D02*
X65425459Y-82348400D01*
X65425459Y-82348400D02*
X65520697Y-82300780D01*
X65520697Y-82300780D02*
X65711173Y-82300780D01*
X65711173Y-82300780D02*
X65806411Y-82348400D01*
X64901649Y-82300780D02*
X64901649Y-82967447D01*
X64901649Y-83300780D02*
X64949268Y-83253161D01*
X64949268Y-83253161D02*
X64901649Y-83205542D01*
X64901649Y-83205542D02*
X64854030Y-83253161D01*
X64854030Y-83253161D02*
X64901649Y-83300780D01*
X64901649Y-83300780D02*
X64901649Y-83205542D01*
X63996888Y-82300780D02*
X63996888Y-83300780D01*
X63996888Y-82348400D02*
X64092126Y-82300780D01*
X64092126Y-82300780D02*
X64282602Y-82300780D01*
X64282602Y-82300780D02*
X64377840Y-82348400D01*
X64377840Y-82348400D02*
X64425459Y-82396019D01*
X64425459Y-82396019D02*
X64473078Y-82491257D01*
X64473078Y-82491257D02*
X64473078Y-82776971D01*
X64473078Y-82776971D02*
X64425459Y-82872209D01*
X64425459Y-82872209D02*
X64377840Y-82919828D01*
X64377840Y-82919828D02*
X64282602Y-82967447D01*
X64282602Y-82967447D02*
X64092126Y-82967447D01*
X64092126Y-82967447D02*
X63996888Y-82919828D01*
X63520697Y-82300780D02*
X63520697Y-82967447D01*
X63520697Y-83300780D02*
X63568316Y-83253161D01*
X63568316Y-83253161D02*
X63520697Y-83205542D01*
X63520697Y-83205542D02*
X63473078Y-83253161D01*
X63473078Y-83253161D02*
X63520697Y-83300780D01*
X63520697Y-83300780D02*
X63520697Y-83205542D01*
X63187364Y-82967447D02*
X62806412Y-82967447D01*
X63044507Y-83300780D02*
X63044507Y-82443638D01*
X63044507Y-82443638D02*
X62996888Y-82348400D01*
X62996888Y-82348400D02*
X62901650Y-82300780D01*
X62901650Y-82300780D02*
X62806412Y-82300780D01*
X62568316Y-82967447D02*
X62330221Y-82300780D01*
X62092126Y-82967447D02*
X62330221Y-82300780D01*
X62330221Y-82300780D02*
X62425459Y-82062685D01*
X62425459Y-82062685D02*
X62473078Y-82015066D01*
X62473078Y-82015066D02*
X62568316Y-81967447D01*
X60996887Y-82348400D02*
X60854030Y-82300780D01*
X60854030Y-82300780D02*
X60615935Y-82300780D01*
X60615935Y-82300780D02*
X60520697Y-82348400D01*
X60520697Y-82348400D02*
X60473078Y-82396019D01*
X60473078Y-82396019D02*
X60425459Y-82491257D01*
X60425459Y-82491257D02*
X60425459Y-82586495D01*
X60425459Y-82586495D02*
X60473078Y-82681733D01*
X60473078Y-82681733D02*
X60520697Y-82729352D01*
X60520697Y-82729352D02*
X60615935Y-82776971D01*
X60615935Y-82776971D02*
X60806411Y-82824590D01*
X60806411Y-82824590D02*
X60901649Y-82872209D01*
X60901649Y-82872209D02*
X60949268Y-82919828D01*
X60949268Y-82919828D02*
X60996887Y-83015066D01*
X60996887Y-83015066D02*
X60996887Y-83110304D01*
X60996887Y-83110304D02*
X60949268Y-83205542D01*
X60949268Y-83205542D02*
X60901649Y-83253161D01*
X60901649Y-83253161D02*
X60806411Y-83300780D01*
X60806411Y-83300780D02*
X60568316Y-83300780D01*
X60568316Y-83300780D02*
X60425459Y-83253161D01*
X59615935Y-82348400D02*
X59711173Y-82300780D01*
X59711173Y-82300780D02*
X59901649Y-82300780D01*
X59901649Y-82300780D02*
X59996887Y-82348400D01*
X59996887Y-82348400D02*
X60044506Y-82443638D01*
X60044506Y-82443638D02*
X60044506Y-82824590D01*
X60044506Y-82824590D02*
X59996887Y-82919828D01*
X59996887Y-82919828D02*
X59901649Y-82967447D01*
X59901649Y-82967447D02*
X59711173Y-82967447D01*
X59711173Y-82967447D02*
X59615935Y-82919828D01*
X59615935Y-82919828D02*
X59568316Y-82824590D01*
X59568316Y-82824590D02*
X59568316Y-82729352D01*
X59568316Y-82729352D02*
X60044506Y-82634114D01*
X59139744Y-82967447D02*
X59139744Y-82300780D01*
X59139744Y-82872209D02*
X59092125Y-82919828D01*
X59092125Y-82919828D02*
X58996887Y-82967447D01*
X58996887Y-82967447D02*
X58854030Y-82967447D01*
X58854030Y-82967447D02*
X58758792Y-82919828D01*
X58758792Y-82919828D02*
X58711173Y-82824590D01*
X58711173Y-82824590D02*
X58711173Y-82300780D01*
X58282601Y-82348400D02*
X58187363Y-82300780D01*
X58187363Y-82300780D02*
X57996887Y-82300780D01*
X57996887Y-82300780D02*
X57901649Y-82348400D01*
X57901649Y-82348400D02*
X57854030Y-82443638D01*
X57854030Y-82443638D02*
X57854030Y-82491257D01*
X57854030Y-82491257D02*
X57901649Y-82586495D01*
X57901649Y-82586495D02*
X57996887Y-82634114D01*
X57996887Y-82634114D02*
X58139744Y-82634114D01*
X58139744Y-82634114D02*
X58234982Y-82681733D01*
X58234982Y-82681733D02*
X58282601Y-82776971D01*
X58282601Y-82776971D02*
X58282601Y-82824590D01*
X58282601Y-82824590D02*
X58234982Y-82919828D01*
X58234982Y-82919828D02*
X58139744Y-82967447D01*
X58139744Y-82967447D02*
X57996887Y-82967447D01*
X57996887Y-82967447D02*
X57901649Y-82919828D01*
X57282601Y-82300780D02*
X57377839Y-82348400D01*
X57377839Y-82348400D02*
X57425458Y-82396019D01*
X57425458Y-82396019D02*
X57473077Y-82491257D01*
X57473077Y-82491257D02*
X57473077Y-82776971D01*
X57473077Y-82776971D02*
X57425458Y-82872209D01*
X57425458Y-82872209D02*
X57377839Y-82919828D01*
X57377839Y-82919828D02*
X57282601Y-82967447D01*
X57282601Y-82967447D02*
X57139744Y-82967447D01*
X57139744Y-82967447D02*
X57044506Y-82919828D01*
X57044506Y-82919828D02*
X56996887Y-82872209D01*
X56996887Y-82872209D02*
X56949268Y-82776971D01*
X56949268Y-82776971D02*
X56949268Y-82491257D01*
X56949268Y-82491257D02*
X56996887Y-82396019D01*
X56996887Y-82396019D02*
X57044506Y-82348400D01*
X57044506Y-82348400D02*
X57139744Y-82300780D01*
X57139744Y-82300780D02*
X57282601Y-82300780D01*
X56520696Y-82300780D02*
X56520696Y-82967447D01*
X56520696Y-82776971D02*
X56473077Y-82872209D01*
X56473077Y-82872209D02*
X56425458Y-82919828D01*
X56425458Y-82919828D02*
X56330220Y-82967447D01*
X56330220Y-82967447D02*
X56234982Y-82967447D01*
D10*
X45043915Y-81152533D02*
X44282011Y-81152533D01*
X44662963Y-80771580D02*
X44662963Y-81533485D01*
X44956045Y-79025295D02*
X44479855Y-79025295D01*
X45051283Y-78739580D02*
X44717950Y-79739580D01*
X44717950Y-79739580D02*
X44384617Y-78739580D01*
X44576483Y-83516128D02*
X44576483Y-82754224D01*
D13*
X78512900Y-79387511D02*
X78474804Y-79501797D01*
X78474804Y-79501797D02*
X78474804Y-79692273D01*
X78474804Y-79692273D02*
X78512900Y-79768464D01*
X78512900Y-79768464D02*
X78550995Y-79806559D01*
X78550995Y-79806559D02*
X78627185Y-79844654D01*
X78627185Y-79844654D02*
X78703376Y-79844654D01*
X78703376Y-79844654D02*
X78779566Y-79806559D01*
X78779566Y-79806559D02*
X78817661Y-79768464D01*
X78817661Y-79768464D02*
X78855757Y-79692273D01*
X78855757Y-79692273D02*
X78893852Y-79539892D01*
X78893852Y-79539892D02*
X78931947Y-79463702D01*
X78931947Y-79463702D02*
X78970042Y-79425607D01*
X78970042Y-79425607D02*
X79046233Y-79387511D01*
X79046233Y-79387511D02*
X79122423Y-79387511D01*
X79122423Y-79387511D02*
X79198614Y-79425607D01*
X79198614Y-79425607D02*
X79236709Y-79463702D01*
X79236709Y-79463702D02*
X79274804Y-79539892D01*
X79274804Y-79539892D02*
X79274804Y-79730369D01*
X79274804Y-79730369D02*
X79236709Y-79844654D01*
X78512900Y-80492274D02*
X78474804Y-80416083D01*
X78474804Y-80416083D02*
X78474804Y-80263702D01*
X78474804Y-80263702D02*
X78512900Y-80187512D01*
X78512900Y-80187512D02*
X78589090Y-80149416D01*
X78589090Y-80149416D02*
X78893852Y-80149416D01*
X78893852Y-80149416D02*
X78970042Y-80187512D01*
X78970042Y-80187512D02*
X79008138Y-80263702D01*
X79008138Y-80263702D02*
X79008138Y-80416083D01*
X79008138Y-80416083D02*
X78970042Y-80492274D01*
X78970042Y-80492274D02*
X78893852Y-80530369D01*
X78893852Y-80530369D02*
X78817661Y-80530369D01*
X78817661Y-80530369D02*
X78741471Y-80149416D01*
X79008138Y-80873226D02*
X78474804Y-80873226D01*
X78931947Y-80873226D02*
X78970042Y-80911321D01*
X78970042Y-80911321D02*
X79008138Y-80987511D01*
X79008138Y-80987511D02*
X79008138Y-81101797D01*
X79008138Y-81101797D02*
X78970042Y-81177988D01*
X78970042Y-81177988D02*
X78893852Y-81216083D01*
X78893852Y-81216083D02*
X78474804Y-81216083D01*
X78512900Y-81558940D02*
X78474804Y-81635131D01*
X78474804Y-81635131D02*
X78474804Y-81787512D01*
X78474804Y-81787512D02*
X78512900Y-81863702D01*
X78512900Y-81863702D02*
X78589090Y-81901798D01*
X78589090Y-81901798D02*
X78627185Y-81901798D01*
X78627185Y-81901798D02*
X78703376Y-81863702D01*
X78703376Y-81863702D02*
X78741471Y-81787512D01*
X78741471Y-81787512D02*
X78741471Y-81673226D01*
X78741471Y-81673226D02*
X78779566Y-81597036D01*
X78779566Y-81597036D02*
X78855757Y-81558940D01*
X78855757Y-81558940D02*
X78893852Y-81558940D01*
X78893852Y-81558940D02*
X78970042Y-81597036D01*
X78970042Y-81597036D02*
X79008138Y-81673226D01*
X79008138Y-81673226D02*
X79008138Y-81787512D01*
X79008138Y-81787512D02*
X78970042Y-81863702D01*
X78474804Y-82358940D02*
X78512900Y-82282750D01*
X78512900Y-82282750D02*
X78550995Y-82244655D01*
X78550995Y-82244655D02*
X78627185Y-82206559D01*
X78627185Y-82206559D02*
X78855757Y-82206559D01*
X78855757Y-82206559D02*
X78931947Y-82244655D01*
X78931947Y-82244655D02*
X78970042Y-82282750D01*
X78970042Y-82282750D02*
X79008138Y-82358940D01*
X79008138Y-82358940D02*
X79008138Y-82473226D01*
X79008138Y-82473226D02*
X78970042Y-82549417D01*
X78970042Y-82549417D02*
X78931947Y-82587512D01*
X78931947Y-82587512D02*
X78855757Y-82625607D01*
X78855757Y-82625607D02*
X78627185Y-82625607D01*
X78627185Y-82625607D02*
X78550995Y-82587512D01*
X78550995Y-82587512D02*
X78512900Y-82549417D01*
X78512900Y-82549417D02*
X78474804Y-82473226D01*
X78474804Y-82473226D02*
X78474804Y-82358940D01*
X78474804Y-82968465D02*
X79008138Y-82968465D01*
X78855757Y-82968465D02*
X78931947Y-83006560D01*
X78931947Y-83006560D02*
X78970042Y-83044655D01*
X78970042Y-83044655D02*
X79008138Y-83120846D01*
X79008138Y-83120846D02*
X79008138Y-83197036D01*
D10*
X154556734Y-117253295D02*
X154080544Y-117253295D01*
X154651972Y-116967580D02*
X154318639Y-117967580D01*
X154318639Y-117967580D02*
X153985306Y-116967580D01*
D12*
X177372489Y-119071171D02*
X177372489Y-120571171D01*
X177372489Y-120571171D02*
X177015346Y-120571171D01*
X177015346Y-120571171D02*
X176801060Y-120499742D01*
X176801060Y-120499742D02*
X176658203Y-120356885D01*
X176658203Y-120356885D02*
X176586774Y-120214028D01*
X176586774Y-120214028D02*
X176515346Y-119928314D01*
X176515346Y-119928314D02*
X176515346Y-119714028D01*
X176515346Y-119714028D02*
X176586774Y-119428314D01*
X176586774Y-119428314D02*
X176658203Y-119285457D01*
X176658203Y-119285457D02*
X176801060Y-119142600D01*
X176801060Y-119142600D02*
X177015346Y-119071171D01*
X177015346Y-119071171D02*
X177372489Y-119071171D01*
X175586774Y-120571171D02*
X175301060Y-120571171D01*
X175301060Y-120571171D02*
X175158203Y-120499742D01*
X175158203Y-120499742D02*
X175015346Y-120356885D01*
X175015346Y-120356885D02*
X174943917Y-120071171D01*
X174943917Y-120071171D02*
X174943917Y-119571171D01*
X174943917Y-119571171D02*
X175015346Y-119285457D01*
X175015346Y-119285457D02*
X175158203Y-119142600D01*
X175158203Y-119142600D02*
X175301060Y-119071171D01*
X175301060Y-119071171D02*
X175586774Y-119071171D01*
X175586774Y-119071171D02*
X175729632Y-119142600D01*
X175729632Y-119142600D02*
X175872489Y-119285457D01*
X175872489Y-119285457D02*
X175943917Y-119571171D01*
X175943917Y-119571171D02*
X175943917Y-120071171D01*
X175943917Y-120071171D02*
X175872489Y-120356885D01*
X175872489Y-120356885D02*
X175729632Y-120499742D01*
X175729632Y-120499742D02*
X175586774Y-120571171D01*
X173229631Y-119142600D02*
X173015346Y-119071171D01*
X173015346Y-119071171D02*
X172658203Y-119071171D01*
X172658203Y-119071171D02*
X172515346Y-119142600D01*
X172515346Y-119142600D02*
X172443917Y-119214028D01*
X172443917Y-119214028D02*
X172372488Y-119356885D01*
X172372488Y-119356885D02*
X172372488Y-119499742D01*
X172372488Y-119499742D02*
X172443917Y-119642600D01*
X172443917Y-119642600D02*
X172515346Y-119714028D01*
X172515346Y-119714028D02*
X172658203Y-119785457D01*
X172658203Y-119785457D02*
X172943917Y-119856885D01*
X172943917Y-119856885D02*
X173086774Y-119928314D01*
X173086774Y-119928314D02*
X173158203Y-119999742D01*
X173158203Y-119999742D02*
X173229631Y-120142600D01*
X173229631Y-120142600D02*
X173229631Y-120285457D01*
X173229631Y-120285457D02*
X173158203Y-120428314D01*
X173158203Y-120428314D02*
X173086774Y-120499742D01*
X173086774Y-120499742D02*
X172943917Y-120571171D01*
X172943917Y-120571171D02*
X172586774Y-120571171D01*
X172586774Y-120571171D02*
X172372488Y-120499742D01*
X171158203Y-119142600D02*
X171301060Y-119071171D01*
X171301060Y-119071171D02*
X171586775Y-119071171D01*
X171586775Y-119071171D02*
X171729632Y-119142600D01*
X171729632Y-119142600D02*
X171801060Y-119285457D01*
X171801060Y-119285457D02*
X171801060Y-119856885D01*
X171801060Y-119856885D02*
X171729632Y-119999742D01*
X171729632Y-119999742D02*
X171586775Y-120071171D01*
X171586775Y-120071171D02*
X171301060Y-120071171D01*
X171301060Y-120071171D02*
X171158203Y-119999742D01*
X171158203Y-119999742D02*
X171086775Y-119856885D01*
X171086775Y-119856885D02*
X171086775Y-119714028D01*
X171086775Y-119714028D02*
X171801060Y-119571171D01*
X170443918Y-120071171D02*
X170443918Y-119071171D01*
X170443918Y-119928314D02*
X170372489Y-119999742D01*
X170372489Y-119999742D02*
X170229632Y-120071171D01*
X170229632Y-120071171D02*
X170015346Y-120071171D01*
X170015346Y-120071171D02*
X169872489Y-119999742D01*
X169872489Y-119999742D02*
X169801061Y-119856885D01*
X169801061Y-119856885D02*
X169801061Y-119071171D01*
X169158203Y-119142600D02*
X169015346Y-119071171D01*
X169015346Y-119071171D02*
X168729632Y-119071171D01*
X168729632Y-119071171D02*
X168586775Y-119142600D01*
X168586775Y-119142600D02*
X168515346Y-119285457D01*
X168515346Y-119285457D02*
X168515346Y-119356885D01*
X168515346Y-119356885D02*
X168586775Y-119499742D01*
X168586775Y-119499742D02*
X168729632Y-119571171D01*
X168729632Y-119571171D02*
X168943918Y-119571171D01*
X168943918Y-119571171D02*
X169086775Y-119642600D01*
X169086775Y-119642600D02*
X169158203Y-119785457D01*
X169158203Y-119785457D02*
X169158203Y-119856885D01*
X169158203Y-119856885D02*
X169086775Y-119999742D01*
X169086775Y-119999742D02*
X168943918Y-120071171D01*
X168943918Y-120071171D02*
X168729632Y-120071171D01*
X168729632Y-120071171D02*
X168586775Y-119999742D01*
X167658203Y-119071171D02*
X167801060Y-119142600D01*
X167801060Y-119142600D02*
X167872489Y-119214028D01*
X167872489Y-119214028D02*
X167943917Y-119356885D01*
X167943917Y-119356885D02*
X167943917Y-119785457D01*
X167943917Y-119785457D02*
X167872489Y-119928314D01*
X167872489Y-119928314D02*
X167801060Y-119999742D01*
X167801060Y-119999742D02*
X167658203Y-120071171D01*
X167658203Y-120071171D02*
X167443917Y-120071171D01*
X167443917Y-120071171D02*
X167301060Y-119999742D01*
X167301060Y-119999742D02*
X167229632Y-119928314D01*
X167229632Y-119928314D02*
X167158203Y-119785457D01*
X167158203Y-119785457D02*
X167158203Y-119356885D01*
X167158203Y-119356885D02*
X167229632Y-119214028D01*
X167229632Y-119214028D02*
X167301060Y-119142600D01*
X167301060Y-119142600D02*
X167443917Y-119071171D01*
X167443917Y-119071171D02*
X167658203Y-119071171D01*
X166515346Y-119071171D02*
X166515346Y-120071171D01*
X166515346Y-119785457D02*
X166443917Y-119928314D01*
X166443917Y-119928314D02*
X166372489Y-119999742D01*
X166372489Y-119999742D02*
X166229631Y-120071171D01*
X166229631Y-120071171D02*
X166086774Y-120071171D01*
D10*
X154431466Y-121616115D02*
X154431466Y-120854211D01*
X154644604Y-119380533D02*
X153882700Y-119380533D01*
X154263652Y-118999580D02*
X154263652Y-119761485D01*
D13*
X157381484Y-120344392D02*
X156581484Y-120344392D01*
X156581484Y-120344392D02*
X157152912Y-120077726D01*
X157152912Y-120077726D02*
X156581484Y-119811059D01*
X156581484Y-119811059D02*
X157381484Y-119811059D01*
X157305293Y-118972963D02*
X157343389Y-119011059D01*
X157343389Y-119011059D02*
X157381484Y-119125344D01*
X157381484Y-119125344D02*
X157381484Y-119201535D01*
X157381484Y-119201535D02*
X157343389Y-119315821D01*
X157343389Y-119315821D02*
X157267198Y-119392011D01*
X157267198Y-119392011D02*
X157191008Y-119430106D01*
X157191008Y-119430106D02*
X157038627Y-119468202D01*
X157038627Y-119468202D02*
X156924341Y-119468202D01*
X156924341Y-119468202D02*
X156771960Y-119430106D01*
X156771960Y-119430106D02*
X156695769Y-119392011D01*
X156695769Y-119392011D02*
X156619579Y-119315821D01*
X156619579Y-119315821D02*
X156581484Y-119201535D01*
X156581484Y-119201535D02*
X156581484Y-119125344D01*
X156581484Y-119125344D02*
X156619579Y-119011059D01*
X156619579Y-119011059D02*
X156657674Y-118972963D01*
X156581484Y-118630106D02*
X157229103Y-118630106D01*
X157229103Y-118630106D02*
X157305293Y-118592011D01*
X157305293Y-118592011D02*
X157343389Y-118553916D01*
X157343389Y-118553916D02*
X157381484Y-118477725D01*
X157381484Y-118477725D02*
X157381484Y-118325344D01*
X157381484Y-118325344D02*
X157343389Y-118249154D01*
X157343389Y-118249154D02*
X157305293Y-118211059D01*
X157305293Y-118211059D02*
X157229103Y-118172963D01*
X157229103Y-118172963D02*
X156581484Y-118172963D01*
X189502100Y-117617511D02*
X189464004Y-117731797D01*
X189464004Y-117731797D02*
X189464004Y-117922273D01*
X189464004Y-117922273D02*
X189502100Y-117998464D01*
X189502100Y-117998464D02*
X189540195Y-118036559D01*
X189540195Y-118036559D02*
X189616385Y-118074654D01*
X189616385Y-118074654D02*
X189692576Y-118074654D01*
X189692576Y-118074654D02*
X189768766Y-118036559D01*
X189768766Y-118036559D02*
X189806861Y-117998464D01*
X189806861Y-117998464D02*
X189844957Y-117922273D01*
X189844957Y-117922273D02*
X189883052Y-117769892D01*
X189883052Y-117769892D02*
X189921147Y-117693702D01*
X189921147Y-117693702D02*
X189959242Y-117655607D01*
X189959242Y-117655607D02*
X190035433Y-117617511D01*
X190035433Y-117617511D02*
X190111623Y-117617511D01*
X190111623Y-117617511D02*
X190187814Y-117655607D01*
X190187814Y-117655607D02*
X190225909Y-117693702D01*
X190225909Y-117693702D02*
X190264004Y-117769892D01*
X190264004Y-117769892D02*
X190264004Y-117960369D01*
X190264004Y-117960369D02*
X190225909Y-118074654D01*
X189502100Y-118722274D02*
X189464004Y-118646083D01*
X189464004Y-118646083D02*
X189464004Y-118493702D01*
X189464004Y-118493702D02*
X189502100Y-118417512D01*
X189502100Y-118417512D02*
X189578290Y-118379416D01*
X189578290Y-118379416D02*
X189883052Y-118379416D01*
X189883052Y-118379416D02*
X189959242Y-118417512D01*
X189959242Y-118417512D02*
X189997338Y-118493702D01*
X189997338Y-118493702D02*
X189997338Y-118646083D01*
X189997338Y-118646083D02*
X189959242Y-118722274D01*
X189959242Y-118722274D02*
X189883052Y-118760369D01*
X189883052Y-118760369D02*
X189806861Y-118760369D01*
X189806861Y-118760369D02*
X189730671Y-118379416D01*
X189997338Y-119103226D02*
X189464004Y-119103226D01*
X189921147Y-119103226D02*
X189959242Y-119141321D01*
X189959242Y-119141321D02*
X189997338Y-119217511D01*
X189997338Y-119217511D02*
X189997338Y-119331797D01*
X189997338Y-119331797D02*
X189959242Y-119407988D01*
X189959242Y-119407988D02*
X189883052Y-119446083D01*
X189883052Y-119446083D02*
X189464004Y-119446083D01*
X189502100Y-119788940D02*
X189464004Y-119865131D01*
X189464004Y-119865131D02*
X189464004Y-120017512D01*
X189464004Y-120017512D02*
X189502100Y-120093702D01*
X189502100Y-120093702D02*
X189578290Y-120131798D01*
X189578290Y-120131798D02*
X189616385Y-120131798D01*
X189616385Y-120131798D02*
X189692576Y-120093702D01*
X189692576Y-120093702D02*
X189730671Y-120017512D01*
X189730671Y-120017512D02*
X189730671Y-119903226D01*
X189730671Y-119903226D02*
X189768766Y-119827036D01*
X189768766Y-119827036D02*
X189844957Y-119788940D01*
X189844957Y-119788940D02*
X189883052Y-119788940D01*
X189883052Y-119788940D02*
X189959242Y-119827036D01*
X189959242Y-119827036D02*
X189997338Y-119903226D01*
X189997338Y-119903226D02*
X189997338Y-120017512D01*
X189997338Y-120017512D02*
X189959242Y-120093702D01*
X189464004Y-120588940D02*
X189502100Y-120512750D01*
X189502100Y-120512750D02*
X189540195Y-120474655D01*
X189540195Y-120474655D02*
X189616385Y-120436559D01*
X189616385Y-120436559D02*
X189844957Y-120436559D01*
X189844957Y-120436559D02*
X189921147Y-120474655D01*
X189921147Y-120474655D02*
X189959242Y-120512750D01*
X189959242Y-120512750D02*
X189997338Y-120588940D01*
X189997338Y-120588940D02*
X189997338Y-120703226D01*
X189997338Y-120703226D02*
X189959242Y-120779417D01*
X189959242Y-120779417D02*
X189921147Y-120817512D01*
X189921147Y-120817512D02*
X189844957Y-120855607D01*
X189844957Y-120855607D02*
X189616385Y-120855607D01*
X189616385Y-120855607D02*
X189540195Y-120817512D01*
X189540195Y-120817512D02*
X189502100Y-120779417D01*
X189502100Y-120779417D02*
X189464004Y-120703226D01*
X189464004Y-120703226D02*
X189464004Y-120588940D01*
X189464004Y-121198465D02*
X189997338Y-121198465D01*
X189844957Y-121198465D02*
X189921147Y-121236560D01*
X189921147Y-121236560D02*
X189959242Y-121274655D01*
X189959242Y-121274655D02*
X189997338Y-121350846D01*
X189997338Y-121350846D02*
X189997338Y-121427036D01*
D11*
X197474819Y-87796666D02*
X196998628Y-88129999D01*
X197474819Y-88368094D02*
X196474819Y-88368094D01*
X196474819Y-88368094D02*
X196474819Y-87987142D01*
X196474819Y-87987142D02*
X196522438Y-87891904D01*
X196522438Y-87891904D02*
X196570057Y-87844285D01*
X196570057Y-87844285D02*
X196665295Y-87796666D01*
X196665295Y-87796666D02*
X196808152Y-87796666D01*
X196808152Y-87796666D02*
X196903390Y-87844285D01*
X196903390Y-87844285D02*
X196951009Y-87891904D01*
X196951009Y-87891904D02*
X196998628Y-87987142D01*
X196998628Y-87987142D02*
X196998628Y-88368094D01*
X196474819Y-86939523D02*
X196474819Y-87129999D01*
X196474819Y-87129999D02*
X196522438Y-87225237D01*
X196522438Y-87225237D02*
X196570057Y-87272856D01*
X196570057Y-87272856D02*
X196712914Y-87368094D01*
X196712914Y-87368094D02*
X196903390Y-87415713D01*
X196903390Y-87415713D02*
X197284342Y-87415713D01*
X197284342Y-87415713D02*
X197379580Y-87368094D01*
X197379580Y-87368094D02*
X197427200Y-87320475D01*
X197427200Y-87320475D02*
X197474819Y-87225237D01*
X197474819Y-87225237D02*
X197474819Y-87034761D01*
X197474819Y-87034761D02*
X197427200Y-86939523D01*
X197427200Y-86939523D02*
X197379580Y-86891904D01*
X197379580Y-86891904D02*
X197284342Y-86844285D01*
X197284342Y-86844285D02*
X197046247Y-86844285D01*
X197046247Y-86844285D02*
X196951009Y-86891904D01*
X196951009Y-86891904D02*
X196903390Y-86939523D01*
X196903390Y-86939523D02*
X196855771Y-87034761D01*
X196855771Y-87034761D02*
X196855771Y-87225237D01*
X196855771Y-87225237D02*
X196903390Y-87320475D01*
X196903390Y-87320475D02*
X196951009Y-87368094D01*
X196951009Y-87368094D02*
X197046247Y-87415713D01*
X197474819Y-109386666D02*
X196998628Y-109719999D01*
X197474819Y-109958094D02*
X196474819Y-109958094D01*
X196474819Y-109958094D02*
X196474819Y-109577142D01*
X196474819Y-109577142D02*
X196522438Y-109481904D01*
X196522438Y-109481904D02*
X196570057Y-109434285D01*
X196570057Y-109434285D02*
X196665295Y-109386666D01*
X196665295Y-109386666D02*
X196808152Y-109386666D01*
X196808152Y-109386666D02*
X196903390Y-109434285D01*
X196903390Y-109434285D02*
X196951009Y-109481904D01*
X196951009Y-109481904D02*
X196998628Y-109577142D01*
X196998628Y-109577142D02*
X196998628Y-109958094D01*
X196474819Y-108481904D02*
X196474819Y-108958094D01*
X196474819Y-108958094D02*
X196951009Y-109005713D01*
X196951009Y-109005713D02*
X196903390Y-108958094D01*
X196903390Y-108958094D02*
X196855771Y-108862856D01*
X196855771Y-108862856D02*
X196855771Y-108624761D01*
X196855771Y-108624761D02*
X196903390Y-108529523D01*
X196903390Y-108529523D02*
X196951009Y-108481904D01*
X196951009Y-108481904D02*
X197046247Y-108434285D01*
X197046247Y-108434285D02*
X197284342Y-108434285D01*
X197284342Y-108434285D02*
X197379580Y-108481904D01*
X197379580Y-108481904D02*
X197427200Y-108529523D01*
X197427200Y-108529523D02*
X197474819Y-108624761D01*
X197474819Y-108624761D02*
X197474819Y-108862856D01*
X197474819Y-108862856D02*
X197427200Y-108958094D01*
X197427200Y-108958094D02*
X197379580Y-109005713D01*
X197164819Y-99234523D02*
X197879104Y-99234523D01*
X197879104Y-99234523D02*
X198021961Y-99282142D01*
X198021961Y-99282142D02*
X198117200Y-99377380D01*
X198117200Y-99377380D02*
X198164819Y-99520237D01*
X198164819Y-99520237D02*
X198164819Y-99615475D01*
X197260057Y-98805951D02*
X197212438Y-98758332D01*
X197212438Y-98758332D02*
X197164819Y-98663094D01*
X197164819Y-98663094D02*
X197164819Y-98424999D01*
X197164819Y-98424999D02*
X197212438Y-98329761D01*
X197212438Y-98329761D02*
X197260057Y-98282142D01*
X197260057Y-98282142D02*
X197355295Y-98234523D01*
X197355295Y-98234523D02*
X197450533Y-98234523D01*
X197450533Y-98234523D02*
X197593390Y-98282142D01*
X197593390Y-98282142D02*
X198164819Y-98853570D01*
X198164819Y-98853570D02*
X198164819Y-98234523D01*
X197260057Y-97853570D02*
X197212438Y-97805951D01*
X197212438Y-97805951D02*
X197164819Y-97710713D01*
X197164819Y-97710713D02*
X197164819Y-97472618D01*
X197164819Y-97472618D02*
X197212438Y-97377380D01*
X197212438Y-97377380D02*
X197260057Y-97329761D01*
X197260057Y-97329761D02*
X197355295Y-97282142D01*
X197355295Y-97282142D02*
X197450533Y-97282142D01*
X197450533Y-97282142D02*
X197593390Y-97329761D01*
X197593390Y-97329761D02*
X198164819Y-97901189D01*
X198164819Y-97901189D02*
X198164819Y-97282142D01*
X206200476Y-105069819D02*
X206200476Y-105784104D01*
X206200476Y-105784104D02*
X206152857Y-105926961D01*
X206152857Y-105926961D02*
X206057619Y-106022200D01*
X206057619Y-106022200D02*
X205914762Y-106069819D01*
X205914762Y-106069819D02*
X205819524Y-106069819D01*
X206629048Y-105165057D02*
X206676667Y-105117438D01*
X206676667Y-105117438D02*
X206771905Y-105069819D01*
X206771905Y-105069819D02*
X207010000Y-105069819D01*
X207010000Y-105069819D02*
X207105238Y-105117438D01*
X207105238Y-105117438D02*
X207152857Y-105165057D01*
X207152857Y-105165057D02*
X207200476Y-105260295D01*
X207200476Y-105260295D02*
X207200476Y-105355533D01*
X207200476Y-105355533D02*
X207152857Y-105498390D01*
X207152857Y-105498390D02*
X206581429Y-106069819D01*
X206581429Y-106069819D02*
X207200476Y-106069819D01*
X208152857Y-106069819D02*
X207581429Y-106069819D01*
X207867143Y-106069819D02*
X207867143Y-105069819D01*
X207867143Y-105069819D02*
X207771905Y-105212676D01*
X207771905Y-105212676D02*
X207676667Y-105307914D01*
X207676667Y-105307914D02*
X207581429Y-105355533D01*
X206200476Y-84114819D02*
X206200476Y-84829104D01*
X206200476Y-84829104D02*
X206152857Y-84971961D01*
X206152857Y-84971961D02*
X206057619Y-85067200D01*
X206057619Y-85067200D02*
X205914762Y-85114819D01*
X205914762Y-85114819D02*
X205819524Y-85114819D01*
X206629048Y-84210057D02*
X206676667Y-84162438D01*
X206676667Y-84162438D02*
X206771905Y-84114819D01*
X206771905Y-84114819D02*
X207010000Y-84114819D01*
X207010000Y-84114819D02*
X207105238Y-84162438D01*
X207105238Y-84162438D02*
X207152857Y-84210057D01*
X207152857Y-84210057D02*
X207200476Y-84305295D01*
X207200476Y-84305295D02*
X207200476Y-84400533D01*
X207200476Y-84400533D02*
X207152857Y-84543390D01*
X207152857Y-84543390D02*
X206581429Y-85114819D01*
X206581429Y-85114819D02*
X207200476Y-85114819D01*
X207819524Y-84114819D02*
X207914762Y-84114819D01*
X207914762Y-84114819D02*
X208010000Y-84162438D01*
X208010000Y-84162438D02*
X208057619Y-84210057D01*
X208057619Y-84210057D02*
X208105238Y-84305295D01*
X208105238Y-84305295D02*
X208152857Y-84495771D01*
X208152857Y-84495771D02*
X208152857Y-84733866D01*
X208152857Y-84733866D02*
X208105238Y-84924342D01*
X208105238Y-84924342D02*
X208057619Y-85019580D01*
X208057619Y-85019580D02*
X208010000Y-85067200D01*
X208010000Y-85067200D02*
X207914762Y-85114819D01*
X207914762Y-85114819D02*
X207819524Y-85114819D01*
X207819524Y-85114819D02*
X207724286Y-85067200D01*
X207724286Y-85067200D02*
X207676667Y-85019580D01*
X207676667Y-85019580D02*
X207629048Y-84924342D01*
X207629048Y-84924342D02*
X207581429Y-84733866D01*
X207581429Y-84733866D02*
X207581429Y-84495771D01*
X207581429Y-84495771D02*
X207629048Y-84305295D01*
X207629048Y-84305295D02*
X207676667Y-84210057D01*
X207676667Y-84210057D02*
X207724286Y-84162438D01*
X207724286Y-84162438D02*
X207819524Y-84114819D01*
X219072795Y-56029319D02*
X219072795Y-55029319D01*
X219072795Y-55505509D02*
X219644223Y-55505509D01*
X219644223Y-56029319D02*
X219644223Y-55029319D01*
X220644223Y-56029319D02*
X220072795Y-56029319D01*
X220358509Y-56029319D02*
X220358509Y-55029319D01*
X220358509Y-55029319D02*
X220263271Y-55172176D01*
X220263271Y-55172176D02*
X220168033Y-55267414D01*
X220168033Y-55267414D02*
X220072795Y-55315033D01*
X219094495Y-137136619D02*
X219094495Y-136136619D01*
X219094495Y-136612809D02*
X219665923Y-136612809D01*
X219665923Y-137136619D02*
X219665923Y-136136619D01*
X220570685Y-136469952D02*
X220570685Y-137136619D01*
X220332590Y-136089000D02*
X220094495Y-136803285D01*
X220094495Y-136803285D02*
X220713542Y-136803285D01*
X30988095Y-137155319D02*
X30988095Y-136155319D01*
X30988095Y-136631509D02*
X31559523Y-136631509D01*
X31559523Y-137155319D02*
X31559523Y-136155319D01*
X31940476Y-136155319D02*
X32559523Y-136155319D01*
X32559523Y-136155319D02*
X32226190Y-136536271D01*
X32226190Y-136536271D02*
X32369047Y-136536271D01*
X32369047Y-136536271D02*
X32464285Y-136583890D01*
X32464285Y-136583890D02*
X32511904Y-136631509D01*
X32511904Y-136631509D02*
X32559523Y-136726747D01*
X32559523Y-136726747D02*
X32559523Y-136964842D01*
X32559523Y-136964842D02*
X32511904Y-137060080D01*
X32511904Y-137060080D02*
X32464285Y-137107700D01*
X32464285Y-137107700D02*
X32369047Y-137155319D01*
X32369047Y-137155319D02*
X32083333Y-137155319D01*
X32083333Y-137155319D02*
X31988095Y-137107700D01*
X31988095Y-137107700D02*
X31940476Y-137060080D01*
X30988095Y-56025919D02*
X30988095Y-55025919D01*
X30988095Y-55502109D02*
X31559523Y-55502109D01*
X31559523Y-56025919D02*
X31559523Y-55025919D01*
X31988095Y-55121157D02*
X32035714Y-55073538D01*
X32035714Y-55073538D02*
X32130952Y-55025919D01*
X32130952Y-55025919D02*
X32369047Y-55025919D01*
X32369047Y-55025919D02*
X32464285Y-55073538D01*
X32464285Y-55073538D02*
X32511904Y-55121157D01*
X32511904Y-55121157D02*
X32559523Y-55216395D01*
X32559523Y-55216395D02*
X32559523Y-55311633D01*
X32559523Y-55311633D02*
X32511904Y-55454490D01*
X32511904Y-55454490D02*
X31940476Y-56025919D01*
X31940476Y-56025919D02*
X32559523Y-56025919D01*
D15*
%TO.C,J26*%
X140670000Y-115630000D02*
X134700000Y-115630000D01*
X134700000Y-115630000D02*
X134700000Y-125750000D01*
X136960000Y-115640000D02*
X136960000Y-116390000D01*
X135460000Y-115640000D02*
X134710000Y-115640000D01*
X134710000Y-115640000D02*
X134710000Y-117440000D01*
X139910000Y-116390000D02*
X139910000Y-120690000D01*
X136960000Y-116390000D02*
X139910000Y-116390000D01*
X135460000Y-117440000D02*
X135460000Y-115640000D01*
X134710000Y-117440000D02*
X135460000Y-117440000D01*
X135460000Y-118940000D02*
X134710000Y-118940000D01*
X134710000Y-118940000D02*
X134710000Y-122440000D01*
X135460000Y-122440000D02*
X135460000Y-118940000D01*
X134710000Y-122440000D02*
X135460000Y-122440000D01*
X135460000Y-123940000D02*
X134710000Y-123940000D01*
X134710000Y-123940000D02*
X134710000Y-125740000D01*
X134410000Y-124790000D02*
X134410000Y-126040000D01*
X139910000Y-124990000D02*
X139910000Y-120690000D01*
X136960000Y-124990000D02*
X139910000Y-124990000D01*
X136960000Y-125740000D02*
X136960000Y-124990000D01*
X135460000Y-125740000D02*
X135460000Y-123940000D01*
X134710000Y-125740000D02*
X135460000Y-125740000D01*
X140670000Y-125750000D02*
X140670000Y-115630000D01*
X134700000Y-125750000D02*
X140670000Y-125750000D01*
X134410000Y-126040000D02*
X135660000Y-126040000D01*
%TO.C,J8*%
X129600000Y-73600000D02*
X129600000Y-74930000D01*
X128270000Y-73600000D02*
X129600000Y-73600000D01*
X127000000Y-73600000D02*
X99000000Y-73600000D01*
X127000000Y-73600000D02*
X127000000Y-76200000D01*
X99000000Y-73600000D02*
X99000000Y-78800000D01*
X129600000Y-76200000D02*
X129600000Y-78800000D01*
X127000000Y-76200000D02*
X129600000Y-76200000D01*
X129600000Y-78800000D02*
X99000000Y-78800000D01*
%TO.C,J3*%
X129600000Y-124520000D02*
X96460000Y-124520000D01*
X127000000Y-121920000D02*
X129600000Y-121920000D01*
X129600000Y-121920000D02*
X129600000Y-124520000D01*
X96460000Y-119320000D02*
X96460000Y-124520000D01*
X127000000Y-119320000D02*
X127000000Y-121920000D01*
X127000000Y-119320000D02*
X96460000Y-119320000D01*
X128270000Y-119320000D02*
X129600000Y-119320000D01*
X129600000Y-119320000D02*
X129600000Y-120650000D01*
D14*
%TO.C,U7*%
X99160000Y-113275000D02*
G75*
G02*
X98960000Y-113275000I-100000J0D01*
G01*
X98960000Y-113275000D02*
G75*
G02*
X99160000Y-113275000I100000J0D01*
G01*
D16*
X140050000Y-84195000D02*
X140050000Y-112705000D01*
X89100000Y-84195000D02*
X140050000Y-84195000D01*
X89100000Y-84195000D02*
X140050000Y-84195000D01*
X140050000Y-89645000D02*
X140050000Y-84195000D01*
X89100000Y-94925000D02*
X89100000Y-84195000D01*
X89100000Y-101636000D02*
X89100000Y-94925000D01*
X140050000Y-107335000D02*
X140050000Y-89645000D01*
X140050000Y-112705000D02*
X140050000Y-107335000D01*
X140050000Y-112705000D02*
X89100000Y-112705000D01*
X140050000Y-112705000D02*
X89100000Y-112705000D01*
X89100000Y-112705000D02*
X89100000Y-84195000D01*
X89100000Y-112705000D02*
X89100000Y-101636000D01*
%TO.C,U15*%
D10*
X194355000Y-95375000D02*
X152355000Y-95375000D01*
X152355000Y-63375000D01*
X194355000Y-63375000D01*
X194355000Y-95375000D01*
X190881000Y-81917000D02*
X188341000Y-81917000D01*
X188341000Y-76837000D01*
X190881000Y-76837000D01*
X190881000Y-81917000D01*
X158504489Y-81915000D02*
X155964489Y-81915000D01*
X155964489Y-76835000D01*
X158504489Y-76835000D01*
X158504489Y-81915000D01*
D15*
%TO.C,J27*%
X30270000Y-87225000D02*
X31520000Y-87225000D01*
X30560000Y-86935000D02*
X36530000Y-86935000D01*
X36530000Y-86935000D02*
X36530000Y-76815000D01*
X30570000Y-86925000D02*
X31320000Y-86925000D01*
X31320000Y-86925000D02*
X31320000Y-85125000D01*
X32820000Y-86925000D02*
X32820000Y-86175000D01*
X32820000Y-86175000D02*
X35770000Y-86175000D01*
X35770000Y-86175000D02*
X35770000Y-81875000D01*
X30270000Y-85975000D02*
X30270000Y-87225000D01*
X30570000Y-85125000D02*
X30570000Y-86925000D01*
X31320000Y-85125000D02*
X30570000Y-85125000D01*
X30570000Y-83625000D02*
X31320000Y-83625000D01*
X31320000Y-83625000D02*
X31320000Y-80125000D01*
X30570000Y-80125000D02*
X30570000Y-83625000D01*
X31320000Y-80125000D02*
X30570000Y-80125000D01*
X30570000Y-78625000D02*
X31320000Y-78625000D01*
X31320000Y-78625000D02*
X31320000Y-76825000D01*
X32820000Y-77575000D02*
X35770000Y-77575000D01*
X35770000Y-77575000D02*
X35770000Y-81875000D01*
X30570000Y-76825000D02*
X30570000Y-78625000D01*
X31320000Y-76825000D02*
X30570000Y-76825000D01*
X32820000Y-76825000D02*
X32820000Y-77575000D01*
X30560000Y-76815000D02*
X30560000Y-86935000D01*
X36530000Y-76815000D02*
X30560000Y-76815000D01*
%TO.C,J25*%
X134410000Y-82225000D02*
X135660000Y-82225000D01*
X134700000Y-81935000D02*
X140670000Y-81935000D01*
X140670000Y-81935000D02*
X140670000Y-71815000D01*
X134710000Y-81925000D02*
X135460000Y-81925000D01*
X135460000Y-81925000D02*
X135460000Y-80125000D01*
X136960000Y-81925000D02*
X136960000Y-81175000D01*
X136960000Y-81175000D02*
X139910000Y-81175000D01*
X139910000Y-81175000D02*
X139910000Y-76875000D01*
X134410000Y-80975000D02*
X134410000Y-82225000D01*
X134710000Y-80125000D02*
X134710000Y-81925000D01*
X135460000Y-80125000D02*
X134710000Y-80125000D01*
X134710000Y-78625000D02*
X135460000Y-78625000D01*
X135460000Y-78625000D02*
X135460000Y-75125000D01*
X134710000Y-75125000D02*
X134710000Y-78625000D01*
X135460000Y-75125000D02*
X134710000Y-75125000D01*
X134710000Y-73625000D02*
X135460000Y-73625000D01*
X135460000Y-73625000D02*
X135460000Y-71825000D01*
X136960000Y-72575000D02*
X139910000Y-72575000D01*
X139910000Y-72575000D02*
X139910000Y-76875000D01*
X134710000Y-71825000D02*
X134710000Y-73625000D01*
X135460000Y-71825000D02*
X134710000Y-71825000D01*
X136960000Y-71825000D02*
X136960000Y-72575000D01*
X134700000Y-71815000D02*
X134700000Y-81935000D01*
X140670000Y-71815000D02*
X134700000Y-71815000D01*
%TO.C,J24*%
X30270000Y-120880000D02*
X31520000Y-120880000D01*
X30560000Y-120590000D02*
X36530000Y-120590000D01*
X36530000Y-120590000D02*
X36530000Y-110470000D01*
X30570000Y-120580000D02*
X31320000Y-120580000D01*
X31320000Y-120580000D02*
X31320000Y-118780000D01*
X32820000Y-120580000D02*
X32820000Y-119830000D01*
X32820000Y-119830000D02*
X35770000Y-119830000D01*
X35770000Y-119830000D02*
X35770000Y-115530000D01*
X30270000Y-119630000D02*
X30270000Y-120880000D01*
X30570000Y-118780000D02*
X30570000Y-120580000D01*
X31320000Y-118780000D02*
X30570000Y-118780000D01*
X30570000Y-117280000D02*
X31320000Y-117280000D01*
X31320000Y-117280000D02*
X31320000Y-113780000D01*
X30570000Y-113780000D02*
X30570000Y-117280000D01*
X31320000Y-113780000D02*
X30570000Y-113780000D01*
X30570000Y-112280000D02*
X31320000Y-112280000D01*
X31320000Y-112280000D02*
X31320000Y-110480000D01*
X32820000Y-111230000D02*
X35770000Y-111230000D01*
X35770000Y-111230000D02*
X35770000Y-115530000D01*
X30570000Y-110480000D02*
X30570000Y-112280000D01*
X31320000Y-110480000D02*
X30570000Y-110480000D01*
X32820000Y-110480000D02*
X32820000Y-111230000D01*
X30560000Y-110470000D02*
X30560000Y-120590000D01*
X36530000Y-110470000D02*
X30560000Y-110470000D01*
%TO.C,U8*%
D10*
X44992989Y-118518800D02*
X42452989Y-118518800D01*
X42452989Y-113438800D01*
X44992989Y-113438800D01*
X44992989Y-118518800D01*
X78131500Y-118518800D02*
X75591500Y-118518800D01*
X75591500Y-113438800D01*
X78131500Y-113438800D01*
X78131500Y-118518800D01*
X81351500Y-131978800D02*
X39351500Y-131978800D01*
X39351500Y-99978800D01*
X81351500Y-99978800D01*
X81351500Y-131978800D01*
%TO.C,U9*%
X48649800Y-83692000D02*
X46109800Y-83692000D01*
X46109800Y-78612000D01*
X48649800Y-78612000D01*
X48649800Y-83692000D01*
X79891800Y-83692000D02*
X77351800Y-83692000D01*
X77351800Y-78612000D01*
X79891800Y-78612000D01*
X79891800Y-83692000D01*
D14*
X81111800Y-95152000D02*
X43111800Y-95152000D01*
X43111800Y-67152000D01*
X81111800Y-67152000D01*
X81111800Y-95152000D01*
%TO.C,U11*%
D10*
X194355000Y-135380000D02*
X152355000Y-135380000D01*
X152355000Y-103380000D01*
X194355000Y-103380000D01*
X194355000Y-135380000D01*
X190881000Y-121922000D02*
X188341000Y-121922000D01*
X188341000Y-116842000D01*
X190881000Y-116842000D01*
X190881000Y-121922000D01*
X158250489Y-121920000D02*
X155710489Y-121920000D01*
X155710489Y-116840000D01*
X158250489Y-116840000D01*
X158250489Y-121920000D01*
D15*
%TO.C,R6*%
X198020000Y-90900000D02*
X198020000Y-84360000D01*
X198350000Y-90900000D02*
X198020000Y-90900000D01*
X200430000Y-90900000D02*
X200760000Y-90900000D01*
X200760000Y-90900000D02*
X200760000Y-84360000D01*
X198020000Y-84360000D02*
X198350000Y-84360000D01*
X200760000Y-84360000D02*
X200430000Y-84360000D01*
%TO.C,R5*%
X198020000Y-112490000D02*
X198020000Y-105950000D01*
X198350000Y-112490000D02*
X198020000Y-112490000D01*
X200430000Y-112490000D02*
X200760000Y-112490000D01*
X200760000Y-112490000D02*
X200760000Y-105950000D01*
X198020000Y-105950000D02*
X198350000Y-105950000D01*
X200760000Y-105950000D02*
X200430000Y-105950000D01*
%TO.C,J22*%
X198710000Y-102605000D02*
X205450000Y-102605000D01*
X198710000Y-102605000D02*
X198710000Y-94245000D01*
X200430000Y-102605000D02*
X200430000Y-94245000D01*
X203530000Y-102605000D02*
X203530000Y-94245000D01*
X204530000Y-102605000D02*
X204530000Y-94245000D01*
X205450000Y-102605000D02*
X205450000Y-101265000D01*
X205450000Y-100665000D02*
X205450000Y-94245000D01*
X198710000Y-94245000D02*
X205450000Y-94245000D01*
X206060000Y-101405000D02*
X205450000Y-100965000D01*
X206060000Y-100525000D01*
X206060000Y-101405000D01*
G36*
X206060000Y-101405000D02*
G01*
X205450000Y-100965000D01*
X206060000Y-100525000D01*
X206060000Y-101405000D01*
G37*
%TO.C,J21*%
X205680000Y-106615000D02*
X207010000Y-106615000D01*
X205680000Y-107945000D02*
X205680000Y-106615000D01*
X205680000Y-109215000D02*
X205680000Y-111815000D01*
X205680000Y-109215000D02*
X208340000Y-109215000D01*
X205680000Y-111815000D02*
X208340000Y-111815000D01*
X208340000Y-109215000D02*
X208340000Y-111815000D01*
%TO.C,J20*%
X205680000Y-85660000D02*
X207010000Y-85660000D01*
X205680000Y-86990000D02*
X205680000Y-85660000D01*
X205680000Y-88260000D02*
X205680000Y-90860000D01*
X205680000Y-88260000D02*
X208340000Y-88260000D01*
X205680000Y-90860000D02*
X208340000Y-90860000D01*
X208340000Y-88260000D02*
X208340000Y-90860000D01*
%TD*%
M02*
