M48
; DRILL file {KiCad 9.0.0} date 2025-05-24T14:05:29+0200
; FORMAT={-:-/ absolute / inch / decimal}
; #@! TF.CreationDate,2025-05-24T14:05:29+02:00
; #@! TF.GenerationSoftware,Kicad,Pcbnew,9.0.0
; #@! TF.FileFunction,Plated,1,2,PTH
FMAT,2
INCH
; #@! TA.AperFunction,Plated,PTH,ViaDrill
T1C0.0118
; #@! TA.AperFunction,Plated,PTH,ComponentDrill
T2C0.0300
; #@! TA.AperFunction,Plated,PTH,ComponentDrill
T3C0.0315
; #@! TA.AperFunction,Plated,PTH,ComponentDrill
T4C0.0374
; #@! TA.AperFunction,Plated,PTH,ComponentDrill
T5C0.0394
; #@! TA.AperFunction,Plated,PTH,ComponentDrill
T6C0.0402
; #@! TA.AperFunction,Plated,PTH,ComponentDrill
T7C0.0433
; #@! TA.AperFunction,Plated,PTH,ComponentDrill
T8C0.0472
%
G90
G05
T1
X1.4035Y-4.3576
X2.0998Y-2.5031
X2.2162Y-5.2811
X2.3321Y-4.3556
X2.5337Y-4.734
X2.5667Y-4.7012
X4.509Y-3.0977
X4.5873Y-3.1159
X4.7329Y-3.1207
X5.4766Y-4.3551
X5.7095Y-4.4182
X5.8566Y-4.5403
X6.3206Y-3.1976
X6.325Y-3.125
X6.3451Y-2.9799
X6.8428Y-3.3134
X6.8428Y-4.825
X6.8739Y-4.5557
X7.075Y-5.05
X7.116Y-2.9754
X7.3396Y-4.5866
X7.4992Y-3.5169
X7.8054Y-4.2394
X8.1627Y-3.2055
X8.2712Y-2.8504
X8.325Y-3.75
X8.55Y-3.35
T2
X7.25Y-2.5756
X7.25Y-2.6756
X7.25Y-2.7756
X7.25Y-2.8756
X7.25Y-2.9756
X7.5Y-2.4256
X7.5Y-3.1256
X7.6Y-2.4256
X7.6Y-3.1256
X7.7Y-2.4256
X7.7Y-3.1256
X7.8Y-2.4256
X7.8Y-3.1256
X7.9Y-2.4256
X7.9Y-3.1256
X8.0Y-2.4256
X8.0Y-3.1256
X8.1Y-2.4256
X8.1Y-3.1256
X8.2Y-2.4256
X8.2Y-3.1256
X8.3Y-2.4256
X8.3Y-3.1256
X8.4Y-2.4256
X8.4Y-3.1256
T3
X1.675Y-5.375
X1.975Y-5.375
X2.1Y-5.375
X2.4Y-5.375
X2.475Y-2.575
X2.475Y-2.825
X2.775Y-2.575
X2.775Y-2.825
X7.85Y-3.3
X7.85Y-3.6
X7.85Y-4.15
X7.85Y-4.45
T4
X1.3Y-3.125
X1.3Y-3.2234
X1.3Y-3.3219
X1.3Y-4.45
X1.3Y-4.5484
X1.3Y-4.6469
X2.2043Y-2.5516
X2.2043Y-2.65
X2.2043Y-2.7484
X5.4Y-2.9281
X5.4Y-3.0266
X5.4Y-3.125
X5.4Y-4.6531
X5.4Y-4.7516
X5.4Y-4.85
T5
X1.905Y-3.2752
X1.905Y-3.3752
X3.3266Y-5.35
X3.425Y-5.35
X3.85Y-4.75
X3.85Y-4.85
X3.95Y-2.95
X3.95Y-3.05
X3.95Y-4.75
X3.95Y-4.85
X4.025Y-5.375
X4.05Y-2.95
X4.05Y-3.05
X4.05Y-4.75
X4.05Y-4.85
X4.1234Y-5.375
X4.15Y-2.95
X4.15Y-3.05
X4.15Y-4.75
X4.15Y-4.85
X4.25Y-2.95
X4.25Y-3.05
X4.25Y-4.75
X4.25Y-4.85
X4.35Y-2.95
X4.35Y-3.05
X4.35Y-4.75
X4.35Y-4.85
X4.45Y-2.95
X4.45Y-3.05
X4.45Y-4.75
X4.45Y-4.85
X4.55Y-2.95
X4.55Y-3.05
X4.55Y-4.75
X4.55Y-4.85
X4.65Y-2.95
X4.65Y-3.05
X4.65Y-4.75
X4.65Y-4.85
X4.75Y-2.95
X4.75Y-3.05
X4.75Y-4.75
X4.75Y-4.85
X4.85Y-2.95
X4.85Y-3.05
X4.85Y-4.75
X4.85Y-4.85
X4.95Y-2.95
X4.95Y-3.05
X4.95Y-4.75
X4.95Y-4.85
X5.05Y-2.95
X5.05Y-3.05
X5.05Y-4.75
X5.05Y-4.85
X5.7248Y-5.15
X5.7252Y-2.65
X5.8248Y-5.15
X5.8252Y-2.65
X6.975Y-5.2
X6.975Y-5.3
X7.2073Y-5.2422
X7.2073Y-4.8422
X7.2073Y-4.9422
X7.2073Y-5.0422
X7.2073Y-5.1422
X8.15Y-3.4248
X8.15Y-3.5248
X8.15Y-4.2498
X8.15Y-4.3498
X8.4Y-3.4
X8.4Y-3.5
X8.4Y-3.61
X8.4Y-3.71
X8.4Y-3.81
X8.4Y-3.91
X8.4Y-4.01
X8.4Y-4.11
X8.4Y-4.21
X8.4Y-4.31
T6
X2.145Y-4.15
X2.155Y-3.125
X2.155Y-3.225
X2.155Y-3.325
X2.155Y-3.425
X2.155Y-3.525
X2.245Y-4.15
X2.245Y-5.011
X2.345Y-4.15
X2.345Y-5.011
X2.445Y-4.15
X2.445Y-5.011
X2.545Y-4.15
X2.545Y-5.011
X2.645Y-4.15
X2.645Y-5.011
X2.745Y-5.011
X3.9Y-3.375
X3.9Y-4.375
X4.0Y-3.375
X4.0Y-4.375
X4.1Y-3.375
X4.1Y-4.375
X4.2Y-3.375
X4.2Y-4.375
X4.3Y-3.375
X4.3Y-4.375
X4.4Y-3.375
X4.4Y-4.375
X4.5Y-3.375
X4.5Y-4.375
X4.6Y-3.375
X4.6Y-4.375
X4.7Y-3.375
X4.7Y-4.375
X4.8Y-3.375
X4.8Y-4.375
X4.9Y-3.375
X4.9Y-4.375
X5.0Y-3.375
X5.0Y-4.375
X5.1Y-3.375
X5.1Y-4.375
X5.2Y-3.375
X5.2Y-4.375
X5.3Y-3.375
X5.3Y-4.375
X5.9752Y-4.94
X6.0752Y-4.94
X6.175Y-2.86
X6.1752Y-4.94
X6.275Y-2.86
X6.2752Y-4.94
X6.3752Y-4.94
X6.3774Y-2.86
X6.4752Y-4.94
X6.4774Y-2.86
X6.5752Y-4.94
X6.6752Y-4.94
T7
X2.6Y-5.3628
X2.7Y-5.3628
X2.8Y-5.3628
T8
X7.95Y-3.775
X7.95Y-3.875
X7.95Y-3.975
M30
